<?xml version="1.0" encoding="UTF-8" standalone="no"?>
<!DOCTYPE svg PUBLIC "-//W3C//DTD SVG 1.1//EN" "http://www.w3.org/Graphics/SVG/1.1/DTD/svg11.dtd">
<svg version="1.1" xmlns="http://www.w3.org/2000/svg" xmlns:xlink="http://www.w3.org/1999/xlink" preserveAspectRatio="xMidYMid meet" viewBox="0 0 1027.8 350" width="1027.8" height="350"><defs><path d="M-130.93 392.42L1012.65 392.42L1012.65 -47.73L-130.93 -47.73L-130.93 392.42Z" id="d5jExpb5du"></path><path d="M652.32 313.82C652.32 317.85 647.09 321.11 640.63 321.11C625.63 321.11 505.62 321.11 490.62 321.11C484.16 321.11 478.93 317.85 478.93 313.82C478.93 304.67 478.93 231.46 478.93 222.31C478.93 218.28 484.16 215.02 490.62 215.02C495.95 215.02 538.6 215.02 543.93 215.02C543.25 212.59 544.56 210.05 547.79 208.45C548.07 208.31 548.37 208.22 548.65 208.1C548.73 208.74 549.32 213.8 549.39 214.43C549.39 214.43 551.43 216.03 555.08 215.67C556.75 215.5 559.68 214.54 560.28 212.94C559.88 212.35 556.65 207.67 556.25 207.09C558.99 207.35 561.63 208.24 563.52 209.72C565.52 211.29 566.3 213.21 565.97 215.02C573.43 215.02 633.16 215.02 640.63 215.02C647.09 215.02 652.32 218.28 652.32 222.31C652.32 240.61 652.32 295.52 652.32 313.82ZM464.44 198.02C414.65 198.02 386.99 198.02 381.46 198.02C373.23 198.02 366.56 193.86 366.56 188.73C366.56 179.82 366.56 108.54 366.56 99.62C366.56 94.49 373.23 90.33 381.46 90.33C388.35 90.33 443.46 90.33 450.35 90.33C451.21 86.97 455.72 84.4 461.2 84.4C461.55 84.4 461.88 84.44 462.21 84.46C461.64 84.99 457.05 89.18 456.48 89.7C456.48 89.7 456.48 91.74 459.69 92.88C461.17 93.39 464.42 93.78 466.49 92.76C466.76 92.14 468.91 87.23 469.17 86.61C470.67 87.62 471.69 88.9 472.05 90.33C477.29 90.33 519.14 90.33 524.37 90.33C532.6 90.33 539.28 94.49 539.28 99.62C539.28 104.99 539.28 147.91 539.28 153.27C539.28 156.17 538.8 158.99 537.95 161.74C537.95 161.74 537.97 161.74 537.97 161.74C537.97 161.74 533.47 187.02 491.59 195.38C484.05 197.06 475.96 198.02 467.5 198.02C467.09 198.02 466.07 198.02 464.44 198.02ZM439.48 324.58C438.71 328.58 432.88 331.43 426.47 330.95C411.58 329.83 292.44 320.87 277.55 319.75C271.13 319.26 266.56 315.63 267.34 311.63C269.09 302.55 283.16 229.87 284.91 220.78C285.69 216.78 291.51 213.93 297.92 214.42C312.82 215.54 431.96 224.5 446.85 225.62C453.26 226.1 457.83 229.73 457.06 233.73C453.54 251.9 441.24 315.5 439.48 324.58ZM475.15 81.34C475.15 83.57 472.33 85.38 468.86 85.38C465.39 85.38 462.58 83.57 462.58 81.34C462.58 79.11 465.39 77.29 468.86 77.29C472.33 77.29 475.15 79.11 475.15 81.34ZM555.66 200.64C557.89 202.39 557.49 204.9 554.78 206.25C552.06 207.59 548.05 207.27 545.82 205.52C543.59 203.77 543.99 201.26 546.71 199.91C549.42 198.57 553.43 198.89 555.66 200.64ZM305.01 86.47C305.01 84.24 307.82 82.43 311.29 82.43C314.77 82.43 317.58 84.24 317.58 86.47C317.58 88.71 314.77 90.52 311.29 90.52C307.82 90.52 305.01 88.71 305.01 86.47ZM857.81 183.26C833.88 156.66 771.18 155.81 739.02 159.86C739.02 163.41 739.02 191.78 739.02 195.32C739.02 199.35 733.78 202.61 727.32 202.61C712.32 202.61 592.32 202.61 577.32 202.61C570.86 202.61 565.62 199.35 565.62 195.32C565.62 186.17 565.62 112.96 565.62 103.81C565.62 99.78 570.86 96.52 577.32 96.52C584.78 96.52 644.45 96.52 651.9 96.52C651.83 96.19 651.75 95.85 651.75 95.5C651.75 91.58 656.69 88.4 662.78 88.4C663.13 88.4 663.46 88.45 663.8 88.46C663.92 88.35 664.9 87.46 665.02 87.35C664.49 86.76 664.16 86.08 664.16 85.34C664.16 83.11 666.97 81.3 670.45 81.3C673.91 81.3 676.73 83.11 676.73 85.34C676.73 87.38 674.37 89.06 671.32 89.33C671.26 89.46 670.81 90.49 670.76 90.62C672.64 91.89 673.82 93.6 673.82 95.5C673.82 95.85 673.73 96.19 673.66 96.52C678.73 96.52 719.31 96.52 724.39 96.52C720.56 79.58 709.9 62.92 683.79 51.69C606.46 18.44 505.83 61.89 489.83 71.86C473.83 81.84 424.76 0.14 311.43 7.8C239.62 12.65 195.57 53.22 197.67 91.48C207.51 91.48 286.23 91.48 296.07 91.48C298.05 90.28 300.7 89.53 303.63 89.53C303.98 89.53 304.31 89.57 304.65 89.6C304.07 90.12 299.48 94.31 298.91 94.84C298.91 94.84 298.91 96.88 302.12 98.01C303.6 98.53 306.85 98.91 308.92 97.89C309.19 97.28 311.34 92.36 311.61 91.74C312.04 92.03 312.44 92.34 312.79 92.67C315.99 93.97 318.11 96.21 318.11 98.77C318.11 107.92 318.11 181.13 318.11 190.28C318.11 194.31 312.87 197.57 306.41 197.57C291.41 197.57 171.41 197.57 156.41 197.57C149.95 197.57 144.71 194.31 144.71 190.28C144.71 183.15 144.71 126.12 144.71 118.99C101.36 114.3 48.84 116 22.78 153.07C-29.21 227.05 124.04 297.64 124.04 297.64C248.04 354 615.82 343.02 764.34 310.51C847.31 292.35 892.79 222.11 857.81 183.26" id="d1CQBHvK5"></path><path d="M776.48 151.78C792.7 151.78 805.84 143.58 805.84 133.46C805.84 123.35 792.7 115.15 776.48 115.15C760.26 115.15 747.11 123.35 747.11 133.46C747.11 143.58 760.26 151.78 776.48 151.78" id="a1ycfbcqWK"></path><path d="M94.01 76.54C105.17 76.54 114.21 70.9 114.21 63.94C114.21 56.98 105.17 51.34 94.01 51.34C82.85 51.34 73.8 56.98 73.8 63.94C73.8 70.9 82.85 76.54 94.01 76.54" id="c38PLFjNxT"></path><path d="M143.52 96.63C143.52 94.73 144.7 93.02 146.58 91.74C146.53 91.62 146.08 90.59 146.02 90.46C142.97 90.18 140.61 88.51 140.61 86.47C140.61 84.24 143.42 82.43 146.9 82.43C150.37 82.43 153.18 84.24 153.18 86.47C153.18 87.2 152.85 87.88 152.32 88.48C152.44 88.59 153.42 89.48 153.54 89.6C153.88 89.57 154.21 89.53 154.56 89.53C157.49 89.53 160.14 90.28 162.12 91.48C163.81 91.48 177.34 91.48 179.03 91.48C188.94 75.31 186.81 53.01 162.68 44.91C125.22 32.33 153.25 74.5 128.59 77.88C103.93 81.25 61.33 74.96 63.57 89.64C65.62 103.06 112.68 112.43 144.71 110.17C144.71 109.13 144.71 100.82 144.71 99.78C143.98 98.83 143.52 97.77 143.52 96.63" id="a28APqKX6i"></path><path d="M464.44 198.02C466.27 198.02 467.3 198.02 467.5 198.02C475.96 198.02 484.05 197.06 491.59 195.38C483.88 196.92 474.9 197.89 464.44 198.02" id="d1VW6hIvFu"></path><path d="M412.33 180.38C411.89 180.38 411.52 180.16 411.52 179.88C411.52 179.6 411.89 179.38 412.33 179.38C418.61 179.38 468.87 179.38 475.15 179.38C475.59 179.38 475.96 179.6 475.96 179.88C475.96 180.16 475.59 180.38 475.15 180.38C462.59 180.38 418.61 180.38 412.33 180.38ZM383.16 149.77C383.16 146.93 386.86 144.63 391.41 144.63C395.96 144.63 399.65 146.93 399.65 149.77C399.65 152.61 395.96 154.91 391.41 154.91C386.86 154.91 383.16 152.61 383.16 149.77ZM384.94 104.84C384.94 102.61 387.84 100.81 391.41 100.81C394.98 100.81 397.88 102.61 397.88 104.84C397.88 108.09 397.88 134.07 397.88 137.32C397.88 139.55 394.98 141.36 391.41 141.36C387.84 141.36 384.94 139.55 384.94 137.32C384.94 130.83 384.94 111.34 384.94 104.84ZM491.7 161.23C492.15 161.23 492.51 161.46 492.51 161.74C492.51 162.01 492.15 162.24 491.7 162.24C483.76 162.24 420.27 162.24 412.33 162.24C411.89 162.24 411.52 162.01 411.52 161.74C411.52 161.46 411.89 161.23 412.33 161.23C428.21 161.23 483.76 161.23 491.7 161.23ZM512.83 143.67C513.27 143.67 513.64 143.9 513.64 144.18C513.64 144.46 513.27 144.68 512.83 144.68C502.79 144.68 422.52 144.68 412.49 144.68C412.04 144.68 411.68 144.46 411.68 144.18C411.68 143.9 412.04 143.67 412.49 143.67C432.55 143.67 502.79 143.67 512.83 143.67ZM512.83 125.88C513.27 125.88 513.64 126.1 513.64 126.38C513.64 126.66 513.27 126.88 512.83 126.88C502.79 126.88 422.52 126.88 412.49 126.88C412.04 126.88 411.68 126.66 411.68 126.38C411.68 126.1 412.04 125.88 412.49 125.88C432.55 125.88 502.79 125.88 512.83 125.88ZM515.12 111.12C515.56 111.12 515.93 111.35 515.93 111.63C515.93 111.9 515.56 112.13 515.12 112.13C505.09 112.13 424.81 112.13 414.77 112.13C414.33 112.13 413.96 111.9 413.96 111.63C413.96 111.35 414.33 111.12 414.77 111.12C434.84 111.12 505.09 111.12 515.12 111.12ZM498.13 161.74C522.02 161.74 535.3 161.74 537.95 161.74C538.8 158.99 539.28 156.17 539.28 153.27C539.28 147.91 539.28 104.99 539.28 99.62C539.28 94.49 532.6 90.33 524.37 90.33C519.14 90.33 477.29 90.33 472.05 90.33C472.15 90.71 472.23 91.1 472.23 91.5C472.23 95.42 467.29 98.6 461.2 98.6C459.55 98.6 458 98.35 456.59 97.93C456.3 98.31 453.98 101.32 453.69 101.7C453.55 101.88 453.26 101.99 452.96 101.99C452.84 101.99 452.73 101.97 452.61 101.94C452.21 101.82 452.04 101.52 452.23 101.26C452.53 100.88 454.88 97.82 455.17 97.43C452.16 96.17 450.17 93.98 450.17 91.5C450.17 91.1 450.25 90.71 450.35 90.33C443.46 90.33 388.35 90.33 381.46 90.33C373.23 90.33 366.56 94.49 366.56 99.62C366.56 108.54 366.56 179.82 366.56 188.73C366.56 193.86 373.23 198.02 381.46 198.02C389.76 198.02 456.14 198.02 464.44 198.02C464.44 198.02 476.7 190.09 481.26 185.04C492.72 172.33 498.13 161.74 498.13 161.74" id="jtCseKtew"></path><path d="M537.97 161.74C514.07 161.74 500.78 161.74 498.13 161.74C498.13 161.74 492.72 172.33 481.26 185.04C476.7 190.09 464.44 198.02 464.44 198.02C474.9 197.89 483.88 196.92 491.59 195.38C533.47 187.02 537.97 161.74 537.97 161.74" id="f3ULifBz7"></path><path d="M414.77 112.13C474.98 112.13 508.43 112.13 515.12 112.13C515.56 112.13 515.93 111.9 515.93 111.63C515.93 111.35 515.56 111.12 515.12 111.12C505.09 111.12 424.81 111.12 414.77 111.12C414.33 111.12 413.96 111.35 413.96 111.63C413.96 111.9 414.33 112.13 414.77 112.13" id="c4bOD8WwfT"></path><path d="M412.49 126.88C472.69 126.88 506.14 126.88 512.83 126.88C513.27 126.88 513.64 126.66 513.64 126.38C513.64 126.1 513.27 125.88 512.83 125.88C502.79 125.88 422.52 125.88 412.49 125.88C412.04 125.88 411.68 126.1 411.68 126.38C411.68 126.66 412.04 126.88 412.49 126.88" id="c73Dc5wJ4Q"></path><path d="M412.49 144.68C472.69 144.68 506.14 144.68 512.83 144.68C513.27 144.68 513.64 144.46 513.64 144.18C513.64 143.9 513.27 143.67 512.83 143.67C502.79 143.67 422.52 143.67 412.49 143.67C412.04 143.67 411.68 143.9 411.68 144.18C411.68 144.46 412.04 144.68 412.49 144.68" id="a2jtIMWk16"></path><path d="M412.33 162.24C459.95 162.24 486.41 162.24 491.7 162.24C492.15 162.24 492.51 162.01 492.51 161.74C492.51 161.46 492.15 161.23 491.7 161.23C483.76 161.23 420.27 161.23 412.33 161.23C411.89 161.23 411.52 161.46 411.52 161.74C411.52 162.01 411.89 162.24 412.33 162.24" id="c1sWaTLeXp"></path><path d="M475.15 179.38C437.46 179.38 416.52 179.38 412.33 179.38C411.89 179.38 411.52 179.6 411.52 179.88C411.52 180.16 411.89 180.38 412.33 180.38C418.61 180.38 468.87 180.38 475.15 180.38C475.59 180.38 475.96 180.16 475.96 179.88C475.96 179.6 475.59 179.38 475.15 179.38" id="bzNm0X7nO"></path><path d="M391.41 141.36C394.98 141.36 397.88 139.55 397.88 137.32C397.88 134.07 397.88 108.09 397.88 104.84C397.88 102.61 394.98 100.81 391.41 100.81C387.84 100.81 384.94 102.61 384.94 104.84C384.94 108.09 384.94 134.07 384.94 137.32C384.94 139.55 387.84 141.36 391.41 141.36" id="b4mgiTRb1V"></path><path d="M391.41 144.63C386.86 144.63 383.16 146.93 383.16 149.77C383.16 152.61 386.86 154.91 391.41 154.91C395.96 154.91 399.65 152.61 399.65 149.77C399.65 146.93 395.96 144.63 391.41 144.63" id="b1aAY9DXbn"></path><path d="M712.89 118.71C700.66 118.71 602.84 118.71 590.61 118.71C590.16 118.71 589.8 118.48 589.8 118.21C589.8 117.93 590.16 117.7 590.61 117.7C602.84 117.7 700.66 117.7 712.89 117.7C713.34 117.7 713.7 117.93 713.7 118.21C713.7 118.48 713.34 118.71 712.89 118.71ZM590.61 131.7C590.16 131.7 589.8 131.47 589.8 131.19C589.8 130.91 590.16 130.69 590.61 130.69C602.84 130.69 700.66 130.69 712.89 130.69C713.34 130.69 713.7 130.91 713.7 131.19C713.7 131.47 713.34 131.7 712.89 131.7C688.43 131.7 602.84 131.7 590.61 131.7ZM590.61 144.68C590.16 144.68 589.8 144.46 589.8 144.18C589.8 143.9 590.16 143.67 590.61 143.67C602.84 143.67 700.66 143.67 712.89 143.67C713.34 143.67 713.7 143.9 713.7 144.18C713.7 144.46 713.34 144.68 712.89 144.68C688.43 144.68 602.84 144.68 590.61 144.68ZM590.61 157.67C590.16 157.67 589.8 157.44 589.8 157.16C589.8 156.89 590.16 156.66 590.61 156.66C602.84 156.66 700.66 156.66 712.89 156.66C713.34 156.66 713.7 156.89 713.7 157.16C713.7 157.44 713.34 157.67 712.89 157.67C688.43 157.67 602.84 157.67 590.61 157.67ZM590.61 170.66C590.16 170.66 589.8 170.43 589.8 170.15C589.8 169.87 590.16 169.65 590.61 169.65C602.84 169.65 700.66 169.65 712.89 169.65C713.34 169.65 713.7 169.87 713.7 170.15C713.7 170.43 713.34 170.66 712.89 170.66C688.43 170.66 602.84 170.66 590.61 170.66ZM662.78 102.6C661.13 102.6 659.58 102.35 658.17 101.93C657.88 102.31 655.56 105.33 655.27 105.7C655.13 105.89 654.85 105.99 654.54 105.99C654.42 105.99 654.31 105.98 654.2 105.94C653.79 105.82 653.62 105.52 653.81 105.27C654.11 104.89 656.46 101.82 656.76 101.44C654.16 100.35 652.37 98.58 651.9 96.52C644.45 96.52 584.78 96.52 577.32 96.52C570.86 96.52 565.62 99.78 565.62 103.81C565.62 112.96 565.62 186.17 565.62 195.32C565.62 199.35 570.86 202.61 577.32 202.61C592.32 202.61 712.32 202.61 727.32 202.61C733.78 202.61 739.02 199.35 739.02 195.32C739.02 192.96 739.02 181.14 739.02 159.86C739.02 126.23 739.02 107.55 739.02 103.81C739.02 99.78 733.78 96.52 727.32 96.52C727.13 96.52 726.15 96.52 724.39 96.52C693.95 96.52 677.04 96.52 673.66 96.52C672.89 99.96 668.34 102.6 662.78 102.6" id="b2IMRlhxD"></path><path d="M590.61 117.7C590.16 117.7 589.8 117.93 589.8 118.21C589.8 118.48 590.16 118.71 590.61 118.71C602.84 118.71 700.66 118.71 712.89 118.71C713.34 118.71 713.7 118.48 713.7 118.21C713.7 117.93 713.34 117.7 712.89 117.7C704.74 117.7 663.98 117.7 590.61 117.7" id="a7kZFngv9"></path><path d="M712.89 130.69C639.52 130.69 598.76 130.69 590.61 130.69C590.16 130.69 589.8 130.91 589.8 131.19C589.8 131.47 590.16 131.7 590.61 131.7C602.84 131.7 700.66 131.7 712.89 131.7C713.34 131.7 713.7 131.47 713.7 131.19C713.7 130.91 713.34 130.69 712.89 130.69" id="e1ZG7cjP1"></path><path d="M712.89 143.67C639.52 143.67 598.76 143.67 590.61 143.67C590.16 143.67 589.8 143.9 589.8 144.18C589.8 144.46 590.16 144.68 590.61 144.68C602.84 144.68 700.66 144.68 712.89 144.68C713.34 144.68 713.7 144.46 713.7 144.18C713.7 143.9 713.34 143.67 712.89 143.67" id="e3MtwBgHd1"></path><path d="M712.89 156.66C639.52 156.66 598.76 156.66 590.61 156.66C590.16 156.66 589.8 156.89 589.8 157.16C589.8 157.44 590.16 157.67 590.61 157.67C602.84 157.67 700.66 157.67 712.89 157.67C713.34 157.67 713.7 157.44 713.7 157.16C713.7 156.89 713.34 156.66 712.89 156.66" id="aDzZ9jeln"></path><path d="M712.89 169.65C639.52 169.65 598.76 169.65 590.61 169.65C590.16 169.65 589.8 169.87 589.8 170.15C589.8 170.43 590.16 170.66 590.61 170.66C602.84 170.66 700.66 170.66 712.89 170.66C713.34 170.66 713.7 170.43 713.7 170.15C713.7 169.87 713.34 169.65 712.89 169.65" id="a8vp8sH76"></path><path d="M428.26 246.57C355.41 241.09 314.95 238.05 306.85 237.44C306.41 237.4 306.09 237.16 306.15 236.88C306.2 236.6 306.56 236.42 307.05 236.44C319.19 237.35 416.31 244.66 428.45 245.57C428.89 245.6 429.21 245.85 429.15 246.13C429.1 246.39 428.76 246.57 428.35 246.57C428.34 246.57 428.31 246.57 428.26 246.57ZM425.76 259.46C352.92 253.98 312.45 250.94 304.36 250.33C303.92 250.3 303.6 250.05 303.66 249.77C303.71 249.49 304.08 249.3 304.56 249.33C316.7 250.24 413.82 257.55 425.96 258.46C426.4 258.5 426.72 258.74 426.66 259.02C426.61 259.28 426.26 259.47 425.86 259.47C425.84 259.47 425.81 259.46 425.76 259.46ZM423.27 272.35C350.42 266.88 309.96 263.83 301.86 263.23C301.42 263.19 301.11 262.94 301.16 262.66C301.21 262.39 301.59 262.19 302.06 262.22C314.2 263.14 411.32 270.44 423.46 271.36C423.9 271.39 424.22 271.64 424.16 271.92C424.11 272.17 423.77 272.36 423.36 272.36C423.35 272.36 423.32 272.36 423.27 272.35ZM420.77 285.25C347.93 279.77 307.46 276.73 299.37 276.12C298.93 276.09 298.61 275.83 298.67 275.56C298.72 275.28 299.1 275.1 299.57 275.12C311.71 276.03 408.83 283.33 420.97 284.25C421.41 284.28 421.72 284.53 421.68 284.81C421.62 285.06 421.28 285.25 420.87 285.25C420.86 285.25 420.83 285.25 420.77 285.25ZM418.28 298.14C345.44 292.66 304.97 289.62 296.87 289.01C296.43 288.98 296.12 288.73 296.17 288.45C296.22 288.17 296.57 287.98 297.07 288.01C309.21 288.92 406.34 296.23 418.48 297.14C418.92 297.17 419.23 297.42 419.18 297.7C419.13 297.96 418.78 298.14 418.38 298.14C418.37 298.14 418.33 298.14 418.28 298.14ZM446.85 225.62C357.49 218.9 307.85 215.16 297.92 214.42C291.51 213.93 285.69 216.78 284.91 220.78C283.16 229.87 269.09 302.55 267.34 311.63C266.56 315.63 271.13 319.26 277.55 319.75C292.44 320.87 411.58 329.83 426.47 330.95C432.88 331.43 438.71 328.58 439.48 324.58C441.24 315.5 455.3 242.82 457.06 233.73C457.83 229.73 453.26 226.1 446.85 225.62" id="c1kZ6RtmJA"></path><path d="M428.45 245.57C355.61 240.09 315.14 237.05 307.05 236.44C306.56 236.42 306.2 236.6 306.15 236.88C306.09 237.16 306.41 237.4 306.85 237.44C314.95 238.05 355.41 241.09 428.26 246.57C428.31 246.57 428.34 246.57 428.35 246.57C428.76 246.57 429.1 246.39 429.15 246.13C429.21 245.85 428.89 245.6 428.45 245.57" id="d1Ca3ECzAN"></path><path d="M425.96 258.46C353.12 252.98 312.65 249.94 304.56 249.33C304.08 249.3 303.71 249.49 303.66 249.77C303.6 250.05 303.92 250.3 304.36 250.33C312.45 250.94 352.92 253.98 425.76 259.46C425.82 259.46 425.85 259.47 425.86 259.47C426.26 259.47 426.61 259.28 426.66 259.02C426.72 258.74 426.4 258.5 425.96 258.46" id="bhdAgb5iz"></path><path d="M423.46 271.36C350.62 265.88 310.15 262.83 302.06 262.22C301.59 262.19 301.21 262.39 301.16 262.66C301.11 262.94 301.42 263.19 301.86 263.23C309.96 263.83 350.42 266.88 423.27 272.35C423.32 272.36 423.36 272.36 423.36 272.36C423.77 272.36 424.11 272.17 424.16 271.92C424.22 271.64 423.9 271.39 423.46 271.36" id="b756PAAm0"></path><path d="M420.97 284.25C348.13 278.77 307.66 275.72 299.57 275.12C299.1 275.1 298.72 275.28 298.67 275.56C298.61 275.83 298.93 276.09 299.37 276.12C307.46 276.73 347.93 279.77 420.77 285.25C420.83 285.25 420.86 285.25 420.87 285.25C421.28 285.25 421.62 285.06 421.68 284.81C421.72 284.53 421.41 284.28 420.97 284.25" id="ak93pSPy7"></path><path d="M418.48 297.14C345.63 291.66 305.16 288.62 297.07 288.01C296.57 287.98 296.22 288.17 296.17 288.45C296.12 288.73 296.43 288.98 296.87 289.01C304.97 289.62 345.44 292.66 418.28 298.14C418.34 298.14 418.37 298.14 418.38 298.14C418.78 298.14 419.13 297.96 419.18 297.7C419.23 297.42 418.92 297.17 418.48 297.14" id="blsrT5IF"></path><path d="M503.91 237.21C503.46 237.21 503.1 236.98 503.1 236.7C503.1 236.43 503.46 236.2 503.91 236.2C516.14 236.2 613.96 236.2 626.19 236.2C626.63 236.2 626.99 236.43 626.99 236.7C626.99 236.98 626.63 237.21 626.19 237.21C601.73 237.21 516.14 237.21 503.91 237.21ZM503.91 250.2C503.46 250.2 503.1 249.97 503.1 249.69C503.1 249.42 503.46 249.19 503.91 249.19C516.14 249.19 613.96 249.19 626.19 249.19C626.63 249.19 626.99 249.42 626.99 249.69C626.99 249.97 626.63 250.2 626.19 250.2C601.73 250.2 516.14 250.2 503.91 250.2ZM503.91 263.18C503.46 263.18 503.1 262.96 503.1 262.68C503.1 262.4 503.46 262.18 503.91 262.18C516.14 262.18 613.96 262.18 626.19 262.18C626.63 262.18 626.99 262.4 626.99 262.68C626.99 262.96 626.63 263.18 626.19 263.18C601.73 263.18 516.14 263.18 503.91 263.18ZM503.91 276.17C503.46 276.17 503.1 275.94 503.1 275.67C503.1 275.39 503.46 275.16 503.91 275.16C516.14 275.16 613.96 275.16 626.19 275.16C626.63 275.16 626.99 275.39 626.99 275.67C626.99 275.94 626.63 276.17 626.19 276.17C601.73 276.17 516.14 276.17 503.91 276.17ZM503.91 289.16C503.46 289.16 503.1 288.93 503.1 288.65C503.1 288.37 503.46 288.15 503.91 288.15C516.14 288.15 613.96 288.15 626.19 288.15C626.63 288.15 626.99 288.37 626.99 288.65C626.99 288.93 626.63 289.16 626.19 289.16C601.73 289.16 516.14 289.16 503.91 289.16ZM640.63 215.02C595.83 215.02 570.94 215.02 565.97 215.02C565.65 216.76 564.3 218.41 561.97 219.56C560.67 220.21 559.21 220.61 557.69 220.83C557.84 221.24 559.04 224.5 559.19 224.91C559.29 225.18 559.02 225.45 558.58 225.51C558.52 225.52 558.46 225.52 558.4 225.52C558.03 225.52 557.7 225.36 557.61 225.13C557.45 224.72 556.24 221.41 556.09 220.99C552.47 221.17 548.73 220.24 546.24 218.29C544.99 217.3 544.25 216.17 543.93 215.02C538.6 215.02 495.95 215.02 490.62 215.02C484.16 215.02 478.93 218.28 478.93 222.31C478.93 231.46 478.93 304.67 478.93 313.82C478.93 317.85 484.16 321.11 490.62 321.11C505.62 321.11 625.63 321.11 640.63 321.11C647.09 321.11 652.32 317.85 652.32 313.82C652.32 304.67 652.32 231.46 652.32 222.31C652.32 218.28 647.09 215.02 640.63 215.02" id="aK8xZBVhW"></path><path d="M626.19 236.2C552.82 236.2 512.06 236.2 503.91 236.2C503.46 236.2 503.1 236.43 503.1 236.7C503.1 236.98 503.46 237.21 503.91 237.21C516.14 237.21 613.96 237.21 626.19 237.21C626.63 237.21 626.99 236.98 626.99 236.7C626.99 236.43 626.63 236.2 626.19 236.2" id="a1fYCLmlA8"></path><path d="M626.19 249.19C552.82 249.19 512.06 249.19 503.91 249.19C503.46 249.19 503.1 249.42 503.1 249.69C503.1 249.97 503.46 250.2 503.91 250.2C516.14 250.2 613.96 250.2 626.19 250.2C626.63 250.2 626.99 249.97 626.99 249.69C626.99 249.42 626.63 249.19 626.19 249.19" id="c1VWAF2wj1"></path><path d="M626.19 262.18C552.82 262.18 512.06 262.18 503.91 262.18C503.46 262.18 503.1 262.4 503.1 262.68C503.1 262.96 503.46 263.18 503.91 263.18C516.14 263.18 613.96 263.18 626.19 263.18C626.63 263.18 626.99 262.96 626.99 262.68C626.99 262.4 626.63 262.18 626.19 262.18" id="efLD8DQO2"></path><path d="M626.19 275.16C552.82 275.16 512.06 275.16 503.91 275.16C503.46 275.16 503.1 275.39 503.1 275.67C503.1 275.94 503.46 276.17 503.91 276.17C516.14 276.17 613.96 276.17 626.19 276.17C626.63 276.17 626.99 275.94 626.99 275.67C626.99 275.39 626.63 275.16 626.19 275.16" id="bihxEw7fN"></path><path d="M626.19 288.15C552.82 288.15 512.06 288.15 503.91 288.15C503.46 288.15 503.1 288.37 503.1 288.65C503.1 288.93 503.46 289.16 503.91 289.16C516.14 289.16 613.96 289.16 626.19 289.16C626.63 289.16 626.99 288.93 626.99 288.65C626.99 288.37 626.63 288.15 626.19 288.15" id="c1bO13VtfQ"></path><path d="M291.98 112.66C292.42 112.66 292.79 112.89 292.79 113.16C292.79 113.44 292.42 113.67 291.98 113.67C279.75 113.67 181.93 113.67 169.7 113.67C169.25 113.67 168.89 113.44 168.89 113.16C168.89 112.89 169.25 112.66 169.7 112.66C194.15 112.66 267.52 112.66 291.98 112.66ZM169.7 126.65C169.25 126.65 168.89 126.43 168.89 126.15C168.89 125.87 169.25 125.65 169.7 125.65C181.93 125.65 279.75 125.65 291.98 125.65C292.42 125.65 292.79 125.87 292.79 126.15C292.79 126.43 292.42 126.65 291.98 126.65C267.52 126.65 181.93 126.65 169.7 126.65ZM169.7 139.64C169.25 139.64 168.89 139.41 168.89 139.14C168.89 138.86 169.25 138.63 169.7 138.63C181.93 138.63 279.75 138.63 291.98 138.63C292.42 138.63 292.79 138.86 292.79 139.14C292.79 139.41 292.42 139.64 291.98 139.64C267.52 139.64 181.93 139.64 169.7 139.64ZM169.7 152.63C169.25 152.63 168.89 152.4 168.89 152.12C168.89 151.85 169.25 151.62 169.7 151.62C181.93 151.62 279.75 151.62 291.98 151.62C292.42 151.62 292.79 151.85 292.79 152.12C292.79 152.4 292.42 152.63 291.98 152.63C267.52 152.63 181.93 152.63 169.7 152.63ZM169.7 165.61C169.25 165.61 168.89 165.39 168.89 165.11C168.89 164.83 169.25 164.6 169.7 164.6C181.93 164.6 279.75 164.6 291.98 164.6C292.42 164.6 292.79 164.83 292.79 165.11C292.79 165.39 292.42 165.61 291.98 165.61C267.52 165.61 181.93 165.61 169.7 165.61ZM156.41 197.57C246.41 197.57 296.41 197.57 306.41 197.57C312.87 197.57 318.11 194.31 318.11 190.28C318.11 181.13 318.11 107.92 318.11 98.77C318.11 96.21 315.99 93.97 312.79 92.67C313.97 93.8 314.67 95.16 314.67 96.63C314.67 100.55 309.73 103.73 303.63 103.73C297.54 103.73 292.6 100.55 292.6 96.63C292.6 94.59 293.94 92.77 296.07 91.48C289.51 91.48 256.71 91.48 197.67 91.48L179.03 91.48C168.88 91.48 163.25 91.48 162.12 91.48C164.25 92.77 165.59 94.59 165.59 96.63C165.59 100.55 160.65 103.73 154.56 103.73C150.23 103.73 146.52 102.11 144.71 99.78C144.71 100.47 144.71 103.93 144.71 110.17L144.71 118.99C144.71 161.76 144.71 185.53 144.71 190.28C144.71 194.31 149.95 197.57 156.41 197.57" id="b849xgQRDn"></path><path d="M168.89 113.16C168.89 113.44 169.25 113.67 169.7 113.67C181.93 113.67 279.75 113.67 291.98 113.67C292.42 113.67 292.79 113.44 292.79 113.16C292.79 112.89 292.42 112.66 291.98 112.66C279.75 112.66 181.93 112.66 169.7 112.66C169.25 112.66 168.89 112.89 168.89 113.16" id="az0ACjcXW"></path><path d="M291.98 125.65C218.61 125.65 177.85 125.65 169.7 125.65C169.25 125.65 168.89 125.87 168.89 126.15C168.89 126.43 169.25 126.65 169.7 126.65C181.93 126.65 279.75 126.65 291.98 126.65C292.42 126.65 292.79 126.43 292.79 126.15C292.79 125.87 292.42 125.65 291.98 125.65" id="dQnrH1Vdx"></path><path d="M291.98 138.63C218.61 138.63 177.85 138.63 169.7 138.63C169.25 138.63 168.89 138.86 168.89 139.14C168.89 139.41 169.25 139.64 169.7 139.64C181.93 139.64 279.75 139.64 291.98 139.64C292.42 139.64 292.79 139.41 292.79 139.14C292.79 138.86 292.42 138.63 291.98 138.63" id="b4CQx9ROK8"></path><path d="M291.98 151.62C218.61 151.62 177.85 151.62 169.7 151.62C169.25 151.62 168.89 151.85 168.89 152.12C168.89 152.4 169.25 152.63 169.7 152.63C181.93 152.63 279.75 152.63 291.98 152.63C292.42 152.63 292.79 152.4 292.79 152.12C292.79 151.85 292.42 151.62 291.98 151.62" id="eBZRkZs1W"></path><path d="M291.98 164.6C218.61 164.6 177.85 164.6 169.7 164.6C169.25 164.6 168.89 164.83 168.89 165.11C168.89 165.39 169.25 165.61 169.7 165.61C181.93 165.61 279.75 165.61 291.98 165.61C292.42 165.61 292.79 165.39 292.79 165.11C292.79 164.83 292.42 164.6 291.98 164.6" id="a92K009Ph"></path><path d="M153.54 89.6C156.99 92.74 158.9 94.49 159.28 94.84C159.28 94.84 159.28 96.88 156.07 98.01C154.59 98.53 151.34 98.91 149.27 97.89C149 97.28 146.85 92.36 146.58 91.74C144.7 93.02 143.52 94.73 143.52 96.63C143.52 97.77 143.98 98.83 144.71 99.78C146.52 102.11 150.23 103.73 154.56 103.73C160.65 103.73 165.59 100.55 165.59 96.63C165.59 94.59 164.25 92.77 162.12 91.48C160.14 90.28 157.49 89.53 154.56 89.53C154.21 89.53 153.88 89.57 153.54 89.6" id="f1SI2g22Wk"></path><path d="M149.27 97.89C151.34 98.91 154.59 98.53 156.07 98.01C159.28 96.88 159.28 94.84 159.28 94.84C158.9 94.49 156.99 92.74 153.54 89.6C152.81 88.93 152.4 88.55 152.32 88.48C151.24 89.69 149.23 90.52 146.9 90.52C146.6 90.52 146.31 90.49 146.02 90.46C146.06 90.55 146.25 90.97 146.58 91.74L149.27 97.89" id="b1HteO0MJb"></path><path d="M152.32 88.48C152.85 87.88 153.18 87.2 153.18 86.47C153.18 84.24 150.37 82.43 146.9 82.43C143.42 82.43 140.61 84.24 140.61 86.47C140.61 88.51 142.97 90.18 146.02 90.46C146.31 90.49 146.6 90.52 146.9 90.52C149.23 90.52 151.24 89.69 152.32 88.48" id="e2qEqbqcTI"></path><path d="M292.6 96.63C292.6 100.55 297.54 103.73 303.63 103.73C309.73 103.73 314.67 100.55 314.67 96.63C314.67 95.16 313.97 93.8 312.79 92.67C312.44 92.34 312.04 92.03 311.61 91.74C311.34 92.36 309.19 97.28 308.92 97.89C306.85 98.91 303.6 98.53 302.12 98.01C298.91 96.88 298.91 94.84 298.91 94.84C299.48 94.31 304.07 90.12 304.65 89.6C304.31 89.57 303.98 89.53 303.63 89.53C300.7 89.53 298.05 90.28 296.07 91.48C293.94 92.77 292.6 94.59 292.6 96.63" id="c1d11ev50o"></path><path d="M311.29 82.43C307.82 82.43 305.01 84.24 305.01 86.47C305.01 88.71 307.82 90.52 311.29 90.52C314.77 90.52 317.58 88.71 317.58 86.47C317.58 84.24 314.77 82.43 311.29 82.43" id="a8hiTbDDB"></path><path d="M653.81 105.27C653.62 105.52 653.79 105.82 654.2 105.94C654.31 105.98 654.42 105.99 654.54 105.99C654.85 105.99 655.13 105.89 655.27 105.7C655.56 105.33 657.88 102.31 658.17 101.93C657.68 101.79 657.2 101.63 656.76 101.44C656.56 101.7 655.58 102.97 653.81 105.27" id="a1P1kYVqo"></path><path d="M656.76 101.44C657.2 101.63 657.68 101.79 658.17 101.93C659.58 102.35 661.13 102.6 662.78 102.6C668.34 102.6 672.89 99.96 673.66 96.52C673.73 96.19 673.82 95.85 673.82 95.5C673.82 93.6 672.64 91.89 670.76 90.62C670.49 91.23 668.34 96.15 668.07 96.76C666 97.78 662.75 97.4 661.27 96.88C658.06 95.75 658.06 93.71 658.06 93.71C658.63 93.18 663.22 88.99 663.8 88.46C663.46 88.45 663.13 88.4 662.78 88.4C656.69 88.4 651.75 91.58 651.75 95.5C651.75 95.85 651.83 96.19 651.9 96.52C652.37 98.58 654.16 100.35 656.76 101.44" id="a1sYg5cuL6"></path><path d="M661.27 96.88C662.75 97.4 666 97.78 668.07 96.76C668.25 96.35 669.14 94.3 670.76 90.62C671.09 89.85 671.28 89.42 671.32 89.33C671.03 89.36 670.74 89.39 670.45 89.39C668.12 89.39 666.1 88.56 665.02 87.35C664.94 87.42 664.53 87.8 663.8 88.46C660.35 91.61 658.44 93.36 658.06 93.71C658.06 93.71 658.06 95.75 661.27 96.88" id="eDRhWe0ic"></path><path d="M670.45 89.39C670.74 89.39 671.03 89.36 671.32 89.33C674.37 89.06 676.73 87.38 676.73 85.34C676.73 83.11 673.91 81.3 670.45 81.3C666.97 81.3 664.16 83.11 664.16 85.34C664.16 86.08 664.49 86.76 665.02 87.35C666.1 88.56 668.12 89.39 670.45 89.39" id="a1FJ6aZ7Zy"></path><path d="M452.23 101.26C452.04 101.52 452.21 101.82 452.61 101.94C452.73 101.97 452.84 101.99 452.96 101.99C453.26 101.99 453.55 101.88 453.69 101.7C453.98 101.32 456.3 98.31 456.59 97.93C456.1 97.78 455.62 97.63 455.17 97.43C454.98 97.69 454 98.97 452.23 101.26" id="b4IqJvf1j"></path><path d="M455.17 97.43C455.62 97.63 456.1 97.78 456.59 97.93C458 98.35 459.55 98.6 461.2 98.6C467.29 98.6 472.23 95.42 472.23 91.5C472.23 91.1 472.15 90.71 472.05 90.33C471.69 88.9 470.67 87.62 469.17 86.61C468.91 87.23 466.76 92.14 466.49 92.76C464.42 93.78 461.17 93.39 459.69 92.88C456.48 91.74 456.48 89.7 456.48 89.7C457.05 89.18 461.64 84.99 462.21 84.46C461.88 84.44 461.55 84.4 461.2 84.4C455.72 84.4 451.21 86.97 450.35 90.33C450.25 90.71 450.17 91.1 450.17 91.5C450.17 93.98 452.16 96.17 455.17 97.43" id="a6PUYLODU"></path><path d="M468.86 85.38C472.33 85.38 475.15 83.57 475.15 81.34C475.15 79.11 472.33 77.29 468.86 77.29C465.39 77.29 462.58 79.11 462.58 81.34C462.58 83.57 465.39 85.38 468.86 85.38" id="cgi3jL4Ir"></path><path d="M557.61 225.13C557.7 225.36 558.03 225.52 558.4 225.52C558.46 225.52 558.52 225.52 558.58 225.51C559.02 225.45 559.29 225.18 559.19 224.91C559.04 224.5 557.84 221.24 557.69 220.83C557.16 220.91 556.63 220.97 556.09 220.99C556.19 221.27 556.7 222.65 557.61 225.13" id="b27y6TLzmR"></path><path d="M556.09 220.99C556.63 220.97 557.16 220.91 557.69 220.83C559.21 220.61 560.67 220.21 561.97 219.56C564.3 218.41 565.65 216.76 565.97 215.02C566.3 213.21 565.52 211.29 563.52 209.72C561.63 208.24 558.99 207.35 556.25 207.09C556.65 207.67 559.88 212.35 560.28 212.94C559.68 214.54 556.75 215.5 555.08 215.67C551.43 216.03 549.39 214.43 549.39 214.43C549.32 213.8 548.73 208.74 548.65 208.1C548.37 208.22 548.07 208.31 547.79 208.45C544.56 210.05 543.25 212.59 543.93 215.02C544.25 216.17 544.99 217.3 546.24 218.29C548.73 220.24 552.47 221.17 556.09 220.99" id="b5kAZYiE4e"></path><path d="M554.78 206.25C557.49 204.9 557.89 202.39 555.66 200.64C553.43 198.89 549.42 198.57 546.71 199.91C543.99 201.26 543.59 203.77 545.82 205.52C548.05 207.27 552.06 207.59 554.78 206.25" id="a2lOn9NVtp"></path></defs><g><g><g><use xlink:href="#d5jExpb5du" opacity="1" fill="#ffffff" fill-opacity="1"></use><g><use xlink:href="#d5jExpb5du" opacity="1" fill-opacity="0" stroke="#000000" stroke-width="1" stroke-opacity="0"></use></g></g><g><use xlink:href="#d1CQBHvK5" opacity="1" fill="#a9eadd" fill-opacity="1"></use><g><use xlink:href="#d1CQBHvK5" opacity="1" fill-opacity="0" stroke="#000000" stroke-width="1" stroke-opacity="0"></use></g></g><g><use xlink:href="#a1ycfbcqWK" opacity="1" fill="#a9eadd" fill-opacity="1"></use><g><use xlink:href="#a1ycfbcqWK" opacity="1" fill-opacity="0" stroke="#000000" stroke-width="1" stroke-opacity="0"></use></g></g><g><use xlink:href="#c38PLFjNxT" opacity="1" fill="#a9eadd" fill-opacity="1"></use><g><use xlink:href="#c38PLFjNxT" opacity="1" fill-opacity="0" stroke="#000000" stroke-width="1" stroke-opacity="0"></use></g></g><g><use xlink:href="#a28APqKX6i" opacity="1" fill="#a9eadd" fill-opacity="1"></use><g><use xlink:href="#a28APqKX6i" opacity="1" fill-opacity="0" stroke="#000000" stroke-width="1" stroke-opacity="0"></use></g></g><g><use xlink:href="#d1VW6hIvFu" opacity="1" fill="#ff3c00" fill-opacity="1"></use><g><use xlink:href="#d1VW6hIvFu" opacity="1" fill-opacity="0" stroke="#000000" stroke-width="1" stroke-opacity="0"></use></g></g><g><use xlink:href="#jtCseKtew" opacity="1" fill="#ff3c00" fill-opacity="1"></use><g><use xlink:href="#jtCseKtew" opacity="1" fill-opacity="0" stroke="#000000" stroke-width="1" stroke-opacity="0"></use></g></g><g><use xlink:href="#f3ULifBz7" opacity="1" fill="#ffc21c" fill-opacity="1"></use><g><use xlink:href="#f3ULifBz7" opacity="1" fill-opacity="0" stroke="#000000" stroke-width="1" stroke-opacity="0"></use></g></g><g><use xlink:href="#c4bOD8WwfT" opacity="1" fill="#ffffff" fill-opacity="1"></use><g><use xlink:href="#c4bOD8WwfT" opacity="1" fill-opacity="0" stroke="#000000" stroke-width="1" stroke-opacity="0"></use></g></g><g><use xlink:href="#c73Dc5wJ4Q" opacity="1" fill="#ffffff" fill-opacity="1"></use><g><use xlink:href="#c73Dc5wJ4Q" opacity="1" fill-opacity="0" stroke="#000000" stroke-width="1" stroke-opacity="0"></use></g></g><g><use xlink:href="#a2jtIMWk16" opacity="1" fill="#ffffff" fill-opacity="1"></use><g><use xlink:href="#a2jtIMWk16" opacity="1" fill-opacity="0" stroke="#000000" stroke-width="1" stroke-opacity="0"></use></g></g><g><use xlink:href="#c1sWaTLeXp" opacity="1" fill="#ffffff" fill-opacity="1"></use><g><use xlink:href="#c1sWaTLeXp" opacity="1" fill-opacity="0" stroke="#000000" stroke-width="1" stroke-opacity="0"></use></g></g><g><use xlink:href="#bzNm0X7nO" opacity="1" fill="#ffffff" fill-opacity="1"></use><g><use xlink:href="#bzNm0X7nO" opacity="1" fill-opacity="0" stroke="#000000" stroke-width="1" stroke-opacity="0"></use></g></g><g><use xlink:href="#b4mgiTRb1V" opacity="1" fill="#ffffff" fill-opacity="1"></use><g><use xlink:href="#b4mgiTRb1V" opacity="1" fill-opacity="0" stroke="#000000" stroke-width="1" stroke-opacity="0"></use></g></g><g><use xlink:href="#b1aAY9DXbn" opacity="1" fill="#ffffff" fill-opacity="1"></use><g><use xlink:href="#b1aAY9DXbn" opacity="1" fill-opacity="0" stroke="#000000" stroke-width="1" stroke-opacity="0"></use></g></g><g><use xlink:href="#b2IMRlhxD" opacity="1" fill="#ffffff" fill-opacity="1"></use><g><use xlink:href="#b2IMRlhxD" opacity="1" fill-opacity="0" stroke="#000000" stroke-width="1" stroke-opacity="0"></use></g></g><g><use xlink:href="#a7kZFngv9" opacity="1" fill="#1a6a96" fill-opacity="1"></use><g><use xlink:href="#a7kZFngv9" opacity="1" fill-opacity="0" stroke="#000000" stroke-width="1" stroke-opacity="0"></use></g></g><g><use xlink:href="#e1ZG7cjP1" opacity="1" fill="#1a6a96" fill-opacity="1"></use><g><use xlink:href="#e1ZG7cjP1" opacity="1" fill-opacity="0" stroke="#000000" stroke-width="1" stroke-opacity="0"></use></g></g><g><use xlink:href="#e3MtwBgHd1" opacity="1" fill="#1a6a96" fill-opacity="1"></use><g><use xlink:href="#e3MtwBgHd1" opacity="1" fill-opacity="0" stroke="#000000" stroke-width="1" stroke-opacity="0"></use></g></g><g><use xlink:href="#aDzZ9jeln" opacity="1" fill="#1a6a96" fill-opacity="1"></use><g><use xlink:href="#aDzZ9jeln" opacity="1" fill-opacity="0" stroke="#000000" stroke-width="1" stroke-opacity="0"></use></g></g><g><use xlink:href="#a8vp8sH76" opacity="1" fill="#1a6a96" fill-opacity="1"></use><g><use xlink:href="#a8vp8sH76" opacity="1" fill-opacity="0" stroke="#000000" stroke-width="1" stroke-opacity="0"></use></g></g><g><use xlink:href="#c1kZ6RtmJA" opacity="1" fill="#ffc21c" fill-opacity="1"></use><g><use xlink:href="#c1kZ6RtmJA" opacity="1" fill-opacity="0" stroke="#000000" stroke-width="1" stroke-opacity="0"></use></g></g><g><use xlink:href="#d1Ca3ECzAN" opacity="1" fill="#1a6a96" fill-opacity="1"></use><g><use xlink:href="#d1Ca3ECzAN" opacity="1" fill-opacity="0" stroke="#000000" stroke-width="1" stroke-opacity="0"></use></g></g><g><use xlink:href="#bhdAgb5iz" opacity="1" fill="#1a6a96" fill-opacity="1"></use><g><use xlink:href="#bhdAgb5iz" opacity="1" fill-opacity="0" stroke="#000000" stroke-width="1" stroke-opacity="0"></use></g></g><g><use xlink:href="#b756PAAm0" opacity="1" fill="#1a6a96" fill-opacity="1"></use><g><use xlink:href="#b756PAAm0" opacity="1" fill-opacity="0" stroke="#000000" stroke-width="1" stroke-opacity="0"></use></g></g><g><use xlink:href="#ak93pSPy7" opacity="1" fill="#1a6a96" fill-opacity="1"></use><g><use xlink:href="#ak93pSPy7" opacity="1" fill-opacity="0" stroke="#000000" stroke-width="1" stroke-opacity="0"></use></g></g><g><use xlink:href="#blsrT5IF" opacity="1" fill="#1a6a96" fill-opacity="1"></use><g><use xlink:href="#blsrT5IF" opacity="1" fill-opacity="0" stroke="#000000" stroke-width="1" stroke-opacity="0"></use></g></g><g><use xlink:href="#aK8xZBVhW" opacity="1" fill="#ffffff" fill-opacity="1"></use><g><use xlink:href="#aK8xZBVhW" opacity="1" fill-opacity="0" stroke="#000000" stroke-width="1" stroke-opacity="0"></use></g></g><g><use xlink:href="#a1fYCLmlA8" opacity="1" fill="#1a6a96" fill-opacity="1"></use><g><use xlink:href="#a1fYCLmlA8" opacity="1" fill-opacity="0" stroke="#000000" stroke-width="1" stroke-opacity="0"></use></g></g><g><use xlink:href="#c1VWAF2wj1" opacity="1" fill="#1a6a96" fill-opacity="1"></use><g><use xlink:href="#c1VWAF2wj1" opacity="1" fill-opacity="0" stroke="#000000" stroke-width="1" stroke-opacity="0"></use></g></g><g><use xlink:href="#efLD8DQO2" opacity="1" fill="#1a6a96" fill-opacity="1"></use><g><use xlink:href="#efLD8DQO2" opacity="1" fill-opacity="0" stroke="#000000" stroke-width="1" stroke-opacity="0"></use></g></g><g><use xlink:href="#bihxEw7fN" opacity="1" fill="#1a6a96" fill-opacity="1"></use><g><use xlink:href="#bihxEw7fN" opacity="1" fill-opacity="0" stroke="#000000" stroke-width="1" stroke-opacity="0"></use></g></g><g><use xlink:href="#c1bO13VtfQ" opacity="1" fill="#1a6a96" fill-opacity="1"></use><g><use xlink:href="#c1bO13VtfQ" opacity="1" fill-opacity="0" stroke="#000000" stroke-width="1" stroke-opacity="0"></use></g></g><g><use xlink:href="#b849xgQRDn" opacity="1" fill="#ffffff" fill-opacity="1"></use><g><use xlink:href="#b849xgQRDn" opacity="1" fill-opacity="0" stroke="#000000" stroke-width="1" stroke-opacity="0"></use></g></g><g><use xlink:href="#az0ACjcXW" opacity="1" fill="#1a6a96" fill-opacity="1"></use><g><use xlink:href="#az0ACjcXW" opacity="1" fill-opacity="0" stroke="#000000" stroke-width="1" stroke-opacity="0"></use></g></g><g><use xlink:href="#dQnrH1Vdx" opacity="1" fill="#1a6a96" fill-opacity="1"></use><g><use xlink:href="#dQnrH1Vdx" opacity="1" fill-opacity="0" stroke="#000000" stroke-width="1" stroke-opacity="0"></use></g></g><g><use xlink:href="#b4CQx9ROK8" opacity="1" fill="#1a6a96" fill-opacity="1"></use><g><use xlink:href="#b4CQx9ROK8" opacity="1" fill-opacity="0" stroke="#000000" stroke-width="1" stroke-opacity="0"></use></g></g><g><use xlink:href="#eBZRkZs1W" opacity="1" fill="#1a6a96" fill-opacity="1"></use><g><use xlink:href="#eBZRkZs1W" opacity="1" fill-opacity="0" stroke="#000000" stroke-width="1" stroke-opacity="0"></use></g></g><g><use xlink:href="#a92K009Ph" opacity="1" fill="#1a6a96" fill-opacity="1"></use><g><use xlink:href="#a92K009Ph" opacity="1" fill-opacity="0" stroke="#000000" stroke-width="1" stroke-opacity="0"></use></g></g><g><use xlink:href="#f1SI2g22Wk" opacity="1" fill="#ffc21c" fill-opacity="1"></use><g><use xlink:href="#f1SI2g22Wk" opacity="1" fill-opacity="0" stroke="#000000" stroke-width="1" stroke-opacity="0"></use></g></g><g><use xlink:href="#b1HteO0MJb" opacity="1" fill="#ff3c00" fill-opacity="1"></use><g><use xlink:href="#b1HteO0MJb" opacity="1" fill-opacity="0" stroke="#000000" stroke-width="1" stroke-opacity="0"></use></g></g><g><use xlink:href="#e2qEqbqcTI" opacity="1" fill="#ffc21c" fill-opacity="1"></use><g><use xlink:href="#e2qEqbqcTI" opacity="1" fill-opacity="0" stroke="#000000" stroke-width="1" stroke-opacity="0"></use></g></g><g><use xlink:href="#c1d11ev50o" opacity="1" fill="#1a6a96" fill-opacity="1"></use><g><use xlink:href="#c1d11ev50o" opacity="1" fill-opacity="0" stroke="#000000" stroke-width="1" stroke-opacity="0"></use></g></g><g><use xlink:href="#a8hiTbDDB" opacity="1" fill="#1a6a96" fill-opacity="1"></use><g><use xlink:href="#a8hiTbDDB" opacity="1" fill-opacity="0" stroke="#000000" stroke-width="1" stroke-opacity="0"></use></g></g><g><use xlink:href="#a1P1kYVqo" opacity="1" fill="#1a6a96" fill-opacity="1"></use><g><use xlink:href="#a1P1kYVqo" opacity="1" fill-opacity="0" stroke="#000000" stroke-width="1" stroke-opacity="0"></use></g></g><g><use xlink:href="#a1sYg5cuL6" opacity="1" fill="#ffc21c" fill-opacity="1"></use><g><use xlink:href="#a1sYg5cuL6" opacity="1" fill-opacity="0" stroke="#000000" stroke-width="1" stroke-opacity="0"></use></g></g><g><use xlink:href="#eDRhWe0ic" opacity="1" fill="#ff3c00" fill-opacity="1"></use><g><use xlink:href="#eDRhWe0ic" opacity="1" fill-opacity="0" stroke="#000000" stroke-width="1" stroke-opacity="0"></use></g></g><g><use xlink:href="#a1FJ6aZ7Zy" opacity="1" fill="#ffc21c" fill-opacity="1"></use><g><use xlink:href="#a1FJ6aZ7Zy" opacity="1" fill-opacity="0" stroke="#000000" stroke-width="1" stroke-opacity="0"></use></g></g><g><use xlink:href="#b4IqJvf1j" opacity="1" fill="#1a6a96" fill-opacity="1"></use><g><use xlink:href="#b4IqJvf1j" opacity="1" fill-opacity="0" stroke="#000000" stroke-width="1" stroke-opacity="0"></use></g></g><g><use xlink:href="#a6PUYLODU" opacity="1" fill="#1a6a96" fill-opacity="1"></use><g><use xlink:href="#a6PUYLODU" opacity="1" fill-opacity="0" stroke="#000000" stroke-width="1" stroke-opacity="0"></use></g></g><g><use xlink:href="#cgi3jL4Ir" opacity="1" fill="#1a6a96" fill-opacity="1"></use><g><use xlink:href="#cgi3jL4Ir" opacity="1" fill-opacity="0" stroke="#000000" stroke-width="1" stroke-opacity="0"></use></g></g><g><use xlink:href="#b27y6TLzmR" opacity="1" fill="#1a6a96" fill-opacity="1"></use><g><use xlink:href="#b27y6TLzmR" opacity="1" fill-opacity="0" stroke="#000000" stroke-width="1" stroke-opacity="0"></use></g></g><g><use xlink:href="#b5kAZYiE4e" opacity="1" fill="#1a6a96" fill-opacity="1"></use><g><use xlink:href="#b5kAZYiE4e" opacity="1" fill-opacity="0" stroke="#000000" stroke-width="1" stroke-opacity="0"></use></g></g><g><use xlink:href="#a2lOn9NVtp" opacity="1" fill="#1a6a96" fill-opacity="1"></use><g><use xlink:href="#a2lOn9NVtp" opacity="1" fill-opacity="0" stroke="#000000" stroke-width="1" stroke-opacity="0"></use></g></g></g></g></svg>