<?xml version="1.0" encoding="UTF-8" standalone="no"?>
<!DOCTYPE svg PUBLIC "-//W3C//DTD SVG 1.1//EN" "http://www.w3.org/Graphics/SVG/1.1/DTD/svg11.dtd">
<svg version="1.1" xmlns="http://www.w3.org/2000/svg" xmlns:xlink="http://www.w3.org/1999/xlink" preserveAspectRatio="xMidYMid meet" viewBox="0 0 815 815" width="815" height="815"><defs><path d="M800.84 125.9L788.09 187.62L779.9 179.62L765.94 189.57L755.27 176.34L731.35 193.73L710.91 159.54L688.11 172.9L679.07 160.43L650.11 176.74L641.4 158.09L661.7 59.8L770.51 82.26L800.84 125.9" id="bgKCjWAhl"></path><path d="M770.51 82.26L800.84 125.9L763.11 118.11L770.51 82.26Z" id="eFXB18Wy9"></path><path d="M785.38 199.96L766.69 290.51L620.14 260.26L638.69 170.43L647.4 189.08L676.36 172.76L685.4 185.23L708.2 171.88L728.64 206.06L752.56 188.67L763.23 201.91L777.18 191.96L785.38 199.96" id="a2GIWvipX"></path><path d="M575.62 189.35L426.27 198.59L414.4 6.86L525.3 0L566.02 34.15L575.62 189.35" id="b15D0Wpqy6"></path><path d="M525.3 0L566.02 34.15L527.56 36.53L525.3 0Z" id="cvo8MpLI4"></path><path d="M490.96 141.5C496.81 141.17 501.06 145.29 501.41 151.47C501.74 157.32 498.15 162.04 491.97 162.39C486.12 162.72 481.86 158.43 481.53 152.59C481.19 146.41 485.12 141.83 490.96 141.5ZM483.9 129C483.55 126.4 483.36 124.96 483.32 124.67C481.81 115.71 484.27 105.69 492.06 95.2C499.08 85.92 502.89 79.17 502.47 71.66C501.99 63.14 496.33 57.76 485.79 58.18C479.78 58.52 473.21 60.9 469.21 64.3C468.75 63.27 465.07 55.03 464.61 54C469.9 49.69 479.27 46.48 488.13 45.98C507.34 44.91 516.69 56.28 517.4 68.98C518.03 80.34 512.15 88.87 504.66 98.85C497.8 107.94 495.54 115.44 496.52 123.93C496.54 124.22 496.68 125.67 496.92 128.27L483.9 129" id="aODwCYU3s"></path><path d="M98.74 130.44C92.67 134.79 84.22 133.4 79.87 127.33C75.52 121.26 76.92 112.81 82.99 108.46C89.06 104.11 97.5 105.52 101.85 111.59C106.2 117.65 104.81 126.09 98.74 130.44ZM110.38 96.39L95.35 89.58C94.1 92.34 93.4 93.87 93.26 94.18C92.65 95.53 91.32 96.4 89.84 96.46C89.02 96.5 88.2 96.58 87.38 96.7C85.92 96.93 84.45 96.33 83.59 95.13C83.39 94.86 82.41 93.49 80.64 91.02L67.22 100.64C68.99 103.1 69.97 104.47 70.17 104.75C71.03 105.95 71.12 107.53 70.43 108.84C70.05 109.58 69.71 110.33 69.41 111.09C68.88 112.48 67.63 113.46 66.15 113.6C65.82 113.64 64.14 113.8 61.12 114.1L62.74 130.52C65.77 130.22 67.45 130.05 67.79 130.02C69.27 129.87 70.67 130.6 71.47 131.86C71.69 132.2 71.92 132.53 72.16 132.86C72.39 133.19 72.64 133.52 72.89 133.83C73.81 134.99 74.06 136.54 73.45 137.89C73.31 138.2 72.61 139.75 71.35 142.53L86.38 149.34C87.63 146.58 88.33 145.04 88.47 144.73C89.08 143.38 90.41 142.52 91.9 142.45C92.72 142.42 93.53 142.34 94.35 142.21C95.81 141.99 97.28 142.58 98.14 143.79C98.33 144.06 99.31 145.43 101.08 147.89L114.5 138.28C112.73 135.81 111.75 134.45 111.56 134.17C110.7 132.97 110.61 131.39 111.29 130.08C111.67 129.35 112 128.6 112.3 127.83C112.84 126.45 114.08 125.47 115.56 125.32C115.9 125.29 117.58 125.12 120.6 124.82L118.98 108.4C115.95 108.7 114.27 108.86 113.94 108.9C112.46 109.04 111.07 108.31 110.27 107.06C110.05 106.72 109.82 106.38 109.58 106.05C109.34 105.72 109.1 105.4 108.85 105.08C107.92 103.92 107.67 102.35 108.29 101C108.43 100.69 109.12 99.16 110.38 96.39" id="b7s3HH4UVn"></path><path d="M804.08 334.78C804.08 340.01 799.84 344.26 794.61 344.26C789.38 344.26 785.13 340.01 785.13 334.78C785.13 329.55 789.38 325.32 794.61 325.32C799.84 325.32 804.08 329.55 804.08 334.78ZM789.44 314.26L779.42 320.04C780.48 321.88 781.07 322.9 781.19 323.11C781.71 324.01 781.66 325.11 781.09 325.99C780.78 326.47 780.49 326.97 780.23 327.48C779.76 328.41 778.82 329 777.79 329C777.55 329 776.37 329 774.25 329L774.25 340.57C776.37 340.57 777.55 340.57 777.79 340.57C778.82 340.57 779.76 341.16 780.23 342.09C780.49 342.61 780.78 343.11 781.09 343.59C781.66 344.46 781.71 345.57 781.19 346.47C781.07 346.67 780.48 347.7 779.42 349.53L789.44 355.31C790.5 353.46 791.09 352.44 791.21 352.23C791.73 351.33 792.72 350.83 793.76 350.89C794.04 350.9 794.32 350.91 794.61 350.91C794.89 350.91 795.18 350.9 795.46 350.89C796.5 350.83 797.48 351.33 798 352.23C798.12 352.43 798.71 353.46 799.78 355.31L809.8 349.53C808.73 347.69 808.14 346.67 808.03 346.46C807.5 345.56 807.56 344.45 808.13 343.58C808.44 343.1 808.73 342.6 808.99 342.09C809.46 341.16 810.39 340.57 811.43 340.57C811.67 340.57 812.85 340.57 814.97 340.57L814.97 329C812.85 329 811.67 329 811.43 329C810.39 329 809.46 328.41 808.99 327.49C808.73 326.97 808.44 326.48 808.13 326C807.56 325.13 807.5 324.02 808.03 323.11C808.14 322.91 808.73 321.88 809.8 320.04L799.78 314.26C798.72 316.11 798.13 317.13 798.01 317.34C797.49 318.24 796.5 318.73 795.47 318.68C795.18 318.66 794.9 318.66 794.61 318.66C794.32 318.66 794.04 318.66 793.76 318.68C792.72 318.73 791.73 318.23 791.21 317.33C791.09 317.13 790.5 316.1 789.44 314.26" id="a3TqSwlzE"></path><path d="M157.94 65.64C158.61 70.83 154.96 75.59 149.77 76.26C144.59 76.93 139.83 73.27 139.15 68.09C138.48 62.9 142.14 58.15 147.33 57.48C152.51 56.8 157.26 60.46 157.94 65.64ZM140.77 47.18L131.59 54.2C132.88 55.89 133.59 56.83 133.74 57.01C134.37 57.84 134.46 58.95 134.01 59.89C133.76 60.4 133.54 60.94 133.35 61.48C133 62.46 132.15 63.17 131.12 63.31C130.89 63.34 129.72 63.49 127.61 63.76L129.1 75.23C131.21 74.96 132.38 74.8 132.61 74.77C133.64 74.64 134.65 75.11 135.23 75.96C135.56 76.44 135.91 76.9 136.28 77.34C136.96 78.13 137.15 79.22 136.75 80.18C136.66 80.4 136.21 81.49 135.39 83.45L146.07 87.89C146.89 85.92 147.34 84.83 147.43 84.61C147.83 83.65 148.75 83.02 149.78 82.94C150.07 82.92 150.35 82.89 150.63 82.86C150.91 82.82 151.19 82.77 151.47 82.72C152.49 82.54 153.53 82.9 154.16 83.72C154.31 83.91 155.03 84.85 156.33 86.55L165.52 79.53C164.22 77.84 163.5 76.9 163.36 76.71C162.73 75.89 162.64 74.78 163.09 73.84C163.34 73.33 163.56 72.79 163.75 72.25C164.1 71.27 164.95 70.56 165.98 70.43C166.21 70.4 167.38 70.25 169.49 69.97L168 58.51C165.89 58.78 164.72 58.93 164.49 58.96C163.46 59.1 162.46 58.63 161.87 57.77C161.54 57.3 161.19 56.84 160.82 56.41C160.14 55.61 159.95 54.52 160.35 53.56C160.44 53.34 160.89 52.25 161.71 50.29L151.03 45.85C150.22 47.81 149.76 48.91 149.67 49.13C149.27 50.08 148.36 50.7 147.32 50.78C147.04 50.81 146.75 50.84 146.47 50.87C146.19 50.91 145.91 50.95 145.63 51C144.6 51.19 143.56 50.83 142.92 50C142.78 49.81 142.06 48.87 140.77 47.18" id="a2ilmDVwXM"></path><path d="M72.21 347.65C72.73 334.76 72.52 321.85 71.68 308.98C69.93 282.44 65.56 256.1 59.56 230.21C56.19 215.63 52.03 201.29 47.69 186.98C47.56 186.55 46.87 186.67 46.99 187.12C60.39 237.59 71.39 289.67 70.63 342.13C70.42 356.81 68.72 371.23 67.33 385.82C67.29 386.21 67.93 386.37 68.02 385.97C70.79 373.48 71.69 360.4 72.21 347.65" id="dayprR8BGA"></path><path d="M46.99 187.12C46.99 187.12 26.69 238.66 31.23 250.77C35.78 262.88 45.15 265.47 45.15 265.47C45.15 265.47 32.73 283.2 41.41 299.84C50.09 316.47 69.38 315.68 70.66 334.55C70.66 334.55 71.73 255.68 46.99 187.12" id="aVbin0QNt"></path><path d="M68.45 301.98C68.44 301.82 68.43 301.73 68.43 301.71C65.58 266.67 59.36 231.74 48.74 198.04C48.72 198.04 48.59 198.07 48.57 198.07C52.59 213.15 56.17 228.31 59.23 243.55C56.6 240.83 53.15 239.27 49.54 238.14C49.54 238.15 49.51 238.23 49.5 238.25C53.26 239.87 56.86 241.75 59.51 244.93C60.1 247.92 60.68 250.91 61.24 253.9C56.7 248.83 50.41 246.31 44.11 243.92C44.1 243.93 44.07 244.04 44.06 244.06C50.62 246.73 57.15 250.17 61.59 255.82C63.14 264.37 64.5 272.95 65.67 281.56C62.35 278.1 58.26 275.77 53.56 274.62C53.42 274.59 53.34 274.8 53.49 274.84C58.31 276.23 62.46 278.93 65.77 282.71C65.77 282.71 65.83 282.76 65.84 282.76C66.25 285.79 66.63 288.82 66.99 291.86C64.44 289.68 61.61 288.02 58.5 286.74C58.5 286.75 58.46 286.86 58.46 286.87C61.62 288.21 64.46 290.15 66.96 292.49C66.97 292.5 67.05 292.53 67.07 292.54C67.4 295.42 67.74 298.31 68.03 301.2C63.38 295.6 57.62 291.54 50.81 288.91C50.68 288.86 50.61 289.06 50.74 289.11C57.36 291.99 63.2 296.56 67.71 302.17C67.83 302.33 67.99 302.35 68.14 302.31C68.58 306.74 68.97 311.19 69.29 315.63C69.3 315.63 69.39 315.64 69.4 315.64C69.14 311.09 68.82 306.53 68.45 301.98" id="b13XgqVEl9"></path><path d="M52.14 233.02C48.62 230.6 44.14 229.57 39.94 229.22C39.94 229.23 39.93 229.36 39.93 229.37C44.3 230.02 47.97 231.6 51.99 233.31C52.17 233.39 52.29 233.12 52.14 233.02" id="aLa0HPzDx"></path><path d="M54.6 287.58C51.82 285.91 48.64 284.97 45.45 284.45C45.45 284.47 45.44 284.61 45.43 284.62C48.68 285.21 51.55 286.37 54.49 287.8C54.62 287.86 54.72 287.66 54.6 287.58" id="c259jb0K8"></path><path d="M125.58 251.61C117.12 257.56 108.99 264.43 102.08 272.15C94.72 280.39 89.35 289.73 85.6 300.1C77.92 321.35 73.71 344.37 73.32 366.95C73.11 379.61 74.23 392.17 76.94 404.54C77.04 404.99 77.71 404.87 77.64 404.41C74.33 382.64 74.46 360.43 78.01 338.7C81.5 317.38 86.98 294.18 100.53 276.86C107.91 267.42 117.11 260 126.21 252.33C126.69 251.93 126.08 251.26 125.58 251.61" id="d7AC4ltOP"></path><path d="M76.31 351.6C76.31 351.6 83.28 339.86 93.44 329.7C103.6 319.55 112.15 312.33 113.47 305.61C114.79 298.9 103.3 293.95 103.3 293.95C103.3 293.95 117.36 296.48 121.2 290.58C125.05 284.68 126.9 250.51 126.9 250.51C126.9 250.51 101.33 268.77 89.42 294.36C77.5 319.95 76.31 351.6 76.31 351.6" id="cKTagfKxe"></path><path d="M118.06 259.27C107.3 269.84 96.47 281.1 90.13 294.98C87.96 299.74 86.11 304.68 84.48 309.71C84.48 309.71 84.48 309.73 84.48 309.73C84.15 310.74 83.82 311.75 83.51 312.77C83.51 312.78 83.46 312.91 83.46 312.93C80.33 323.3 78.11 334.02 76.19 344.5C76.21 344.5 76.29 344.53 76.3 344.53C77.4 339.2 78.62 333.82 79.97 328.45C79.99 328.45 80.11 328.42 80.13 328.42C82.3 327.5 84.49 326.93 86.84 326.72C86.99 326.7 86.98 326.44 86.82 326.44C84.56 326.55 82.34 326.95 80.19 327.66C81.43 322.82 82.77 317.99 84.28 313.23C89.22 312.02 94.37 311.37 99.45 311.25C99.45 311.24 99.46 311.18 99.46 311.17C94.34 310.93 89.53 311.37 84.55 312.43C84.81 311.62 85.08 310.81 85.36 309.99C88.69 309.23 92.04 308.6 95.45 308.28C95.45 308.27 95.44 308.19 95.44 308.17C92.1 308.26 88.81 308.62 85.56 309.38C86.95 305.26 88.46 301.2 90.12 297.25C91.5 293.98 93.14 290.87 94.95 287.87C97.69 287.25 100.34 286.66 103.14 286.41C103.14 286.4 103.13 286.29 103.13 286.28C100.59 286.11 97.94 286.3 95.48 287.03C96.82 284.86 98.24 282.73 99.75 280.67C99.75 280.67 99.75 280.67 99.75 280.67C105.48 279.4 111.3 278.22 117.16 279.33C117.17 279.31 117.2 279.17 117.2 279.15C111.62 277.68 106.07 278.53 100.52 279.62C101.12 278.82 101.74 278.02 102.37 277.23C105.89 276.14 109.39 275.62 113.08 275.55C113.08 275.54 113.09 275.44 113.09 275.43C109.72 275.11 106.36 275.43 103.1 276.32C107.85 270.43 113.08 264.89 118.26 259.42C118.5 259.17 118.31 259.02 118.06 259.27" id="dvluik56t"></path><path d="M117.77 282.56C116.09 282.38 114.38 282.19 112.68 282.38C112.48 282.41 112.5 282.74 112.7 282.75C114.39 282.79 116.07 282.67 117.75 282.76C117.88 282.77 117.9 282.57 117.77 282.56" id="e6yvN2ycoh"></path><path d="M99.37 315.7C96.68 315.67 93.99 316.39 91.48 317.29C91.49 317.3 91.52 317.39 91.52 317.4C94.12 316.78 96.76 316.53 99.39 316.09C99.6 316.06 99.59 315.71 99.37 315.7" id="anVBncJLE"></path><path d="M93.85 304.25C92.76 304.2 91.58 304.39 90.5 304.56C90.5 304.58 90.51 304.74 90.51 304.76C91.6 304.77 92.8 304.81 93.87 304.6C94.06 304.56 94.05 304.26 93.85 304.25" id="c6s4SibKt"></path><path d="M1.35 287.87C9.58 290.73 17.74 294.41 25.12 299.06C32.98 304.02 39.48 310.34 44.92 317.87C56.04 333.29 64.77 350.94 70.3 369.13C73.4 379.33 75.4 389.75 76.06 400.39C76.09 400.78 75.51 400.83 75.46 400.45C73.11 382.06 67.88 364.11 59.98 347.35C52.22 330.9 42.43 313.4 27.46 302.51C19.31 296.58 10.15 292.7 1.01 288.6C0.53 288.38 0.87 287.7 1.35 287.87" id="f1F2NWKWja"></path><path d="M64.34 357.4C64.34 357.4 55.98 349.51 45.41 343.64C34.85 337.77 26.25 333.9 23.63 328.77C21.01 323.64 29.17 316.98 29.17 316.98C29.17 316.98 18.38 322.28 13.9 318.39C9.43 314.51 0.03 287.28 0.03 287.28C0.03 287.28 24.94 296.15 40.5 314.11C56.06 332.06 64.34 357.4 64.34 357.4" id="b6EHx3e0ge"></path><path d="M63.04 351.79C50.58 328.39 33.95 307.24 11.17 293.27C11.17 293.27 11.16 293.28 11.16 293.29C17.16 297.11 22.68 301.52 27.83 306.34C23.22 306.21 18.53 306.94 14.44 309.16C14.45 309.18 14.5 309.29 14.51 309.3C19.06 307.76 23.44 306.75 28.29 306.97C28.3 306.97 28.43 306.92 28.44 306.91C29.25 307.68 30.05 308.46 30.84 309.25C28.44 309.35 26.02 309.69 23.68 310.2C23.68 310.21 23.7 310.29 23.7 310.3C26.23 309.81 28.7 309.64 31.26 309.67C35.44 313.87 39.33 318.36 43.01 323.02C41.35 322.77 39.6 322.91 38.01 323.38C37.89 323.41 37.92 323.58 38.05 323.57C39.86 323.34 41.59 323.37 43.39 323.49C44.07 324.36 44.76 325.23 45.43 326.11C40.3 325.8 35.29 326.29 30.31 327.58C30.31 327.59 30.33 327.68 30.33 327.69C35.46 326.68 40.64 326.36 45.86 326.68C46.5 327.53 47.1 328.39 47.72 329.25C44.66 329.15 41.7 329.53 38.72 330.28C38.72 330.29 38.75 330.44 38.75 330.46C41.82 329.76 44.94 329.58 48.07 329.73C50.75 333.42 53.32 337.2 55.79 341.02C54.48 340.75 53.11 340.9 51.84 341.26C51.84 341.27 51.86 341.35 51.86 341.37C53.32 341.19 54.69 341.38 56.13 341.57C58.35 345.02 60.5 348.51 62.55 352.02C62.73 352.32 63.2 352.09 63.04 351.79" id="a6uXhlSyNB"></path><path d="M43.66 332.38C41.22 332.18 38.74 332.56 36.42 333.27C36.42 333.28 36.44 333.37 36.44 333.38C38.83 332.94 41.21 332.77 43.64 332.64C43.8 332.63 43.83 332.4 43.66 332.38" id="bZWrwWS5S"></path><path d="M21.92 303.88C20.82 303.75 19.67 303.9 18.59 304.07C18.46 304.09 18.5 304.29 18.62 304.27C19.72 304.15 20.8 304.2 21.9 304.16C22.08 304.16 22.11 303.9 21.92 303.88" id="a3UNqpONF3"></path><path d="M96.47 434.74L40.23 434.74L48.25 376L50.3 360.94L86.4 360.94L88.45 376L96.47 434.74" id="cgd34Eqx2"></path><path d="M88.45 376L48.25 376L50.3 360.94L86.4 360.94L88.45 376" id="gw911sKkf"></path><path d="M91.57 368.47L45.14 368.47L45.14 355.72L91.57 355.72L91.57 368.47" id="a3mFcg7vrr"></path><path d="M4.48 434.74L105.71 434.42L206.93 434.3L409.38 434.08L611.82 434.3L713.05 434.42L814.27 434.74L713.05 435.07L611.82 435.18L409.38 435.41L206.93 435.18L105.71 435.07L4.48 434.74" id="b4BdzoVnC"></path><path d="M793.91 492.16C793.91 515.27 622.94 534 412.04 534C201.14 534 30.18 515.27 30.18 492.16C30.18 469.05 201.14 450.31 412.04 450.31C622.94 450.31 793.91 469.05 793.91 492.16" id="a7W7oeAnj"></path><path d="M323.15 485.22C320.04 486.27 231.07 486.59 227.67 484.45C226.37 483.65 225.57 470.7 225.05 455.01C224.93 451.63 224.84 448.13 224.76 444.58C224.28 441.41 221.87 425.59 217.54 397.12L277.03 396.74L282.64 444.2C282.5 450.47 282.43 453.95 282.41 454.65C282.41 454.65 316.53 469.76 320.01 472.5C323.47 475.24 326.25 484.17 323.15 485.22" id="b3Bz1hxl1u"></path><path d="M323.15 485.22C320.04 486.27 231.07 486.59 227.67 484.45C226.09 483.47 225.24 464.55 224.76 444.58C228.62 444.55 247.91 444.43 282.64 444.2C282.5 450.47 282.43 453.95 282.41 454.65C282.41 454.65 316.53 469.76 320.01 472.5C323.47 475.24 326.25 484.17 323.15 485.22" id="b3Dq5lAKce"></path><path d="M323.15 485.22C320.04 486.27 231.07 486.59 227.67 484.45C226.37 483.65 225.57 470.7 225.05 455.01C230.78 454.98 276.68 454.68 282.41 454.65C282.41 454.65 316.53 469.76 320.01 472.5C323.47 475.24 326.25 484.17 323.15 485.22" id="a1x87K9Q8j"></path><path d="M321.86 481.67C306.94 481.36 246.75 481.5 231.98 482.32C231.86 482.33 231.86 482.41 231.98 482.41C246.76 483.05 306.95 482.42 321.86 481.91C322.18 481.9 322.18 481.67 321.86 481.67" id="a2i79XLS9d"></path><path d="M314.28 469.32C310.74 469.19 307.29 470.88 305.37 473C303.52 475.03 301.95 477.88 302.06 480.97C302.08 480.97 302.22 480.97 302.24 480.97C303.07 475.13 308.36 469.98 314.28 469.51C314.4 469.5 314.4 469.33 314.28 469.32" id="aE62ZQTH4"></path><path d="M288.2 456.11C282.23 456.05 275.32 458.18 271.63 463.07C271.48 463.27 271.75 463.46 271.93 463.37C277.32 460.57 282.44 458.48 288.31 456.84C288.72 456.73 288.63 456.11 288.2 456.11" id="einbfqQrs"></path><path d="M292.82 457.89C286.85 457.83 279.93 459.96 276.24 464.85C276.1 465.05 276.37 465.24 276.55 465.15C281.93 462.35 287.06 460.26 292.92 458.62C293.34 458.51 293.24 457.9 292.82 457.89" id="bpsAY56X0"></path><path d="M297.43 459.67C291.46 459.61 284.55 461.74 280.86 466.64C280.71 466.83 280.98 467.03 281.16 466.93C286.55 464.13 291.67 462.04 297.54 460.4C297.95 460.29 297.86 459.68 297.43 459.67" id="d3rFMy1Z2z"></path><path d="M302.05 461.45C296.08 461.39 289.16 463.52 285.47 468.42C285.33 468.61 285.6 468.81 285.78 468.71C291.16 465.91 296.29 463.82 302.15 462.18C302.57 462.07 302.48 461.46 302.05 461.45" id="d1jg2qPcjT"></path><path d="M235.73 468.14C229.03 468.18 229.09 478.59 235.8 478.55C242.5 478.51 242.44 468.1 235.73 468.14" id="d29hTnA4Ww"></path><path d="M287.32 452.87C285.27 454.37 283.16 455.77 281.16 457.35C282.22 454.37 283.14 451.36 284.5 448.49C285.14 447.12 285.83 445.73 286.66 444.46C287.95 442.48 293.79 437.47 294.41 443.96C294.75 447.54 289.76 451.08 287.32 452.87M294.6 440.16C291.57 437.66 287.77 440.12 285.92 442.73C282.91 446.96 280.86 452.87 280.54 458.02C280.54 458.14 280.63 458.19 280.73 458.19C280.86 458.61 281.37 458.97 281.81 458.66C286.05 455.71 290.95 453.08 294.15 448.91C296.03 446.47 297.47 442.52 294.6 440.16" id="e2qcvPS3CH"></path><path d="M262.1 456.9C258.05 451.79 265.73 451.35 268.03 451.88C269.51 452.22 270.97 452.75 272.39 453.29C275.36 454.41 278.11 455.94 280.93 457.36C278.4 457.6 275.91 458.06 273.39 458.4C270.39 458.8 264.34 459.71 262.1 456.9M265.72 460.28C270.92 461.06 276.28 459.56 281.38 458.75C281.91 458.67 282.03 458.06 281.83 457.66C281.83 457.64 281.84 457.44 281.84 457.41C278.05 453.92 272.47 451.08 267.37 450.12C264.23 449.53 259.79 450.39 259.33 454.29C258.9 457.97 262.68 459.83 265.72 460.28" id="m2CmAFntSa"></path><path d="M130.14 177.75C130.14 177.75 199.21 295.26 201.06 303.51C203.91 316.19 218.97 441.39 218.97 441.39C226.16 441.26 283.66 440.22 290.85 440.1C290.85 440.1 278.46 329.71 266.73 293.34C258.27 267.14 197.31 180.26 197.31 180.26C192.83 180.09 170.44 179.26 130.14 177.75" id="c4DCJKKkI"></path><path d="M284.31 429.08C273.99 429 237.41 428.59 223.67 429.87C223.67 429.89 223.67 430.05 223.67 430.07C228.4 430.75 274 429.69 284.31 429.36C284.51 429.35 284.5 429.08 284.31 429.08" id="a1BfaAv4BY"></path><path d="M141.93 188.53C146.45 195.63 151.23 202.58 155.86 209.62C160.49 216.66 165.1 223.71 169.65 230.8C178.76 244.97 187.62 259.29 196.32 273.7C200.4 280.45 204.28 287.27 207.09 294.65C209.86 301.95 211.75 309.54 213.15 317.2C214.56 324.91 215.48 332.7 216.36 340.49C217.29 348.78 218.21 357.07 219.14 365.36C221.03 382.33 222.93 399.29 224.82 416.26C225.05 418.34 225.28 420.42 225.49 422.5C225.52 422.81 224.97 422.87 224.93 422.56C222.82 405.7 221.06 388.8 219.14 371.92C218.18 363.51 217.23 355.11 216.27 346.71C215.38 338.89 214.54 331.07 213.32 323.3C212.13 315.66 210.59 308.06 208.26 300.67C205.84 292.95 202.4 285.7 198.32 278.68C190 264.31 181.18 250.19 172.36 236.11C163.47 221.9 154.5 207.74 145.2 193.78C144.05 192.06 142.89 190.35 141.7 188.65C141.61 188.52 141.84 188.39 141.93 188.53" id="aH5u8zZhN"></path><path d="M152.78 492.15C149.5 491.95 64.89 457.67 62.53 454.42C62.46 454.31 62.41 454.1 62.4 453.8C62.42 450.89 68.28 440.7 73.18 427.34C73.48 426.49 75.67 422.52 78.7 417.17C87.03 402.49 101.77 377.33 101.77 377.33C105.46 378.79 123.89 386.11 157.08 399.3L130.61 438.92C128.13 444.68 126.76 447.88 126.49 448.52C126.49 448.52 152.44 475.34 154.63 479.18C156.81 483.02 156.05 492.34 152.78 492.15" id="f1wDQWjEvn"></path><path d="M152.78 492.15C149.5 491.95 64.89 457.67 62.53 454.42C62.46 454.31 62.41 454.1 62.4 453.8C62.42 450.89 68.28 440.7 73.18 427.34C73.48 426.49 75.67 422.52 78.7 417.17C82.16 418.62 99.46 425.87 130.61 438.92C128.13 444.68 126.76 447.88 126.49 448.52C126.49 448.52 152.44 475.34 154.63 479.18C156.81 483.02 156.05 492.34 152.78 492.15" id="d11u66Ior"></path><path d="M152.78 492.15C149.5 491.96 64.89 457.67 62.53 454.42C61.64 453.19 65.42 441.63 73.17 427.34C78.5 429.46 121.15 446.4 126.48 448.52C126.48 448.52 152.44 475.33 154.64 479.18C156.82 483.02 156.05 492.34 152.78 492.15" id="a1YvFtCsx"></path><path d="M152.91 488.37C139.2 482.48 83.35 460.03 69.35 455.26C69.35 455.26 69.32 455.33 69.32 455.34C82.78 461.47 138.81 483.47 152.82 488.6C153.12 488.7 153.2 488.49 152.91 488.37" id="cjnxBcU3G"></path><path d="M150.52 474.08C147.29 472.63 143.45 472.9 140.88 474.14C138.41 475.33 135.88 477.39 134.82 480.3C134.84 480.3 134.97 480.36 134.99 480.36C137.95 475.26 144.79 472.48 150.45 474.25C150.45 474.24 150.48 474.18 150.52 474.08" id="dL922ZPgB"></path><path d="M131.3 452.05C125.79 449.75 118.58 449.14 113.32 452.29C113.12 452.41 113.3 452.7 113.5 452.68C119.54 452.1 125.07 452.09 131.12 452.77C131.55 452.82 131.7 452.22 131.3 452.05" id="b3KCdsRgbj"></path><path d="M134.91 455.43C129.4 453.13 122.19 452.52 116.93 455.67C116.73 455.79 116.91 456.08 117.11 456.06C123.15 455.48 128.68 455.47 134.73 456.15C135.16 456.2 135.31 455.6 134.91 455.43" id="d2fWfY2lit"></path><path d="M138.52 458.81C133.01 456.52 125.8 455.9 120.54 459.05C120.34 459.17 120.52 459.46 120.71 459.44C126.76 458.87 132.29 458.85 138.35 459.53C138.77 459.58 138.92 458.98 138.52 458.81" id="aEp2BGrBM"></path><path d="M142.13 462.2C136.62 459.9 129.41 459.28 124.15 462.43C123.95 462.56 124.13 462.84 124.33 462.83C130.37 462.25 135.9 462.23 141.96 462.92C142.38 462.96 142.53 462.36 142.13 462.2" id="d2vcyrtZY3"></path><path d="M78.15 443.52C71.93 441.04 68.07 450.71 74.31 453.19C80.53 455.67 84.39 445.99 78.15 443.52" id="dJ3TREU0L"></path><path d="M124.31 450.56C126.41 448.19 128.39 445.75 130.73 443.6C131.84 442.57 133 441.54 134.25 440.67C136.19 439.32 143.48 436.87 141.62 443.12C140.59 446.57 134.64 447.97 131.7 448.72C129.23 449.34 126.75 449.84 124.31 450.56ZM143.22 439.66C141.34 436.21 136.9 437.07 134.2 438.79C129.83 441.58 125.71 446.29 123.49 450.95C123.5 450.97 123.59 451.15 123.6 451.17C123.56 451.62 123.89 452.14 124.42 452.02C129.45 450.87 134.98 450.27 139.52 447.61C142.17 446.05 144.99 442.92 143.22 439.66" id="avqtHK8X"></path><path d="M114.19 440.56C115.43 441.43 116.59 442.47 117.7 443.5C120.03 445.66 122.01 448.11 124.1 450.48C121.66 449.76 119.18 449.25 116.71 448.62C113.78 447.86 107.83 446.44 106.81 442.99C104.97 436.73 112.26 439.21 114.19 440.56ZM108.9 447.48C113.42 450.16 118.95 450.78 123.99 451.94C124.51 452.06 124.85 451.54 124.81 451.1C124.82 451.08 124.91 450.89 124.92 450.87C122.71 446.21 118.6 441.49 114.24 438.69C111.55 436.95 107.11 436.08 105.22 439.53C103.44 442.79 106.25 445.92 108.9 447.48" id="bNWLhsJW"></path><path d="M134.87 436.71C97.73 421.71 77.09 413.38 72.97 411.71C72.97 411.71 149.72 298.85 150.29 290.45C150.79 283.01 117.08 218.26 115.75 199.39C114.32 179.03 124.12 163.26 134.9 153.48C141.29 156.2 192.38 177.91 198.76 180.63C198.76 180.63 192.02 191.41 181.41 197.41C181.41 197.41 214.16 272.26 212.3 295.27C210.43 318.41 134.87 436.71 134.87 436.71" id="c2VYaME9W"></path><path d="M137.62 424.93C128.67 421.09 131.3 422.06 122.3 418.31C117.9 416.48 88.96 404.45 84.56 403.46C84.55 403.48 84.49 403.63 84.48 403.64C88.33 406 117.47 417.53 121.91 419.27C130.98 422.85 128.41 421.72 137.52 425.2C137.69 425.26 137.79 425.01 137.62 424.93" id="a4p4uUjSk"></path><path d="M191.92 196.04C185.27 197.47 178.74 199.82 172.47 202.35C172.22 202.45 172.34 202.82 172.6 202.74C179.13 200.83 185.77 199.05 192.18 196.8C192.68 196.62 192.43 195.93 191.92 196.04" id="bTaqMkR9C"></path><path d="M184.34 193.41C183.71 194.51 183.18 195.67 182.7 196.84C182.33 197.74 181.86 198.72 181.87 199.7C181.87 199.9 182.12 199.94 182.24 199.83C182.98 199.1 183.38 198.03 183.85 197.12C184.39 196.07 184.96 195.02 185.47 193.96C185.81 193.25 184.73 192.74 184.34 193.41" id="e3cByRQ48Q"></path><path d="M185.12 187.41C185.51 186.43 185.9 185.45 186.32 184.47C186.74 183.47 187.24 182.47 187.59 181.43C187.64 181.27 187.9 181.38 187.84 181.55C187.45 182.53 187.19 183.58 186.88 184.59C186.57 185.61 186.23 186.62 185.9 187.63C185.27 189.51 184.51 191.37 183.7 193.18C184.74 193.17 185.82 193.12 186.77 192.65C187.8 192.14 188.42 191.04 188.93 190.05C189.49 188.95 190.01 187.83 190.59 186.74C191.23 185.53 191.94 184.34 192.36 183.03C192.42 182.87 192.67 182.98 192.61 183.15C191.65 185.84 190.71 188.54 189.21 191.02C188.62 192 188.15 193.01 187.06 193.39C185.9 193.81 184.63 193.72 183.42 193.64C183.27 193.68 183.07 193.58 183.13 193.4C183.7 191.39 184.34 189.35 185.12 187.41" id="a1xK8ZHqu"></path><path d="M182.4 199.85C184.67 204.66 186.67 209.46 188.79 214.25C190.86 218.93 192.8 223.67 194.69 228.44C198.5 238.06 201.91 247.86 204.9 257.77C206.39 262.67 207.75 267.61 208.98 272.58C210.22 277.57 211.42 282.6 211.94 287.72C212.45 292.86 212.08 297.93 210.65 302.9C209.2 307.94 207.29 312.34 205.02 317.05C203.63 319.93 203.15 319.54 203.83 318.09C205.73 313.96 210.72 301.46 210.36 290.95C210.18 285.88 209.14 280.89 208 275.96C206.83 270.93 205.51 265.93 204.07 260.97C201.23 251.2 197.86 241.63 194.4 232.06C192.46 226.71 190.37 221.4 188.4 216.06C186.42 210.67 184.37 205.83 182.16 199.94C182.11 199.79 182.33 199.7 182.4 199.85" id="b4qWejkc2X"></path><path d="M135.4 183.96C136.51 183.55 138.05 184.23 139.18 184.42C140.63 184.66 142.09 184.81 143.56 184.86C145.01 184.91 146.47 184.85 147.92 184.71C149.36 184.57 150.83 184.39 152.08 183.61C154.2 182.29 155.96 179.97 157.39 177.97C158.97 175.77 160.6 173.24 161.54 170.69C161.59 170.54 161.82 170.64 161.77 170.8C161.3 172.28 160.96 173.78 160.36 175.23C159.81 176.6 159.09 177.9 158.32 179.16C156.89 181.51 155.26 184.01 152.81 185.41C150.24 186.88 146.93 186.79 144.07 186.62C142.41 186.53 140.76 186.31 139.13 185.97C137.96 185.72 135.99 185.53 135.24 184.5C135.11 184.32 135.18 184.04 135.4 183.96" id="cROt10yFN"></path><path d="M90.64 399.91C100.82 384.51 110.8 368.99 120.61 353.35C130.44 337.67 140.09 321.88 149.61 306.01C151.88 302.21 154.51 298.42 155.98 294.21C157.57 289.64 156.67 285.22 155.23 280.74C152.58 272.54 149.28 264.56 145.72 256.71C142.15 248.85 138.31 241.11 134.53 233.34C130.78 225.64 126.78 217.91 123.94 209.81C121.22 202.08 120.19 194.06 122.27 186.04C124.34 178.08 128.82 170.93 133.49 164.26C134.73 162.5 135.98 160.76 137.22 159C137.31 158.87 137.52 159.03 137.42 159.16C132.27 166.12 127.24 173.48 124.22 181.64C122.73 185.67 121.76 189.92 121.67 194.23C121.57 198.6 122.39 202.94 123.68 207.1C126.19 215.2 130.14 222.87 133.82 230.47C137.59 238.25 141.46 245.98 145.09 253.82C148.74 261.71 152.16 269.72 154.97 277.95C156.22 281.62 157.61 285.45 157.53 289.38C157.44 293.68 155.39 297.55 153.26 301.18C144 316.97 134.39 332.56 124.66 348.06C114.9 363.62 104.94 379.06 94.82 394.4C93.55 396.33 92.27 398.26 90.99 400.19C90.83 400.43 90.48 400.15 90.64 399.91" id="bfDRq2kHZ"></path><path d="M202.31 108.85C208.07 121.5 237.19 138.94 250.83 140.81C260.64 142.16 290.43 142.62 300.65 141.06C312.62 139.23 303.48 106.93 296.4 107.76C276.96 110.03 260.45 112.56 255.26 112.56C248.92 112.56 214.62 101.55 210.49 100C200.38 96.21 199.04 101.67 202.31 108.85" id="a11GIOkQRa"></path><path d="M202.49 112.2C209.79 123 234.05 140.65 234.05 140.65C234.27 140.15 235.39 137.67 237.41 133.19C244.1 118.4 247.81 110.18 248.55 108.54C248.55 108.54 226.28 101.51 211.61 98.37C209.63 97.95 207.89 97.69 206.37 97.63C197.01 97.12 196.2 102.91 202.49 112.2" id="fuyNPLUG"></path><path d="M202.49 112.2C209.79 123 234.05 140.65 234.05 140.65C234.38 139.91 237.08 133.94 237.41 133.19C228.37 122.69 214.4 106.77 206.37 97.63C197.01 97.12 196.2 102.91 202.49 112.2" id="a4vkx21W1h"></path><path d="M229.67 135.67C231.52 131.13 239.76 112.85 241.8 109.01C241.95 108.75 242.15 108.77 242.03 109.06C236.82 122.77 231.89 131.37 229.85 135.73C229.84 135.73 229.78 135.7 229.67 135.67" id="b65FJn0nNa"></path><path d="M292.83 108.11C304.67 106.56 319.3 103.9 331.7 109.17C334.13 110.2 335.01 112.01 335.01 112.01C340.61 114.27 341.22 117.59 341.22 117.59C345.79 121.29 345.95 124.78 345.95 124.78C345.95 124.78 352.5 127.5 351.5 131.73C350.41 136.47 341.43 131.72 334.9 132.12C319.93 133.04 298.91 138.54 294.62 139.24C294.5 137.16 293.9 126.79 292.83 108.11" id="a2fgKcXXFb"></path><path d="M318.53 122.06C322.94 121.88 327.27 121.58 331.68 122C336.53 122.45 341.11 123.7 345.81 124.86C345.95 124.89 346.02 124.69 345.88 124.64C337.71 121.2 327.23 120.29 318.52 121.86C318.31 121.9 318.31 122.07 318.53 122.06" id="ag33VJf0w"></path><path d="M316.66 113.11C320.96 113.17 328.52 113.32 341.18 117.73C341.18 117.72 341.21 117.66 341.21 117.65C333.38 113.7 325.35 112.29 316.66 112.9C316.39 112.92 316.37 113.1 316.66 113.11" id="a2HiRLShpS"></path><path d="M315.75 108.28C323.06 108.66 327.62 109.82 334.97 112.03C334.98 112.02 335 111.96 335 111.96C326.91 108.57 323.59 108.25 315.72 108.02C315.45 108.02 315.46 108.26 315.75 108.28" id="bhM2QDP7i"></path><path d="M316.93 134.38C315.03 135.27 315.48 136.27 319.12 137.12C322.8 137.98 337.88 138.21 337.35 143.47C336.82 148.76 315.49 148.08 309.54 146.21C303.58 144.36 294.62 139.24 294.62 139.24C298.79 138.54 308.76 135.86 316.93 134.38" id="a1ZNTM6bSa"></path><path d="M218.14 129.02C218.05 131.29 217.83 133.61 217.51 135.91C217.52 135.88 217.6 135.68 217.61 135.66C218.05 134.46 218.48 133.23 219.02 132.07C219.03 132.08 219.13 132.1 219.14 132.1C218.91 133.36 218.47 134.62 217.99 135.81C217.76 136.38 217.53 136.94 217.28 137.5C217.11 138.52 216.93 139.54 216.72 140.54C216.33 142.45 214.53 150.55 214.12 151.92C214.04 152.2 213.69 152.14 213.72 151.82C213.81 150.33 215.32 141.89 215.63 139.98C216.21 136.31 217.02 132.57 218 128.99C218.01 128.99 218.06 129 218.14 129.02" id="b3yPfh4iJg"></path><path d="M204.26 189.56C200.71 191.39 196.13 194.23 175.49 190.17C174.2 189.9 172.9 189.59 171.6 189.2C152.24 183.39 129.03 160.62 127.72 159.02C127.72 159.02 158.46 109.17 197.79 93.5C202.65 91.57 210.7 95.3 215.15 99.95C216.74 101.61 220.19 113.84 218.87 123.75C217.53 133.65 207.84 187.75 204.26 189.56" id="dvXGu4ArW"></path><path d="M201.51 123.3C201.63 124.37 201.54 125.41 201.41 126.45C201.26 127.48 201.05 128.51 200.65 129.5C200.54 128.43 200.62 127.39 200.75 126.36C200.91 125.32 201.11 124.3 201.51 123.3" id="b1jiSMfWh"></path><path d="M188.11 157.24C188.22 158.31 188.14 159.36 188.01 160.39C187.85 161.43 187.65 162.45 187.24 163.45C187.13 162.38 187.21 161.34 187.35 160.3C187.5 159.27 187.71 158.24 188.11 157.24" id="a35eYKKDg"></path><path d="M165.32 131.59C165.43 132.66 165.35 133.7 165.22 134.74C165.06 135.77 164.86 136.8 164.45 137.8C164.34 136.73 164.42 135.68 164.56 134.65C164.71 133.61 164.92 132.59 165.32 131.59" id="a8gCGoiHql"></path><path d="M210.3 155.52C210.41 156.59 210.32 157.63 210.19 158.67C210.04 159.7 209.83 160.73 209.43 161.73C209.32 160.66 209.4 159.62 209.53 158.58C209.69 157.55 209.9 156.52 210.3 155.52" id="b3mne1AZQO"></path><path d="M181.03 127.18C182.1 127.07 183.15 127.16 184.18 127.29C185.22 127.44 186.24 127.65 187.24 128.05C186.17 128.16 185.13 128.08 184.09 127.95C183.06 127.79 182.03 127.59 181.03 127.18" id="aG8Y29Ya5"></path><path d="M155.17 151.71C156.24 151.6 157.28 151.68 158.32 151.81C159.35 151.97 160.38 152.17 161.38 152.57C160.31 152.69 159.26 152.6 158.23 152.47C157.2 152.31 156.17 152.11 155.17 151.71" id="ayGTd7h2X"></path><path d="M185.6 178.25C186.67 178.14 187.71 178.23 188.75 178.36C189.78 178.51 190.81 178.72 191.8 179.12C190.73 179.23 189.69 179.15 188.65 179.01C187.62 178.86 186.6 178.65 185.6 178.25" id="bXHnjDVQx"></path><path d="M147.2 168.61C148.27 168.5 149.31 168.58 150.35 168.71C151.38 168.87 152.41 169.07 153.41 169.48C152.34 169.59 151.29 169.5 150.26 169.37C149.22 169.22 148.2 169.01 147.2 168.61" id="a10b2CzpRM"></path><path d="M201.32 99.44C202.39 99.32 203.43 99.41 204.47 99.54C205.5 99.7 206.53 99.9 207.53 100.3C206.46 100.42 205.41 100.33 204.38 100.2C203.34 100.04 202.32 99.84 201.32 99.44" id="aIHQL2ttt"></path><path d="M193.8 107.93C193.12 108.77 192.33 109.45 191.5 110.09C190.66 110.71 189.79 111.29 188.8 111.71C189.48 110.87 190.27 110.2 191.1 109.56C191.94 108.94 192.81 108.36 193.8 107.93" id="aZNzfbsq8"></path><path d="M152.79 132.07C152.11 132.91 151.32 133.59 150.49 134.23C149.65 134.85 148.78 135.43 147.79 135.85C148.47 135.01 149.26 134.34 150.09 133.7C150.93 133.08 151.8 132.5 152.79 132.07" id="a5D0vDUbn"></path><path d="M203.99 142.98C203.31 143.81 202.52 144.49 201.69 145.13C200.85 145.75 199.98 146.33 198.99 146.75C199.67 145.92 200.46 145.24 201.29 144.6C202.13 143.98 203 143.4 203.99 142.98" id="c1eE8gGc0t"></path><path d="M170.83 163.86C170.16 164.69 169.36 165.37 168.53 166.01C167.69 166.63 166.82 167.21 165.83 167.63C166.51 166.8 167.31 166.12 168.13 165.48C168.97 164.86 169.84 164.28 170.83 163.86" id="c1hIb8Wien"></path><path d="M216.7 114.44C216.02 115.28 215.22 115.96 214.4 116.6C213.56 117.22 212.69 117.8 211.69 118.22C212.37 117.38 213.17 116.71 214 116.07C214.84 115.45 215.71 114.87 216.7 114.44" id="a4vsxJsqsZ"></path><path d="M216 138.64C215.17 137.97 214.49 137.17 213.85 136.34C213.23 135.5 212.65 134.63 212.22 133.64C213.06 134.32 213.74 135.12 214.38 135.94C215 136.79 215.58 137.66 216 138.64" id="g1eHq5D2rZ"></path><path d="M142.1 155.31C141.26 154.63 140.59 153.84 139.94 153.01C139.32 152.17 138.74 151.3 138.32 150.31C139.16 150.99 139.84 151.78 140.48 152.61C141.1 153.45 141.68 154.32 142.1 155.31" id="aCPCMOFP7"></path><path d="M207.02 175.15C206.18 174.47 205.51 173.68 204.87 172.85C204.24 172.01 203.66 171.14 203.24 170.15C204.08 170.83 204.76 171.62 205.4 172.45C206.01 173.29 206.6 174.16 207.02 175.15" id="b2il2rWQa6"></path><path d="M174.49 118.62C173.65 117.94 172.97 117.14 172.33 116.32C171.71 115.47 171.13 114.61 170.71 113.61C171.54 114.29 172.22 115.09 172.86 115.92C173.48 116.76 174.06 117.63 174.49 118.62" id="amtjNbVR4"></path><path d="M175.06 186.44C174.22 185.76 173.54 184.97 172.91 184.14C172.28 183.3 171.7 182.43 171.28 181.44C172.12 182.12 172.8 182.91 173.44 183.74C174.05 184.58 174.64 185.45 175.06 186.44" id="agcFLHMed"></path><path d="M180.59 146.43C179.75 145.75 179.08 144.96 178.44 144.13C177.82 143.29 177.23 142.42 176.81 141.43C177.65 142.11 178.33 142.9 178.97 143.73C179.59 144.57 180.17 145.44 180.59 146.43" id="ezfPif8pF"></path><path d="M207.92 113.22C202.91 112.28 198.19 101.91 197.59 94.93C197.55 94.45 199.94 90.66 202.62 85.9C204.23 83.01 205.96 79.75 207.33 76.67C207.6 76.03 209.24 78.15 209.24 78.15C209.48 78.33 210.67 79.24 212.81 80.88C219.89 86.3 223.82 89.32 224.6 89.92C224.6 89.92 219.84 95.55 217.5 100.95C217.31 101.4 217.17 101.84 217.07 102.27C217.07 102.29 217.01 102.47 217.01 102.49C216.34 105.07 212.77 114.11 207.92 113.22" id="aP90dyUvJ"></path><path d="M217.07 102.27C217.03 102.4 217.01 102.48 217.01 102.49C216.36 102.31 215.69 102.06 214.97 101.72C202.07 95.67 207.76 78.38 207.76 78.38C208.1 78.55 209.78 79.38 212.81 80.88C219.89 86.3 223.82 89.32 224.6 89.92C224.6 89.92 219.84 95.55 217.5 100.95C217.31 101.4 217.17 101.84 217.07 102.27" id="c1pGL4Ywmv"></path><path d="M238.14 53.07C238.14 53.07 244.04 56.81 244.07 63.47C244.11 70.13 241.46 76.64 240.85 76.87C240.23 77.1 238.14 53.07 238.14 53.07" id="h330zEYiWx"></path><path d="M208.88 56.52C205.33 63.52 205.51 85.55 209.94 91.23C216.35 99.46 228.72 102.3 236.18 94.16C243.41 86.27 242.67 57.56 237.55 52.21C230.02 44.33 214.11 46.18 208.88 56.52" id="b3CVY9xvZH"></path><path d="M209.44 90.93L209.44 90.92L209.44 90.93" id="aSR0ZwhyQ"></path><path d="M227.68 74.18C227.61 74.26 227.57 74.3 227.56 74.31C227.65 75.81 227.49 77.54 226.14 78.07C226.14 78.08 226.15 78.15 226.16 78.16C227.81 77.89 228 75.58 227.68 74.18" id="b1oyjdBFYd"></path><path d="M226.3 72.64C223.88 72.51 223.8 77.36 226.05 77.48C228.25 77.59 228.33 72.74 226.3 72.64" id="c6YSEj10S8"></path><path d="M235.9 74.12C235.96 74.2 236 74.24 236.01 74.25C235.94 75.75 236.11 77.49 237.46 78.01C237.46 78.01 237.45 78.08 237.44 78.09C235.79 77.83 235.59 75.53 235.9 74.12" id="a9uyZWKCM"></path><path d="M237.26 72.57C239.68 72.43 239.79 77.27 237.55 77.41C235.35 77.54 235.23 72.69 237.26 72.57" id="alI5ZTxIQ"></path><path d="M224.78 68.95C225.44 68.79 226.03 68.54 226.67 68.32C227.39 68.07 227.99 67.94 228.47 67.3C228.73 66.96 228.63 66.34 228.33 66.06C227.61 65.41 226.65 65.49 225.77 65.76C224.81 66.05 224.15 66.51 223.59 67.34C223.05 68.14 223.91 69.15 224.78 68.95" id="a6mPUBe2H"></path><path d="M238.94 71.1C238.27 70.98 237.67 70.75 237.02 70.56C236.29 70.35 235.68 70.26 235.17 69.65C234.89 69.32 234.95 68.7 235.25 68.4C235.93 67.71 236.89 67.75 237.79 67.96C238.76 68.2 239.44 68.63 240.05 69.43C240.63 70.2 239.83 71.25 238.94 71.1" id="c2mGYknzbs"></path><path d="M224.26 88.41C224.61 88.76 224.96 89.25 225.51 89.31C226.03 89.36 226.65 89.13 227.13 88.95C227.13 88.96 227.19 89.03 227.19 89.03C226.79 89.6 225.97 89.95 225.27 89.82C224.59 89.69 224.27 89.1 224.11 88.47C224.12 88.47 224.17 88.45 224.26 88.41" id="bGONQpHtd"></path><path d="M232.98 81.98C232.98 81.98 233.04 84.23 232.93 85.28C232.92 85.37 229.97 84.8 226.8 85.5C226.32 85.6 226.37 85.21 226.92 84.96C228.02 84.45 229.41 83.98 232.13 84.27C232.24 83.99 231.97 80.81 232.14 80.82C232.71 80.83 233.79 81.34 234.45 81.61C234.45 76.93 233.7 72.28 233.78 67.61C233.78 67.45 234.02 67.42 234.06 67.58C235.19 72.39 235.3 77.78 235.42 82.62C235.44 83.23 233.38 82.21 232.98 81.98" id="acBJeyEam"></path><path d="M229.98 84.48C229.98 84.48 228.94 87.11 227.19 87.82C225.17 88.63 224.48 86.81 226.54 85.2C227.62 84.36 229.98 84.48 229.98 84.48" id="flPMw9AQW"></path><path d="M227.89 87.41C227.66 87.58 227.43 87.73 227.18 87.82C225.33 88.57 224.6 87.09 226.09 85.6C227.1 85.68 228.21 86.05 227.89 87.41" id="a1q8KjQvJg"></path><path d="M207.86 75.37C210.29 76.12 213.09 68.8 213.89 65.98C214.58 63.5 215.39 55.63 215.51 55.09C215.63 54.56 226.12 62.06 232.26 60.26C238.4 58.47 242.5 52.96 242.59 50.39C242.67 47.82 235.05 41.29 228.45 40.96C221.86 40.63 212.93 49.01 212.93 49.01C212.93 49.01 215.97 45.39 215.86 45.09C215.76 44.79 211.5 46.49 210.72 49.53C210.72 49.53 211.56 45.72 211.24 45.65C210.91 45.58 207.6 48.84 208.35 51.31C208.35 51.31 204.52 54.63 204.17 58.27C203.81 61.9 205 74.49 207.86 75.37" id="j2vpQLu7Qr"></path><path d="M236.62 58.98C234.76 59.84 232.89 60.78 230.83 61.06C228.6 61.35 226.28 60.79 224.21 59.99C222.08 59.18 220.16 58 218.4 56.56C216.87 55.3 215.51 53.77 213.87 52.65C213.46 52.36 212.98 52.96 213.24 53.33C215.72 57.07 220.13 60.18 224.37 61.53C228.84 62.95 233.04 61.95 236.65 59.03C236.64 59.03 236.64 59.01 236.62 58.98" id="dTAWv8Ap7"></path><path d="M210.4 74.72C210.4 74.72 206.63 67.05 203.22 68.29C199.81 69.54 201.91 80.14 205.38 82.08C208.86 84.02 210.72 80.84 210.72 80.84C210.7 80.43 210.6 78.39 210.4 74.72" id="cdZonyGEW"></path><path d="M203.89 71.32C203.87 71.37 203.86 71.41 203.86 71.41C206.29 72.86 207.28 75.47 207.85 78.1C207.23 77.03 206.26 76.34 204.84 77.06C204.84 77.07 204.88 77.19 204.89 77.21C205.98 77.14 206.72 77.44 207.3 78.4C207.72 79.08 207.95 79.9 208.2 80.65C208.29 80.9 208.72 80.84 208.68 80.56C208.68 80.55 208.67 80.5 208.67 80.49C209.24 77.2 207.39 72.19 203.89 71.32" id="bT5xDGsKw"></path><path d="M185.43 108.97C182.83 124.05 199.12 174.89 209.6 184.38C225.2 198.5 254.04 207.79 264.48 210.81C269.04 212.13 281.64 180.08 277.03 177.97C267.16 173.45 236.51 163.89 233.62 161.43C230.73 158.98 213.12 133.63 205.29 119.01C194.78 99.4 186.75 101.34 185.43 108.97" id="bNKfWpmCF"></path><path d="M269.27 175.15C269.27 175.15 282.87 178.62 291.66 181.3C296.56 182.8 304.73 186.12 307.83 188.86C312.46 192.97 329.22 213.12 324.42 217.29C320.08 221.06 307.88 201.92 307.88 201.92C307.88 201.92 321.9 220.14 315.83 223.73C309.77 227.31 298.86 203.85 298.86 203.85C298.86 203.85 312.84 222.9 306.01 225.6C300.84 227.64 289.77 206.96 289.77 206.96C289.77 206.96 301.67 223.41 296.44 225.74C290.67 228.32 279.25 209.86 279.25 209.86C264.98 213.55 256.67 209.47 251.11 205.86C249.77 204.99 269.27 175.15 269.27 175.15" id="e46TrIwYQ"></path><path d="M303.44 195.31C305.16 197.39 306.92 199.49 308.45 201.71C309.99 203.94 311.44 206.22 312.76 208.58C316 214.37 317.12 218.5 317.02 218.25C314.73 212.4 309.36 204.34 307.83 202.11C306.3 199.89 304.88 197.59 303.35 195.37C303.36 195.36 303.39 195.34 303.44 195.31" id="g87vHE6vft"></path><path d="M295.3 200.7C298.25 203.04 304.45 211.76 306.84 217.6C306.94 217.84 306.81 217.83 306.66 217.6C304.79 214.72 297.23 203.53 295.23 200.74C295.23 200.74 295.26 200.73 295.3 200.7" id="afimXv0YO"></path><path d="M287.48 204.07C290.9 207.45 293.77 212.07 296.03 217.41C296.13 217.66 295.94 217.62 295.8 217.39C293.04 212.9 290.91 209.36 287.34 204.18C287.35 204.18 287.39 204.14 287.48 204.07" id="cDC1E5aPV"></path><path d="M200.25 110.08C188.09 92.88 180.83 99.26 183.27 117.92C185.55 135.38 191.67 156.18 191.67 156.18C194.73 154.69 219.28 142.8 222.35 141.32C222.35 141.32 208.04 121.08 200.25 110.08" id="c6RbBy4wJ"></path><path d="M207.68 116.84C208.12 117.82 208.36 118.84 208.55 119.87C208.72 120.9 208.84 121.94 208.76 123.02C208.32 122.03 208.08 121.01 207.89 119.98C207.73 118.95 207.61 117.91 207.68 116.84" id="b1Nf1ob7FQ"></path><path d="M189.53 127.3C190.51 126.86 191.53 126.62 192.56 126.43C193.59 126.26 194.63 126.14 195.71 126.22C194.72 126.66 193.7 126.9 192.67 127.09C191.64 127.25 190.6 127.37 189.53 127.3" id="afeexpxD5"></path><path d="M190.32 100.55C189.93 101.56 189.38 102.45 188.79 103.31C188.18 104.15 187.52 104.97 186.71 105.68C187.1 104.67 187.65 103.78 188.24 102.92C188.86 102.08 189.51 101.26 190.32 100.55" id="a4ytxHEkwE"></path><path d="M216.21 135.33C215.82 136.33 215.27 137.22 214.68 138.08C214.07 138.93 213.42 139.75 212.6 140.45C212.99 139.45 213.54 138.56 214.13 137.7C214.75 136.85 215.4 136.03 216.21 135.33" id="b3caroiQf2"></path><path d="M194.98 145.76C193.98 145.37 193.09 144.82 192.23 144.23C191.38 143.61 190.56 142.96 189.86 142.15C190.86 142.54 191.75 143.09 192.61 143.68C193.46 144.3 194.28 144.94 194.98 145.76" id="fjoKqHnX4"></path><path d="M204.33 115.25C205.97 117.5 207.66 119.7 209.34 121.91C208.92 120.79 208.55 119.67 208.21 118.52C208.22 118.51 208.29 118.49 208.3 118.49C208.64 119.37 209.02 120.24 209.34 121.13C209.5 121.56 209.66 121.98 209.82 122.41C209.83 122.44 209.92 122.66 209.93 122.68C211.24 124.4 212.55 126.13 213.81 127.89C215.32 129.98 216.77 132.12 218.23 134.25C219.74 136.45 221.17 139.03 222.77 141.17C222.91 141.35 220.05 142.5 219.78 142.65C219.51 142.8 219.33 142.54 219.62 142.45C219.88 142.37 222.14 140.98 222.17 140.95C220.71 138.81 219.02 136.82 217.49 134.72C215.97 132.63 214.44 130.55 212.97 128.43C209.97 124.12 207.22 119.64 204.24 115.31C204.25 115.31 204.28 115.29 204.33 115.25" id="b2eFGgQppF"></path><path d="M184.02 130.27C184.49 131.18 184.99 132.08 185.4 133.01C185.57 133.4 185.74 133.79 185.91 134.17C185.21 130.85 184.53 127.52 183.85 124.19C183.85 124.19 183.9 124.17 183.91 124.17C185.31 129.56 186.73 134.95 188.04 140.36C189.28 145.52 190.79 150.75 191.5 156.02C191.93 155.88 194.31 154.89 194.38 155.04C194.45 155.2 191.26 156.7 191.22 156.58C189.48 151.43 188.41 145.58 187.22 140.28C186.89 138.79 186.58 137.3 186.26 135.8C185.92 134.9 185.5 134.04 185.09 133.16C184.65 132.23 184.3 131.27 183.93 130.32C183.93 130.31 183.96 130.3 184.02 130.27" id="ncRPEPf0t"></path><path d="M192.15 151.05C196.41 148.64 214.22 139.42 218.21 137.68C218.49 137.56 218.63 137.7 218.36 137.87C205.76 145.37 196.56 149.06 192.25 151.21C192.25 151.2 192.21 151.14 192.15 151.05" id="d98J3PkMa"></path><path d="M680.14 501.16L274.39 501.16L333.06 168.42L738.81 168.42L680.14 501.16" id="dooZX59Sl"></path><path d="M471.93 133.96L339.14 133.96L333.06 168.42L475.17 168.42L471.93 133.96" id="a20YDaZUln"></path><path d="M680.14 501.16L274.39 501.16L333.06 168.42L738.81 168.42L732.7 203.11L719.02 280.67L680.14 501.16" id="b1IFEnfs"></path><path d="M475.17 168.42L333.06 168.42L339.14 133.96L471.93 133.96L475.17 168.42" id="bQy2GDsx1"></path><path d="M324.81 148.02C324.28 146.09 324.17 144.16 324.14 142.22C324.16 140.29 324.28 138.36 324.81 136.43C325.34 138.36 325.45 140.29 325.47 142.22C325.45 144.16 325.33 146.09 324.81 148.02" id="j3fQkRaiIX"></path><path d="M313.01 151.43C311.59 150.02 310.52 148.41 309.53 146.75C308.59 145.06 307.72 143.33 307.21 141.39C308.64 142.8 309.7 144.42 310.69 146.08C311.63 147.76 312.5 149.49 313.01 151.43" id="d1WkVGcsQx"></path><path d="M304.5 160.29C302.56 159.78 300.83 158.91 299.14 157.97C297.48 156.98 295.87 155.91 294.46 154.49C296.4 155 298.13 155.86 299.81 156.81C301.47 157.8 303.09 158.87 304.5 160.29" id="b2xRML0Uor"></path><path d="M301.55 172.21C299.62 172.74 297.69 172.85 295.76 172.88C293.82 172.86 291.89 172.74 289.96 172.21C291.89 171.68 293.82 171.57 295.76 171.55C297.69 171.57 299.62 171.69 301.55 172.21" id="a1s6Hk9YWl"></path><path d="M304.96 184.01C303.55 185.43 301.94 186.5 300.28 187.48C298.59 188.43 296.86 189.3 294.93 189.81C296.33 188.38 297.95 187.31 299.61 186.33C301.3 185.39 303.03 184.52 304.96 184.01" id="c6DmGtTN7"></path><path d="M313.82 192.52C313.31 194.46 312.44 196.19 311.5 197.88C310.51 199.54 309.45 201.15 308.02 202.56C308.53 200.62 309.4 198.89 310.34 197.21C311.33 195.55 312.4 193.93 313.82 192.52" id="b4ttBzZQ2l"></path><path d="M325.74 195.47C326.27 197.4 326.39 199.33 326.41 201.26C326.39 203.2 326.27 205.13 325.74 207.06C325.22 205.13 325.1 203.2 325.08 201.26C325.1 199.33 325.22 197.4 325.74 195.47" id="j22BMtyB9h"></path><path d="M337.54 192.06C338.96 193.47 340.03 195.08 341.02 196.74C341.97 198.42 342.83 200.16 343.34 202.09C341.92 200.68 340.85 199.07 339.87 197.41C338.92 195.72 338.06 193.99 337.54 192.06" id="e3qmtHBDNQ"></path><path d="M346.06 183.2C347.99 183.71 349.72 184.58 351.41 185.52C353.07 186.5 354.68 187.57 356.09 189C354.16 188.49 352.42 187.62 350.74 186.67C349.08 185.69 347.47 184.62 346.06 183.2" id="fvKbjFBc9"></path><path d="M349 171.28C350.93 170.75 352.86 170.63 354.8 170.61C356.73 170.63 358.66 170.75 360.59 171.28C358.66 171.8 356.73 171.92 354.8 171.94C352.86 171.92 350.93 171.8 349 171.28" id="byWMjoaXe"></path><path d="M345.59 159.48C347 158.05 348.61 156.99 350.28 156C351.96 155.05 353.69 154.19 355.63 153.68C354.22 155.1 352.6 156.17 350.94 157.15C349.26 158.1 347.52 158.96 345.59 159.48" id="a79G9OQWq"></path><path d="M336.73 150.96C337.24 149.03 338.11 147.3 339.05 145.61C340.04 143.95 341.1 142.33 342.53 140.93C342.02 142.86 341.16 144.59 340.21 146.28C339.22 147.94 338.15 149.55 336.73 150.96" id="bbT4GMwnp"></path><path d="M679.55 501.16L272.92 501.16L215.19 180.5L621.82 180.5L679.55 501.16" id="anjEIT4UD"></path><path d="M372.99 359.62C372.99 368.95 365.43 376.52 356.09 376.52C346.76 376.52 339.19 368.95 339.19 359.62C339.19 350.28 346.76 342.72 356.09 342.72C365.43 342.72 372.99 350.28 372.99 359.62" id="c1Qp2hbc6X"></path><path d="M506.6 359.62C506.6 368.95 499.03 376.52 489.7 376.52C480.37 376.52 472.8 368.95 472.8 359.62C472.8 350.28 480.37 342.72 489.7 342.72C499.03 342.72 506.6 350.28 506.6 359.62" id="d3j7fWmwwx"></path><path d="M447.17 379.22C446.62 378.16 446.31 377.57 446.24 377.45C446.16 377.29 437.43 361.15 419.86 361.15C403.84 361.15 399.93 376.34 399.77 376.99C399.74 377.12 399.58 377.77 399.3 378.93L395.43 377.99C395.7 376.83 395.86 376.18 395.89 376.05C395.94 375.87 400.65 357.15 419.86 357.15C439.89 357.15 449.39 374.84 449.78 375.59C449.84 375.71 450.15 376.3 450.71 377.36L447.17 379.22" id="biljyV9yh"></path><path d="M652.7 358.33C653.58 358.14 654.45 357.94 655.32 357.71C655.29 357.58 655.02 356.55 654.99 356.42C654.14 356.64 653.28 356.84 652.42 357.03C652.44 357.11 652.53 357.55 652.7 358.33" id="a45LD5CEog"></path><path d="M660.48 356.19C662.18 355.61 663.86 354.97 665.51 354.27C665.46 354.15 665.04 353.17 664.99 353.05C663.37 353.73 661.72 354.36 660.05 354.92C660.14 355.18 660.39 355.93 660.48 356.19ZM670.39 351.99C671.99 351.17 673.56 350.29 675.08 349.35C675.01 349.24 674.45 348.33 674.38 348.21C672.89 349.13 671.35 350 669.78 350.81C669.9 351.05 670.27 351.76 670.39 351.99ZM679.55 346.35C681.01 345.28 682.42 344.16 683.76 342.99C683.68 342.89 682.98 342.08 682.89 341.98C681.57 343.13 680.2 344.23 678.77 345.27C678.92 345.49 679.4 346.13 679.55 346.35ZM687.67 339.27C688.92 337.95 690.1 336.59 691.19 335.18C691.09 335.1 690.25 334.45 690.14 334.36C689.08 335.73 687.93 337.06 686.7 338.35C686.9 338.53 687.47 339.08 687.67 339.27ZM694.27 330.74C695.22 329.19 696.07 327.59 696.8 325.95C696.68 325.9 695.71 325.46 695.59 325.41C694.88 326.99 694.06 328.54 693.13 330.05C693.36 330.18 694.04 330.6 694.27 330.74ZM698.68 320.87C699.18 319.13 699.56 317.36 699.79 315.56C699.66 315.54 698.6 315.4 698.47 315.39C698.24 317.12 697.88 318.82 697.4 320.5C697.65 320.57 698.42 320.79 698.68 320.87ZM700.14 310.16C700.15 310.03 700.15 309.9 700.15 309.77C700.15 308.08 700.06 306.41 699.89 304.78C699.76 304.79 698.7 304.9 698.56 304.91C698.73 306.51 698.81 308.13 698.81 309.77C698.81 309.9 698.81 310.02 698.81 310.15C699.08 310.15 699.88 310.16 700.14 310.16ZM699.05 299.45C698.67 297.69 698.21 295.95 697.67 294.24C697.54 294.28 696.53 294.61 696.4 294.65C696.93 296.32 697.38 298.01 697.75 299.73C698.01 299.67 698.79 299.51 699.05 299.45ZM695.83 289.19C695.15 287.54 694.4 285.91 693.61 284.3C693.49 284.36 692.53 284.83 692.41 284.89C693.2 286.48 693.93 288.08 694.6 289.7C694.84 289.6 695.58 289.29 695.83 289.19ZM691.09 279.56C690.22 278.01 689.3 276.48 688.36 274.95C688.24 275.02 687.34 275.58 687.23 275.65C688.16 277.16 689.07 278.68 689.93 280.21C690.16 280.08 690.86 279.69 691.09 279.56ZM685.48 270.44C684.5 268.95 683.51 267.48 682.51 266C682.4 266.07 681.52 266.67 681.41 266.74C682.41 268.22 683.4 269.69 684.36 271.17C684.59 271.02 685.25 270.58 685.48 270.44ZM679.5 261.59C678.5 260.13 677.5 258.66 676.51 257.19C676.4 257.26 675.51 257.86 675.4 257.93C676.4 259.41 677.4 260.88 678.4 262.34C678.62 262.19 679.28 261.74 679.5 261.59ZM673.57 252.75C672.6 251.27 671.66 249.77 670.74 248.26C670.62 248.33 669.71 248.88 669.6 248.95C670.53 250.48 671.48 251.98 672.45 253.48C672.67 253.33 673.34 252.9 673.57 252.75ZM668.06 243.68C667.2 242.13 666.37 240.57 665.59 238.99C665.47 239.05 664.52 239.52 664.4 239.58C665.19 241.19 666.02 242.77 666.89 244.33C667.13 244.2 667.83 243.81 668.06 243.68ZM663.39 234.19C662.7 232.57 662.07 230.93 661.5 229.26C661.38 229.3 660.37 229.65 660.24 229.69C660.82 231.39 661.46 233.06 662.16 234.71C662.4 234.6 663.14 234.29 663.39 234.19ZM659.99 224.21C659.55 222.53 659.19 220.81 658.89 219.06C658.76 219.08 657.71 219.26 657.58 219.28C657.88 221.07 658.26 222.82 658.7 224.54C658.96 224.48 659.73 224.28 659.99 224.21ZM658.24 213.84C658.11 212.26 658.05 210.64 658.05 209C658.05 208.86 658.05 208.72 658.05 208.58C657.91 208.57 656.85 208.57 656.71 208.57C656.71 208.71 656.71 208.86 656.71 209C656.71 210.68 656.78 212.33 656.91 213.95C657.18 213.92 657.97 213.86 658.24 213.84ZM658.31 203.31C658.34 202.94 658.38 202.58 658.42 202.21C658.57 200.79 658.77 199.42 659 198.08C658.87 198.06 657.82 197.88 657.69 197.85C657.45 199.21 657.25 200.62 657.09 202.06C657.05 202.44 657.02 202.81 656.98 203.19C657.25 203.21 658.04 203.28 658.31 203.31ZM660.15 192.95C660.63 191.21 661.19 189.55 661.81 187.96C661.68 187.91 660.69 187.53 660.57 187.48C659.93 189.11 659.36 190.81 658.87 192.6C659.13 192.67 659.9 192.88 660.15 192.95ZM663.99 183.19C664.82 181.61 665.73 180.12 666.71 178.71C666.6 178.63 665.73 178.03 665.62 177.95C664.61 179.4 663.67 180.94 662.81 182.57C663.05 182.69 663.75 183.07 663.99 183.19ZM669.96 174.6C671.14 173.28 672.39 172.05 673.69 170.91C673.6 170.81 672.9 170.01 672.82 169.91C671.47 171.08 670.19 172.35 668.97 173.71C669.17 173.89 669.76 174.42 669.96 174.6ZM677.84 167.69C679.29 166.69 680.79 165.78 682.33 164.96C682.27 164.84 681.76 163.9 681.7 163.78C680.12 164.63 678.58 165.57 677.09 166.6C677.24 166.81 677.69 167.47 677.84 167.69ZM687.09 162.7C688.72 162.02 690.37 161.42 692.04 160.9C692 160.78 691.69 159.76 691.65 159.63C689.94 160.16 688.24 160.78 686.58 161.47C686.68 161.71 686.99 162.45 687.09 162.7ZM697.14 159.54C698.88 159.16 700.61 158.85 702.34 158.6C702.32 158.47 702.17 157.42 702.15 157.28C700.39 157.53 698.62 157.85 696.85 158.25C696.91 158.5 697.08 159.28 697.14 159.54ZM707.59 158.06C709.18 157.96 710.74 157.91 712.27 157.91C712.47 157.91 712.67 157.91 712.87 157.91C712.88 157.78 712.88 156.71 712.89 156.58C712.68 156.58 712.48 156.58 712.27 156.58C710.71 156.58 709.12 156.63 707.5 156.73C707.52 157 707.57 157.8 707.59 158.06ZM718.15 158.16C719.98 158.32 721.73 158.54 723.38 158.83C723.4 158.7 723.58 157.65 723.61 157.52C721.92 157.23 720.13 156.99 718.26 156.83C718.24 157.09 718.17 157.89 718.15 158.16ZM728.49 160.03C728.79 160.12 729.08 160.21 729.37 160.3C730.83 160.79 732.15 161.33 733.34 161.93C733.4 161.81 733.88 160.86 733.94 160.74C732.69 160.11 731.31 159.54 729.78 159.04C729.49 158.94 729.18 158.85 728.87 158.75C728.8 159.01 728.57 159.77 728.49 160.03ZM737.62 164.77C739.04 166.03 740.06 167.37 740.73 168.74C740.85 168.68 741.81 168.21 741.93 168.15C741.17 166.61 740.04 165.13 738.51 163.78C738.33 163.98 737.8 164.57 737.62 164.77ZM741.73 173.56C741.62 175.2 741.07 176.79 740.11 178.21C740.22 178.28 741.1 178.88 741.21 178.95C742.29 177.35 742.93 175.53 743.06 173.65C742.79 173.63 741.99 173.58 741.73 173.56ZM736.46 181.63C735.11 182.45 733.52 183.08 731.72 183.46C731.74 183.59 731.96 184.64 731.99 184.77C733.93 184.35 735.66 183.67 737.15 182.77C737.01 182.54 736.59 181.86 736.46 181.63ZM726.58 183.85C725.88 183.82 725.16 183.75 724.42 183.65C723.41 183.51 722.4 183.34 721.41 183.14C721.38 183.27 721.17 184.32 721.15 184.45C722.17 184.65 723.2 184.83 724.24 184.97C725.02 185.08 725.78 185.15 726.52 185.18C726.53 184.92 726.57 184.12 726.58 183.85ZM716.32 181.84C714.63 181.31 712.99 180.69 711.4 179.98C711.34 180.11 710.91 181.08 710.86 181.2C712.5 181.93 714.18 182.56 715.92 183.11C716 182.85 716.24 182.09 716.32 181.84ZM706.71 177.6C705.2 176.72 703.73 175.76 702.32 174.71C702.24 174.82 701.61 175.68 701.53 175.79C702.98 176.86 704.48 177.85 706.04 178.75C706.18 178.52 706.58 177.83 706.71 177.6ZM698.28 171.37C696.99 170.18 695.77 168.92 694.62 167.6C694.52 167.68 693.71 168.38 693.61 168.47C694.8 169.83 696.06 171.12 697.37 172.34C697.55 172.15 698.1 171.56 698.28 171.37ZM691.37 163.46C690.37 162.03 689.44 160.55 688.57 159.01C688.45 159.07 687.52 159.59 687.41 159.66C688.3 161.24 689.25 162.76 690.28 164.22C690.5 164.07 691.15 163.61 691.37 163.46ZM686.23 154.29C685.53 152.7 684.9 151.06 684.35 149.37C684.22 149.42 683.21 149.75 683.08 149.79C683.65 151.52 684.29 153.2 685.01 154.83C685.25 154.72 685.98 154.4 686.23 154.29ZM682.93 144.3C682.54 142.61 682.22 140.88 681.98 139.12C681.85 139.14 680.79 139.28 680.66 139.3C680.91 141.1 681.24 142.87 681.64 144.6C681.89 144.54 682.67 144.36 682.93 144.3ZM681.47 133.87C681.41 132.69 681.37 131.49 681.37 130.29C681.37 129.72 681.38 129.16 681.39 128.59C681.26 128.59 680.2 128.56 680.06 128.56C680.05 129.14 680.04 129.71 680.04 130.29C680.04 131.52 680.07 132.74 680.14 133.94C680.41 133.93 681.2 133.88 681.47 133.87ZM681.73 123.32C681.91 121.6 682.15 119.86 682.46 118.09C682.33 118.07 681.28 117.88 681.15 117.86C680.83 119.66 680.58 121.43 680.4 123.19C680.67 123.22 681.46 123.3 681.73 123.32ZM683.55 112.92C683.97 111.24 684.45 109.54 685 107.84C684.87 107.8 683.85 107.47 683.73 107.43C683.17 109.17 682.69 110.89 682.26 112.6C682.52 112.67 683.3 112.86 683.55 112.92ZM686.76 102.85C687.4 101.18 688.11 99.56 688.86 98.01C688.74 97.95 687.78 97.49 687.65 97.43C686.89 99.02 686.18 100.66 685.51 102.37C685.76 102.46 686.51 102.75 686.76 102.85ZM691.33 93.35C692.23 91.8 693.17 90.32 694.16 88.9C694.05 88.82 693.18 88.21 693.07 88.14C692.06 89.59 691.09 91.1 690.18 92.68C690.41 92.81 691.1 93.21 691.33 93.35ZM697.33 84.68C698.46 83.29 699.63 81.97 700.82 80.71C700.72 80.62 699.95 79.89 699.85 79.8C698.64 81.08 697.45 82.43 696.3 83.84C696.51 84.01 697.13 84.51 697.33 84.68ZM704.59 77.01C705.91 75.8 707.25 74.66 708.61 73.58C708.53 73.48 707.86 72.64 707.78 72.54C706.4 73.64 705.04 74.8 703.69 76.03C703.87 76.23 704.41 76.82 704.59 77.01ZM712.86 70.43C714.34 69.4 715.82 68.44 717.29 67.54C717.22 67.43 716.67 66.52 716.6 66.41C715.11 67.31 713.6 68.29 712.09 69.33C712.25 69.55 712.7 70.21 712.86 70.43ZM721.9 64.93C723.52 64.07 725.11 63.29 726.65 62.58C726.59 62.46 726.15 61.5 726.09 61.37C724.53 62.09 722.92 62.88 721.27 63.75C721.4 63.99 721.77 64.7 721.9 64.93ZM731.52 60.5C733.32 59.79 735 59.19 736.5 58.69C736.46 58.57 736.13 57.56 736.08 57.43C734.55 57.94 732.86 58.54 731.03 59.26C731.06 59.35 731.23 59.76 731.52 60.5" id="c4amNOlef"></path><path d="M741.83 57.12C742.65 56.91 743.29 56.76 743.72 56.66C743.94 56.61 744.1 56.58 744.22 56.56C744.23 56.56 744.28 56.55 744.38 56.53C744.23 55.74 744.15 55.31 744.13 55.22C744.12 55.22 743.17 55.4 741.5 55.83C741.52 55.91 741.63 56.34 741.83 57.12" id="ai5uAFElp"></path><path d="M765.38 48.52C761.98 37.99 739.23 41.77 743.67 55.52C748.11 69.28 768.77 59.04 765.38 48.52" id="c8aw3g7xt"></path><path d="M731.3 44.27C731.47 39.66 737.89 36.1 746.97 37.74C756.05 39.38 764.6 45.5 764.6 45.5C764.6 45.5 755.62 50.99 746.45 51.96C737.28 52.92 731.13 48.91 731.3 44.27" id="c8IcmmiYw"></path><path d="M764.6 45.5C759.88 45.53 755.18 45.37 750.47 45.23C745.77 45.02 741.06 44.84 736.36 44.46C741.08 44.42 745.78 44.58 750.49 44.73C755.19 44.93 759.9 45.12 764.6 45.5" id="a48momWsD2"></path><path d="M740.42 40.19C741.79 40.8 743.05 41.57 744.32 42.33C745.56 43.14 746.81 43.93 747.95 44.89C746.58 44.28 745.32 43.51 744.05 42.75C742.82 41.94 741.57 41.14 740.42 40.19" id="bZmvcBA"></path><path d="M752.76 45.06C751.57 46.07 750.27 46.93 748.99 47.79C747.66 48.61 746.35 49.43 744.94 50.1C746.13 49.09 747.43 48.23 748.72 47.37C750.04 46.55 751.35 45.73 752.76 45.06" id="a5DJr3MbJ"></path><path d="M754.13 42.46C754.84 42.76 755.42 43.21 756.01 43.65C756.57 44.14 757.13 44.61 757.58 45.24C756.87 44.94 756.29 44.48 755.7 44.04C755.14 43.56 754.58 43.08 754.13 42.46" id="a2UM6Cb8R"></path><path d="M739.95 71.67C742.79 75.31 750.07 74.44 756.48 67.8C762.88 61.16 766.24 51.2 766.24 51.2C766.24 51.2 755.75 52 747.74 56.58C739.74 61.16 737.1 68.01 739.95 71.67" id="dBkTIP6p4"></path><path d="M766.24 51.2C762.4 53.93 758.68 56.81 754.94 59.68C751.24 62.6 747.54 65.5 743.95 68.56C747.79 65.83 751.52 62.95 755.25 60.08C758.95 57.16 762.65 54.26 766.24 51.2" id="aJGNqyPN7"></path><path d="M749.74 69.65C750.49 68.36 751.06 66.99 751.65 65.63C752.18 64.25 752.72 62.88 753.09 61.43C752.34 62.72 751.77 64.08 751.19 65.44C750.65 66.83 750.11 68.2 749.74 69.65" id="a28iYtOXKX"></path><path d="M756.9 58.48C755.34 58.35 753.79 58.42 752.24 58.47C750.69 58.58 749.14 58.68 747.6 58.97C749.16 59.09 750.71 59.02 752.26 58.97C753.81 58.86 755.36 58.76 756.9 58.48" id="gRV7uISCs"></path><path d="M759.53 59.78C759.92 59.13 760.13 58.42 760.36 57.72C760.52 57 760.7 56.28 760.7 55.52C760.31 56.17 760.1 56.88 759.87 57.58C759.71 58.3 759.53 59.02 759.53 59.78" id="bi7XoOOf"></path><path d="M765.38 48.52C763.28 49.19 761.03 48.04 760.35 45.94C759.68 43.85 760.83 41.6 762.92 40.92C765.02 40.24 767.27 41.4 767.95 43.49C768.62 45.59 767.47 47.84 765.38 48.52" id="amGbQEKs0"></path><path d="M767.83 56.11C765.73 56.79 763.48 55.64 762.81 53.54C762.13 51.44 763.28 49.19 765.38 48.52C767.47 47.84 769.72 48.99 770.4 51.09C771.08 53.18 769.93 55.43 767.83 56.11" id="iSYpMpvn9"></path><path d="M331.22 52.72C329.32 70.95 312.98 84.19 294.75 82.28C287.39 81.51 280.84 78.38 275.77 73.71C274.66 73.88 269.12 74.69 259.16 76.15C264.15 67.54 266.92 62.75 267.47 61.8C265.45 56.89 264.6 51.43 265.19 45.81C267.1 27.58 283.43 14.34 301.66 16.25C319.89 18.16 333.13 34.49 331.22 52.72" id="b4aHKXFDOt"></path><path d="M321.14 25.46C317.51 22.02 313.1 19.42 308.34 17.9C303.58 16.41 298.49 16.06 293.58 16.8C288.68 17.55 283.93 19.38 279.87 22.21C275.82 25.06 272.41 28.77 269.94 33.05C267.43 37.31 266.12 42.19 265.73 47.09C265.42 52.01 266.22 56.98 268.07 61.55C268.07 61.57 268.11 61.67 268.18 61.85L268.03 62.12L259.67 76.45L259.08 75.57L275.7 73.24L275.93 73.21C276.02 73.3 276.08 73.35 276.09 73.36C280.48 77.49 286.04 80.37 291.98 81.55C293.47 81.85 294.97 82.04 296.49 82.1C298 82.26 299.51 82.14 301.03 82.09C304.03 81.78 307.06 81.27 309.89 80.14C312.73 79.07 315.48 77.68 317.9 75.82C319.17 74.98 320.25 73.89 321.41 72.9C322.42 71.77 323.55 70.72 324.42 69.47C328.23 64.69 330.49 58.77 331.22 52.72C332.23 42.72 328.47 32.33 321.14 25.46ZM331.22 52.72C330.53 58.78 328.31 64.72 324.52 69.54C323.65 70.81 322.53 71.87 321.52 73.01C320.36 74.01 319.29 75.12 318.01 75.97C315.58 77.84 312.86 79.31 310 80.43C307.17 81.63 304.11 82.2 301.07 82.56C299.53 82.65 298 82.79 296.46 82.65C294.92 82.62 293.38 82.45 291.86 82.17C285.79 81.07 280.04 78.23 275.44 74.06C275.47 74.07 275.6 74.11 275.84 74.19L259.25 76.73L258.04 76.92L258.65 75.86L266.91 61.47C266.89 61.81 266.88 62 266.87 62.04C262.85 52.57 263.76 41.28 268.92 32.46C271.49 28.04 275.08 24.23 279.31 21.39C283.55 18.54 288.45 16.75 293.48 16.07C298.51 15.4 303.68 15.86 308.49 17.46C313.28 19.07 317.68 21.79 321.29 25.31C328.62 32.27 332.3 42.72 331.22 52.72" id="b94QYFtPIS"></path><path d="M283.36 56.87L282.59 30.45L287.87 30.45L287.1 56.87L283.36 56.87ZM281.98 64.74C281.98 62.76 283.36 61.33 285.23 61.33C287.21 61.33 288.48 62.76 288.48 64.74C288.48 66.67 287.21 68.15 285.23 68.15C283.3 68.15 281.98 66.67 281.98 64.74" id="e2H7pV8Gmv"></path><path d="M296.02 56.87L295.25 30.45L300.53 30.45L299.76 56.87L296.02 56.87ZM294.64 64.74C294.64 62.76 296.02 61.33 297.89 61.33C299.87 61.33 301.14 62.76 301.14 64.74C301.14 66.67 299.87 68.15 297.89 68.15C295.96 68.15 294.64 66.67 294.64 64.74" id="d1UgEkb0ky"></path><path d="M308.68 56.87L307.91 30.45L313.19 30.45L312.42 56.87L308.68 56.87ZM307.3 64.74C307.3 62.76 308.68 61.33 310.55 61.33C312.53 61.33 313.8 62.76 313.8 64.74C313.8 66.67 312.53 68.15 310.55 68.15C308.62 68.15 307.3 66.67 307.3 64.74" id="fT6whjJ0t"></path></defs><g><g><g><use xlink:href="#bgKCjWAhl" opacity="1" fill="#e7e8e5" fill-opacity="1"></use><g><use xlink:href="#bgKCjWAhl" opacity="1" fill-opacity="0" stroke="#000000" stroke-width="1" stroke-opacity="0"></use></g></g><g><use xlink:href="#eFXB18Wy9" opacity="1" fill="#d4d6d3" fill-opacity="1"></use><g><use xlink:href="#eFXB18Wy9" opacity="1" fill-opacity="0" stroke="#000000" stroke-width="1" stroke-opacity="0"></use></g></g><g><use xlink:href="#a2GIWvipX" opacity="1" fill="#e7e8e5" fill-opacity="1"></use><g><use xlink:href="#a2GIWvipX" opacity="1" fill-opacity="0" stroke="#000000" stroke-width="1" stroke-opacity="0"></use></g></g><g><use xlink:href="#b15D0Wpqy6" opacity="1" fill="#e7e8e5" fill-opacity="1"></use><g><use xlink:href="#b15D0Wpqy6" opacity="1" fill-opacity="0" stroke="#000000" stroke-width="1" stroke-opacity="0"></use></g></g><g><use xlink:href="#cvo8MpLI4" opacity="1" fill="#d4d6d3" fill-opacity="1"></use><g><use xlink:href="#cvo8MpLI4" opacity="1" fill-opacity="0" stroke="#000000" stroke-width="1" stroke-opacity="0"></use></g></g><g><use xlink:href="#aODwCYU3s" opacity="1" fill="#d4d6d3" fill-opacity="1"></use><g><use xlink:href="#aODwCYU3s" opacity="1" fill-opacity="0" stroke="#000000" stroke-width="1" stroke-opacity="0"></use></g></g><g><use xlink:href="#b7s3HH4UVn" opacity="1" fill="#e7e8e5" fill-opacity="1"></use><g><use xlink:href="#b7s3HH4UVn" opacity="1" fill-opacity="0" stroke="#000000" stroke-width="1" stroke-opacity="0"></use></g></g><g><use xlink:href="#a3TqSwlzE" opacity="1" fill="#e7e8e5" fill-opacity="1"></use><g><use xlink:href="#a3TqSwlzE" opacity="1" fill-opacity="0" stroke="#000000" stroke-width="1" stroke-opacity="0"></use></g></g><g><use xlink:href="#a2ilmDVwXM" opacity="1" fill="#e7e8e5" fill-opacity="1"></use><g><use xlink:href="#a2ilmDVwXM" opacity="1" fill-opacity="0" stroke="#000000" stroke-width="1" stroke-opacity="0"></use></g></g><g><use xlink:href="#dayprR8BGA" opacity="1" fill="#e7e8e5" fill-opacity="1"></use><g><use xlink:href="#dayprR8BGA" opacity="1" fill-opacity="0" stroke="#000000" stroke-width="1" stroke-opacity="0"></use></g></g><g><use xlink:href="#aVbin0QNt" opacity="1" fill="#e7e8e5" fill-opacity="1"></use><g><use xlink:href="#aVbin0QNt" opacity="1" fill-opacity="0" stroke="#000000" stroke-width="1" stroke-opacity="0"></use></g></g><g><use xlink:href="#b13XgqVEl9" opacity="1" fill="#ffffff" fill-opacity="1"></use><g><use xlink:href="#b13XgqVEl9" opacity="1" fill-opacity="0" stroke="#000000" stroke-width="1" stroke-opacity="0"></use></g></g><g><use xlink:href="#aLa0HPzDx" opacity="1" fill="#ffffff" fill-opacity="1"></use><g><use xlink:href="#aLa0HPzDx" opacity="1" fill-opacity="0" stroke="#000000" stroke-width="1" stroke-opacity="0"></use></g></g><g><use xlink:href="#c259jb0K8" opacity="1" fill="#ffffff" fill-opacity="1"></use><g><use xlink:href="#c259jb0K8" opacity="1" fill-opacity="0" stroke="#000000" stroke-width="1" stroke-opacity="0"></use></g></g><g><use xlink:href="#d7AC4ltOP" opacity="1" fill="#e7e8e5" fill-opacity="1"></use><g><use xlink:href="#d7AC4ltOP" opacity="1" fill-opacity="0" stroke="#000000" stroke-width="1" stroke-opacity="0"></use></g></g><g><use xlink:href="#cKTagfKxe" opacity="1" fill="#e7e8e5" fill-opacity="1"></use><g><use xlink:href="#cKTagfKxe" opacity="1" fill-opacity="0" stroke="#000000" stroke-width="1" stroke-opacity="0"></use></g></g><g><use xlink:href="#dvluik56t" opacity="1" fill="#ffffff" fill-opacity="1"></use><g><use xlink:href="#dvluik56t" opacity="1" fill-opacity="0" stroke="#000000" stroke-width="1" stroke-opacity="0"></use></g></g><g><use xlink:href="#e6yvN2ycoh" opacity="1" fill="#ffffff" fill-opacity="1"></use><g><use xlink:href="#e6yvN2ycoh" opacity="1" fill-opacity="0" stroke="#000000" stroke-width="1" stroke-opacity="0"></use></g></g><g><use xlink:href="#anVBncJLE" opacity="1" fill="#ffffff" fill-opacity="1"></use><g><use xlink:href="#anVBncJLE" opacity="1" fill-opacity="0" stroke="#000000" stroke-width="1" stroke-opacity="0"></use></g></g><g><use xlink:href="#c6s4SibKt" opacity="1" fill="#ffffff" fill-opacity="1"></use><g><use xlink:href="#c6s4SibKt" opacity="1" fill-opacity="0" stroke="#000000" stroke-width="1" stroke-opacity="0"></use></g></g><g><use xlink:href="#f1F2NWKWja" opacity="1" fill="#e7e8e5" fill-opacity="1"></use><g><use xlink:href="#f1F2NWKWja" opacity="1" fill-opacity="0" stroke="#000000" stroke-width="1" stroke-opacity="0"></use></g></g><g><use xlink:href="#b6EHx3e0ge" opacity="1" fill="#e7e8e5" fill-opacity="1"></use><g><use xlink:href="#b6EHx3e0ge" opacity="1" fill-opacity="0" stroke="#000000" stroke-width="1" stroke-opacity="0"></use></g></g><g><use xlink:href="#a6uXhlSyNB" opacity="1" fill="#ffffff" fill-opacity="1"></use><g><use xlink:href="#a6uXhlSyNB" opacity="1" fill-opacity="0" stroke="#000000" stroke-width="1" stroke-opacity="0"></use></g></g><g><use xlink:href="#bZWrwWS5S" opacity="1" fill="#ffffff" fill-opacity="1"></use><g><use xlink:href="#bZWrwWS5S" opacity="1" fill-opacity="0" stroke="#000000" stroke-width="1" stroke-opacity="0"></use></g></g><g><use xlink:href="#a3UNqpONF3" opacity="1" fill="#ffffff" fill-opacity="1"></use><g><use xlink:href="#a3UNqpONF3" opacity="1" fill-opacity="0" stroke="#000000" stroke-width="1" stroke-opacity="0"></use></g></g><g><use xlink:href="#cgd34Eqx2" opacity="1" fill="#d4d6d3" fill-opacity="1"></use><g><use xlink:href="#cgd34Eqx2" opacity="1" fill-opacity="0" stroke="#000000" stroke-width="1" stroke-opacity="0"></use></g></g><g><use xlink:href="#gw911sKkf" opacity="1" fill="#bebfbd" fill-opacity="1"></use><g><use xlink:href="#gw911sKkf" opacity="1" fill-opacity="0" stroke="#000000" stroke-width="1" stroke-opacity="0"></use></g></g><g><use xlink:href="#a3mFcg7vrr" opacity="1" fill="#d4d6d3" fill-opacity="1"></use><g><use xlink:href="#a3mFcg7vrr" opacity="1" fill-opacity="0" stroke="#000000" stroke-width="1" stroke-opacity="0"></use></g></g><g><use xlink:href="#b4BdzoVnC" opacity="1" fill="#17282f" fill-opacity="1"></use><g><use xlink:href="#b4BdzoVnC" opacity="1" fill-opacity="0" stroke="#000000" stroke-width="1" stroke-opacity="0"></use></g></g><g><use xlink:href="#a7W7oeAnj" opacity="1" fill="#e7e8e5" fill-opacity="1"></use><g><use xlink:href="#a7W7oeAnj" opacity="1" fill-opacity="0" stroke="#000000" stroke-width="1" stroke-opacity="0"></use></g></g><g><use xlink:href="#b3Bz1hxl1u" opacity="1" fill="#f57a76" fill-opacity="1"></use><g><use xlink:href="#b3Bz1hxl1u" opacity="1" fill-opacity="0" stroke="#000000" stroke-width="1" stroke-opacity="0"></use></g></g><g><use xlink:href="#b3Dq5lAKce" opacity="1" fill="#ffffff" fill-opacity="1"></use><g><use xlink:href="#b3Dq5lAKce" opacity="1" fill-opacity="0" stroke="#000000" stroke-width="1" stroke-opacity="0"></use></g></g><g><use xlink:href="#a1x87K9Q8j" opacity="1" fill="#999b9b" fill-opacity="1"></use><g><use xlink:href="#a1x87K9Q8j" opacity="1" fill-opacity="0" stroke="#000000" stroke-width="1" stroke-opacity="0"></use></g></g><g><use xlink:href="#a2i79XLS9d" opacity="1" fill="#17282f" fill-opacity="1"></use><g><use xlink:href="#a2i79XLS9d" opacity="1" fill-opacity="0" stroke="#000000" stroke-width="1" stroke-opacity="0"></use></g></g><g><use xlink:href="#aE62ZQTH4" opacity="1" fill="#17282f" fill-opacity="1"></use><g><use xlink:href="#aE62ZQTH4" opacity="1" fill-opacity="0" stroke="#000000" stroke-width="1" stroke-opacity="0"></use></g></g><g><use xlink:href="#einbfqQrs" opacity="1" fill="#17282f" fill-opacity="1"></use><g><use xlink:href="#einbfqQrs" opacity="1" fill-opacity="0" stroke="#000000" stroke-width="1" stroke-opacity="0"></use></g></g><g><use xlink:href="#bpsAY56X0" opacity="1" fill="#17282f" fill-opacity="1"></use><g><use xlink:href="#bpsAY56X0" opacity="1" fill-opacity="0" stroke="#000000" stroke-width="1" stroke-opacity="0"></use></g></g><g><use xlink:href="#d3rFMy1Z2z" opacity="1" fill="#17282f" fill-opacity="1"></use><g><use xlink:href="#d3rFMy1Z2z" opacity="1" fill-opacity="0" stroke="#000000" stroke-width="1" stroke-opacity="0"></use></g></g><g><use xlink:href="#d1jg2qPcjT" opacity="1" fill="#17282f" fill-opacity="1"></use><g><use xlink:href="#d1jg2qPcjT" opacity="1" fill-opacity="0" stroke="#000000" stroke-width="1" stroke-opacity="0"></use></g></g><g><use xlink:href="#d29hTnA4Ww" opacity="1" fill="#17282f" fill-opacity="1"></use><g><use xlink:href="#d29hTnA4Ww" opacity="1" fill-opacity="0" stroke="#000000" stroke-width="1" stroke-opacity="0"></use></g></g><g><use xlink:href="#e2qcvPS3CH" opacity="1" fill="#17282f" fill-opacity="1"></use><g><use xlink:href="#e2qcvPS3CH" opacity="1" fill-opacity="0" stroke="#000000" stroke-width="1" stroke-opacity="0"></use></g></g><g><use xlink:href="#m2CmAFntSa" opacity="1" fill="#17282f" fill-opacity="1"></use><g><use xlink:href="#m2CmAFntSa" opacity="1" fill-opacity="0" stroke="#000000" stroke-width="1" stroke-opacity="0"></use></g></g><g><use xlink:href="#c4DCJKKkI" opacity="1" fill="#273e47" fill-opacity="1"></use><g><use xlink:href="#c4DCJKKkI" opacity="1" fill-opacity="0" stroke="#000000" stroke-width="1" stroke-opacity="0"></use></g></g><g><use xlink:href="#a1BfaAv4BY" opacity="1" fill="#17282f" fill-opacity="1"></use><g><use xlink:href="#a1BfaAv4BY" opacity="1" fill-opacity="0" stroke="#000000" stroke-width="1" stroke-opacity="0"></use></g></g><g><use xlink:href="#aH5u8zZhN" opacity="1" fill="#17282f" fill-opacity="1"></use><g><use xlink:href="#aH5u8zZhN" opacity="1" fill-opacity="0" stroke="#000000" stroke-width="1" stroke-opacity="0"></use></g></g><g><use xlink:href="#f1wDQWjEvn" opacity="1" fill="#f57a76" fill-opacity="1"></use><g><use xlink:href="#f1wDQWjEvn" opacity="1" fill-opacity="0" stroke="#000000" stroke-width="1" stroke-opacity="0"></use></g></g><g><use xlink:href="#d11u66Ior" opacity="1" fill="#ffffff" fill-opacity="1"></use><g><use xlink:href="#d11u66Ior" opacity="1" fill-opacity="0" stroke="#000000" stroke-width="1" stroke-opacity="0"></use></g></g><g><use xlink:href="#a1YvFtCsx" opacity="1" fill="#999b9b" fill-opacity="1"></use><g><use xlink:href="#a1YvFtCsx" opacity="1" fill-opacity="0" stroke="#000000" stroke-width="1" stroke-opacity="0"></use></g></g><g><use xlink:href="#cjnxBcU3G" opacity="1" fill="#17282f" fill-opacity="1"></use><g><use xlink:href="#cjnxBcU3G" opacity="1" fill-opacity="0" stroke="#000000" stroke-width="1" stroke-opacity="0"></use></g></g><g><use xlink:href="#dL922ZPgB" opacity="1" fill="#17282f" fill-opacity="1"></use><g><use xlink:href="#dL922ZPgB" opacity="1" fill-opacity="0" stroke="#000000" stroke-width="1" stroke-opacity="0"></use></g></g><g><use xlink:href="#b3KCdsRgbj" opacity="1" fill="#17282f" fill-opacity="1"></use><g><use xlink:href="#b3KCdsRgbj" opacity="1" fill-opacity="0" stroke="#000000" stroke-width="1" stroke-opacity="0"></use></g></g><g><use xlink:href="#d2fWfY2lit" opacity="1" fill="#17282f" fill-opacity="1"></use><g><use xlink:href="#d2fWfY2lit" opacity="1" fill-opacity="0" stroke="#000000" stroke-width="1" stroke-opacity="0"></use></g></g><g><use xlink:href="#aEp2BGrBM" opacity="1" fill="#17282f" fill-opacity="1"></use><g><use xlink:href="#aEp2BGrBM" opacity="1" fill-opacity="0" stroke="#000000" stroke-width="1" stroke-opacity="0"></use></g></g><g><use xlink:href="#d2vcyrtZY3" opacity="1" fill="#17282f" fill-opacity="1"></use><g><use xlink:href="#d2vcyrtZY3" opacity="1" fill-opacity="0" stroke="#000000" stroke-width="1" stroke-opacity="0"></use></g></g><g><use xlink:href="#dJ3TREU0L" opacity="1" fill="#17282f" fill-opacity="1"></use><g><use xlink:href="#dJ3TREU0L" opacity="1" fill-opacity="0" stroke="#000000" stroke-width="1" stroke-opacity="0"></use></g></g><g><use xlink:href="#avqtHK8X" opacity="1" fill="#17282f" fill-opacity="1"></use><g><use xlink:href="#avqtHK8X" opacity="1" fill-opacity="0" stroke="#000000" stroke-width="1" stroke-opacity="0"></use></g></g><g><use xlink:href="#bNWLhsJW" opacity="1" fill="#17282f" fill-opacity="1"></use><g><use xlink:href="#bNWLhsJW" opacity="1" fill-opacity="0" stroke="#000000" stroke-width="1" stroke-opacity="0"></use></g></g><g><use xlink:href="#c2VYaME9W" opacity="1" fill="#273e47" fill-opacity="1"></use><g><use xlink:href="#c2VYaME9W" opacity="1" fill-opacity="0" stroke="#000000" stroke-width="1" stroke-opacity="0"></use></g></g><g><use xlink:href="#a4p4uUjSk" opacity="1" fill="#17282f" fill-opacity="1"></use><g><use xlink:href="#a4p4uUjSk" opacity="1" fill-opacity="0" stroke="#000000" stroke-width="1" stroke-opacity="0"></use></g></g><g><use xlink:href="#bTaqMkR9C" opacity="1" fill="#17282f" fill-opacity="1"></use><g><use xlink:href="#bTaqMkR9C" opacity="1" fill-opacity="0" stroke="#000000" stroke-width="1" stroke-opacity="0"></use></g></g><g><use xlink:href="#e3cByRQ48Q" opacity="1" fill="#17282f" fill-opacity="1"></use><g><use xlink:href="#e3cByRQ48Q" opacity="1" fill-opacity="0" stroke="#000000" stroke-width="1" stroke-opacity="0"></use></g></g><g><use xlink:href="#a1xK8ZHqu" opacity="1" fill="#17282f" fill-opacity="1"></use><g><use xlink:href="#a1xK8ZHqu" opacity="1" fill-opacity="0" stroke="#000000" stroke-width="1" stroke-opacity="0"></use></g></g><g><use xlink:href="#b4qWejkc2X" opacity="1" fill="#17282f" fill-opacity="1"></use><g><use xlink:href="#b4qWejkc2X" opacity="1" fill-opacity="0" stroke="#000000" stroke-width="1" stroke-opacity="0"></use></g></g><g><use xlink:href="#cROt10yFN" opacity="1" fill="#17282f" fill-opacity="1"></use><g><use xlink:href="#cROt10yFN" opacity="1" fill-opacity="0" stroke="#000000" stroke-width="1" stroke-opacity="0"></use></g></g><g><use xlink:href="#bfDRq2kHZ" opacity="1" fill="#17282f" fill-opacity="1"></use><g><use xlink:href="#bfDRq2kHZ" opacity="1" fill-opacity="0" stroke="#000000" stroke-width="1" stroke-opacity="0"></use></g></g><g><use xlink:href="#a11GIOkQRa" opacity="1" fill="#f57a76" fill-opacity="1"></use><g><use xlink:href="#a11GIOkQRa" opacity="1" fill-opacity="0" stroke="#000000" stroke-width="1" stroke-opacity="0"></use></g></g><g><use xlink:href="#fuyNPLUG" opacity="1" fill="#fabb1e" fill-opacity="1"></use><g><use xlink:href="#fuyNPLUG" opacity="1" fill-opacity="0" stroke="#000000" stroke-width="1" stroke-opacity="0"></use></g></g><g><use xlink:href="#a4vkx21W1h" opacity="1" fill="#17282f" fill-opacity="1"></use><g><use xlink:href="#a4vkx21W1h" opacity="1" fill-opacity="0" stroke="#000000" stroke-width="1" stroke-opacity="0"></use></g></g><g><use xlink:href="#b65FJn0nNa" opacity="1" fill="#17282f" fill-opacity="1"></use><g><use xlink:href="#b65FJn0nNa" opacity="1" fill-opacity="0" stroke="#000000" stroke-width="1" stroke-opacity="0"></use></g></g><g><use xlink:href="#a2fgKcXXFb" opacity="1" fill="#f57a76" fill-opacity="1"></use><g><use xlink:href="#a2fgKcXXFb" opacity="1" fill-opacity="0" stroke="#000000" stroke-width="1" stroke-opacity="0"></use></g></g><g><use xlink:href="#ag33VJf0w" opacity="1" fill="#17282f" fill-opacity="1"></use><g><use xlink:href="#ag33VJf0w" opacity="1" fill-opacity="0" stroke="#000000" stroke-width="1" stroke-opacity="0"></use></g></g><g><use xlink:href="#a2HiRLShpS" opacity="1" fill="#17282f" fill-opacity="1"></use><g><use xlink:href="#a2HiRLShpS" opacity="1" fill-opacity="0" stroke="#000000" stroke-width="1" stroke-opacity="0"></use></g></g><g><use xlink:href="#bhM2QDP7i" opacity="1" fill="#17282f" fill-opacity="1"></use><g><use xlink:href="#bhM2QDP7i" opacity="1" fill-opacity="0" stroke="#000000" stroke-width="1" stroke-opacity="0"></use></g></g><g><use xlink:href="#a1ZNTM6bSa" opacity="1" fill="#f57a76" fill-opacity="1"></use><g><use xlink:href="#a1ZNTM6bSa" opacity="1" fill-opacity="0" stroke="#000000" stroke-width="1" stroke-opacity="0"></use></g></g><g><use xlink:href="#b3yPfh4iJg" opacity="1" fill="#17282f" fill-opacity="1"></use><g><use xlink:href="#b3yPfh4iJg" opacity="1" fill-opacity="0" stroke="#000000" stroke-width="1" stroke-opacity="0"></use></g></g><g><use xlink:href="#dvXGu4ArW" opacity="1" fill="#fabb1e" fill-opacity="1"></use><g><use xlink:href="#dvXGu4ArW" opacity="1" fill-opacity="0" stroke="#000000" stroke-width="1" stroke-opacity="0"></use></g></g><g><use xlink:href="#b1jiSMfWh" opacity="1" fill="#ffffff" fill-opacity="1"></use><g><use xlink:href="#b1jiSMfWh" opacity="1" fill-opacity="0" stroke="#000000" stroke-width="1" stroke-opacity="0"></use></g></g><g><use xlink:href="#a35eYKKDg" opacity="1" fill="#ffffff" fill-opacity="1"></use><g><use xlink:href="#a35eYKKDg" opacity="1" fill-opacity="0" stroke="#000000" stroke-width="1" stroke-opacity="0"></use></g></g><g><use xlink:href="#a8gCGoiHql" opacity="1" fill="#ffffff" fill-opacity="1"></use><g><use xlink:href="#a8gCGoiHql" opacity="1" fill-opacity="0" stroke="#000000" stroke-width="1" stroke-opacity="0"></use></g></g><g><use xlink:href="#b3mne1AZQO" opacity="1" fill="#ffffff" fill-opacity="1"></use><g><use xlink:href="#b3mne1AZQO" opacity="1" fill-opacity="0" stroke="#000000" stroke-width="1" stroke-opacity="0"></use></g></g><g><use xlink:href="#aG8Y29Ya5" opacity="1" fill="#ffffff" fill-opacity="1"></use><g><use xlink:href="#aG8Y29Ya5" opacity="1" fill-opacity="0" stroke="#000000" stroke-width="1" stroke-opacity="0"></use></g></g><g><use xlink:href="#ayGTd7h2X" opacity="1" fill="#ffffff" fill-opacity="1"></use><g><use xlink:href="#ayGTd7h2X" opacity="1" fill-opacity="0" stroke="#000000" stroke-width="1" stroke-opacity="0"></use></g></g><g><use xlink:href="#bXHnjDVQx" opacity="1" fill="#ffffff" fill-opacity="1"></use><g><use xlink:href="#bXHnjDVQx" opacity="1" fill-opacity="0" stroke="#000000" stroke-width="1" stroke-opacity="0"></use></g></g><g><use xlink:href="#a10b2CzpRM" opacity="1" fill="#ffffff" fill-opacity="1"></use><g><use xlink:href="#a10b2CzpRM" opacity="1" fill-opacity="0" stroke="#000000" stroke-width="1" stroke-opacity="0"></use></g></g><g><use xlink:href="#aIHQL2ttt" opacity="1" fill="#ffffff" fill-opacity="1"></use><g><use xlink:href="#aIHQL2ttt" opacity="1" fill-opacity="0" stroke="#000000" stroke-width="1" stroke-opacity="0"></use></g></g><g><use xlink:href="#aZNzfbsq8" opacity="1" fill="#ffffff" fill-opacity="1"></use><g><use xlink:href="#aZNzfbsq8" opacity="1" fill-opacity="0" stroke="#000000" stroke-width="1" stroke-opacity="0"></use></g></g><g><use xlink:href="#a5D0vDUbn" opacity="1" fill="#ffffff" fill-opacity="1"></use><g><use xlink:href="#a5D0vDUbn" opacity="1" fill-opacity="0" stroke="#000000" stroke-width="1" stroke-opacity="0"></use></g></g><g><use xlink:href="#c1eE8gGc0t" opacity="1" fill="#ffffff" fill-opacity="1"></use><g><use xlink:href="#c1eE8gGc0t" opacity="1" fill-opacity="0" stroke="#000000" stroke-width="1" stroke-opacity="0"></use></g></g><g><use xlink:href="#c1hIb8Wien" opacity="1" fill="#ffffff" fill-opacity="1"></use><g><use xlink:href="#c1hIb8Wien" opacity="1" fill-opacity="0" stroke="#000000" stroke-width="1" stroke-opacity="0"></use></g></g><g><use xlink:href="#a4vsxJsqsZ" opacity="1" fill="#ffffff" fill-opacity="1"></use><g><use xlink:href="#a4vsxJsqsZ" opacity="1" fill-opacity="0" stroke="#000000" stroke-width="1" stroke-opacity="0"></use></g></g><g><use xlink:href="#g1eHq5D2rZ" opacity="1" fill="#ffffff" fill-opacity="1"></use><g><use xlink:href="#g1eHq5D2rZ" opacity="1" fill-opacity="0" stroke="#000000" stroke-width="1" stroke-opacity="0"></use></g></g><g><use xlink:href="#aCPCMOFP7" opacity="1" fill="#ffffff" fill-opacity="1"></use><g><use xlink:href="#aCPCMOFP7" opacity="1" fill-opacity="0" stroke="#000000" stroke-width="1" stroke-opacity="0"></use></g></g><g><use xlink:href="#b2il2rWQa6" opacity="1" fill="#ffffff" fill-opacity="1"></use><g><use xlink:href="#b2il2rWQa6" opacity="1" fill-opacity="0" stroke="#000000" stroke-width="1" stroke-opacity="0"></use></g></g><g><use xlink:href="#amtjNbVR4" opacity="1" fill="#ffffff" fill-opacity="1"></use><g><use xlink:href="#amtjNbVR4" opacity="1" fill-opacity="0" stroke="#000000" stroke-width="1" stroke-opacity="0"></use></g></g><g><use xlink:href="#agcFLHMed" opacity="1" fill="#ffffff" fill-opacity="1"></use><g><use xlink:href="#agcFLHMed" opacity="1" fill-opacity="0" stroke="#000000" stroke-width="1" stroke-opacity="0"></use></g></g><g><use xlink:href="#ezfPif8pF" opacity="1" fill="#ffffff" fill-opacity="1"></use><g><use xlink:href="#ezfPif8pF" opacity="1" fill-opacity="0" stroke="#000000" stroke-width="1" stroke-opacity="0"></use></g></g><g><use xlink:href="#aP90dyUvJ" opacity="1" fill="#f57a76" fill-opacity="1"></use><g><use xlink:href="#aP90dyUvJ" opacity="1" fill-opacity="0" stroke="#000000" stroke-width="1" stroke-opacity="0"></use></g></g><g><use xlink:href="#c1pGL4Ywmv" opacity="1" fill="#17282f" fill-opacity="1"></use><g><use xlink:href="#c1pGL4Ywmv" opacity="1" fill-opacity="0" stroke="#000000" stroke-width="1" stroke-opacity="0"></use></g></g><g><use xlink:href="#h330zEYiWx" opacity="1" fill="#17282f" fill-opacity="1"></use><g><use xlink:href="#h330zEYiWx" opacity="1" fill-opacity="0" stroke="#000000" stroke-width="1" stroke-opacity="0"></use></g></g><g><use xlink:href="#b3CVY9xvZH" opacity="1" fill="#f57a76" fill-opacity="1"></use><g><use xlink:href="#b3CVY9xvZH" opacity="1" fill-opacity="0" stroke="#000000" stroke-width="1" stroke-opacity="0"></use></g></g><g><use xlink:href="#aSR0ZwhyQ" opacity="1" fill="#f68b94" fill-opacity="1"></use><g><use xlink:href="#aSR0ZwhyQ" opacity="1" fill-opacity="0" stroke="#000000" stroke-width="1" stroke-opacity="0"></use></g></g><g><use xlink:href="#b1oyjdBFYd" opacity="1" fill="#17282f" fill-opacity="1"></use><g><use xlink:href="#b1oyjdBFYd" opacity="1" fill-opacity="0" stroke="#000000" stroke-width="1" stroke-opacity="0"></use></g></g><g><use xlink:href="#c6YSEj10S8" opacity="1" fill="#17282f" fill-opacity="1"></use><g><use xlink:href="#c6YSEj10S8" opacity="1" fill-opacity="0" stroke="#000000" stroke-width="1" stroke-opacity="0"></use></g></g><g><use xlink:href="#a9uyZWKCM" opacity="1" fill="#17282f" fill-opacity="1"></use><g><use xlink:href="#a9uyZWKCM" opacity="1" fill-opacity="0" stroke="#000000" stroke-width="1" stroke-opacity="0"></use></g></g><g><use xlink:href="#alI5ZTxIQ" opacity="1" fill="#17282f" fill-opacity="1"></use><g><use xlink:href="#alI5ZTxIQ" opacity="1" fill-opacity="0" stroke="#000000" stroke-width="1" stroke-opacity="0"></use></g></g><g><use xlink:href="#a6mPUBe2H" opacity="1" fill="#17282f" fill-opacity="1"></use><g><use xlink:href="#a6mPUBe2H" opacity="1" fill-opacity="0" stroke="#000000" stroke-width="1" stroke-opacity="0"></use></g></g><g><use xlink:href="#c2mGYknzbs" opacity="1" fill="#17282f" fill-opacity="1"></use><g><use xlink:href="#c2mGYknzbs" opacity="1" fill-opacity="0" stroke="#000000" stroke-width="1" stroke-opacity="0"></use></g></g><g><use xlink:href="#bGONQpHtd" opacity="1" fill="#17282f" fill-opacity="1"></use><g><use xlink:href="#bGONQpHtd" opacity="1" fill-opacity="0" stroke="#000000" stroke-width="1" stroke-opacity="0"></use></g></g><g><use xlink:href="#acBJeyEam" opacity="1" fill="#17282f" fill-opacity="1"></use><g><use xlink:href="#acBJeyEam" opacity="1" fill-opacity="0" stroke="#000000" stroke-width="1" stroke-opacity="0"></use></g></g><g><use xlink:href="#flPMw9AQW" opacity="1" fill="#17282f" fill-opacity="1"></use><g><use xlink:href="#flPMw9AQW" opacity="1" fill-opacity="0" stroke="#000000" stroke-width="1" stroke-opacity="0"></use></g></g><g><use xlink:href="#a1q8KjQvJg" opacity="1" fill="#f577b8" fill-opacity="1"></use><g><use xlink:href="#a1q8KjQvJg" opacity="1" fill-opacity="0" stroke="#000000" stroke-width="1" stroke-opacity="0"></use></g></g><g><use xlink:href="#j2vpQLu7Qr" opacity="1" fill="#17282f" fill-opacity="1"></use><g><use xlink:href="#j2vpQLu7Qr" opacity="1" fill-opacity="0" stroke="#000000" stroke-width="1" stroke-opacity="0"></use></g></g><g><use xlink:href="#dTAWv8Ap7" opacity="1" fill="#17282f" fill-opacity="1"></use><g><use xlink:href="#dTAWv8Ap7" opacity="1" fill-opacity="0" stroke="#000000" stroke-width="1" stroke-opacity="0"></use></g></g><g><use xlink:href="#cdZonyGEW" opacity="1" fill="#f57a76" fill-opacity="1"></use><g><use xlink:href="#cdZonyGEW" opacity="1" fill-opacity="0" stroke="#000000" stroke-width="1" stroke-opacity="0"></use></g></g><g><use xlink:href="#bT5xDGsKw" opacity="1" fill="#17282f" fill-opacity="1"></use><g><use xlink:href="#bT5xDGsKw" opacity="1" fill-opacity="0" stroke="#000000" stroke-width="1" stroke-opacity="0"></use></g></g><g><use xlink:href="#bNKfWpmCF" opacity="1" fill="#f57a76" fill-opacity="1"></use><g><use xlink:href="#bNKfWpmCF" opacity="1" fill-opacity="0" stroke="#000000" stroke-width="1" stroke-opacity="0"></use></g></g><g><use xlink:href="#e46TrIwYQ" opacity="1" fill="#f57a76" fill-opacity="1"></use><g><use xlink:href="#e46TrIwYQ" opacity="1" fill-opacity="0" stroke="#000000" stroke-width="1" stroke-opacity="0"></use></g></g><g><use xlink:href="#g87vHE6vft" opacity="1" fill="#17282f" fill-opacity="1"></use><g><use xlink:href="#g87vHE6vft" opacity="1" fill-opacity="0" stroke="#000000" stroke-width="1" stroke-opacity="0"></use></g></g><g><use xlink:href="#afimXv0YO" opacity="1" fill="#17282f" fill-opacity="1"></use><g><use xlink:href="#afimXv0YO" opacity="1" fill-opacity="0" stroke="#000000" stroke-width="1" stroke-opacity="0"></use></g></g><g><use xlink:href="#cDC1E5aPV" opacity="1" fill="#17282f" fill-opacity="1"></use><g><use xlink:href="#cDC1E5aPV" opacity="1" fill-opacity="0" stroke="#000000" stroke-width="1" stroke-opacity="0"></use></g></g><g><use xlink:href="#c6RbBy4wJ" opacity="1" fill="#fabb1e" fill-opacity="1"></use><g><use xlink:href="#c6RbBy4wJ" opacity="1" fill-opacity="0" stroke="#000000" stroke-width="1" stroke-opacity="0"></use></g></g><g><use xlink:href="#b1Nf1ob7FQ" opacity="1" fill="#ffffff" fill-opacity="1"></use><g><use xlink:href="#b1Nf1ob7FQ" opacity="1" fill-opacity="0" stroke="#000000" stroke-width="1" stroke-opacity="0"></use></g></g><g><use xlink:href="#afeexpxD5" opacity="1" fill="#ffffff" fill-opacity="1"></use><g><use xlink:href="#afeexpxD5" opacity="1" fill-opacity="0" stroke="#000000" stroke-width="1" stroke-opacity="0"></use></g></g><g><use xlink:href="#a4ytxHEkwE" opacity="1" fill="#ffffff" fill-opacity="1"></use><g><use xlink:href="#a4ytxHEkwE" opacity="1" fill-opacity="0" stroke="#000000" stroke-width="1" stroke-opacity="0"></use></g></g><g><use xlink:href="#b3caroiQf2" opacity="1" fill="#ffffff" fill-opacity="1"></use><g><use xlink:href="#b3caroiQf2" opacity="1" fill-opacity="0" stroke="#000000" stroke-width="1" stroke-opacity="0"></use></g></g><g><use xlink:href="#fjoKqHnX4" opacity="1" fill="#ffffff" fill-opacity="1"></use><g><use xlink:href="#fjoKqHnX4" opacity="1" fill-opacity="0" stroke="#000000" stroke-width="1" stroke-opacity="0"></use></g></g><g><use xlink:href="#b2eFGgQppF" opacity="1" fill="#17282f" fill-opacity="1"></use><g><use xlink:href="#b2eFGgQppF" opacity="1" fill-opacity="0" stroke="#000000" stroke-width="1" stroke-opacity="0"></use></g></g><g><use xlink:href="#ncRPEPf0t" opacity="1" fill="#17282f" fill-opacity="1"></use><g><use xlink:href="#ncRPEPf0t" opacity="1" fill-opacity="0" stroke="#000000" stroke-width="1" stroke-opacity="0"></use></g></g><g><use xlink:href="#d98J3PkMa" opacity="1" fill="#17282f" fill-opacity="1"></use><g><use xlink:href="#d98J3PkMa" opacity="1" fill-opacity="0" stroke="#000000" stroke-width="1" stroke-opacity="0"></use></g></g><g><use xlink:href="#dooZX59Sl" opacity="1" fill="#fabb1e" fill-opacity="1"></use><g><use xlink:href="#dooZX59Sl" opacity="1" fill-opacity="0" stroke="#000000" stroke-width="1" stroke-opacity="0"></use></g></g><g><use xlink:href="#a20YDaZUln" opacity="1" fill="#fabb1e" fill-opacity="1"></use><g><use xlink:href="#a20YDaZUln" opacity="1" fill-opacity="0" stroke="#000000" stroke-width="1" stroke-opacity="0"></use></g></g><g><use xlink:href="#b1IFEnfs" opacity="1" fill="#f4ac12" fill-opacity="1"></use><g><use xlink:href="#b1IFEnfs" opacity="1" fill-opacity="0" stroke="#000000" stroke-width="1" stroke-opacity="0"></use></g></g><g><use xlink:href="#bQy2GDsx1" opacity="1" fill="#f4ac12" fill-opacity="1"></use><g><use xlink:href="#bQy2GDsx1" opacity="1" fill-opacity="0" stroke="#000000" stroke-width="1" stroke-opacity="0"></use></g></g><g><use xlink:href="#j3fQkRaiIX" opacity="1" fill="#17282f" fill-opacity="1"></use><g><use xlink:href="#j3fQkRaiIX" opacity="1" fill-opacity="0" stroke="#000000" stroke-width="1" stroke-opacity="0"></use></g></g><g><use xlink:href="#d1WkVGcsQx" opacity="1" fill="#17282f" fill-opacity="1"></use><g><use xlink:href="#d1WkVGcsQx" opacity="1" fill-opacity="0" stroke="#000000" stroke-width="1" stroke-opacity="0"></use></g></g><g><use xlink:href="#b2xRML0Uor" opacity="1" fill="#17282f" fill-opacity="1"></use><g><use xlink:href="#b2xRML0Uor" opacity="1" fill-opacity="0" stroke="#000000" stroke-width="1" stroke-opacity="0"></use></g></g><g><use xlink:href="#a1s6Hk9YWl" opacity="1" fill="#17282f" fill-opacity="1"></use><g><use xlink:href="#a1s6Hk9YWl" opacity="1" fill-opacity="0" stroke="#000000" stroke-width="1" stroke-opacity="0"></use></g></g><g><use xlink:href="#c6DmGtTN7" opacity="1" fill="#17282f" fill-opacity="1"></use><g><use xlink:href="#c6DmGtTN7" opacity="1" fill-opacity="0" stroke="#000000" stroke-width="1" stroke-opacity="0"></use></g></g><g><use xlink:href="#b4ttBzZQ2l" opacity="1" fill="#17282f" fill-opacity="1"></use><g><use xlink:href="#b4ttBzZQ2l" opacity="1" fill-opacity="0" stroke="#000000" stroke-width="1" stroke-opacity="0"></use></g></g><g><use xlink:href="#j22BMtyB9h" opacity="1" fill="#17282f" fill-opacity="1"></use><g><use xlink:href="#j22BMtyB9h" opacity="1" fill-opacity="0" stroke="#000000" stroke-width="1" stroke-opacity="0"></use></g></g><g><use xlink:href="#e3qmtHBDNQ" opacity="1" fill="#17282f" fill-opacity="1"></use><g><use xlink:href="#e3qmtHBDNQ" opacity="1" fill-opacity="0" stroke="#000000" stroke-width="1" stroke-opacity="0"></use></g></g><g><use xlink:href="#fvKbjFBc9" opacity="1" fill="#17282f" fill-opacity="1"></use><g><use xlink:href="#fvKbjFBc9" opacity="1" fill-opacity="0" stroke="#000000" stroke-width="1" stroke-opacity="0"></use></g></g><g><use xlink:href="#byWMjoaXe" opacity="1" fill="#17282f" fill-opacity="1"></use><g><use xlink:href="#byWMjoaXe" opacity="1" fill-opacity="0" stroke="#000000" stroke-width="1" stroke-opacity="0"></use></g></g><g><use xlink:href="#a79G9OQWq" opacity="1" fill="#17282f" fill-opacity="1"></use><g><use xlink:href="#a79G9OQWq" opacity="1" fill-opacity="0" stroke="#000000" stroke-width="1" stroke-opacity="0"></use></g></g><g><use xlink:href="#bbT4GMwnp" opacity="1" fill="#17282f" fill-opacity="1"></use><g><use xlink:href="#bbT4GMwnp" opacity="1" fill-opacity="0" stroke="#000000" stroke-width="1" stroke-opacity="0"></use></g></g><g><use xlink:href="#anjEIT4UD" opacity="1" fill="#fabb1e" fill-opacity="1"></use><g><use xlink:href="#anjEIT4UD" opacity="1" fill-opacity="0" stroke="#000000" stroke-width="1" stroke-opacity="0"></use></g></g><g><use xlink:href="#c1Qp2hbc6X" opacity="1" fill="#17282f" fill-opacity="1"></use><g><use xlink:href="#c1Qp2hbc6X" opacity="1" fill-opacity="0" stroke="#000000" stroke-width="1" stroke-opacity="0"></use></g></g><g><use xlink:href="#d3j7fWmwwx" opacity="1" fill="#17282f" fill-opacity="1"></use><g><use xlink:href="#d3j7fWmwwx" opacity="1" fill-opacity="0" stroke="#000000" stroke-width="1" stroke-opacity="0"></use></g></g><g><use xlink:href="#biljyV9yh" opacity="1" fill="#17282f" fill-opacity="1"></use><g><use xlink:href="#biljyV9yh" opacity="1" fill-opacity="0" stroke="#000000" stroke-width="1" stroke-opacity="0"></use></g></g><g><use xlink:href="#a45LD5CEog" opacity="1" fill="#17282f" fill-opacity="1"></use><g><use xlink:href="#a45LD5CEog" opacity="1" fill-opacity="0" stroke="#000000" stroke-width="1" stroke-opacity="0"></use></g></g><g><use xlink:href="#c4amNOlef" opacity="1" fill="#17282f" fill-opacity="1"></use><g><use xlink:href="#c4amNOlef" opacity="1" fill-opacity="0" stroke="#000000" stroke-width="1" stroke-opacity="0"></use></g></g><g><use xlink:href="#ai5uAFElp" opacity="1" fill="#17282f" fill-opacity="1"></use><g><use xlink:href="#ai5uAFElp" opacity="1" fill-opacity="0" stroke="#000000" stroke-width="1" stroke-opacity="0"></use></g></g><g><use xlink:href="#c8aw3g7xt" opacity="1" fill="#17282f" fill-opacity="1"></use><g><use xlink:href="#c8aw3g7xt" opacity="1" fill-opacity="0" stroke="#000000" stroke-width="1" stroke-opacity="0"></use></g></g><g><use xlink:href="#c8IcmmiYw" opacity="1" fill="#e7e8e5" fill-opacity="1"></use><g><use xlink:href="#c8IcmmiYw" opacity="1" fill-opacity="0" stroke="#000000" stroke-width="1" stroke-opacity="0"></use></g></g><g><use xlink:href="#a48momWsD2" opacity="1" fill="#17282f" fill-opacity="1"></use><g><use xlink:href="#a48momWsD2" opacity="1" fill-opacity="0" stroke="#000000" stroke-width="1" stroke-opacity="0"></use></g></g><g><use xlink:href="#bZmvcBA" opacity="1" fill="#17282f" fill-opacity="1"></use><g><use xlink:href="#bZmvcBA" opacity="1" fill-opacity="0" stroke="#000000" stroke-width="1" stroke-opacity="0"></use></g></g><g><use xlink:href="#a5DJr3MbJ" opacity="1" fill="#17282f" fill-opacity="1"></use><g><use xlink:href="#a5DJr3MbJ" opacity="1" fill-opacity="0" stroke="#000000" stroke-width="1" stroke-opacity="0"></use></g></g><g><use xlink:href="#a2UM6Cb8R" opacity="1" fill="#17282f" fill-opacity="1"></use><g><use xlink:href="#a2UM6Cb8R" opacity="1" fill-opacity="0" stroke="#000000" stroke-width="1" stroke-opacity="0"></use></g></g><g><use xlink:href="#dBkTIP6p4" opacity="1" fill="#e7e8e5" fill-opacity="1"></use><g><use xlink:href="#dBkTIP6p4" opacity="1" fill-opacity="0" stroke="#000000" stroke-width="1" stroke-opacity="0"></use></g></g><g><use xlink:href="#aJGNqyPN7" opacity="1" fill="#17282f" fill-opacity="1"></use><g><use xlink:href="#aJGNqyPN7" opacity="1" fill-opacity="0" stroke="#000000" stroke-width="1" stroke-opacity="0"></use></g></g><g><use xlink:href="#a28iYtOXKX" opacity="1" fill="#17282f" fill-opacity="1"></use><g><use xlink:href="#a28iYtOXKX" opacity="1" fill-opacity="0" stroke="#000000" stroke-width="1" stroke-opacity="0"></use></g></g><g><use xlink:href="#gRV7uISCs" opacity="1" fill="#17282f" fill-opacity="1"></use><g><use xlink:href="#gRV7uISCs" opacity="1" fill-opacity="0" stroke="#000000" stroke-width="1" stroke-opacity="0"></use></g></g><g><use xlink:href="#bi7XoOOf" opacity="1" fill="#17282f" fill-opacity="1"></use><g><use xlink:href="#bi7XoOOf" opacity="1" fill-opacity="0" stroke="#000000" stroke-width="1" stroke-opacity="0"></use></g></g><g><use xlink:href="#amGbQEKs0" opacity="1" fill="#33535f" fill-opacity="1"></use><g><use xlink:href="#amGbQEKs0" opacity="1" fill-opacity="0" stroke="#000000" stroke-width="1" stroke-opacity="0"></use></g></g><g><use xlink:href="#iSYpMpvn9" opacity="1" fill="#33535f" fill-opacity="1"></use><g><use xlink:href="#iSYpMpvn9" opacity="1" fill-opacity="0" stroke="#000000" stroke-width="1" stroke-opacity="0"></use></g></g><g><use xlink:href="#b4aHKXFDOt" opacity="1" fill="#ffffff" fill-opacity="1"></use><g><use xlink:href="#b4aHKXFDOt" opacity="1" fill-opacity="0" stroke="#000000" stroke-width="1" stroke-opacity="0"></use></g></g><g><use xlink:href="#b94QYFtPIS" opacity="1" fill="#17282f" fill-opacity="1"></use><g><use xlink:href="#b94QYFtPIS" opacity="1" fill-opacity="0" stroke="#000000" stroke-width="1" stroke-opacity="0"></use></g></g><g><use xlink:href="#e2H7pV8Gmv" opacity="1" fill="#fabb1e" fill-opacity="1"></use><g><use xlink:href="#e2H7pV8Gmv" opacity="1" fill-opacity="0" stroke="#000000" stroke-width="1" stroke-opacity="0"></use></g></g><g><use xlink:href="#d1UgEkb0ky" opacity="1" fill="#fabb1e" fill-opacity="1"></use><g><use xlink:href="#d1UgEkb0ky" opacity="1" fill-opacity="0" stroke="#000000" stroke-width="1" stroke-opacity="0"></use></g></g><g><use xlink:href="#fT6whjJ0t" opacity="1" fill="#fabb1e" fill-opacity="1"></use><g><use xlink:href="#fT6whjJ0t" opacity="1" fill-opacity="0" stroke="#000000" stroke-width="1" stroke-opacity="0"></use></g></g></g></g></svg>