<?xml version="1.0" encoding="UTF-8" standalone="no"?>
<!DOCTYPE svg PUBLIC "-//W3C//DTD SVG 1.1//EN" "http://www.w3.org/Graphics/SVG/1.1/DTD/svg11.dtd">
<svg version="1.1" xmlns="http://www.w3.org/2000/svg" xmlns:xlink="http://www.w3.org/1999/xlink" preserveAspectRatio="xMidYMid meet" viewBox="0 0 213 142" width="213" height="142"><defs><path d="M213 142L213 0L0 0L0 142L213 142Z" id="a1ZKyLgxa"></path><path d="M182.7 130.7C172.18 130.7 29.93 130.4 29.93 130.38C29.88 130.24 11.88 108.18 34.54 85.12C45.77 73.69 24.23 58.88 34.54 46.17C46.01 32.03 57.4 32.24 67.97 32.45C73.67 32.57 79.14 32.68 84.25 30.53C86.82 29.45 89.4 27.71 91.98 25.04C93.44 23.54 95.03 22.23 96.74 21.09C97 20.92 97.27 20.75 97.53 20.58C98.56 19.95 99.62 19.38 100.71 18.86C101.44 18.52 102.19 18.2 102.95 17.9C102.95 17.9 102.95 17.9 102.95 17.9C102.95 17.9 102.95 17.9 102.95 17.9C104.16 17.43 105.4 17.03 106.66 16.69C108.46 16.21 110.31 15.85 112.2 15.61C113.03 15.5 113.86 15.41 114.69 15.35C130.96 14.13 149.27 21.01 158.72 31.06C160.62 33.09 169.27 43.57 162.46 57.97C158.15 67.06 176.19 75.74 182.6 86.12C198.89 112.52 182.85 130.36 182.7 130.7" id="b27gj4bxH"></path><path d="M136.31 80.44L131.67 73.48L128.88 63.07L128.86 62.99L124.67 62.99C120.13 56.19 117.61 52.41 117.11 51.66C117.81 51.78 118.77 52.39 120 53.21C120.44 53.51 120.78 53.64 121.05 53.64C122.04 53.64 122.05 51.91 123.01 51.16C123.24 50.99 123.53 50.92 123.86 50.92C124.43 50.92 125.1 51.12 125.71 51.32C126.32 51.52 126.88 51.72 127.23 51.72C127.42 51.72 127.54 51.66 127.57 51.5C127.75 50.61 126.45 50.14 125.33 49.81C124.21 49.47 123.79 49.03 124.81 47.21C125.84 45.38 124.63 45.9 123.89 43.72C123.55 42.73 122.9 42.24 122.31 42C121.79 42.1 121.28 42.23 120.77 42.37C119.71 42.68 118.68 43.06 117.69 43.53C116.18 44.24 114.75 45.12 113.45 46.17C114.75 45.12 116.18 44.24 117.69 43.53C118.68 43.06 119.71 42.68 120.77 42.37C121.28 42.23 121.79 42.1 122.31 42C123.66 41.72 125.05 41.57 126.46 41.57C128.8 41.57 131.18 41.98 133.52 42.82C134.01 43 134.49 43.2 134.97 43.41C135.63 43.71 136.27 44.04 136.89 44.41C139.5 45.92 141.68 47.96 143.35 50.33C143.35 50.33 143.35 50.33 143.35 50.33C143.35 50.34 143.35 50.34 143.35 50.34C144.39 51.81 145.23 53.42 145.86 55.11C146.19 56 146.45 56.91 146.66 57.84C146.78 58.42 146.89 59 146.96 59.59C147.15 61.01 147.19 62.46 147.07 63.91C146.93 63.77 146.77 63.67 146.59 63.61C146.59 63.61 146.91 63.07 144.32 62.35C141.73 61.62 142.83 58.73 140.48 58.1C140.03 57.98 139.66 57.93 139.34 57.93C138.8 57.93 138.4 58.06 138.03 58.19C137.65 58.33 137.29 58.46 136.82 58.46C136.58 58.46 136.32 58.42 136.01 58.34C135.49 58.19 134.98 58.11 134.52 58.11C133.3 58.11 132.44 58.66 132.72 59.99C133.09 61.83 130.95 61.38 131.36 63.56C131.78 65.75 134.25 65.88 136.29 66.01C138.33 66.15 135.16 68.68 136.51 70.54C137.86 72.4 140.55 72.72 139.1 73.68C137.66 74.63 134.91 76.6 136.98 78.45C137.42 78.84 137.95 79.04 138.52 79.06C137.81 79.57 137.08 80.03 136.31 80.44M142.75 56.95C143.66 56.95 144.12 57.61 144.61 58.28C145.1 58.94 145.63 59.61 146.68 59.61C146.77 59.61 146.87 59.6 146.96 59.59C146.89 59 146.78 58.42 146.66 57.84C146.45 56.91 146.19 56 145.86 55.11C145.23 53.42 144.39 51.81 143.35 50.34C143.35 50.34 143.35 50.34 143.35 50.34C143.35 50.34 143.35 50.33 143.35 50.33C143.22 50.3 143.09 50.28 142.96 50.28C142.96 50.28 142.95 50.28 142.94 50.28C142.94 50.28 142.1 49.82 141.26 49.82C140.82 49.82 140.39 49.95 140.07 50.34C139.15 51.47 137.18 50.24 136.46 51.81C135.74 53.37 139.27 52.54 140.32 54.09C141.3 55.55 140.55 56.97 142.24 56.97C142.34 56.97 142.45 56.96 142.57 56.95C142.63 56.95 142.69 56.95 142.75 56.95M127.54 43.98C126.72 43.98 126.28 44.76 126.74 45.93C127.26 47.24 127.35 49.28 128.23 49.28C128.37 49.28 128.53 49.23 128.71 49.11C129.9 48.37 130.15 47.55 130.96 47.55C131.07 47.55 131.19 47.57 131.33 47.6C131.33 47.6 133.01 46.41 131.43 45.31C129.85 44.21 129.66 44.83 128.36 44.2C128.06 44.05 127.79 43.98 127.54 43.98" id="axXte6RDF"></path><path d="M121.05 53.64C120.78 53.64 120.44 53.51 120 53.21C118.77 52.39 117.81 51.78 117.11 51.66C117.11 51.66 117.11 51.66 117.11 51.66C114.91 48.37 113.69 46.54 113.45 46.17C114.75 45.12 116.18 44.24 117.69 43.53C118.68 43.06 119.71 42.68 120.77 42.37C121.28 42.23 121.79 42.1 122.31 42C122.9 42.24 123.55 42.73 123.89 43.72C124.63 45.9 125.84 45.38 124.81 47.21C123.79 49.03 124.21 49.47 125.33 49.81C126.45 50.14 127.75 50.61 127.57 51.5C127.54 51.66 127.42 51.72 127.23 51.72C126.88 51.72 126.32 51.52 125.71 51.32C125.1 51.12 124.43 50.92 123.86 50.92C123.53 50.92 123.24 50.99 123.01 51.16C122.05 51.91 122.04 53.64 121.05 53.64" id="b9JtkpAa8"></path><path d="M138.52 79.06C137.95 79.04 137.42 78.84 136.98 78.45C134.91 76.6 137.66 74.63 139.1 73.68C140.55 72.72 137.86 72.4 136.51 70.54C135.16 68.68 138.33 66.15 136.29 66.01C134.25 65.88 131.78 65.75 131.36 63.56C130.95 61.38 133.09 61.83 132.72 59.99C132.44 58.66 133.3 58.11 134.52 58.11C134.98 58.11 135.49 58.19 136.01 58.34C136.32 58.42 136.58 58.46 136.82 58.46C137.29 58.46 137.65 58.33 138.03 58.19C138.4 58.06 138.8 57.93 139.34 57.93C139.66 57.93 140.03 57.98 140.48 58.1C142.83 58.73 141.73 61.62 144.32 62.35C146.91 63.07 146.59 63.61 146.59 63.61C146.77 63.67 146.93 63.77 147.07 63.91C146.93 65.72 146.54 67.54 145.89 69.33C145.45 70.52 144.92 71.65 144.3 72.72C142.81 75.26 140.83 77.4 138.52 79.06" id="g5cvJn1bCt"></path><path d="M146.68 59.61C145.63 59.61 145.1 58.94 144.61 58.28C144.12 57.61 143.66 56.95 142.75 56.95C142.69 56.95 142.63 56.95 142.57 56.95C142.45 56.96 142.34 56.97 142.24 56.97C140.55 56.97 141.3 55.55 140.32 54.09C139.27 52.54 135.74 53.37 136.46 51.81C137.18 50.24 139.15 51.47 140.07 50.34C140.39 49.95 140.82 49.82 141.26 49.82C142.1 49.82 142.94 50.28 142.94 50.28C142.95 50.28 142.96 50.28 142.96 50.28C143.09 50.28 143.22 50.3 143.35 50.33C143.35 50.33 143.35 50.33 143.35 50.33C143.35 50.34 143.35 50.34 143.35 50.34C144.39 51.81 145.23 53.42 145.86 55.11C146.19 56 146.45 56.91 146.66 57.84C146.78 58.42 146.89 59 146.96 59.59C146.87 59.6 146.77 59.61 146.68 59.61" id="a5xwer7l8a"></path><path d="M128.23 49.28C127.35 49.28 127.26 47.24 126.74 45.93C126.28 44.76 126.72 43.98 127.54 43.98C127.79 43.98 128.06 44.05 128.36 44.2C129.66 44.83 129.85 44.21 131.43 45.31C133.01 46.41 131.33 47.6 131.33 47.6C131.19 47.57 131.07 47.55 130.96 47.55C130.15 47.55 129.9 48.37 128.71 49.11C128.53 49.23 128.37 49.28 128.23 49.28" id="bigjHqiI4"></path><path d="M34.63 130.44C38.96 130.44 41.36 130.44 41.85 130.44C42.23 130.11 41.58 129.36 40.89 129.31C40.6 129.29 40.22 129.35 39.79 129.44C39.69 128.13 39.13 122.2 36.99 122.44C34.59 122.7 36.99 125.05 37.67 126.43C38.17 127.46 38.7 128.94 38.95 129.63C38.75 129.67 38.55 129.72 38.34 129.75C38.02 128.78 36.84 125.49 35.33 125.68C33.56 125.9 34.28 127.22 35.53 128C36.45 128.58 37.58 129.4 38.12 129.79C37.66 129.87 37.19 129.92 36.7 129.91C35.47 129.88 34.87 130.24 34.63 130.44" id="aw4I8HB10"></path><path d="M149.43 130.44C145.41 130.44 143.18 130.44 142.73 130.44C142.37 130.13 142.98 129.44 143.62 129.39C143.89 129.37 144.24 129.43 144.64 129.52C144.73 128.29 145.26 122.79 147.24 123.01C149.47 123.25 147.24 125.43 146.61 126.72C146.14 127.67 145.65 129.04 145.42 129.69C145.61 129.73 145.79 129.77 145.99 129.8C146.28 128.89 147.38 125.84 148.78 126.02C150.42 126.23 149.76 127.45 148.6 128.18C147.74 128.71 146.7 129.47 146.2 129.84C146.62 129.91 147.06 129.95 147.51 129.94C148.65 129.92 149.21 130.26 149.43 130.44" id="a2WfMrUhdJ"></path><path d="M154.22 86.52C154.22 86.52 154.38 84.93 153.55 84.99C152.72 85.04 152.5 85.42 152.59 85.73C152.68 86.03 153.49 87.04 153.49 87.04C153.49 87.04 153.49 87.04 153.49 87.04L154.22 86.52" id="c4wNvGs9Ok"></path><path d="M167.14 89.7C167.14 89.7 166.22 90.77 164.25 92.02C164.06 92.14 163.87 92.26 163.66 92.38C162.89 92.82 161.99 93.28 160.95 93.71C160.84 93.75 160.71 93.81 160.55 93.86C159.37 94.29 157.19 94.89 155.84 94.95C155.73 94.95 155.62 94.95 155.51 94.95C153.46 94.87 153.21 86.9 153.21 86.9C153.21 86.9 153.44 86.1 154.49 86.3C154.49 86.3 156.09 90.8 156.67 91.17C157.18 91.49 160.11 87.05 162.63 86.74C164.33 86.53 167.14 89.7 167.14 89.7" id="axUElv8dN"></path><path d="M161.62 128.56C161.62 128.56 161.78 130.32 161.4 130.5C161.4 130.5 161.4 130.5 161.4 130.5C158.56 130.49 156.98 130.49 156.66 130.49C156.66 130.49 156.66 129.94 157.42 129.82C158.18 129.7 159.52 129.25 159.75 128.26C159.98 127.26 161.62 128.56 161.62 128.56" id="aa2WHm7Jg"></path><path d="M158.14 107.33C158.16 108.48 158.22 109.66 158.33 110.72C158.84 115.77 159.02 121.87 159.09 123.04C159.22 125.08 159.62 128.34 159.62 128.34C159.62 128.34 160.42 129.1 161.98 128.74C161.98 128.74 163.27 124.04 163.56 119.1C163.57 119.02 163.57 118.94 163.57 118.86C163.61 118.2 163.64 117.45 163.68 116.65C163.92 111.25 164.17 103.23 164.17 103.23C164.17 103.23 164.17 103.23 164.17 103.23C160.6 102.39 158.61 101.93 158.22 101.83C158.22 101.83 158.08 104.47 158.14 107.33" id="j3QYvJB2F3"></path><path d="M158.14 107.33C159.65 109.93 162.53 114.73 163.68 116.65C163.92 111.25 164.17 103.23 164.17 103.23C164.17 103.23 164.17 103.23 164.17 103.23C160.6 102.39 158.61 101.93 158.22 101.83C158.22 101.83 158.08 104.47 158.14 107.33" id="e31nE9Wtbm"></path><path d="M160.55 93.86C159.37 94.29 157.19 94.89 155.84 94.95C156.05 94.91 157.55 94.61 158.11 93.94C158.71 93.22 159.71 91.26 160.51 92.06C160.89 92.44 160.78 93.18 160.55 93.86" id="a3aHcqK9cS"></path><path d="M170.56 106.48C170.56 106.48 170.93 107.93 170.87 108.25C170.81 108.57 170.45 109.66 170.23 109.93C170 110.21 169.99 108.76 169.84 108.53C169.69 108.3 169.77 109.07 169.65 109.13C169.53 109.2 169.33 108.55 169.24 108.32C169.15 108.1 169.56 107.3 169.6 106.73C169.64 106.16 170.56 106.48 170.56 106.48" id="c8ip8qybP"></path><path d="M173.45 126.57C173.45 126.57 174.29 127.34 174.13 127.89C173.96 128.44 173.2 128.8 173.1 129.47C172.99 130.14 172.58 130.5 172.21 130.5C171.84 130.5 170.44 130.5 170.44 130.5C170.44 130.5 170.17 130.03 170.83 129.89C171.49 129.75 171.74 128.96 171.7 128.23C171.66 127.5 171.76 126.53 171.76 126.53C171.76 126.53 171.76 126.53 171.76 126.53L173.16 126.2L173.45 126.57" id="c3utqWfj8"></path><path d="M159.16 103.35C159.16 103.35 164.73 115.28 167.7 120.52C170.67 125.75 171.59 127.21 171.59 127.21C171.59 127.21 173.29 126.54 173.45 126.09C173.45 126.09 172.31 115.98 170.33 113.52C169.2 112.12 167.88 107.95 167.82 106.49C167.76 105.03 166.46 101.54 166.46 101.54C166.46 101.54 166.46 101.54 166.46 101.54L159.16 103.35" id="dwQgLebb1"></path><path d="M158.12 102.73C158.12 102.73 159.93 104.69 163.02 105.28C164.37 105.54 167.12 105.79 167.8 104.82C167.96 104.6 167.96 104.26 167.93 103.74C167.84 102.38 167.49 99.75 169.04 94.46C169.18 93.97 169.28 93.5 169.33 93.05C169.67 90.35 169.64 88.31 167.29 87.22C163.78 85.59 162.34 86.93 162.34 86.93C162.34 86.93 160.47 87.8 159.61 90.35C157.91 95.44 158.12 102.73 158.12 102.73" id="a2CklM5dav"></path><path d="M165.18 86.77C164.59 87.19 163.55 87.44 162.56 86.94C162.48 86.9 162.49 86.38 162.51 85.86C162.53 85.36 162.58 84.86 162.58 84.86C162.58 84.86 162.58 84.86 162.58 84.86L163.83 84.04C164.54 83.57 164.94 83.31 165.02 83.26C164.88 85.95 165.45 86.58 165.18 86.77" id="fIrOtK8hj"></path><path d="M164.81 84.37C164.81 84.37 164 85.59 162.51 85.86C162.53 85.36 162.58 84.8 162.58 84.8C162.58 84.8 162.58 84.8 162.58 84.8L163.83 84.04L164.81 84.37" id="aVVzQe6gl"></path><path d="M161.46 84.55C161.46 84.55 164.48 85.67 165.15 83.81C165.83 81.95 166.67 80.84 164.77 80.04C162.87 79.24 162.23 79.82 161.85 80.38C161.47 80.95 160.69 84.2 161.46 84.55" id="c1n6z8DRZa"></path><path d="M167.04 80.25C167.07 80.22 167.14 80.21 167.29 80.23C167.29 80.23 167.19 80.13 167.03 80.1C167.04 79.89 167.01 79.51 166.68 79.35C166.68 79.35 166.84 79.49 166.82 79.71C166.5 79.22 165.7 78.74 163.26 78.46C160.06 78.09 160.7 80.31 161.06 80.63C161.42 80.96 162.58 80.5 163.33 80.71C164.08 80.92 164.01 82.05 164.24 82.25C164.46 82.45 164.42 82.17 164.8 82.08C165.18 81.99 165.1 82.57 164.92 82.93C164.75 83.29 165.13 83.88 165.13 83.88C165.13 83.88 165.13 83.88 165.72 83.45C166.3 83.03 167.2 80.9 167.07 80.39C167.06 80.34 167.05 80.29 167.04 80.25" id="aqQyP85kP"></path><path d="M167.93 103.74C167.84 102.38 167.49 99.75 169.04 94.46C169.18 93.97 169.28 93.5 169.33 93.05C168.19 92.67 166.1 93.52 166.1 93.52C166.1 93.52 165.61 100.5 167.93 103.74" id="j850URZeS"></path><path d="M167.92 87.57C167.92 87.57 169.33 88.09 170.24 91.82C170.83 94.29 171.93 97.92 172.05 99.06C172.17 100.21 170.8 106.88 170.8 106.88C170.8 106.88 170.6 107.03 170.13 106.93C169.67 106.84 169.46 106.53 169.46 106.53C169.46 106.53 169.13 102.08 169.22 99.98C169.25 99.11 165.18 93.58 162.97 92.87C162.11 92.59 167.92 87.57 167.92 87.57" id="b1ZhHlpsop"></path><path d="M148.18 82.73C148.18 82.73 152.26 82.62 156.97 83.49C156.97 83.49 156.97 83.49 156.97 83.49L157.46 82.25C157.78 81.43 157.96 80.98 158 80.89C158 80.89 153.27 78.85 150.43 76.02C150.43 76.02 150.43 76.02 150.43 76.02L148.18 82.73" id="a4FC6CEVF"></path><path d="M150.49 75.95C149.09 80.1 148.31 82.41 148.15 82.87C147.81 82.77 147.62 82.4 147.74 82.06C147.74 82.06 147.74 82.06 147.74 82.06C148.98 78.58 149.66 76.64 149.8 76.25C149.9 75.97 150.22 75.83 150.49 75.95" id="d1JUs0mfnv"></path><path d="M152.73 87.88C153.18 87.97 153.63 87.68 153.72 87.22C153.72 87.22 153.72 87.22 153.72 87.22C154.21 84.8 154.48 83.45 154.53 83.18C154.62 82.73 154.32 82.28 153.87 82.19C153.41 82.1 152.96 82.4 152.87 82.85C152.87 82.85 152.87 82.85 152.87 82.85C152.39 85.27 152.12 86.62 152.07 86.89C151.98 87.34 152.27 87.79 152.73 87.88" id="asAChPkSu"></path><path d="M148.18 82.73C148.18 82.73 152.26 82.62 156.97 83.49C156.97 83.49 156.97 83.49 156.97 83.49C157.26 82.74 157.42 82.33 157.46 82.25C153.03 81.34 148.18 82.73 148.18 82.73" id="b3WuZVGgL"></path><path d="M155.66 83.24C156.43 83.37 156.85 83.45 156.94 83.46C156.92 83.46 158.12 83.69 158.52 82.63C158.55 82.55 158.58 82.48 158.59 82.4C158.9 81.07 158.17 80.82 158.17 80.82C158.17 80.82 158.17 80.82 158.17 80.82L156.53 80.18C156.22 81.29 156.04 81.91 156.01 82.03C156.01 82.03 156.01 82.03 156.01 82.03C156.01 82.03 156.01 82.03 156.01 82.03L155.66 83.24" id="b3ZJ1Vt15Z"></path><path d="M155.66 83.24C156.43 83.37 156.85 83.45 156.94 83.46C156.92 83.46 158.12 83.69 158.52 82.63C157.8 82.1 156.01 82.03 156.01 82.03C156.01 82.03 156.01 82.03 156.01 82.03C156.01 82.03 156.01 82.03 156.01 82.03L155.66 83.24" id="e3BOCL1Md4"></path><path d="M152.84 83.97C152.84 83.97 153.46 84.22 153.35 84.5C153.23 84.77 152.44 85.15 152.31 84.93C152.19 84.72 152.45 83.74 152.84 83.97" id="anI9vqrUQ"></path><path d="M154.23 86.27C154.23 86.27 154.35 85.63 154.35 85.34C154.36 85.04 154.4 84.8 154.33 84.8C154.26 84.79 154.21 84.84 154.18 84.94C154.15 85.03 154.04 85.61 154.04 85.61C154.04 85.61 154.04 85.61 154.04 85.61L154.1 86.18L154.23 86.27" id="b1a2ZfxfT7"></path><path d="M92.53 85.85C90.41 111.06 89.24 125.07 89 127.87C89 127.87 88.63 130.42 90.53 130.42C93.64 130.43 106.03 130.42 106.03 130.42C106.03 130.42 103.69 129.89 103.71 128.7C103.75 127.29 107.84 85.45 107.84 85.45C107.84 85.45 107.84 85.45 107.84 85.45L92.53 85.85" id="c2p8eJ2rcM"></path><path d="M107.2 129.68C106.58 129.68 94.59 129.7 91.56 129.66C90.23 129.64 90 128.48 89.99 127.73C89.99 127.37 90.03 127.11 90.03 127.11C90.03 127.11 90.03 127.11 90.03 127.11L90.12 126.02L90.36 123.23L90.56 120.77L90.83 117.61L91.05 114.95L93.56 85.09C102.75 84.85 107.85 84.72 108.87 84.69C108.87 84.69 107.15 102.2 105.93 114.95C105.79 116.37 105.66 117.73 105.54 119C105.5 119.4 105.47 119.8 105.43 120.19C105.32 121.39 105.21 122.5 105.12 123.48C105.08 123.99 105.03 124.47 104.99 124.91C104.84 126.63 104.75 127.73 104.74 127.94C104.74 128.06 104.75 128.17 104.77 128.28C105.03 129.61 106.97 129.68 107.2 129.68" id="i2Vv1n9jRP"></path><path d="M55.36 62.99L63.96 97.56L65.14 102.3L69.15 118.4L143.63 118.4L128.86 62.99L55.36 62.99" id="f17cPn5ELZ"></path><path d="M55.36 62.99L54.16 63.38L67.56 119.6L69.15 118.4L55.36 62.99" id="a5zXnNAsHD"></path><path d="M67.56 119.6L141.59 119.6L143.63 118.4L69.15 118.4L67.56 119.6" id="fbDJUxPjX"></path><path d="M109.59 130.44L109.59 129.68L93.56 129.68L93.56 130.44L109.59 130.44Z" id="apl4pCqi6"></path><path d="M105.51 119.6L105.43 120.19L90.36 123.23L90.56 120.77L90.66 119.6L105.51 119.6" id="c6ggTBmYk"></path><path d="M107.2 129.68C99.44 129.68 95.14 129.68 94.27 129.68C93.12 129.67 92.16 129.67 91.56 129.66C90.23 129.64 90 128.48 89.99 127.73C89.99 127.73 89.99 127.73 89.99 127.73C98.99 126.04 103.99 125.1 104.99 124.91C104.84 126.63 104.75 127.73 104.74 127.94C104.74 127.94 104.74 127.94 104.74 127.95C104.74 128.06 104.75 128.17 104.77 128.28C105.03 129.61 106.97 129.68 107.2 129.68" id="bvwPLXy9M"></path><path d="M99.86 129.68C97.91 129.68 95.9 129.68 94.27 129.68C94.27 129.68 94.27 129.68 94.27 129.68C102.03 129.68 106.34 129.68 107.2 129.68C106.88 129.68 103.48 129.68 99.86 129.68" id="b6vSVtm6A1"></path><path d="M55.36 62.99L128.86 62.99L140.78 107.52L66.44 107.52L55.36 62.99" id="af2MYUpLh"></path><path d="M137.32 105.59L68.5 105.59L66.04 95.8L65.09 92.01L64.7 90.46L62.17 80.39L62.04 79.87L60.7 74.55L60.1 72.17L59.59 70.13L58.4 65.37L126.23 65.37L127.54 70.13L128.1 72.17L128.76 74.55L133.08 90.23L133.08 90.23L133.45 91.56L133.62 92.18L136.6 103.01L137.32 105.59" id="b6MxHcwrsk"></path><path d="M127.54 70.13L59.6 70.13L58.4 65.37L126.23 65.37L127.54 70.13" id="a63Nb7KAY"></path><path d="M61.21 67.52C61.12 67.2 61.32 66.93 61.65 66.93C61.98 66.93 62.31 67.2 62.4 67.52C62.48 67.85 62.28 68.12 61.95 68.12C61.62 68.12 61.29 67.85 61.21 67.52" id="eau6a4tZHe"></path><path d="M63.18 67.52C63.1 67.2 63.3 66.93 63.63 66.93C63.96 66.93 64.29 67.2 64.37 67.52C64.46 67.85 64.26 68.12 63.93 68.12C63.6 68.12 63.27 67.85 63.18 67.52" id="btmqTTU2n"></path><path d="M65.31 67.52C65.23 67.2 65.43 66.93 65.76 66.93C66.09 66.93 66.42 67.2 66.5 67.52C66.59 67.85 66.39 68.12 66.06 68.12C65.73 68.12 65.4 67.85 65.31 67.52" id="b2V87Uh6UT"></path><path d="M112.73 37.69C115.52 34.42 119.81 27.86 122.69 24.5C123.29 23.81 122.79 22.74 121.88 22.74C121.88 22.74 121.88 22.74 121.88 22.74L116.63 22.74C119.6 16.02 121.25 12.28 121.58 11.54C121.79 11.06 121.14 10.68 120.83 11.1C120.83 11.1 120.83 11.1 120.83 11.1C113.64 20.72 109.64 26.07 108.85 27.14C108.5 27.6 108.88 28.26 109.46 28.19C109.46 28.19 109.46 28.19 109.46 28.19L115.41 27.46C113.28 33.29 112.1 36.53 111.87 37.18C111.67 37.72 112.37 38.12 112.73 37.69" id="a9I2MKH9l"></path><path d="M87.99 57.58C88.62 54.37 89.01 48.41 89.68 45.1C89.81 44.42 89.09 43.89 88.48 44.23C88.48 44.23 88.48 44.23 88.48 44.23L84.99 46.2C84.45 40.62 84.15 37.52 84.09 36.9C84.05 36.5 83.48 36.49 83.42 36.89C83.42 36.89 83.42 36.89 83.42 36.89C82.25 45.97 81.59 51.02 81.46 52.03C81.41 52.47 81.91 52.76 82.27 52.5C82.27 52.5 82.27 52.5 82.27 52.5L85.94 49.79C86.71 54.46 87.14 57.05 87.23 57.57C87.3 58 87.91 58.01 87.99 57.58" id="f38hecRBR"></path><path d="M140.32 106.54C104.44 109.56 84.51 111.24 80.52 111.58C75.98 111.96 72.7 107.33 74.56 103.17C74.56 103.17 74.56 103.17 74.56 103.17C89.76 69.15 98.2 50.25 99.89 46.47C101.81 42.17 107.72 41.67 110.33 45.59C110.33 45.59 110.33 45.59 110.33 45.59C131.01 76.59 142.5 93.81 144.8 97.25C147.33 101.05 144.86 106.16 140.32 106.54" id="aXvXPxpB"></path><path d="M105.04 45.21C103.67 45.33 102.52 46.15 101.96 47.4C101.96 47.4 101.96 47.4 101.96 47.4C86.76 81.42 78.32 100.32 76.63 104.1C76.09 105.31 76.22 106.68 76.99 107.77C77.76 108.85 79.01 109.43 80.33 109.32C80.33 109.32 80.33 109.32 80.33 109.32C116.21 106.29 136.14 104.62 140.13 104.28C141.45 104.17 142.59 103.39 143.17 102.19C143.74 100.99 143.65 99.62 142.91 98.51C142.91 98.51 142.91 98.51 142.91 98.51C122.23 67.52 110.74 50.3 108.45 46.85C107.68 45.71 106.41 45.1 105.04 45.21M140.51 108.8C104.63 111.83 84.7 113.5 80.71 113.84C77.77 114.09 75 112.8 73.29 110.39C71.58 107.99 71.28 104.94 72.48 102.25C72.48 102.25 72.48 102.25 72.48 102.25C87.68 68.23 96.13 49.33 97.82 45.55C99.06 42.76 101.62 40.94 104.66 40.69C107.7 40.43 110.53 41.8 112.22 44.33C112.22 44.33 112.22 44.33 112.22 44.33C132.9 75.33 144.39 92.55 146.69 95.99C148.32 98.45 148.54 101.5 147.26 104.16C145.97 106.82 143.45 108.55 140.51 108.8" id="a1TAATXhOH"></path><path d="M104.27 87.77L100.57 58.45L111.63 57.51L112.89 87.05L104.27 87.77ZM103.64 97.87C103.58 97.1 103.65 96.37 103.87 95.69C104.09 95.02 104.44 94.42 104.9 93.9C105.36 93.38 105.93 92.95 106.62 92.62C107.3 92.3 108.08 92.09 108.97 92.02C109.85 91.95 110.67 92.01 111.41 92.22C112.15 92.43 112.79 92.75 113.33 93.19C113.87 93.62 114.31 94.16 114.64 94.79C114.97 95.42 115.17 96.12 115.23 96.89C115.3 97.66 115.22 98.38 115 99.04C114.78 99.71 114.44 100.3 113.98 100.82C113.51 101.34 112.93 101.77 112.24 102.1C111.54 102.43 110.75 102.63 109.87 102.7C108.98 102.78 108.18 102.71 107.45 102.5C106.72 102.29 106.08 101.97 105.54 101.53C105 101.1 104.56 100.57 104.23 99.95C103.9 99.33 103.71 98.64 103.64 97.87" id="b3bSOnzgqa"></path><path d="M66.51 88.85C66.51 88.85 66.7 88.42 66.82 88.23C66.94 88.03 67.46 87.44 67.55 87.57C67.63 87.71 67.99 88.6 67.8 88.85C67.61 89.1 67.81 89.53 66.88 89.79C66.88 89.79 66.88 89.79 66.88 89.79L66.51 88.85" id="fevHo2LYQ"></path><path d="M56.14 86.18C56.14 86.18 60.92 90.17 62.78 89.8C64.23 89.51 66.54 88.78 66.54 88.78C66.54 88.78 67.15 89.36 66.97 90.05C66.97 90.05 64.04 92.82 61.95 92.83C58.68 92.86 57.14 91.21 57.14 91.21C57.14 91.21 57.14 91.21 57.14 91.21L56.14 86.18" id="f2GxO74hw"></path><path d="M47.76 128.25C47.76 128.25 47.9 130.49 48.33 130.52C48.39 130.52 50.53 130.52 50.53 130.52C50.53 130.52 50.53 130.52 50.53 130.52C52.16 130.51 53.07 130.51 53.26 130.51C53.26 130.51 53.24 129.85 52.44 129.71C51.64 129.57 50.31 129.01 49.82 127.95C49.32 126.85 47.76 128.25 47.76 128.25" id="bAMOCDhzI"></path><path d="M47.6 128.4C47.6 128.4 48.43 128.68 49.08 128.68C49.8 128.68 50.46 128.48 50.46 128.48C50.46 128.48 50.61 126.97 51.47 123.65C51.92 121.9 52.57 119.66 53.48 116.87C56.01 109.17 56.78 104.66 56.85 104.24C56.86 104.22 56.86 104.2 56.86 104.2C56.86 104.2 56.86 104.2 56.86 104.2L56.85 104.2C52.18 102.15 49.59 101.01 49.07 100.78C49.07 100.78 50.03 111.4 48.8 115.47C48.63 116.04 48.49 116.71 48.36 117.42C47.58 121.85 47.6 128.4 47.6 128.4" id="dXMov4xGp"></path><path d="M51.47 123.65C51.92 121.9 52.57 119.66 53.48 116.87C56.01 109.17 56.78 104.66 56.85 104.24C56.85 104.22 56.85 104.21 56.85 104.2C56.85 104.2 56.85 104.2 56.85 104.2C52.18 102.15 49.59 101.01 49.07 100.78C49.07 100.78 50.03 111.4 48.8 115.47C48.63 116.04 51.47 123.65 51.47 123.65" id="i9gs9RCBz"></path><path d="M53.84 128.25C53.84 128.25 53.98 130.49 54.41 130.52C54.47 130.52 56.6 130.52 56.6 130.52C56.6 130.52 56.6 130.52 56.6 130.52C58.24 130.51 59.15 130.51 59.33 130.51C59.33 130.51 59.32 129.85 58.52 129.71C57.72 129.57 56.38 129.01 55.9 127.95C55.39 126.85 53.84 128.25 53.84 128.25" id="aqmJhIX4"></path><path d="M58.25 101.03C58.25 101.03 58.35 107.91 57.16 116.36C55.97 124.8 56.37 128.39 56.37 128.39C56.37 128.39 55.56 128.65 55.23 128.68C54.39 128.75 53.52 128.48 53.52 128.48C53.52 128.48 51.82 120.03 52.31 115.81C52.8 111.58 49.98 101.3 49.98 101.3C49.98 101.3 49.98 101.3 49.98 101.3L58.25 101.03" id="dgg7IhtwQ"></path><path d="M52.73 84.94L54.25 85.93C55.08 85.7 55.54 85.57 55.63 85.54C55.89 85.18 55.95 84.48 55.96 83.88C55.96 83.28 55.9 82.78 55.9 82.78C55.9 82.78 55.9 82.78 55.9 82.78L53.85 81.87C53.4 81.67 53.14 81.56 53.09 81.54C53.09 81.55 53.15 82.16 53.16 82.25C53.3 83.85 52.73 84.94 52.73 84.94" id="aYy8SwPX3"></path><path d="M58.28 102.95C56.39 104.77 49.24 104.46 48.8 102.45C48.36 100.44 49.28 85.33 52.51 84.38C53.18 84.18 56.76 85.34 56.76 85.34C56.76 85.34 57.32 86.81 57.69 88.69C57.76 89.05 57.97 92.91 58.13 96.52C58.2 98.21 58.26 99.85 58.3 101.05C58.32 102.17 58.33 102.91 58.28 102.95" id="a1A4hBS7eD"></path><path d="M53.31 82.28C53.73 82.98 55.19 83.6 55.96 83.88C55.96 83.28 55.9 82.78 55.9 82.78C55.9 82.78 55.9 82.78 55.9 82.78C54.67 82.23 53.99 81.93 53.85 81.87C53.4 81.87 53.13 81.97 53.31 82.28" id="a2xMxwd7JU"></path><path d="M56.68 82.65C56.68 82.65 53.37 83.68 52.76 81.62C52.15 79.55 51.32 78.29 53.4 77.55C55.48 76.8 56.13 77.47 56.5 78.11C56.87 78.75 57.52 82.33 56.68 82.65" id="b3mn7zQowZ"></path><path d="M56.37 77.91C56.37 77.91 56.16 80.31 55.66 80.21C55.16 80.11 54.62 79.88 54.69 80.61C54.76 81.33 54.21 82.57 53.49 82.57C51.95 82.56 50.28 78.62 50.7 77.87C51.92 75.71 58.12 75.28 56.37 77.91" id="f1P9Qqa52V"></path><path d="M55.88 84.43C55.84 84.42 53.42 83.33 53.14 83.43C52.86 83.52 52.51 84.38 52.51 84.38C52.51 84.38 52.51 84.38 52.51 84.38C55.06 84.96 56.48 85.28 56.76 85.34C56.76 85.34 56.43 84.66 55.88 84.43" id="anlU73Dss"></path><path d="M70.92 96.14C62.8 103.79 58.28 108.04 57.38 108.89C57.12 109.14 56.78 109.22 56.64 109.06C56.64 109.06 56.64 109.06 56.64 109.06C56.36 108.77 56.21 108.61 56.18 108.58C56.04 108.42 56.14 108.1 56.4 107.85C56.4 107.85 56.4 107.85 56.4 107.85C64.53 100.2 69.04 95.95 69.94 95.1C70.21 94.85 70.54 94.77 70.69 94.92C70.69 94.92 70.69 94.92 70.69 94.92C70.96 95.21 71.11 95.37 71.14 95.4C71.29 95.56 71.19 95.89 70.92 96.14" id="c30kPIlGnM"></path><path d="M63.32 103.29C59.76 106.65 57.78 108.51 57.38 108.89C57.12 109.14 56.78 109.22 56.64 109.06C56.64 109.06 56.64 109.06 56.64 109.06C56.36 108.77 56.21 108.61 56.18 108.58C56.04 108.42 56.14 108.1 56.4 107.85C56.4 107.85 56.4 107.85 56.4 107.85L62.34 102.25L63.32 103.29" id="c4qIlqqoK"></path><path d="M70.84 81.53C73.18 79.04 76.51 78.05 79.64 78.59C81.46 78.91 83.21 79.74 84.66 81.11C88.59 84.81 88.78 90.99 85.08 94.92C83.72 96.37 82.02 97.31 80.22 97.74C77.13 98.47 73.75 97.68 71.26 95.35C67.33 91.65 67.14 85.46 70.84 81.53M67.81 91.32C68.33 93.04 69.29 94.64 70.69 95.96C74.96 99.97 81.68 99.77 85.69 95.5C89.66 91.28 89.51 84.69 85.4 80.66C85.35 80.6 85.29 80.55 85.23 80.5C80.97 76.48 74.25 76.68 70.23 80.95C67.53 83.82 66.74 87.8 67.81 91.32" id="d2iwepqMcy"></path><path d="M74.64 97.42C73.94 97.17 73.27 96.84 72.63 96.42C72.15 96.11 71.7 95.75 71.26 95.35C67.33 91.65 67.14 85.46 70.84 81.53C71 81.36 71.16 81.21 71.32 81.06C73.18 79.32 75.57 78.45 77.96 78.45C78.52 78.45 79.08 78.5 79.64 78.59C80.66 78.77 81.66 79.11 82.59 79.62C82.59 79.62 82.59 79.62 82.59 79.62L74.64 97.42" id="bPWQHG7ZB"></path><path d="M79.4 97.9C83.43 88.86 85.68 83.85 86.13 82.84C86.15 82.88 86.18 82.92 86.21 82.97C87.08 84.33 87.58 85.86 87.71 87.42C87.92 90.08 87.06 92.83 85.08 94.92C83.72 96.37 82.02 97.31 80.22 97.74C79.95 97.8 79.68 97.85 79.4 97.9" id="basZb5M3w"></path><path d="M77.96 98C77.65 98 77.34 97.99 77.03 97.96C76.22 97.88 75.42 97.7 74.64 97.42C74.64 97.42 74.64 97.42 74.64 97.42C79.41 86.74 82.06 80.8 82.59 79.62C82.96 79.81 83.32 80.04 83.67 80.29C84.01 80.54 84.35 80.81 84.66 81.11C85.23 81.64 85.72 82.22 86.13 82.84C86.13 82.84 86.13 82.84 86.13 82.84C82.09 91.87 79.85 96.89 79.4 97.9C78.92 97.97 78.44 98 77.96 98" id="b4DLoBbeqw"></path><path d="M77.96 98C77.65 98 77.34 97.99 77.03 97.96C77.34 97.99 77.65 98 77.96 98C78.44 98 78.92 97.97 79.4 97.9C79.68 97.85 79.95 97.8 80.22 97.74C82.02 97.31 83.72 96.37 85.08 94.92C87.06 92.83 87.92 90.08 87.71 87.42C87.92 90.08 87.06 92.83 85.08 94.92C83.72 96.37 82.02 97.31 80.22 97.74C79.48 97.91 78.72 98 77.96 98M72.63 96.42C72.15 96.11 71.7 95.75 71.26 95.35C67.33 91.65 67.14 85.46 70.84 81.53C71 81.36 71.16 81.21 71.32 81.06C71.16 81.21 71 81.36 70.84 81.53C67.14 85.46 67.33 91.65 71.26 95.35C71.7 95.75 72.15 96.11 72.63 96.42M86.21 82.97C86.18 82.92 86.15 82.88 86.13 82.84C85.72 82.22 85.23 81.64 84.66 81.11C84.35 80.81 84.01 80.54 83.67 80.29C84.01 80.54 84.35 80.81 84.66 81.11C85.26 81.67 85.78 82.3 86.21 82.97" id="a9Yr7sAEA"></path><path d="M58.3 101.05C50.83 95.73 51.45 88.64 51.45 88.64C54.18 90.17 56.89 93.57 58.13 96.52C58.2 98.21 58.26 99.85 58.3 101.05" id="d4mEZJ5rVk"></path><path d="M65.66 98.63C66.19 98.5 66.54 98.11 66.61 98.04C66.61 98.04 66.84 98.05 66.58 98.53C66.55 98.57 66.5 98.67 66.47 98.75C66.45 98.78 66.47 98.81 66.51 98.81C66.81 98.84 67.12 98.72 67.7 98.84C67.78 98.86 67.81 99.05 67.8 99.13C67.8 99.27 67.81 99.43 67.65 99.64C67.55 99.76 67.29 99.9 66.7 100.13C66.48 100.22 65.84 100.16 65.24 99.95C65.24 99.95 65.24 99.95 65.24 99.95L64.77 99.73L64.91 98.84C64.99 98.86 65.03 98.87 65.03 98.87C65.22 98.91 65.46 98.67 65.66 98.63" id="d2RKo2njcX"></path><path d="M53.77 85.34C53.77 85.34 47.07 86.62 55.74 96.33C57.13 97.88 64.63 99.9 64.63 99.9C64.63 99.9 65.39 99.26 65 98.73C65 98.73 59.84 94.98 58.71 94.39C58.2 94.12 56.72 88.4 55.89 87.03C55.06 85.65 53.77 85.34 53.77 85.34" id="bYJ78oaAP"></path><path d="M66.69 88.96C66.69 88.96 66.91 88.55 66.95 88.32C67 88.1 67.27 87.46 67.39 87.34C67.43 87.3 67.58 87.36 67.6 87.55C67.61 87.64 67.57 87.79 67.49 87.98C67.37 88.28 67.39 88.68 67.35 88.82C67.25 89.16 66.69 88.96 66.69 88.96" id="b3W3KjcOLD"></path><path d="M69.36 72.33C69.25 72.46 69.23 72.61 69.29 72.76C69.29 72.76 69.29 72.76 69.29 72.76C69.29 72.76 69.29 72.77 69.29 72.77C69.39 73.05 69.74 73.38 70.14 73.7C70.19 73.74 70.23 73.78 70.27 73.81C70.28 73.82 70.29 73.83 70.3 73.84C70.31 73.85 70.32 73.85 70.33 73.86C70.7 74.2 70.56 74.28 71.23 74.98C71.99 75.78 72.52 75.79 72.67 75.72C72.8 75.66 72.54 75.24 72.26 74.76C72.24 74.74 72.23 74.72 72.21 74.69C72.18 74.63 72.14 74.56 72.1 74.5C71.77 73.93 71.85 73.66 71.93 72.81C72 72.12 73.01 68.96 73.01 68.96C73.01 68.96 73.01 68.96 73.01 68.96C72.13 68.8 71.64 68.72 71.54 68.7C71.54 68.7 71.1 71.23 70.61 71.61C70.35 71.82 70.06 71.82 69.81 71.98C69.79 71.99 69.78 72 69.76 72.01C69.62 72.1 69.47 72.2 69.36 72.33" id="hRl4Fvw6"></path><path d="M69.36 72.33C69.25 72.46 69.23 72.61 69.29 72.76C69.29 72.76 69.29 72.76 69.29 72.76C69.29 72.76 69.29 72.77 69.29 72.77C69.42 73.05 69.75 73.37 70.14 73.69C70.19 73.74 70.23 73.78 70.27 73.81C70.28 73.82 70.29 73.83 70.3 73.84C70.31 73.85 70.32 73.85 70.33 73.86C70.7 74.2 70.56 74.28 71.23 74.98C71.99 75.78 72.52 75.79 72.67 75.72C72.8 75.66 72.54 75.24 72.26 74.76C72.11 74.71 71.42 74.43 70.89 73.76C70.45 73.19 70.15 72.47 69.85 72.02C69.81 72.02 69.79 72.01 69.76 72.01C69.62 72.1 69.47 72.2 69.36 72.33" id="a1AkEtwhrT"></path><path d="M81.18 71.42C81.27 71.87 81.91 71.8 82.63 71.62C83.35 71.45 83.18 71.65 84.21 71.54C85.23 71.43 85.54 71.05 85.57 70.89C85.6 70.76 85.1 70.71 84.55 70.65C84.49 70.64 84.42 70.63 84.35 70.62C83.73 70.55 83.28 70.15 82.73 69.82C82.2 69.52 81.41 68.26 81.41 68.26C81.41 68.26 81.41 68.26 81.41 68.26C80.57 68.33 80.1 68.36 80.01 68.37C80.01 68.37 80.74 69.49 81.03 69.98C81.2 70.27 81.19 70.65 81.17 70.94C81.16 71.1 81.15 71.26 81.18 71.42" id="frnVk53R"></path><path d="M82.63 71.62C83.35 71.45 83.18 71.65 84.21 71.54C85.23 71.43 85.54 71.05 85.57 70.89C85.6 70.76 85.1 70.71 84.55 70.65C84.55 70.65 84.55 70.65 84.55 70.65C84.55 70.65 84.55 70.66 84.55 70.66C84.55 70.66 83.93 71.09 83.08 71.11C82.38 71.13 81.65 70.93 81.17 70.94C81.16 71.1 81.15 71.26 81.18 71.42C81.27 71.87 81.91 71.8 82.63 71.62" id="c5w7RmFuH"></path><path d="M75.79 62.43L74.48 65.96C73.44 68.73 72.87 70.27 72.76 70.58C72.76 70.58 72.29 70.63 71.85 70.5C71.44 70.38 70.96 70.07 70.96 70.07C70.96 70.07 71.44 65.11 72.33 62.26C72.56 61.53 72.82 60.94 73.1 60.61C74.48 58.98 75.79 62.43 75.79 62.43" id="fWjYobNmb"></path><path d="M74.46 56.81C73.71 56.57 71.76 56.8 69.64 57.19C69.05 57.29 68.46 57.02 68.16 56.52C68.16 56.52 68.16 56.52 68.16 56.52C64.96 56.26 63.18 56.13 62.83 56.1C62.83 56.1 61.07 60 62.03 62.48C62.17 62.85 62.48 63.08 62.96 63.08C62.96 63.08 66.18 63.09 67.21 63.09C69.86 63.09 72.82 61.27 73.2 61.19C73.83 61.07 74.08 62.32 74.7 63.64C75.33 64.95 80.59 69.46 80.59 69.46C80.59 69.46 81.4 69.47 81.74 69.35C82.09 69.21 82.23 69.04 82.23 69.04C82.23 69.04 76.4 57.43 74.46 56.81" id="b9OHpSVqI"></path><path d="M67.59 40.86C67.2 40.63 66.81 40.59 66.58 40.6C66.41 40.6 66.25 40.59 66.09 40.57C64.05 40.27 62.83 43.22 62.75 44.12C62.62 45.76 61.75 46.01 60.53 47.03C58.09 49.09 58.8 51.48 60.14 52.37C60.94 52.9 62.36 52.37 62.36 52.37C62.38 52.39 66.23 50.22 68.13 49.18C70.97 48.77 68.74 41.55 67.59 40.86" id="aosH2B8T6"></path><path d="M66.54 48.29C66.54 48.29 65.6 48.61 64.97 48.33C64.38 48.07 63.93 47.1 63.94 47.1C64.21 47.08 64.51 46.85 64.73 45.3C64.73 45.3 64.73 45.3 64.73 45.3L64.85 45.34C66.01 45.76 66.65 45.99 66.78 46.04C66.78 46.04 66.64 46.66 66.55 47.25C66.47 47.74 66.43 48.22 66.54 48.29" id="a2dmohjn4Y"></path><path d="M66.78 46.04C66.78 46.04 66.7 46.37 66.59 47C65.48 46.8 65 45.94 64.85 45.34C64.85 45.34 64.85 45.34 64.85 45.34L66.78 46.04" id="ec0Kmli8d"></path><path d="M67.07 46.65C67.07 46.65 64.43 46.3 64.67 44.66C64.92 43.01 64.74 41.86 66.44 42.02C68.14 42.18 68.37 42.85 68.42 43.42C68.47 43.99 67.76 46.7 67.07 46.65" id="axZhlK32V"></path><path d="M68.32 42.52C68.32 42.52 66.63 43.98 65.48 44.1C64.33 44.21 63.9 43.84 63.9 43.84C63.9 43.84 64.58 43.28 64.98 42.37C65.1 42.11 65.36 41.92 65.65 41.9C66.47 41.83 68.03 41.79 68.32 42.52" id="g5DVdJftb"></path><path d="M67.27 42.39C67.27 42.39 67.83 42.94 68.01 43.34C68.18 43.74 68.23 44.67 68.1 45.04C68.1 45.04 68.98 43.33 68.48 42.5C67.95 41.61 67.27 42.39 67.27 42.39" id="a2iEue3Oeg"></path><path d="M68.76 52.18C68.68 57.52 68.74 56.41 68.15 56.91C68.01 57.04 67.61 57.11 67.09 57.14C65.45 57.25 62.57 56.98 62.46 56.68C62.08 55.63 62.35 55.3 62.04 53.7C62 53.53 61.96 53.34 61.91 53.14C61.65 52.04 61.4 51.66 62.33 49.89C63.18 48.29 64.06 46.99 64.14 47.03C66.37 48.36 66.55 47.25 66.55 47.25C66.55 47.25 68.8 49.57 68.76 52.18" id="a1rcGktph"></path><path d="M74.48 65.96C73.44 68.73 72.87 70.27 72.76 70.58C72.76 70.58 72.29 70.63 71.85 70.5C71.44 70.38 70.96 70.07 70.96 70.07C70.96 70.07 71.44 65.11 72.33 62.26C72.33 62.26 72.33 62.26 72.33 62.26L74.48 65.96" id="h7XATlHqwn"></path><path d="M66.55 47.25C66.55 47.25 68.85 47.64 69.11 48.63C69.38 49.62 70.27 55.62 70.27 55.62C70.27 55.62 69.62 56.25 69.08 55.71C68.54 55.17 67.39 50.09 67.39 50.09C67.39 50.09 67.39 50.09 67.39 50.09L66.55 47.25" id="e61dDW6t33"></path><path d="M67.09 57.14C65.45 57.25 62.57 56.98 62.46 56.68C62.08 55.63 62.35 55.3 62.04 53.7C62.04 53.7 62.04 53.7 62.04 53.7C62.51 52.36 62.77 51.62 62.83 51.47C62.83 51.47 62.7 53.95 63.43 54.6C64.16 55.26 66.42 55.86 66.77 56.41C66.95 56.67 67.06 56.93 67.09 57.14" id="a2YZzViiGZ"></path><path d="M65.21 56.1C65.21 56.1 66.83 55.74 67.09 55.88C67.35 56.03 67.99 56.55 68.07 56.73C68.15 56.91 67.49 56.59 67.27 56.53C67.14 56.5 66.77 56.62 66.59 56.68C65.82 56.94 65.36 56.81 65.36 56.81C65.36 56.81 65.36 56.81 65.36 56.81L65.21 56.1" id="gEAunCPA6"></path><path d="M64.13 47.03C64.13 47.03 61.96 47.17 61.21 48.21C60.15 49.69 58.05 55.98 59.25 56.82C60.61 57.76 65.42 57.07 65.42 57.07C65.42 57.07 65.58 56.32 65.36 55.96C65.13 55.6 61.51 55.01 61.35 54.84C61.18 54.67 63.44 51.59 63.44 51.08C63.44 50.58 64.13 47.03 64.13 47.03" id="a1JtJcpzgZ"></path><path d="M67.17 56.33C67.17 56.33 67.51 56.77 67.62 56.82C67.73 56.87 67.8 56.86 67.8 56.86C67.8 56.86 67.8 56.86 67.8 56.86L67.57 56.45L67.17 56.33" id="hdJ1TgUgE"></path><path d="M67.09 55.88C67.68 56.17 68.01 56.33 68.08 56.36C68.08 56.36 68.04 56.43 67.91 56.42C67.79 56.42 67.49 56.31 67.49 56.31C67.49 56.31 67.49 56.31 67.49 56.31L67.09 55.88" id="bjSQsYB7R"></path><path d="M75.5 57.01L65.21 57.01L65.21 57.23L75.41 57.24L75.5 57.01" id="guotE50w"></path><path d="M67.62 57.23L75.41 57.24L77.76 51.41L69.98 51.41L67.62 57.23" id="e16sU8TzgI"></path><path d="M73.45 54.32C73.51 54.12 73.39 53.95 73.18 53.95C72.98 53.95 72.76 54.12 72.7 54.32C72.65 54.53 72.76 54.69 72.97 54.69C73.17 54.69 73.39 54.53 73.45 54.32" id="i1kxTzcKCP"></path><path d="M126.19 79.22C125.14 78.87 124.41 79.31 124.41 79.31C121.39 79.43 121.28 82.53 121.63 83.68C122.13 85.3 120.36 86.58 122.32 87.24C124.59 88 126.49 87.09 126.36 87.49C133.54 88.05 128.57 80.01 126.19 79.22" id="a2Vj7Cusms"></path><path d="M123.05 94.29C123.05 94.29 122.76 94.86 122.24 95.51C121.62 96.3 118.32 94.43 118.6 94.29C118.89 94.14 120.54 89.37 120.94 88.77C121.33 88.17 122.68 87.86 122.68 87.86C122.68 87.86 122.68 87.86 122.68 87.86L123.05 94.29" id="glP0GxHEc"></path><path d="M134.17 126.46C134.17 126.46 135.08 127.29 134.9 127.88C134.73 128.47 133.91 128.87 133.8 129.59C133.68 130.31 133.24 130.7 132.84 130.7C132.44 130.7 130.94 130.7 130.94 130.7C130.94 130.7 130.64 130.19 131.35 130.04C132.06 129.89 132.33 129.04 132.29 128.26C132.24 127.47 132.35 126.42 132.35 126.42C132.35 126.42 132.35 126.42 132.35 126.42L133.86 126.07L134.17 126.46" id="c47pcA4idF"></path><path d="M126.47 126.82C126.47 126.82 126.8 130.33 126.4 130.53C126.4 130.53 126.4 130.53 126.4 130.53C123.34 130.52 121.63 130.52 121.29 130.52C121.29 130.52 121.29 129.93 122.11 129.8C122.93 129.67 124.37 129.19 124.62 128.12C124.86 127.05 126.47 126.82 126.47 126.82" id="abnVcpe5Ip"></path><path d="M130.4 91.91C130.4 91.91 130.48 92.99 130.4 94.28C130.35 95.13 129.49 96.27 129.37 96.56C129.06 97.27 128.71 97.38 128.71 97.38C128.71 97.38 128.71 97.38 128.71 97.38L126.03 98.04L125.09 98.27C123.3 97.74 122.31 97.44 122.11 97.38C122.11 97.38 120.76 93.6 121.3 91.47C121.84 89.34 122.68 87.86 122.68 87.86C122.68 87.86 124.7 87.41 128.27 87.66C128.27 87.66 128.27 87.66 128.27 87.66L130.4 91.91" id="b4n5u87J9"></path><path d="M130.66 94.31C130.61 95.16 129.49 96.27 129.37 96.56C129.06 97.27 128.71 97.38 128.71 97.38C128.71 97.38 128.71 97.38 128.71 97.38L126.03 98.04C125.74 97.21 125.58 96.74 125.55 96.65C125.55 96.65 129.47 95.62 128.84 91.99C128.84 91.99 128.84 91.99 128.84 91.99L130.66 94.31" id="c1PcBZtmPM"></path><path d="M122.3 97.96C122.3 97.96 120.83 102.54 120.73 104.1C120.64 105.67 123.55 126.29 123.67 127.01C123.78 127.68 124.62 128.12 124.62 128.12C124.62 128.12 125.01 128.34 125.56 128.19C126.33 127.97 126.57 127.71 126.57 127.71C126.57 127.71 127.72 113.01 127.01 107.75C126.3 102.5 126.29 97.96 126.29 97.96C126.29 97.96 126.29 97.96 126.29 97.96L122.3 97.96" id="h7vvRJzt1"></path><path d="M128.54 97.82C128.54 97.82 130.79 100.84 131 102.87C131.21 104.91 131.33 112.07 131.78 114.06C132.22 116.05 133.86 119.87 133.86 126.07C133.86 126.07 133.69 126.43 133.17 126.62C133 126.68 132.77 126.73 132.55 126.78C132.12 126.88 131.67 126.67 131.47 126.27C130.37 124.04 126.83 116.84 126.65 115.35C126.52 114.29 125.41 107.29 122.98 103.18C122.39 102.19 123.34 98.27 123.34 98.27C123.34 98.27 123.34 98.27 123.34 98.27L128.54 97.82" id="a2u5qAfmvK"></path><path d="M122.07 97.25C122.07 97.25 122.66 97.72 123.83 97.74C125.24 97.77 128.71 97.38 128.71 97.38C128.71 97.38 128.87 97.81 128.86 98.27C128.86 98.27 124.61 99.34 122.15 98.43C122.15 98.43 121.84 97.83 122.07 97.25" id="b6yp1lbHK"></path><path d="M123.07 98.22C123.07 98.51 123.26 98.74 123.5 98.74C123.73 98.74 123.92 98.51 123.92 98.22C123.92 97.94 123.73 97.71 123.5 97.71C123.26 97.71 123.07 97.94 123.07 98.22ZM123.5 98.95C123.14 98.95 122.85 98.62 122.85 98.22C122.85 97.83 123.14 97.5 123.5 97.5C123.85 97.5 124.14 97.83 124.14 98.22C124.14 98.62 123.85 98.95 123.5 98.95" id="k1kTg5pMG8"></path><path d="M126.56 100.27L120.18 100.33L117.04 92.95L123.42 92.89L126.56 100.27" id="a2Rr0nj6Fz"></path><path d="M125.73 96.93C125.45 96.59 125.29 96.4 125.26 96.36C125.26 96.36 124.94 96.07 124.71 96.03C124.48 95.98 124 95.7 123.95 95.78C123.91 95.86 124.33 96.42 124.33 96.42C124.33 96.42 124.33 96.42 124.33 96.42C124.34 96.42 124.35 96.42 124.35 96.42C123.86 96.78 122.65 96.46 122.5 96.61C122.32 96.79 122.75 97.18 122.98 97.4C123.21 97.61 123.88 97.98 124.39 97.82C124.77 97.7 125.37 97.58 125.37 97.58C125.37 97.58 125.37 97.58 125.37 97.58L125.73 96.93" id="dafBpajN4"></path><path d="M117.52 94.24C117.52 94.24 117.92 93.79 118.18 94.01C118.43 94.23 118.11 95.3 117.86 95.19C117.62 95.08 117.38 94.38 117.52 94.24" id="a8mhSihcOb"></path><path d="M128.27 87.66C128.27 87.66 130.09 87.86 131.4 90.25C132.44 92.13 134.21 95.59 133.54 96.57C133.25 97 130.44 98.53 125.02 97.65C125.02 97.65 125.11 96.97 125.55 96.65C125.55 96.65 130.1 95.19 130.1 94.9C130.08 94.35 129.48 93.87 126.93 91.33C126.24 90.63 128.27 87.66 128.27 87.66" id="akB9qitks"></path><path d="M126.86 87.76C126.92 87.67 126.84 87.41 126.74 86.91C126.65 86.45 126.49 85.75 126.5 84.96C126.5 84.96 126.5 84.96 126.5 84.96L126.36 84.99C125 85.22 124.25 85.34 124.1 85.37C124.1 85.37 124.15 85.97 124.15 86.54C124.15 86.54 124.15 86.54 124.15 86.54C124.15 86.55 124.15 86.56 124.15 86.56C124.15 87.05 124.02 87.8 124.19 87.9C125.04 88.4 126.62 88.08 126.86 87.76" id="c2i5xrKWgx"></path><path d="M124.1 85.37C124.1 85.37 124.14 86.22 124.14 86.79C125.41 86.76 126.09 85.53 126.36 84.99C126.36 84.99 126.36 84.99 126.36 84.99L124.1 85.37" id="a3JtsymZ5m"></path><path d="M123.96 86.39C123.96 86.39 126.93 85.96 126.64 84.12C126.35 82.27 126.53 80.98 124.63 81.17C122.72 81.36 122.46 82.12 122.41 82.76C122.36 83.4 123.18 86.45 123.96 86.39" id="j2lgi4iCxD"></path><path d="M123.27 81.34C123.27 81.34 124.43 83.37 125.72 83.49C127.02 83.62 127.5 83.2 127.5 83.2C127.5 83.2 126.43 82.59 126.02 81.3C126.02 81.3 123.72 80.21 123.27 81.34" id="abRc10SqR"></path><path d="M123.5 81.48C123.5 81.48 122.93 81.8 122.76 82.28C122.58 82.75 122.47 83.35 122.63 84.04C122.63 84.04 121.78 82.66 122.33 81.72C122.92 80.72 123.5 81.48 123.5 81.48" id="f4kJIW8IY"></path><path d="M188.92 130.97C90.16 130.97 35.29 130.97 24.32 130.97C24.21 130.97 24.11 130.87 24.11 130.76C24.11 130.76 24.11 130.76 24.11 130.76C24.11 130.69 24.11 130.65 24.11 130.64C24.11 130.53 24.21 130.44 24.32 130.44C24.32 130.44 24.32 130.44 24.32 130.44C123.08 130.44 177.95 130.44 188.92 130.44C189.03 130.44 189.13 130.53 189.13 130.64C189.13 130.64 189.13 130.64 189.13 130.64C189.13 130.71 189.13 130.75 189.13 130.76C189.13 130.87 189.03 130.97 188.92 130.97" id="feYBnti1"></path></defs><g><g><g><use xlink:href="#a1ZKyLgxa" opacity="1" fill="#ffffff" fill-opacity="1"></use><g><use xlink:href="#a1ZKyLgxa" opacity="1" fill-opacity="0" stroke="#000000" stroke-width="1" stroke-opacity="0"></use></g></g><g><use xlink:href="#b27gj4bxH" opacity="1" fill="#ebf3fa" fill-opacity="1"></use><g><use xlink:href="#b27gj4bxH" opacity="1" fill-opacity="0" stroke="#000000" stroke-width="1" stroke-opacity="0"></use></g></g><g><use xlink:href="#axXte6RDF" opacity="1" fill="#dbe8fe" fill-opacity="1"></use><g><use xlink:href="#axXte6RDF" opacity="1" fill-opacity="0" stroke="#000000" stroke-width="1" stroke-opacity="0"></use></g></g><g><use xlink:href="#b9JtkpAa8" opacity="1" fill="#bacdfe" fill-opacity="1"></use><g><use xlink:href="#b9JtkpAa8" opacity="1" fill-opacity="0" stroke="#000000" stroke-width="1" stroke-opacity="0"></use></g></g><g><use xlink:href="#g5cvJn1bCt" opacity="1" fill="#bacdfe" fill-opacity="1"></use><g><use xlink:href="#g5cvJn1bCt" opacity="1" fill-opacity="0" stroke="#000000" stroke-width="1" stroke-opacity="0"></use></g></g><g><use xlink:href="#a5xwer7l8a" opacity="1" fill="#bacdfe" fill-opacity="1"></use><g><use xlink:href="#a5xwer7l8a" opacity="1" fill-opacity="0" stroke="#000000" stroke-width="1" stroke-opacity="0"></use></g></g><g><use xlink:href="#bigjHqiI4" opacity="1" fill="#bacdfe" fill-opacity="1"></use><g><use xlink:href="#bigjHqiI4" opacity="1" fill-opacity="0" stroke="#000000" stroke-width="1" stroke-opacity="0"></use></g></g><g><use xlink:href="#aw4I8HB10" opacity="1" fill="#a8d29f" fill-opacity="1"></use><g><use xlink:href="#aw4I8HB10" opacity="1" fill-opacity="0" stroke="#000000" stroke-width="1" stroke-opacity="0"></use></g></g><g><use xlink:href="#a2WfMrUhdJ" opacity="1" fill="#a8d29f" fill-opacity="1"></use><g><use xlink:href="#a2WfMrUhdJ" opacity="1" fill-opacity="0" stroke="#000000" stroke-width="1" stroke-opacity="0"></use></g></g><g><use xlink:href="#c4wNvGs9Ok" opacity="1" fill="#ffb27d" fill-opacity="1"></use><g><use xlink:href="#c4wNvGs9Ok" opacity="1" fill-opacity="0" stroke="#000000" stroke-width="1" stroke-opacity="0"></use></g></g><g><use xlink:href="#axUElv8dN" opacity="1" fill="#739af0" fill-opacity="1"></use><g><use xlink:href="#axUElv8dN" opacity="1" fill-opacity="0" stroke="#000000" stroke-width="1" stroke-opacity="0"></use></g></g><g><use xlink:href="#aa2WHm7Jg" opacity="1" fill="#1c3154" fill-opacity="1"></use><g><use xlink:href="#aa2WHm7Jg" opacity="1" fill-opacity="0" stroke="#000000" stroke-width="1" stroke-opacity="0"></use></g></g><g><use xlink:href="#j3QYvJB2F3" opacity="1" fill="#2a4e96" fill-opacity="1"></use><g><use xlink:href="#j3QYvJB2F3" opacity="1" fill-opacity="0" stroke="#000000" stroke-width="1" stroke-opacity="0"></use></g></g><g><use xlink:href="#e31nE9Wtbm" opacity="1" fill="#233862" fill-opacity="1"></use><g><use xlink:href="#e31nE9Wtbm" opacity="1" fill-opacity="0" stroke="#000000" stroke-width="1" stroke-opacity="0"></use></g></g><g><use xlink:href="#a3aHcqK9cS" opacity="1" fill="#6385db" fill-opacity="1"></use><g><use xlink:href="#a3aHcqK9cS" opacity="1" fill-opacity="0" stroke="#000000" stroke-width="1" stroke-opacity="0"></use></g></g><g><use xlink:href="#c8ip8qybP" opacity="1" fill="#ffb27d" fill-opacity="1"></use><g><use xlink:href="#c8ip8qybP" opacity="1" fill-opacity="0" stroke="#000000" stroke-width="1" stroke-opacity="0"></use></g></g><g><use xlink:href="#c3utqWfj8" opacity="1" fill="#1c3154" fill-opacity="1"></use><g><use xlink:href="#c3utqWfj8" opacity="1" fill-opacity="0" stroke="#000000" stroke-width="1" stroke-opacity="0"></use></g></g><g><use xlink:href="#dwQgLebb1" opacity="1" fill="#2a4e96" fill-opacity="1"></use><g><use xlink:href="#dwQgLebb1" opacity="1" fill-opacity="0" stroke="#000000" stroke-width="1" stroke-opacity="0"></use></g></g><g><use xlink:href="#a2CklM5dav" opacity="1" fill="#739af0" fill-opacity="1"></use><g><use xlink:href="#a2CklM5dav" opacity="1" fill-opacity="0" stroke="#000000" stroke-width="1" stroke-opacity="0"></use></g></g><g><use xlink:href="#fIrOtK8hj" opacity="1" fill="#ffb27d" fill-opacity="1"></use><g><use xlink:href="#fIrOtK8hj" opacity="1" fill-opacity="0" stroke="#000000" stroke-width="1" stroke-opacity="0"></use></g></g><g><use xlink:href="#aVVzQe6gl" opacity="1" fill="#ed985f" fill-opacity="1"></use><g><use xlink:href="#aVVzQe6gl" opacity="1" fill-opacity="0" stroke="#000000" stroke-width="1" stroke-opacity="0"></use></g></g><g><use xlink:href="#c1n6z8DRZa" opacity="1" fill="#ffb27d" fill-opacity="1"></use><g><use xlink:href="#c1n6z8DRZa" opacity="1" fill-opacity="0" stroke="#000000" stroke-width="1" stroke-opacity="0"></use></g></g><g><use xlink:href="#aqQyP85kP" opacity="1" fill="#2c3a64" fill-opacity="1"></use><g><use xlink:href="#aqQyP85kP" opacity="1" fill-opacity="0" stroke="#000000" stroke-width="1" stroke-opacity="0"></use></g></g><g><use xlink:href="#j850URZeS" opacity="1" fill="#6385db" fill-opacity="1"></use><g><use xlink:href="#j850URZeS" opacity="1" fill-opacity="0" stroke="#000000" stroke-width="1" stroke-opacity="0"></use></g></g><g><use xlink:href="#b1ZhHlpsop" opacity="1" fill="#739af0" fill-opacity="1"></use><g><use xlink:href="#b1ZhHlpsop" opacity="1" fill-opacity="0" stroke="#000000" stroke-width="1" stroke-opacity="0"></use></g></g><g><use xlink:href="#a4FC6CEVF" opacity="1" fill="#aec3ff" fill-opacity="1"></use><g><use xlink:href="#a4FC6CEVF" opacity="1" fill-opacity="0" stroke="#000000" stroke-width="1" stroke-opacity="0"></use></g></g><g><use xlink:href="#d1JUs0mfnv" opacity="1" fill="#f99746" fill-opacity="1"></use><g><use xlink:href="#d1JUs0mfnv" opacity="1" fill-opacity="0" stroke="#000000" stroke-width="1" stroke-opacity="0"></use></g></g><g><use xlink:href="#asAChPkSu" opacity="1" fill="#f99746" fill-opacity="1"></use><g><use xlink:href="#asAChPkSu" opacity="1" fill-opacity="0" stroke="#000000" stroke-width="1" stroke-opacity="0"></use></g></g><g><use xlink:href="#b3WuZVGgL" opacity="1" fill="#739af0" fill-opacity="1"></use><g><use xlink:href="#b3WuZVGgL" opacity="1" fill-opacity="0" stroke="#000000" stroke-width="1" stroke-opacity="0"></use></g></g><g><use xlink:href="#b3ZJ1Vt15Z" opacity="1" fill="#f99746" fill-opacity="1"></use><g><use xlink:href="#b3ZJ1Vt15Z" opacity="1" fill-opacity="0" stroke="#000000" stroke-width="1" stroke-opacity="0"></use></g></g><g><use xlink:href="#e3BOCL1Md4" opacity="1" fill="#ed7d2b" fill-opacity="1"></use><g><use xlink:href="#e3BOCL1Md4" opacity="1" fill-opacity="0" stroke="#000000" stroke-width="1" stroke-opacity="0"></use></g></g><g><use xlink:href="#anI9vqrUQ" opacity="1" fill="#ffb27d" fill-opacity="1"></use><g><use xlink:href="#anI9vqrUQ" opacity="1" fill-opacity="0" stroke="#000000" stroke-width="1" stroke-opacity="0"></use></g></g><g><use xlink:href="#b1a2ZfxfT7" opacity="1" fill="#ffb27d" fill-opacity="1"></use><g><use xlink:href="#b1a2ZfxfT7" opacity="1" fill-opacity="0" stroke="#000000" stroke-width="1" stroke-opacity="0"></use></g></g><g><use xlink:href="#c2p8eJ2rcM" opacity="1" fill="#7599ea" fill-opacity="1"></use><g><use xlink:href="#c2p8eJ2rcM" opacity="1" fill-opacity="0" stroke="#000000" stroke-width="1" stroke-opacity="0"></use></g></g><g><use xlink:href="#i2Vv1n9jRP" opacity="1" fill="#90aff4" fill-opacity="1"></use><g><use xlink:href="#i2Vv1n9jRP" opacity="1" fill-opacity="0" stroke="#000000" stroke-width="1" stroke-opacity="0"></use></g></g><g><use xlink:href="#f17cPn5ELZ" opacity="1" fill="#aec3ff" fill-opacity="1"></use><g><use xlink:href="#f17cPn5ELZ" opacity="1" fill-opacity="0" stroke="#000000" stroke-width="1" stroke-opacity="0"></use></g></g><g><use xlink:href="#a5zXnNAsHD" opacity="1" fill="#90aff4" fill-opacity="1"></use><g><use xlink:href="#a5zXnNAsHD" opacity="1" fill-opacity="0" stroke="#000000" stroke-width="1" stroke-opacity="0"></use></g></g><g><use xlink:href="#fbDJUxPjX" opacity="1" fill="#7599ea" fill-opacity="1"></use><g><use xlink:href="#fbDJUxPjX" opacity="1" fill-opacity="0" stroke="#000000" stroke-width="1" stroke-opacity="0"></use></g></g><g><use xlink:href="#apl4pCqi6" opacity="1" fill="#aec3ff" fill-opacity="1"></use><g><use xlink:href="#apl4pCqi6" opacity="1" fill-opacity="0" stroke="#000000" stroke-width="1" stroke-opacity="0"></use></g></g><g><use xlink:href="#c6ggTBmYk" opacity="1" fill="#5888dd" fill-opacity="1"></use><g><use xlink:href="#c6ggTBmYk" opacity="1" fill-opacity="0" stroke="#000000" stroke-width="1" stroke-opacity="0"></use></g></g><g><use xlink:href="#bvwPLXy9M" opacity="1" fill="#7a9feb" fill-opacity="1"></use><g><use xlink:href="#bvwPLXy9M" opacity="1" fill-opacity="0" stroke="#000000" stroke-width="1" stroke-opacity="0"></use></g></g><g><use xlink:href="#b6vSVtm6A1" opacity="1" fill="#8cabf1" fill-opacity="1"></use><g><use xlink:href="#b6vSVtm6A1" opacity="1" fill-opacity="0" stroke="#000000" stroke-width="1" stroke-opacity="0"></use></g></g><g><use xlink:href="#af2MYUpLh" opacity="1" fill="#aec3ff" fill-opacity="1"></use><g><use xlink:href="#af2MYUpLh" opacity="1" fill-opacity="0" stroke="#000000" stroke-width="1" stroke-opacity="0"></use></g></g><g><use xlink:href="#b6MxHcwrsk" opacity="1" fill="#739af0" fill-opacity="1"></use><g><use xlink:href="#b6MxHcwrsk" opacity="1" fill-opacity="0" stroke="#000000" stroke-width="1" stroke-opacity="0"></use></g></g><g><use xlink:href="#a63Nb7KAY" opacity="1" fill="#607cf4" fill-opacity="1"></use><g><use xlink:href="#a63Nb7KAY" opacity="1" fill-opacity="0" stroke="#000000" stroke-width="1" stroke-opacity="0"></use></g></g><g><use xlink:href="#eau6a4tZHe" opacity="1" fill="#e9f3fe" fill-opacity="1"></use><g><use xlink:href="#eau6a4tZHe" opacity="1" fill-opacity="0" stroke="#000000" stroke-width="1" stroke-opacity="0"></use></g></g><g><use xlink:href="#btmqTTU2n" opacity="1" fill="#e9f3fe" fill-opacity="1"></use><g><use xlink:href="#btmqTTU2n" opacity="1" fill-opacity="0" stroke="#000000" stroke-width="1" stroke-opacity="0"></use></g></g><g><use xlink:href="#b2V87Uh6UT" opacity="1" fill="#e9f3fe" fill-opacity="1"></use><g><use xlink:href="#b2V87Uh6UT" opacity="1" fill-opacity="0" stroke="#000000" stroke-width="1" stroke-opacity="0"></use></g></g><g><use xlink:href="#a9I2MKH9l" opacity="1" fill="#f74848" fill-opacity="1"></use><g><use xlink:href="#a9I2MKH9l" opacity="1" fill-opacity="0" stroke="#000000" stroke-width="1" stroke-opacity="0"></use></g></g><g><use xlink:href="#f38hecRBR" opacity="1" fill="#aec3ff" fill-opacity="1"></use><g><use xlink:href="#f38hecRBR" opacity="1" fill-opacity="0" stroke="#000000" stroke-width="1" stroke-opacity="0"></use></g></g><g><use xlink:href="#aXvXPxpB" opacity="1" fill="#e6efff" fill-opacity="1"></use><g><use xlink:href="#aXvXPxpB" opacity="1" fill-opacity="0" stroke="#000000" stroke-width="1" stroke-opacity="0"></use></g></g><g><use xlink:href="#a1TAATXhOH" opacity="1" fill="#f74848" fill-opacity="1"></use><g><use xlink:href="#a1TAATXhOH" opacity="1" fill-opacity="0" stroke="#000000" stroke-width="1" stroke-opacity="0"></use></g></g><g><use xlink:href="#b3bSOnzgqa" opacity="1" fill="#f74848" fill-opacity="1"></use><g><use xlink:href="#b3bSOnzgqa" opacity="1" fill-opacity="0" stroke="#000000" stroke-width="1" stroke-opacity="0"></use></g></g><g><use xlink:href="#fevHo2LYQ" opacity="1" fill="#ffb27d" fill-opacity="1"></use><g><use xlink:href="#fevHo2LYQ" opacity="1" fill-opacity="0" stroke="#000000" stroke-width="1" stroke-opacity="0"></use></g></g><g><use xlink:href="#f2GxO74hw" opacity="1" fill="#ed7d2b" fill-opacity="1"></use><g><use xlink:href="#f2GxO74hw" opacity="1" fill-opacity="0" stroke="#000000" stroke-width="1" stroke-opacity="0"></use></g></g><g><use xlink:href="#bAMOCDhzI" opacity="1" fill="#113c68" fill-opacity="1"></use><g><use xlink:href="#bAMOCDhzI" opacity="1" fill-opacity="0" stroke="#000000" stroke-width="1" stroke-opacity="0"></use></g></g><g><use xlink:href="#dXMov4xGp" opacity="1" fill="#2a4e96" fill-opacity="1"></use><g><use xlink:href="#dXMov4xGp" opacity="1" fill-opacity="0" stroke="#000000" stroke-width="1" stroke-opacity="0"></use></g></g><g><use xlink:href="#i9gs9RCBz" opacity="1" fill="#233862" fill-opacity="1"></use><g><use xlink:href="#i9gs9RCBz" opacity="1" fill-opacity="0" stroke="#000000" stroke-width="1" stroke-opacity="0"></use></g></g><g><use xlink:href="#aqmJhIX4" opacity="1" fill="#15447c" fill-opacity="1"></use><g><use xlink:href="#aqmJhIX4" opacity="1" fill-opacity="0" stroke="#000000" stroke-width="1" stroke-opacity="0"></use></g></g><g><use xlink:href="#dgg7IhtwQ" opacity="1" fill="#2a4e96" fill-opacity="1"></use><g><use xlink:href="#dgg7IhtwQ" opacity="1" fill-opacity="0" stroke="#000000" stroke-width="1" stroke-opacity="0"></use></g></g><g><use xlink:href="#aYy8SwPX3" opacity="1" fill="#ffb27d" fill-opacity="1"></use><g><use xlink:href="#aYy8SwPX3" opacity="1" fill-opacity="0" stroke="#000000" stroke-width="1" stroke-opacity="0"></use></g></g><g><use xlink:href="#a1A4hBS7eD" opacity="1" fill="#f99746" fill-opacity="1"></use><g><use xlink:href="#a1A4hBS7eD" opacity="1" fill-opacity="0" stroke="#000000" stroke-width="1" stroke-opacity="0"></use></g></g><g><use xlink:href="#a2xMxwd7JU" opacity="1" fill="#fca56b" fill-opacity="1"></use><g><use xlink:href="#a2xMxwd7JU" opacity="1" fill-opacity="0" stroke="#000000" stroke-width="1" stroke-opacity="0"></use></g></g><g><use xlink:href="#b3mn7zQowZ" opacity="1" fill="#ffb27d" fill-opacity="1"></use><g><use xlink:href="#b3mn7zQowZ" opacity="1" fill-opacity="0" stroke="#000000" stroke-width="1" stroke-opacity="0"></use></g></g><g><use xlink:href="#f1P9Qqa52V" opacity="1" fill="#163560" fill-opacity="1"></use><g><use xlink:href="#f1P9Qqa52V" opacity="1" fill-opacity="0" stroke="#000000" stroke-width="1" stroke-opacity="0"></use></g></g><g><use xlink:href="#anlU73Dss" opacity="1" fill="#ed7d2b" fill-opacity="1"></use><g><use xlink:href="#anlU73Dss" opacity="1" fill-opacity="0" stroke="#000000" stroke-width="1" stroke-opacity="0"></use></g></g><g><use xlink:href="#c30kPIlGnM" opacity="1" fill="#1f4d84" fill-opacity="1"></use><g><use xlink:href="#c30kPIlGnM" opacity="1" fill-opacity="0" stroke="#000000" stroke-width="1" stroke-opacity="0"></use></g></g><g><use xlink:href="#c4qIlqqoK" opacity="1" fill="#739af0" fill-opacity="1"></use><g><use xlink:href="#c4qIlqqoK" opacity="1" fill-opacity="0" stroke="#000000" stroke-width="1" stroke-opacity="0"></use></g></g><g><use xlink:href="#d2iwepqMcy" opacity="1" fill="#1f4d84" fill-opacity="1"></use><g><use xlink:href="#d2iwepqMcy" opacity="1" fill-opacity="0" stroke="#000000" stroke-width="1" stroke-opacity="0"></use></g></g><g><use xlink:href="#bPWQHG7ZB" opacity="1" fill="#93b5f5" fill-opacity="1"></use><g><use xlink:href="#bPWQHG7ZB" opacity="1" fill-opacity="0" stroke="#000000" stroke-width="1" stroke-opacity="0"></use></g></g><g><use xlink:href="#basZb5M3w" opacity="1" fill="#ccdffc" fill-opacity="1"></use><g><use xlink:href="#basZb5M3w" opacity="1" fill-opacity="0" stroke="#000000" stroke-width="1" stroke-opacity="0"></use></g></g><g><use xlink:href="#b4DLoBbeqw" opacity="1" fill="#d5a6a1" fill-opacity="1"></use><g><use xlink:href="#b4DLoBbeqw" opacity="1" fill-opacity="0" stroke="#000000" stroke-width="1" stroke-opacity="0"></use></g></g><g><use xlink:href="#a9Yr7sAEA" opacity="1" fill="#698ebf" fill-opacity="1"></use><g><use xlink:href="#a9Yr7sAEA" opacity="1" fill-opacity="0" stroke="#000000" stroke-width="1" stroke-opacity="0"></use></g></g><g><use xlink:href="#d4mEZJ5rVk" opacity="1" fill="#ed7d2b" fill-opacity="1"></use><g><use xlink:href="#d4mEZJ5rVk" opacity="1" fill-opacity="0" stroke="#000000" stroke-width="1" stroke-opacity="0"></use></g></g><g><use xlink:href="#d2RKo2njcX" opacity="1" fill="#ffb27d" fill-opacity="1"></use><g><use xlink:href="#d2RKo2njcX" opacity="1" fill-opacity="0" stroke="#000000" stroke-width="1" stroke-opacity="0"></use></g></g><g><use xlink:href="#bYJ78oaAP" opacity="1" fill="#f99746" fill-opacity="1"></use><g><use xlink:href="#bYJ78oaAP" opacity="1" fill-opacity="0" stroke="#000000" stroke-width="1" stroke-opacity="0"></use></g></g><g><use xlink:href="#b3W3KjcOLD" opacity="1" fill="#ffb27d" fill-opacity="1"></use><g><use xlink:href="#b3W3KjcOLD" opacity="1" fill-opacity="0" stroke="#000000" stroke-width="1" stroke-opacity="0"></use></g></g><g><use xlink:href="#hRl4Fvw6" opacity="1" fill="#ffb27d" fill-opacity="1"></use><g><use xlink:href="#hRl4Fvw6" opacity="1" fill-opacity="0" stroke="#000000" stroke-width="1" stroke-opacity="0"></use></g></g><g><use xlink:href="#a1AkEtwhrT" opacity="1" fill="#233862" fill-opacity="1"></use><g><use xlink:href="#a1AkEtwhrT" opacity="1" fill-opacity="0" stroke="#000000" stroke-width="1" stroke-opacity="0"></use></g></g><g><use xlink:href="#frnVk53R" opacity="1" fill="#ffb27d" fill-opacity="1"></use><g><use xlink:href="#frnVk53R" opacity="1" fill-opacity="0" stroke="#000000" stroke-width="1" stroke-opacity="0"></use></g></g><g><use xlink:href="#c5w7RmFuH" opacity="1" fill="#233862" fill-opacity="1"></use><g><use xlink:href="#c5w7RmFuH" opacity="1" fill-opacity="0" stroke="#000000" stroke-width="1" stroke-opacity="0"></use></g></g><g><use xlink:href="#fWjYobNmb" opacity="1" fill="#233862" fill-opacity="1"></use><g><use xlink:href="#fWjYobNmb" opacity="1" fill-opacity="0" stroke="#000000" stroke-width="1" stroke-opacity="0"></use></g></g><g><use xlink:href="#b9OHpSVqI" opacity="1" fill="#2a4e96" fill-opacity="1"></use><g><use xlink:href="#b9OHpSVqI" opacity="1" fill-opacity="0" stroke="#000000" stroke-width="1" stroke-opacity="0"></use></g></g><g><use xlink:href="#aosH2B8T6" opacity="1" fill="#233862" fill-opacity="1"></use><g><use xlink:href="#aosH2B8T6" opacity="1" fill-opacity="0" stroke="#000000" stroke-width="1" stroke-opacity="0"></use></g></g><g><use xlink:href="#a2dmohjn4Y" opacity="1" fill="#ffb27d" fill-opacity="1"></use><g><use xlink:href="#a2dmohjn4Y" opacity="1" fill-opacity="0" stroke="#000000" stroke-width="1" stroke-opacity="0"></use></g></g><g><use xlink:href="#ec0Kmli8d" opacity="1" fill="#ed975d" fill-opacity="1"></use><g><use xlink:href="#ec0Kmli8d" opacity="1" fill-opacity="0" stroke="#000000" stroke-width="1" stroke-opacity="0"></use></g></g><g><use xlink:href="#axZhlK32V" opacity="1" fill="#ffb27d" fill-opacity="1"></use><g><use xlink:href="#axZhlK32V" opacity="1" fill-opacity="0" stroke="#000000" stroke-width="1" stroke-opacity="0"></use></g></g><g><use xlink:href="#g5DVdJftb" opacity="1" fill="#233862" fill-opacity="1"></use><g><use xlink:href="#g5DVdJftb" opacity="1" fill-opacity="0" stroke="#000000" stroke-width="1" stroke-opacity="0"></use></g></g><g><use xlink:href="#a2iEue3Oeg" opacity="1" fill="#233862" fill-opacity="1"></use><g><use xlink:href="#a2iEue3Oeg" opacity="1" fill-opacity="0" stroke="#000000" stroke-width="1" stroke-opacity="0"></use></g></g><g><use xlink:href="#a1rcGktph" opacity="1" fill="#f99746" fill-opacity="1"></use><g><use xlink:href="#a1rcGktph" opacity="1" fill-opacity="0" stroke="#000000" stroke-width="1" stroke-opacity="0"></use></g></g><g><use xlink:href="#h7XATlHqwn" opacity="1" fill="#2a4e96" fill-opacity="1"></use><g><use xlink:href="#h7XATlHqwn" opacity="1" fill-opacity="0" stroke="#000000" stroke-width="1" stroke-opacity="0"></use></g></g><g><use xlink:href="#e61dDW6t33" opacity="1" fill="#f99746" fill-opacity="1"></use><g><use xlink:href="#e61dDW6t33" opacity="1" fill-opacity="0" stroke="#000000" stroke-width="1" stroke-opacity="0"></use></g></g><g><use xlink:href="#a2YZzViiGZ" opacity="1" fill="#ed7d2b" fill-opacity="1"></use><g><use xlink:href="#a2YZzViiGZ" opacity="1" fill-opacity="0" stroke="#000000" stroke-width="1" stroke-opacity="0"></use></g></g><g><use xlink:href="#gEAunCPA6" opacity="1" fill="#ffb27d" fill-opacity="1"></use><g><use xlink:href="#gEAunCPA6" opacity="1" fill-opacity="0" stroke="#000000" stroke-width="1" stroke-opacity="0"></use></g></g><g><use xlink:href="#a1JtJcpzgZ" opacity="1" fill="#f99746" fill-opacity="1"></use><g><use xlink:href="#a1JtJcpzgZ" opacity="1" fill-opacity="0" stroke="#000000" stroke-width="1" stroke-opacity="0"></use></g></g><g><use xlink:href="#hdJ1TgUgE" opacity="1" fill="#ffb27d" fill-opacity="1"></use><g><use xlink:href="#hdJ1TgUgE" opacity="1" fill-opacity="0" stroke="#000000" stroke-width="1" stroke-opacity="0"></use></g></g><g><use xlink:href="#bjSQsYB7R" opacity="1" fill="#ffb27d" fill-opacity="1"></use><g><use xlink:href="#bjSQsYB7R" opacity="1" fill-opacity="0" stroke="#000000" stroke-width="1" stroke-opacity="0"></use></g></g><g><use xlink:href="#guotE50w" opacity="1" fill="#233862" fill-opacity="1"></use><g><use xlink:href="#guotE50w" opacity="1" fill-opacity="0" stroke="#000000" stroke-width="1" stroke-opacity="0"></use></g></g><g><use xlink:href="#e16sU8TzgI" opacity="1" fill="#233862" fill-opacity="1"></use><g><use xlink:href="#e16sU8TzgI" opacity="1" fill-opacity="0" stroke="#000000" stroke-width="1" stroke-opacity="0"></use></g></g><g><use xlink:href="#i1kxTzcKCP" opacity="1" fill="#ffffff" fill-opacity="1"></use><g><use xlink:href="#i1kxTzcKCP" opacity="1" fill-opacity="0" stroke="#000000" stroke-width="1" stroke-opacity="0"></use></g></g><g><use xlink:href="#a2Vj7Cusms" opacity="1" fill="#163560" fill-opacity="1"></use><g><use xlink:href="#a2Vj7Cusms" opacity="1" fill-opacity="0" stroke="#000000" stroke-width="1" stroke-opacity="0"></use></g></g><g><use xlink:href="#glP0GxHEc" opacity="1" fill="#f99746" fill-opacity="1"></use><g><use xlink:href="#glP0GxHEc" opacity="1" fill-opacity="0" stroke="#000000" stroke-width="1" stroke-opacity="0"></use></g></g><g><use xlink:href="#c47pcA4idF" opacity="1" fill="#1f447f" fill-opacity="1"></use><g><use xlink:href="#c47pcA4idF" opacity="1" fill-opacity="0" stroke="#000000" stroke-width="1" stroke-opacity="0"></use></g></g><g><use xlink:href="#abnVcpe5Ip" opacity="1" fill="#1c3154" fill-opacity="1"></use><g><use xlink:href="#abnVcpe5Ip" opacity="1" fill-opacity="0" stroke="#000000" stroke-width="1" stroke-opacity="0"></use></g></g><g><use xlink:href="#b4n5u87J9" opacity="1" fill="#f99746" fill-opacity="1"></use><g><use xlink:href="#b4n5u87J9" opacity="1" fill-opacity="0" stroke="#000000" stroke-width="1" stroke-opacity="0"></use></g></g><g><use xlink:href="#c1PcBZtmPM" opacity="1" fill="#ed7d2b" fill-opacity="1"></use><g><use xlink:href="#c1PcBZtmPM" opacity="1" fill-opacity="0" stroke="#000000" stroke-width="1" stroke-opacity="0"></use></g></g><g><use xlink:href="#h7vvRJzt1" opacity="1" fill="#233862" fill-opacity="1"></use><g><use xlink:href="#h7vvRJzt1" opacity="1" fill-opacity="0" stroke="#000000" stroke-width="1" stroke-opacity="0"></use></g></g><g><use xlink:href="#a2u5qAfmvK" opacity="1" fill="#2a4e96" fill-opacity="1"></use><g><use xlink:href="#a2u5qAfmvK" opacity="1" fill-opacity="0" stroke="#000000" stroke-width="1" stroke-opacity="0"></use></g></g><g><use xlink:href="#b6yp1lbHK" opacity="1" fill="#233862" fill-opacity="1"></use><g><use xlink:href="#b6yp1lbHK" opacity="1" fill-opacity="0" stroke="#000000" stroke-width="1" stroke-opacity="0"></use></g></g><g><use xlink:href="#k1kTg5pMG8" opacity="1" fill="#ffffff" fill-opacity="1"></use><g><use xlink:href="#k1kTg5pMG8" opacity="1" fill-opacity="0" stroke="#000000" stroke-width="1" stroke-opacity="0"></use></g></g><g><use xlink:href="#a2Rr0nj6Fz" opacity="1" fill="#b5453c" fill-opacity="1"></use><g><use xlink:href="#a2Rr0nj6Fz" opacity="1" fill-opacity="0" stroke="#000000" stroke-width="1" stroke-opacity="0"></use></g></g><g><use xlink:href="#dafBpajN4" opacity="1" fill="#ffb27d" fill-opacity="1"></use><g><use xlink:href="#dafBpajN4" opacity="1" fill-opacity="0" stroke="#000000" stroke-width="1" stroke-opacity="0"></use></g></g><g><use xlink:href="#a8mhSihcOb" opacity="1" fill="#ffb27d" fill-opacity="1"></use><g><use xlink:href="#a8mhSihcOb" opacity="1" fill-opacity="0" stroke="#000000" stroke-width="1" stroke-opacity="0"></use></g></g><g><use xlink:href="#akB9qitks" opacity="1" fill="#f99746" fill-opacity="1"></use><g><use xlink:href="#akB9qitks" opacity="1" fill-opacity="0" stroke="#000000" stroke-width="1" stroke-opacity="0"></use></g></g><g><use xlink:href="#c2i5xrKWgx" opacity="1" fill="#ffb27d" fill-opacity="1"></use><g><use xlink:href="#c2i5xrKWgx" opacity="1" fill-opacity="0" stroke="#000000" stroke-width="1" stroke-opacity="0"></use></g></g><g><use xlink:href="#a3JtsymZ5m" opacity="1" fill="#e8945b" fill-opacity="1"></use><g><use xlink:href="#a3JtsymZ5m" opacity="1" fill-opacity="0" stroke="#000000" stroke-width="1" stroke-opacity="0"></use></g></g><g><use xlink:href="#j2lgi4iCxD" opacity="1" fill="#ffb27d" fill-opacity="1"></use><g><use xlink:href="#j2lgi4iCxD" opacity="1" fill-opacity="0" stroke="#000000" stroke-width="1" stroke-opacity="0"></use></g></g><g><use xlink:href="#abRc10SqR" opacity="1" fill="#163560" fill-opacity="1"></use><g><use xlink:href="#abRc10SqR" opacity="1" fill-opacity="0" stroke="#000000" stroke-width="1" stroke-opacity="0"></use></g></g><g><use xlink:href="#f4kJIW8IY" opacity="1" fill="#163560" fill-opacity="1"></use><g><use xlink:href="#f4kJIW8IY" opacity="1" fill-opacity="0" stroke="#000000" stroke-width="1" stroke-opacity="0"></use></g></g><g><use xlink:href="#feYBnti1" opacity="1" fill="#233862" fill-opacity="1"></use><g><use xlink:href="#feYBnti1" opacity="1" fill-opacity="0" stroke="#000000" stroke-width="1" stroke-opacity="0"></use></g></g></g></g></svg>