<?xml version="1.0" encoding="UTF-8" standalone="no"?>
<!DOCTYPE svg PUBLIC "-//W3C//DTD SVG 1.1//EN" "http://www.w3.org/Graphics/SVG/1.1/DTD/svg11.dtd">
<svg version="1.1" xmlns="http://www.w3.org/2000/svg" xmlns:xlink="http://www.w3.org/1999/xlink" preserveAspectRatio="xMidYMid meet" viewBox="0 0 1027.8 350" width="1027.8" height="350"><defs><path d="M-72.6 -31.82L-72.6 350L849.5 350L849.5 -31.82L-72.6 -31.82" id="b1ooW7CW9b"></path><path d="M681.47 312.45C681.47 312.45 738.18 320.8 766.1 282.96C802.31 233.87 751.48 187.23 663.79 183.87C537.33 179.02 607.42 53.61 407.85 87.64C351.74 97.21 229.69 47.81 157.84 131.5C145.62 145.73 109.1 145.04 60.44 169.31C-25.4 212.14 5.5 312.91 77.83 313.37C150.15 313.82 681.47 312.45 681.47 312.45" id="aGt0vgGJ2"></path><path d="M90.47 313.18C90.47 313.18 93.1 302.46 126.74 299.57C160.38 296.68 191.66 273.54 247.13 276.9C302.6 280.26 348.63 301.33 411.77 294.88C474.92 288.42 514.46 296.65 528.62 303.14C542.78 309.63 601.4 301.62 605.73 313.51C571.38 313.49 399.62 313.38 90.47 313.18" id="b7jxPrlOoX"></path><path d="M228.74 57.53C228.74 57.53 190.78 56.38 210.91 128.24C210.91 128.24 224.46 152.64 207.36 168.36C224.14 168.36 308.07 168.36 459.13 168.36L459.13 57.53L228.74 57.53" id="gl9wDEUb4"></path><path d="M254.6 244.38C254.6 244.38 237.01 231.63 253.51 223.54C253.51 223.54 265.57 219 275.4 219.37C275.4 219.37 261.47 233.88 265.98 235.32C270.48 236.76 279.62 218.46 279.62 218.46C279.62 218.46 307.05 216.81 315.88 219.44C315.88 219.44 292.43 231.36 297.37 232.07C302.31 232.78 327.64 221.08 327.64 221.08C327.64 221.08 353.17 223.78 351.81 233.46C350.45 243.13 341.65 246.12 337.78 245.86C333.92 245.6 311.3 240.24 310.81 242.21C310.31 244.18 323.93 250.61 333.46 250.91C333.46 250.91 315.46 263.24 303.5 259.68C291.53 256.12 290.51 250.48 283.05 248.37C275.6 246.25 269.23 246.26 272.31 248.41C275.39 250.57 288.89 252.67 293.15 257.35C297.42 262.04 301.24 265.2 288.86 264.04C276.48 262.89 256.36 257.26 255.48 250.82C254.6 244.38 254.6 244.38 254.6 244.38" id="bvWO3CtI7"></path><path d="M339.27 233.72C339.27 233.72 269.91 232.06 254.6 244.38C254.6 244.38 251.21 250.68 240.79 256.42C240.63 256.69 239.33 258.89 239.16 259.16C239.16 259.16 251.18 251.29 255.48 250.82C255.48 250.82 248.76 235.56 339.27 233.72" id="b1y46cQfgH"></path><path d="M240.79 256.42C240.79 256.42 225.9 263.25 224.87 275.47C225.14 275.49 227.3 275.61 227.57 275.62C227.57 275.62 232.32 262.99 240.92 258.05C249.51 253.11 240.79 256.42 240.79 256.42" id="e6mcRir0Sk"></path><path d="M193.1 228.35C193.1 228.35 221.08 218.62 208.02 205.41C208.02 205.41 197.58 197.3 186.39 195.21C186.39 195.21 192.35 214.91 186.39 215.37C180.42 215.83 182.28 193.13 182.28 193.13C182.28 193.13 152.81 184.32 141.24 185.02C141.24 185.02 159.52 204.25 153.55 203.79C147.59 203.32 127.07 183.86 127.07 183.86C127.07 183.86 96.85 180.38 92 191.5C87.15 202.63 94.98 208.19 99.46 208.88C103.94 209.58 132.66 209.35 131.92 211.66C131.17 213.98 111.77 217.69 100.95 215.6C100.95 215.6 112.89 233.91 128.56 232.98C144.23 232.06 149.08 226.03 158.78 225.57C168.48 225.1 175.57 226.73 170.72 228.35C165.87 229.97 149.45 228.88 141.62 233.02C133.78 237.15 127.44 239.7 141.99 241.56C156.54 243.41 182.65 242.25 187.88 235.3C193.1 228.35 193.1 228.35 193.1 228.35" id="dYmF7uUaB"></path><path d="M105.8 194.98C105.8 194.98 184.15 210.74 193.1 228.35C193.1 228.35 192.73 236.23 200.56 245.26C200.56 245.61 200.56 248.39 200.56 248.74C200.56 248.74 192.35 236.92 187.88 235.3C187.88 235.3 205.41 220.01 105.8 194.98" id="e21xQyNc6T"></path><path d="M200.56 245.26C200.56 245.26 212.64 256.66 205.76 270.53C205.44 270.48 202.96 270.06 202.65 270.01C202.65 270.01 205.66 254.73 199.34 247.05C193.02 239.36 200.56 245.26 200.56 245.26" id="ba86hGuFL6"></path><path d="M237.61 214.93C237.61 214.93 200.73 202.1 217.94 184.69C217.94 184.69 231.71 174 246.47 171.25C246.47 171.25 238.6 197.21 246.47 197.82C254.33 198.43 251.88 168.5 251.88 168.5C251.88 168.5 290.73 156.89 305.97 157.81C305.97 157.81 281.87 183.16 289.74 182.55C297.61 181.94 324.66 156.28 324.66 156.28C324.66 156.28 364.49 151.7 370.89 166.36C377.28 181.02 366.95 188.35 361.05 189.27C355.15 190.18 317.28 189.88 318.27 192.93C319.25 195.99 344.82 200.88 359.08 198.13C359.08 198.13 343.35 222.26 322.69 221.03C302.04 219.81 295.64 211.87 282.86 211.26C270.07 210.65 260.73 212.79 267.12 214.93C273.51 217.07 295.15 215.63 305.48 221.08C315.81 226.53 324.17 229.89 304.99 232.34C285.81 234.78 251.38 233.25 244.5 224.09C237.61 214.93 237.61 214.93 237.61 214.93" id="b1b2ycnoRJ"></path><path d="M352.69 170.94C352.69 170.94 249.42 191.71 237.61 214.93C237.61 214.93 238.11 225.31 227.78 237.22C227.78 237.68 227.78 241.35 227.78 241.8C227.78 241.8 238.6 226.23 244.5 224.09C244.5 224.09 221.39 203.93 352.69 170.94" id="b7ewFCgGMd"></path><path d="M227.78 237.22C227.78 237.22 211.85 252.24 220.93 270.53C221.34 270.46 224.62 269.92 225.03 269.85C225.03 269.85 221.05 249.71 229.38 239.58C237.72 229.45 227.78 237.22 227.78 237.22" id="aExfCKpNE"></path><path d="M236.37 310.18C276.27 310.18 308.62 290.09 308.62 265.31C294.17 265.31 178.57 265.31 164.12 265.31C164.12 290.09 196.47 310.18 236.37 310.18" id="o8rK1Erlxz"></path><path d="M254.15 309.84C251.21 310.07 248.21 310.18 245.17 310.18C205.27 310.18 172.93 290.09 172.93 265.31C174.72 265.31 189.08 265.31 190.88 265.31C190.88 288.21 218.48 307.1 254.15 309.84" id="e38EU8zykY"></path><path d="M309.62 312.47L163.13 312.47C163.13 312.47 163.13 312.47 163.13 312.47C163.13 309.41 167.12 306.93 172.04 306.93C184.91 306.93 287.84 306.93 300.7 306.93C305.63 306.93 309.62 309.41 309.62 312.47C309.62 312.47 309.62 312.47 309.62 312.47" id="a2ofbIORDS"></path><path d="M310.26 266.68L161.75 266.68L161.75 265.31L310.26 265.31L310.26 266.68" id="c2GLwCK4C8"></path><path d="M497.8 94.69C497.8 94.69 485.15 79.85 504.11 74.2C504.11 74.2 517.48 71.43 526.94 73.13C526.94 73.13 508.22 85.38 512.11 87.4C515.99 89.42 531.38 72.81 531.38 72.81C531.38 72.81 558.73 74.94 566.41 78.72C566.41 78.72 539.31 87.15 543.88 88.51C548.45 89.88 577.3 81.92 577.3 81.92C577.3 81.92 601.26 88.03 596.51 97.29C591.76 106.54 582.12 108.25 578.44 107.47C574.76 106.7 554.58 98.38 553.41 100.23C552.23 102.09 563.24 110.22 572.44 111.81C572.44 111.81 550.52 121.39 540.1 116.28C529.69 111.18 530.69 105.54 524.16 102.46C517.63 99.38 511.42 98.51 513.66 101.04C515.9 103.56 528.33 107.45 530.83 112.6C533.34 117.76 535.95 121.36 524.28 118.55C512.62 115.73 494.97 107.5 496.39 101.09C497.8 94.69 497.8 94.69 497.8 94.69" id="c4XXO4Jr5k"></path><path d="M584.17 95.83C584.17 95.83 517.1 84.75 497.8 94.69C497.8 94.69 492.28 100.37 480.08 104.55C479.82 104.8 477.78 106.76 477.52 107.01C477.52 107.01 492.03 100.97 496.39 101.09C496.39 101.09 495.22 85.29 584.17 95.83" id="i2bqeRZIi1"></path><path d="M480.08 104.55C480.08 104.55 463.14 109.19 457.81 120.97C458.07 121.02 460.14 121.43 460.4 121.48C460.4 121.48 469.5 109.81 479.63 106.16C489.76 102.51 480.08 104.55 480.08 104.55" id="abdjVsN2dp"></path><path d="M414.47 67.93C414.47 67.93 376.99 55.79 393.36 38.07C393.36 38.07 406.61 27.13 421.23 24.11C421.23 24.11 414.61 50.21 422.5 50.67C430.39 51.14 426.5 21.26 426.5 21.26C426.5 21.26 464.78 8.94 480.06 9.58C480.06 9.58 457.19 35.36 465.02 34.61C472.86 33.85 498.67 7.7 498.67 7.7C498.67 7.7 538.26 2.39 545.36 16.92C552.45 31.46 542.48 38.98 536.62 40C530.77 41.03 492.9 41.42 494.03 44.46C495.16 47.49 520.96 51.91 535.08 48.89C535.08 48.89 520.51 73.3 499.8 72.47C479.1 71.63 472.33 63.81 459.52 63.43C446.71 63.06 437.47 65.37 443.97 67.39C450.46 69.41 472.02 67.57 482.6 72.83C493.18 78.09 501.7 81.29 482.65 84.09C463.6 86.89 429.11 86 421.79 76.96C414.47 67.93 414.47 67.93 414.47 67.93" id="i6ZiEsuBFk"></path><path d="M527.39 21.84C527.39 21.84 425.16 44.51 414.47 67.93C414.47 67.93 415.46 78.31 405.71 90.4C405.73 90.86 405.91 94.52 405.93 94.98C405.93 94.98 416 79.21 421.79 76.96C421.79 76.96 397.72 57.24 527.39 21.84" id="a9snKPLwGv"></path><path d="M405.71 90.4C405.71 90.4 390.51 105.71 400.46 123.82C400.87 123.74 404.12 123.14 404.53 123.06C404.53 123.06 399.58 103.01 407.43 92.73C415.27 82.45 405.71 90.4 405.71 90.4" id="c6k0sfyWD"></path><path d="M244.7 100.07L244.7 312.99L507.56 312.99L507.56 100.07L244.7 100.07" id="a37a0vmA4c"></path><path d="M253.3 100.07L253.3 312.99L511.74 312.99L511.74 100.07L253.3 100.07" id="bNN2kPWT6"></path><path d="M693.97 312.47C662.72 312.47 645.36 312.47 641.89 312.47C639.1 311 643.82 307.66 648.75 307.44C650.9 307.33 653.61 307.61 656.7 308.02C657.42 302.11 661.51 275.53 676.93 276.6C694.28 277.79 676.93 288.3 672.03 294.52C668.4 299.13 664.57 305.74 662.82 308.86C664.23 309.05 665.69 309.23 667.18 309.4C669.47 305.02 678.03 290.27 688.9 291.13C701.67 292.14 696.54 298.05 687.49 301.56C680.85 304.14 672.7 307.81 668.82 309.58C672.1 309.92 675.53 310.14 679 310.09C687.93 309.96 692.28 311.59 693.97 312.47" id="a3HCMCot2r"></path><path d="M511.74 100.07C511.74 100.07 511.74 100.07 511.74 100.07C485.89 100.07 279.14 100.07 253.3 100.07C254.73 87.93 252.57 79.12 249.12 72.78C242.49 60.59 231.07 57.53 231.07 57.53C255.44 57.53 450.43 57.53 474.81 57.53C495.61 57.53 511.74 65.32 516.13 75.65C516.29 76.04 516.44 76.42 516.58 76.81C520.74 88.63 511.91 99.85 511.74 100.07" id="b1ywdkpBev"></path><path d="M511.74 100.07C511.74 100.07 511.74 100.07 511.74 100.07C485.89 100.07 279.14 100.07 253.3 100.07C254.73 87.93 252.57 79.12 249.12 72.78C275.53 75.78 340.94 82.18 410.96 81.1C456.26 80.41 492.05 78.52 516.58 76.81C520.74 88.63 511.91 99.85 511.74 100.07" id="a13IjR8JNg"></path><path d="M443.47 149.17C361.23 149.17 315.55 149.17 306.41 149.17C305.01 149.17 303.86 148.45 303.86 147.58C303.86 147.5 303.86 146.84 303.86 146.76C303.86 145.89 305.01 145.17 306.41 145.17C320.12 145.17 429.76 145.17 443.47 145.17C444.87 145.17 446.03 145.89 446.03 146.76C446.03 146.84 446.03 147.5 446.03 147.58C446.03 148.45 444.87 149.17 443.47 149.17" id="c50XjnBBt"></path><path d="M390.42 155.88C339.69 155.88 311.51 155.88 305.87 155.88C304.77 155.88 303.86 155.32 303.86 154.63C303.86 154.48 303.86 153.29 303.86 153.15C303.86 152.46 304.77 151.89 305.87 151.89C314.33 151.89 381.97 151.89 390.42 151.89C391.53 151.89 392.44 152.46 392.44 153.15C392.44 153.29 392.44 154.48 392.44 154.63C392.44 155.32 391.53 155.88 390.42 155.88" id="bG3QXRvxE"></path><path d="M290.65 155.24L290.65 147.08C289.62 147.08 289.04 147.08 288.92 147.08C287.87 147.08 287.35 146.81 287.35 146.27C287.35 145.88 287.76 145.6 288.58 145.43C289 145.35 289.67 145.28 290.59 145.24C291.51 145.2 292.25 145.17 292.81 145.17C293.35 145.17 293.69 145.24 293.83 145.38C293.97 145.51 294.04 145.86 294.04 146.41C294.04 147 294.04 149.94 294.04 155.24C295.12 155.24 295.71 155.24 295.83 155.24C296.98 155.24 297.56 155.55 297.56 156.17C297.56 156.82 296.98 157.15 295.83 157.15C295.11 157.15 289.35 157.15 288.63 157.15C288.12 157.15 287.7 157.06 287.36 156.89C287.02 156.73 286.85 156.49 286.85 156.18C286.85 155.55 287.43 155.24 288.61 155.24C288.74 155.24 289.42 155.24 290.65 155.24" id="b8wvyjhih"></path><path d="M443.47 191.22C361.23 191.22 315.55 191.22 306.41 191.22C305.01 191.22 303.86 190.5 303.86 189.63C303.86 189.55 303.86 188.9 303.86 188.81C303.86 187.94 305.01 187.23 306.41 187.23C320.12 187.23 429.76 187.23 443.47 187.23C444.87 187.23 446.03 187.94 446.03 188.81C446.03 188.9 446.03 189.55 446.03 189.63C446.03 190.5 444.87 191.22 443.47 191.22" id="b50a3uug8j"></path><path d="M390.42 197.94C339.69 197.94 311.51 197.94 305.87 197.94C304.77 197.94 303.86 197.37 303.86 196.68C303.86 196.53 303.86 195.35 303.86 195.2C303.86 194.51 304.77 193.94 305.87 193.94C314.33 193.94 381.97 193.94 390.42 193.94C391.53 193.94 392.44 194.51 392.44 195.2C392.44 195.35 392.44 196.53 392.44 196.68C392.44 197.37 391.53 197.94 390.42 197.94" id="bIfeoMmDc"></path><path d="M297.83 197.12C297.83 197.66 297.22 197.94 296 197.94C295.24 197.94 289.15 197.94 288.39 197.94C287.29 197.94 286.74 197.66 286.74 197.12C286.74 196.94 286.89 196.74 287.18 196.51C287.61 196.2 288.25 195.74 289.08 195.13C290.35 194.14 291.41 193.28 292.26 192.56C292.56 192.32 292.98 191.95 293.52 191.46C293.96 190.97 294.19 190.56 294.19 190.22C294.19 189.85 293.99 189.54 293.61 189.29C293.22 189.05 292.73 188.93 292.12 188.93C291.54 188.93 291.02 189.04 290.59 189.27C290.3 189.43 290.07 189.71 289.9 190.14C289.68 190.68 289.54 191 289.48 191.09C289.25 191.4 288.87 191.55 288.34 191.55C287.88 191.55 287.51 191.44 287.25 191.23C287 191.05 286.88 190.81 286.88 190.51C286.88 190.18 286.96 189.83 287.13 189.49C287.51 188.75 288.16 188.18 289.11 187.79C290 187.41 291.09 187.23 292.38 187.23C293.79 187.23 294.96 187.49 295.91 188.02C296.88 188.58 297.37 189.29 297.37 190.16C297.37 190.8 297.02 191.46 296.32 192.15C295.94 192.52 295.14 193.19 293.93 194.14C293.32 194.63 292.34 195.34 291.01 196.28C291.51 196.28 295.52 196.28 296.02 196.28C297.23 196.28 297.83 196.56 297.83 197.12" id="c674ayRmtE"></path><path d="M443.47 226.3C361.23 226.3 315.55 226.3 306.41 226.3C305.01 226.3 303.86 225.58 303.86 224.71C303.86 224.63 303.86 223.97 303.86 223.89C303.86 223.02 305.01 222.3 306.41 222.3C320.12 222.3 429.76 222.3 443.47 222.3C444.87 222.3 446.03 223.02 446.03 223.89C446.03 223.97 446.03 224.63 446.03 224.71C446.03 225.58 444.87 226.3 443.47 226.3" id="a1Y48krxHF"></path><path d="M390.42 233.01C339.69 233.01 311.51 233.01 305.87 233.01C304.77 233.01 303.86 232.45 303.86 231.76C303.86 231.61 303.86 230.42 303.86 230.28C303.86 229.59 304.77 229.02 305.87 229.02C314.33 229.02 381.97 229.02 390.42 229.02C391.53 229.02 392.44 229.59 392.44 230.28C392.44 230.42 392.44 231.61 392.44 231.76C392.44 232.45 391.53 233.01 390.42 233.01" id="cj79L6FOr"></path><path d="M297.83 229.67C297.83 230.69 297.26 231.51 296.1 232.13C295.01 232.72 293.63 233.01 291.95 233.01C290.65 233.01 289.54 232.82 288.63 232.44C287.17 231.83 286.44 231.1 286.44 230.24C286.44 230 286.57 229.79 286.82 229.61C287.08 229.43 287.4 229.35 287.8 229.35C288.21 229.35 288.6 229.52 288.96 229.86C289.54 230.43 289.89 230.75 289.98 230.8C290.5 231.15 291.17 231.32 292 231.32C293.11 231.32 293.89 231.06 294.37 230.55C294.59 230.3 294.7 229.97 294.7 229.58C294.7 228.62 293.79 228.08 291.97 227.98C290.94 227.92 290.43 227.65 290.43 227.16C290.43 226.81 290.73 226.56 291.33 226.41C292.44 226.16 293.01 226.03 293.02 226.01C293.62 225.77 293.92 225.34 293.92 224.73C293.92 224.37 293.74 224.08 293.4 223.87C293.05 223.66 292.59 223.55 292 223.55C291.28 223.55 290.71 223.66 290.3 223.88C289.96 224.06 289.66 224.38 289.43 224.84C289.24 225.18 288.88 225.35 288.34 225.35C287.96 225.35 287.65 225.25 287.41 225.04C287.16 224.84 287.04 224.61 287.04 224.37C287.04 224.06 287.17 223.76 287.44 223.45C287.88 222.94 288.57 222.54 289.48 222.26C290.32 221.99 291.24 221.86 292.23 221.86C293.58 221.86 294.7 222.11 295.59 222.62C296.48 223.12 296.93 223.79 296.93 224.61C296.93 225.61 296.27 226.39 294.94 226.97C296.87 227.46 297.83 228.35 297.83 229.67" id="a1T9YYz6cd"></path><path d="M427.5 114.21C376.28 114.21 347.82 114.21 342.12 114.21C340.66 114.21 339.47 113.47 339.47 112.56C339.47 112.43 339.47 111.36 339.47 111.22C339.47 110.32 340.66 109.57 342.12 109.57C350.66 109.57 418.97 109.57 427.5 109.57C428.96 109.57 430.16 110.32 430.16 111.22C430.16 111.36 430.16 112.43 430.16 112.56C430.16 113.47 428.96 114.21 427.5 114.21" id="a1CzUaSFoK"></path><path d="M449.77 121.36C371.83 121.36 328.52 121.36 319.86 121.36C318.07 121.36 316.6 120.45 316.6 119.34C316.6 119.28 316.6 118.81 316.6 118.75C316.6 117.64 318.07 116.73 319.86 116.73C332.85 116.73 436.78 116.73 449.77 116.73C451.56 116.73 453.03 117.64 453.03 118.75C453.03 118.81 453.03 119.28 453.03 119.34C453.03 120.45 451.56 121.36 449.77 121.36" id="btIX1XWpW"></path><path d="M374.8 170.7C346.65 170.7 319.93 168.5 300.01 165.37C279.89 162.2 269.05 157.02 269.05 152.43C269.05 148.26 277.88 144.43 294.6 141.35C294.6 141.35 294.6 141.35 294.6 141.35C278.58 144.3 270.02 148.64 270.02 152.43C270.02 156.63 281.12 160.78 300.48 163.83C320.32 166.96 346.72 168.68 374.8 168.68C402.88 168.68 429.28 166.96 449.12 163.83C468.48 160.78 479.58 156.63 479.58 152.43C479.58 147.98 467.89 142.45 449.07 138C427.68 132.94 401.3 131.06 374.8 131.06C325.05 131.06 304.58 134.67 286.8 139.19C286.8 139.19 286.8 139.19 286.8 139.19C304.65 134.65 324.88 129.5 374.8 129.5C401.41 129.5 427.9 132.3 449.39 137.39C468.61 141.93 480.55 147.69 480.55 152.43C480.55 157.02 469.47 161.29 449.34 164.46C429.43 167.6 402.96 170.7 374.8 170.7" id="aNE2y71EB"></path><path d="M545.77 211.69C545.77 211.69 544.84 217.29 543.82 218.35C542.8 219.41 538.47 222.79 536.63 223.45C534.79 224.12 537.76 219 537.38 218C537 217 535.86 219.82 535.05 219.89C534.23 219.95 534.44 217.42 534.41 216.49C534.38 215.57 538.37 213.29 539.78 211.33C541.18 209.37 545.77 211.69 545.77 211.69" id="c6dHcy4P18"></path><path d="M435.04 160.06C433.79 158.6 433.1 157.79 432.96 157.63C432.96 157.63 433.99 153.31 425.27 150.57C425.27 150.57 422.08 149.76 420.27 151.38C418.62 152.87 423.44 152.6 423.18 155.14C422.92 157.69 424.87 159.18 427.57 160.01C427.72 160.12 428.47 160.66 429.81 161.62L435.04 160.06" id="aad7VwGjY9"></path><path d="M517.5 154.26C517.5 154.26 510.01 177.1 468.77 184.57C455.9 186.9 426.65 160.57 426.65 160.57C426.65 160.57 427.68 158.15 434.12 158.7C434.12 158.7 462.6 170.41 466.18 171.68C469.36 172.81 490.28 157.18 499.82 154.65C509.36 152.13 517.5 154.26 517.5 154.26" id="c1HA13ae1n"></path><path d="M446.06 153.42L444.89 158.15L406.6 154.49L407.77 149.76L446.06 153.42" id="bNzMQUJbG"></path><path d="M398.28 151.28L406.6 154.49L407.77 149.76L398.28 151.28Z" id="bzOmDF9Na"></path><path d="M450.13 155.41C449.91 156.31 449.78 156.81 449.76 156.91C449.53 157.82 448.14 158.46 446.66 158.31C446.55 158.3 445.96 158.25 444.89 158.15L446.06 153.42C447.22 153.53 447.86 153.59 447.99 153.6C449.38 153.73 450.34 154.54 450.13 155.41" id="c251JF0Rxe"></path><path d="M566.74 297.87C566.74 297.87 571.85 300.77 570.86 302.83C569.86 304.89 565.24 306.27 564.62 308.78C563.99 311.3 561.5 312.68 559.25 312.68C557.01 312.68 548.54 312.68 548.54 312.68C548.54 312.68 546.89 310.9 550.88 310.37C554.88 309.83 556.38 306.88 556.13 304.13C555.88 301.38 556.51 297.72 556.51 297.72C557.07 297.64 559.9 297.23 564.99 296.5L566.74 297.87" id="g1A4A7dycS"></path><path d="M503.98 305.37C503.98 305.37 504.89 311.97 502.65 312.66C499.77 312.65 476.78 312.62 473.9 312.62C473.9 312.62 473.9 310.56 478.52 310.1C483.13 309.64 491.25 307.96 492.62 304.23C493.99 300.49 503.98 305.37 503.98 305.37" id="aCphq7gud"></path><path d="M479.71 212.14C479.71 212.14 481.22 223.71 483 237.62C485.43 256.51 488.34 279.71 488.63 284.11C489.12 291.74 491.12 303.95 491.12 303.95C491.12 303.95 495.86 306.85 505.35 305.63C505.35 305.63 513.8 288.2 516.22 269.76C516.25 269.46 516.29 269.15 516.33 268.85C518.57 250.07 522.07 210.54 522.07 210.54C519.24 210.65 505.12 211.18 479.71 212.14" id="b1zysMcFnQ"></path><path d="M479.71 212.14C479.71 212.14 481.22 223.71 483 237.62C486.33 240.83 512.9 266.54 516.22 269.76C516.25 269.46 516.29 269.15 516.33 268.85C518.57 250.07 522.07 210.54 522.07 210.54C519.24 210.65 505.12 211.18 479.71 212.14" id="cI04RevQj"></path><path d="M486.63 213.52C486.63 213.52 513.96 255.41 531.93 275.1C549.89 294.79 555.51 300.29 555.51 300.29C555.51 300.29 565.8 297.77 566.74 296.05C566.74 296.05 559.87 258.04 547.83 248.78C541.04 243.54 533.05 227.83 532.67 222.33C532.3 216.84 530.24 205.96 530.24 205.96C527.33 206.47 512.8 208.99 486.63 213.52" id="hcn1vOBPg"></path><path d="M522.58 148.95C522.58 148.95 504.1 154.5 493.43 152.44C493.43 152.44 496.06 150.38 500.65 148.85C500.28 147.52 500 146.37 499.83 145.39C499.38 143.14 499.38 141.86 499.38 141.86C499.85 141.63 502.23 140.46 506.51 138.37C510.57 136.37 512.83 135.26 513.28 135.04C512.75 144.42 522.58 148.95 522.58 148.95" id="a5X1ZyMKVC"></path><path d="M532.33 208.11C532.37 208.81 529.95 209.62 528.89 209.92C520.97 212.07 513.59 213.58 505.23 214.08C495.35 214.7 483.66 213.33 479.65 213.38C479.24 213.38 478.87 213.28 478.54 213.1C478.25 212.98 478.05 205.58 478.25 196.28C478.25 195.9 478.25 195.52 478.29 195.15C478.29 195.14 478.29 195.03 478.29 195.02C478.38 191.39 478.58 187.58 478.87 183.76C479.44 175.39 480.51 167.32 482.31 162.85C484.48 157.59 489.4 154.1 493.87 151.57C494.24 151.37 497.19 149.76 497.56 149.56C501.25 150.02 505.14 149.89 509.04 148.71C513.3 147.43 517.9 146.05 518.64 146.4C524.21 148.94 527.98 154.63 529.99 161.9C531.14 166.09 531.71 170.78 531.67 175.69C531.67 177.49 531.59 179.35 531.42 181.18C530.44 191.11 531.42 199.74 532 204.72C532.16 206.18 532.29 207.31 532.33 208.11" id="haaT1V8df"></path><path d="M532 207.65C467.25 207.57 520.06 164.02 520.06 164.02C521.11 163.8 529.5 162.11 530.55 161.9C531.38 166.37 531.79 171.38 531.76 176.63C531.76 178.56 531.7 180.55 531.58 182.5C530.87 193.11 531.58 202.32 532 207.65" id="f11EfflLyQ"></path><path d="M513.4 138.62C513.4 138.62 508.73 143.91 499.83 145.39C499.38 143.14 499.38 141.86 499.38 141.86C499.85 141.63 502.23 140.46 506.51 138.37L513.4 138.62" id="b34bx873zm"></path><path d="M496.13 141.71C496.13 141.71 513.76 143.5 515.42 136.76C517.07 130.03 520.47 125.72 509.28 124.29C498.09 122.87 495.26 125.23 493.81 127.4C492.37 129.56 491.58 141.07 496.13 141.71" id="afkudvC9B"></path><path d="M521.83 123.49C521.99 123.37 522.36 123.28 523.18 123.25C523.18 123.25 522.53 123 521.65 122.98C521.47 122.27 520.87 121.02 518.9 120.71C518.9 120.71 519.96 121.06 520.1 121.82C517.82 120.37 512.94 119.31 499.42 119.97C481.6 120.84 487.47 127.93 489.78 128.77C492.09 129.62 497.89 127.3 502.19 127.51C506.49 127.73 507.3 131.58 508.76 132.11C510.22 132.64 509.64 131.7 511.62 131.15C513.59 130.6 513.78 132.63 513.21 133.95C512.64 135.27 515.35 137.01 515.35 137.01C515.35 137.01 515.35 137.01 518.09 135.18C520.83 133.34 523.41 125.58 522.16 123.93C522.05 123.79 521.94 123.64 521.83 123.49" id="bdqYYbSsE"></path><path d="M518.63 146.35C518.63 146.35 529.79 149.63 535.14 154.68C543.44 162.51 553.06 191.03 553.24 193.67C553.41 196.32 546.21 214.97 546.21 214.97C546.21 214.97 538.91 214.67 537.03 212.38C537.03 212.38 538.49 193.22 537.56 191.98C536.64 190.75 507.12 166.28 510.44 161.06C513.76 155.84 518.63 146.35 518.63 146.35" id="e5mAQWUZq7"></path><path d="M432.93 157.52C432.93 157.52 433.53 156.03 431.87 155.36C430.21 154.69 428.68 152.87 427.98 153.12C426.52 153.63 428.77 155.21 428.36 157.2C428.22 157.89 430.82 159.71 432.93 157.52" id="a1lhRhSo3n"></path><path d="M161.75 298.53C161.75 298.53 135.53 256.83 117.15 263.47C98.76 270.11 161.75 298.53 161.75 298.53" id="cLvuLw7JI"></path><path d="M148.79 298.53C148.79 298.53 114.15 279.94 98.34 283.39C82.52 286.84 148.79 298.53 148.79 298.53" id="i1i7TL6tq0"></path><path d="M515.48 304.53C515.48 304.53 523.46 287.29 532.82 289.33C542.19 291.36 515.48 304.53 515.48 304.53" id="c7yMrbq1M3"></path><path d="M522.76 303.59C522.76 303.59 543.13 295.28 547.61 297.85C552.09 300.42 522.76 303.59 522.76 303.59" id="g4KL1S9ei7"></path><path d="M453.14 266.68C357.79 266.68 304.82 266.68 294.22 266.68C293.16 266.68 292.29 266.15 292.29 265.48C292.29 265.48 292.29 265.48 292.29 265.48C292.29 264.82 293.16 264.28 294.22 264.28C310.11 264.28 437.25 264.28 453.14 264.28C454.2 264.28 455.07 264.82 455.07 265.48C455.07 265.48 455.07 265.48 455.07 265.48C455.07 266.15 454.2 266.68 453.14 266.68" id="blovbDCsu"></path><path d="M453.14 271.49C357.79 271.49 304.82 271.49 294.22 271.49C293.16 271.49 292.29 270.95 292.29 270.29C292.29 270.29 292.29 270.29 292.29 270.29C292.29 269.63 293.16 269.09 294.22 269.09C310.11 269.09 437.25 269.09 453.14 269.09C454.2 269.09 455.07 269.63 455.07 270.29C455.07 270.29 455.07 270.29 455.07 270.29C455.07 270.95 454.2 271.49 453.14 271.49" id="axSidUD3l"></path><path d="M453.14 276.82C357.79 276.82 304.82 276.82 294.22 276.82C293.16 276.82 292.29 276.28 292.29 275.62C292.29 275.62 292.29 275.62 292.29 275.62C292.29 274.96 293.16 274.42 294.22 274.42C310.11 274.42 437.25 274.42 453.14 274.42C454.2 274.42 455.07 274.96 455.07 275.62C455.07 275.62 455.07 275.62 455.07 275.62C455.07 276.28 454.2 276.82 453.14 276.82" id="c3jhPF6rFv"></path><path d="M432.28 282.15C349.37 282.15 303.3 282.15 294.09 282.15C293.1 282.15 292.29 281.64 292.29 281.03C292.29 281.01 292.29 280.88 292.29 280.87C292.29 280.25 293.1 279.75 294.09 279.75C307.91 279.75 418.46 279.75 432.28 279.75C433.27 279.75 434.08 280.25 434.08 280.87C434.08 280.88 434.08 281.01 434.08 281.03C434.08 281.64 433.27 282.15 432.28 282.15" id="deKhisrRa"></path><path d="M789.01 313.51C316.16 313.51 53.47 313.51 0.93 313.51C0.51 313.51 0.16 313.3 0.16 313.03C0.16 313.03 0.16 312.95 0.16 312.94C0.16 312.68 0.51 312.47 0.93 312.47C79.74 312.47 710.2 312.47 789.01 312.47C789.44 312.47 789.78 312.68 789.78 312.94C789.78 312.95 789.78 313.03 789.78 313.03C789.78 313.3 789.44 313.51 789.01 313.51" id="b3458pdPf"></path></defs><g><g><g><use xlink:href="#b1ooW7CW9b" opacity="1" fill="#ffffff" fill-opacity="1"></use><g><use xlink:href="#b1ooW7CW9b" opacity="1" fill-opacity="0" stroke="#000000" stroke-width="1" stroke-opacity="0"></use></g></g><g><use xlink:href="#aGt0vgGJ2" opacity="1" fill="#fcecdb" fill-opacity="1"></use><g><use xlink:href="#aGt0vgGJ2" opacity="1" fill-opacity="0" stroke="#000000" stroke-width="1" stroke-opacity="0"></use></g></g><g><use xlink:href="#b7jxPrlOoX" opacity="1" fill="#a8d29f" fill-opacity="1"></use><g><use xlink:href="#b7jxPrlOoX" opacity="1" fill-opacity="0" stroke="#000000" stroke-width="1" stroke-opacity="0"></use></g></g><g><use xlink:href="#gl9wDEUb4" opacity="1" fill="#afcdfb" fill-opacity="1"></use><g><use xlink:href="#gl9wDEUb4" opacity="1" fill-opacity="0" stroke="#000000" stroke-width="1" stroke-opacity="0"></use></g></g><g><use xlink:href="#bvWO3CtI7" opacity="1" fill="#599dad" fill-opacity="1"></use><g><use xlink:href="#bvWO3CtI7" opacity="1" fill-opacity="0" stroke="#000000" stroke-width="1" stroke-opacity="0"></use></g></g><g><use xlink:href="#b1y46cQfgH" opacity="1" fill="#599dad" fill-opacity="1"></use><g><use xlink:href="#b1y46cQfgH" opacity="1" fill-opacity="0" stroke="#000000" stroke-width="1" stroke-opacity="0"></use></g></g><g><use xlink:href="#e6mcRir0Sk" opacity="1" fill="#599dad" fill-opacity="1"></use><g><use xlink:href="#e6mcRir0Sk" opacity="1" fill-opacity="0" stroke="#000000" stroke-width="1" stroke-opacity="0"></use></g></g><g><use xlink:href="#dYmF7uUaB" opacity="1" fill="#6bb7bf" fill-opacity="1"></use><g><use xlink:href="#dYmF7uUaB" opacity="1" fill-opacity="0" stroke="#000000" stroke-width="1" stroke-opacity="0"></use></g></g><g><use xlink:href="#e21xQyNc6T" opacity="1" fill="#6bb7bf" fill-opacity="1"></use><g><use xlink:href="#e21xQyNc6T" opacity="1" fill-opacity="0" stroke="#000000" stroke-width="1" stroke-opacity="0"></use></g></g><g><use xlink:href="#ba86hGuFL6" opacity="1" fill="#6bb7bf" fill-opacity="1"></use><g><use xlink:href="#ba86hGuFL6" opacity="1" fill-opacity="0" stroke="#000000" stroke-width="1" stroke-opacity="0"></use></g></g><g><use xlink:href="#b1b2ycnoRJ" opacity="1" fill="#86d1cd" fill-opacity="1"></use><g><use xlink:href="#b1b2ycnoRJ" opacity="1" fill-opacity="0" stroke="#000000" stroke-width="1" stroke-opacity="0"></use></g></g><g><use xlink:href="#b7ewFCgGMd" opacity="1" fill="#6bb7bf" fill-opacity="1"></use><g><use xlink:href="#b7ewFCgGMd" opacity="1" fill-opacity="0" stroke="#000000" stroke-width="1" stroke-opacity="0"></use></g></g><g><use xlink:href="#aExfCKpNE" opacity="1" fill="#6bb7bf" fill-opacity="1"></use><g><use xlink:href="#aExfCKpNE" opacity="1" fill-opacity="0" stroke="#000000" stroke-width="1" stroke-opacity="0"></use></g></g><g><use xlink:href="#o8rK1Erlxz" opacity="1" fill="#efcbab" fill-opacity="1"></use><g><use xlink:href="#o8rK1Erlxz" opacity="1" fill-opacity="0" stroke="#000000" stroke-width="1" stroke-opacity="0"></use></g></g><g><use xlink:href="#e38EU8zykY" opacity="1" fill="#ffebdc" fill-opacity="1"></use><g><use xlink:href="#e38EU8zykY" opacity="1" fill-opacity="0" stroke="#000000" stroke-width="1" stroke-opacity="0"></use></g></g><g><use xlink:href="#a2ofbIORDS" opacity="1" fill="#efcbab" fill-opacity="1"></use><g><use xlink:href="#a2ofbIORDS" opacity="1" fill-opacity="0" stroke="#000000" stroke-width="1" stroke-opacity="0"></use></g></g><g><use xlink:href="#c2GLwCK4C8" opacity="1" fill="#efcdaf" fill-opacity="1"></use><g><use xlink:href="#c2GLwCK4C8" opacity="1" fill-opacity="0" stroke="#000000" stroke-width="1" stroke-opacity="0"></use></g></g><g><use xlink:href="#c4XXO4Jr5k" opacity="1" fill="#599dad" fill-opacity="1"></use><g><use xlink:href="#c4XXO4Jr5k" opacity="1" fill-opacity="0" stroke="#000000" stroke-width="1" stroke-opacity="0"></use></g></g><g><use xlink:href="#i2bqeRZIi1" opacity="1" fill="#599dad" fill-opacity="1"></use><g><use xlink:href="#i2bqeRZIi1" opacity="1" fill-opacity="0" stroke="#000000" stroke-width="1" stroke-opacity="0"></use></g></g><g><use xlink:href="#abdjVsN2dp" opacity="1" fill="#599dad" fill-opacity="1"></use><g><use xlink:href="#abdjVsN2dp" opacity="1" fill-opacity="0" stroke="#000000" stroke-width="1" stroke-opacity="0"></use></g></g><g><use xlink:href="#i6ZiEsuBFk" opacity="1" fill="#86d1cd" fill-opacity="1"></use><g><use xlink:href="#i6ZiEsuBFk" opacity="1" fill-opacity="0" stroke="#000000" stroke-width="1" stroke-opacity="0"></use></g></g><g><use xlink:href="#a9snKPLwGv" opacity="1" fill="#6bb7bf" fill-opacity="1"></use><g><use xlink:href="#a9snKPLwGv" opacity="1" fill-opacity="0" stroke="#000000" stroke-width="1" stroke-opacity="0"></use></g></g><g><use xlink:href="#c6k0sfyWD" opacity="1" fill="#6bb7bf" fill-opacity="1"></use><g><use xlink:href="#c6k0sfyWD" opacity="1" fill-opacity="0" stroke="#000000" stroke-width="1" stroke-opacity="0"></use></g></g><g><use xlink:href="#a37a0vmA4c" opacity="1" fill="#9abcef" fill-opacity="1"></use><g><use xlink:href="#a37a0vmA4c" opacity="1" fill-opacity="0" stroke="#000000" stroke-width="1" stroke-opacity="0"></use></g></g><g><use xlink:href="#bNN2kPWT6" opacity="1" fill="#e9f3fe" fill-opacity="1"></use><g><use xlink:href="#bNN2kPWT6" opacity="1" fill-opacity="0" stroke="#000000" stroke-width="1" stroke-opacity="0"></use></g></g><g><use xlink:href="#a3HCMCot2r" opacity="1" fill="#a8d29f" fill-opacity="1"></use><g><use xlink:href="#a3HCMCot2r" opacity="1" fill-opacity="0" stroke="#000000" stroke-width="1" stroke-opacity="0"></use></g></g><g><use xlink:href="#b1ywdkpBev" opacity="1" fill="#e9f3fe" fill-opacity="1"></use><g><use xlink:href="#b1ywdkpBev" opacity="1" fill-opacity="0" stroke="#000000" stroke-width="1" stroke-opacity="0"></use></g></g><g><use xlink:href="#a13IjR8JNg" opacity="1" fill="#d8e8fd" fill-opacity="1"></use><g><use xlink:href="#a13IjR8JNg" opacity="1" fill-opacity="0" stroke="#000000" stroke-width="1" stroke-opacity="0"></use></g></g><g><use xlink:href="#c50XjnBBt" opacity="1" fill="#bbd5fc" fill-opacity="1"></use><g><use xlink:href="#c50XjnBBt" opacity="1" fill-opacity="0" stroke="#000000" stroke-width="1" stroke-opacity="0"></use></g></g><g><use xlink:href="#bG3QXRvxE" opacity="1" fill="#bbd5fc" fill-opacity="1"></use><g><use xlink:href="#bG3QXRvxE" opacity="1" fill-opacity="0" stroke="#000000" stroke-width="1" stroke-opacity="0"></use></g></g><g><use xlink:href="#b8wvyjhih" opacity="1" fill="#bbd5fc" fill-opacity="1"></use><g><use xlink:href="#b8wvyjhih" opacity="1" fill-opacity="0" stroke="#000000" stroke-width="1" stroke-opacity="0"></use></g></g><g><use xlink:href="#b50a3uug8j" opacity="1" fill="#d2e4fd" fill-opacity="1"></use><g><use xlink:href="#b50a3uug8j" opacity="1" fill-opacity="0" stroke="#000000" stroke-width="1" stroke-opacity="0"></use></g></g><g><use xlink:href="#bIfeoMmDc" opacity="1" fill="#d2e4fd" fill-opacity="1"></use><g><use xlink:href="#bIfeoMmDc" opacity="1" fill-opacity="0" stroke="#000000" stroke-width="1" stroke-opacity="0"></use></g></g><g><use xlink:href="#c674ayRmtE" opacity="1" fill="#d2e4fd" fill-opacity="1"></use><g><use xlink:href="#c674ayRmtE" opacity="1" fill-opacity="0" stroke="#000000" stroke-width="1" stroke-opacity="0"></use></g></g><g><use xlink:href="#a1Y48krxHF" opacity="1" fill="#d2e4fd" fill-opacity="1"></use><g><use xlink:href="#a1Y48krxHF" opacity="1" fill-opacity="0" stroke="#000000" stroke-width="1" stroke-opacity="0"></use></g></g><g><use xlink:href="#cj79L6FOr" opacity="1" fill="#d2e4fd" fill-opacity="1"></use><g><use xlink:href="#cj79L6FOr" opacity="1" fill-opacity="0" stroke="#000000" stroke-width="1" stroke-opacity="0"></use></g></g><g><use xlink:href="#a1T9YYz6cd" opacity="1" fill="#d2e4fd" fill-opacity="1"></use><g><use xlink:href="#a1T9YYz6cd" opacity="1" fill-opacity="0" stroke="#000000" stroke-width="1" stroke-opacity="0"></use></g></g><g><use xlink:href="#a1CzUaSFoK" opacity="1" fill="#bbd5fc" fill-opacity="1"></use><g><use xlink:href="#a1CzUaSFoK" opacity="1" fill-opacity="0" stroke="#000000" stroke-width="1" stroke-opacity="0"></use></g></g><g><use xlink:href="#btIX1XWpW" opacity="1" fill="#bbd5fc" fill-opacity="1"></use><g><use xlink:href="#btIX1XWpW" opacity="1" fill-opacity="0" stroke="#000000" stroke-width="1" stroke-opacity="0"></use></g></g><g><use xlink:href="#aNE2y71EB" opacity="1" fill="#c65447" fill-opacity="1"></use><g><use xlink:href="#aNE2y71EB" opacity="1" fill-opacity="0" stroke="#000000" stroke-width="1" stroke-opacity="0"></use></g></g><g><use xlink:href="#c6dHcy4P18" opacity="1" fill="#ffb27d" fill-opacity="1"></use><g><use xlink:href="#c6dHcy4P18" opacity="1" fill-opacity="0" stroke="#000000" stroke-width="1" stroke-opacity="0"></use></g></g><g><use xlink:href="#aad7VwGjY9" opacity="1" fill="#ffb27d" fill-opacity="1"></use><g><use xlink:href="#aad7VwGjY9" opacity="1" fill-opacity="0" stroke="#000000" stroke-width="1" stroke-opacity="0"></use></g></g><g><use xlink:href="#c1HA13ae1n" opacity="1" fill="#e58638" fill-opacity="1"></use><g><use xlink:href="#c1HA13ae1n" opacity="1" fill-opacity="0" stroke="#000000" stroke-width="1" stroke-opacity="0"></use></g></g><g><use xlink:href="#bNzMQUJbG" opacity="1" fill="#c65447" fill-opacity="1"></use><g><use xlink:href="#bNzMQUJbG" opacity="1" fill-opacity="0" stroke="#000000" stroke-width="1" stroke-opacity="0"></use></g></g><g><use xlink:href="#bzOmDF9Na" opacity="1" fill="#ffb27d" fill-opacity="1"></use><g><use xlink:href="#bzOmDF9Na" opacity="1" fill-opacity="0" stroke="#000000" stroke-width="1" stroke-opacity="0"></use></g></g><g><use xlink:href="#c251JF0Rxe" opacity="1" fill="#ffb27d" fill-opacity="1"></use><g><use xlink:href="#c251JF0Rxe" opacity="1" fill-opacity="0" stroke="#000000" stroke-width="1" stroke-opacity="0"></use></g></g><g><use xlink:href="#g1A4A7dycS" opacity="1" fill="#233862" fill-opacity="1"></use><g><use xlink:href="#g1A4A7dycS" opacity="1" fill-opacity="0" stroke="#000000" stroke-width="1" stroke-opacity="0"></use></g></g><g><use xlink:href="#aCphq7gud" opacity="1" fill="#233862" fill-opacity="1"></use><g><use xlink:href="#aCphq7gud" opacity="1" fill-opacity="0" stroke="#000000" stroke-width="1" stroke-opacity="0"></use></g></g><g><use xlink:href="#b1zysMcFnQ" opacity="1" fill="#2b478b" fill-opacity="1"></use><g><use xlink:href="#b1zysMcFnQ" opacity="1" fill-opacity="0" stroke="#000000" stroke-width="1" stroke-opacity="0"></use></g></g><g><use xlink:href="#cI04RevQj" opacity="1" fill="#233862" fill-opacity="1"></use><g><use xlink:href="#cI04RevQj" opacity="1" fill-opacity="0" stroke="#000000" stroke-width="1" stroke-opacity="0"></use></g></g><g><use xlink:href="#hcn1vOBPg" opacity="1" fill="#2b478b" fill-opacity="1"></use><g><use xlink:href="#hcn1vOBPg" opacity="1" fill-opacity="0" stroke="#000000" stroke-width="1" stroke-opacity="0"></use></g></g><g><use xlink:href="#a5X1ZyMKVC" opacity="1" fill="#ffb27d" fill-opacity="1"></use><g><use xlink:href="#a5X1ZyMKVC" opacity="1" fill-opacity="0" stroke="#000000" stroke-width="1" stroke-opacity="0"></use></g></g><g><use xlink:href="#haaT1V8df" opacity="1" fill="#ee9849" fill-opacity="1"></use><g><use xlink:href="#haaT1V8df" opacity="1" fill-opacity="0" stroke="#000000" stroke-width="1" stroke-opacity="0"></use></g></g><g><use xlink:href="#f11EfflLyQ" opacity="1" fill="#e58638" fill-opacity="1"></use><g><use xlink:href="#f11EfflLyQ" opacity="1" fill-opacity="0" stroke="#000000" stroke-width="1" stroke-opacity="0"></use></g></g><g><use xlink:href="#b34bx873zm" opacity="1" fill="#ed985f" fill-opacity="1"></use><g><use xlink:href="#b34bx873zm" opacity="1" fill-opacity="0" stroke="#000000" stroke-width="1" stroke-opacity="0"></use></g></g><g><use xlink:href="#afkudvC9B" opacity="1" fill="#ffb27d" fill-opacity="1"></use><g><use xlink:href="#afkudvC9B" opacity="1" fill-opacity="0" stroke="#000000" stroke-width="1" stroke-opacity="0"></use></g></g><g><use xlink:href="#bdqYYbSsE" opacity="1" fill="#2c3a64" fill-opacity="1"></use><g><use xlink:href="#bdqYYbSsE" opacity="1" fill-opacity="0" stroke="#000000" stroke-width="1" stroke-opacity="0"></use></g></g><g><use xlink:href="#e5mAQWUZq7" opacity="1" fill="#ee9849" fill-opacity="1"></use><g><use xlink:href="#e5mAQWUZq7" opacity="1" fill-opacity="0" stroke="#000000" stroke-width="1" stroke-opacity="0"></use></g></g><g><use xlink:href="#a1lhRhSo3n" opacity="1" fill="#ffb27d" fill-opacity="1"></use><g><use xlink:href="#a1lhRhSo3n" opacity="1" fill-opacity="0" stroke="#000000" stroke-width="1" stroke-opacity="0"></use></g></g><g><use xlink:href="#cLvuLw7JI" opacity="1" fill="#a8d29f" fill-opacity="1"></use><g><use xlink:href="#cLvuLw7JI" opacity="1" fill-opacity="0" stroke="#000000" stroke-width="1" stroke-opacity="0"></use></g></g><g><use xlink:href="#i1i7TL6tq0" opacity="1" fill="#a8d29f" fill-opacity="1"></use><g><use xlink:href="#i1i7TL6tq0" opacity="1" fill-opacity="0" stroke="#000000" stroke-width="1" stroke-opacity="0"></use></g></g><g><use xlink:href="#c7yMrbq1M3" opacity="1" fill="#a8d29f" fill-opacity="1"></use><g><use xlink:href="#c7yMrbq1M3" opacity="1" fill-opacity="0" stroke="#000000" stroke-width="1" stroke-opacity="0"></use></g></g><g><use xlink:href="#g4KL1S9ei7" opacity="1" fill="#a8d29f" fill-opacity="1"></use><g><use xlink:href="#g4KL1S9ei7" opacity="1" fill-opacity="0" stroke="#000000" stroke-width="1" stroke-opacity="0"></use></g></g><g><use xlink:href="#blovbDCsu" opacity="1" fill="#d2e4fd" fill-opacity="1"></use><g><use xlink:href="#blovbDCsu" opacity="1" fill-opacity="0" stroke="#000000" stroke-width="1" stroke-opacity="0"></use></g></g><g><use xlink:href="#axSidUD3l" opacity="1" fill="#d2e4fd" fill-opacity="1"></use><g><use xlink:href="#axSidUD3l" opacity="1" fill-opacity="0" stroke="#000000" stroke-width="1" stroke-opacity="0"></use></g></g><g><use xlink:href="#c3jhPF6rFv" opacity="1" fill="#d2e4fd" fill-opacity="1"></use><g><use xlink:href="#c3jhPF6rFv" opacity="1" fill-opacity="0" stroke="#000000" stroke-width="1" stroke-opacity="0"></use></g></g><g><use xlink:href="#deKhisrRa" opacity="1" fill="#d2e4fd" fill-opacity="1"></use><g><use xlink:href="#deKhisrRa" opacity="1" fill-opacity="0" stroke="#000000" stroke-width="1" stroke-opacity="0"></use></g></g><g><use xlink:href="#b3458pdPf" opacity="1" fill="#1c468a" fill-opacity="1"></use><g><use xlink:href="#b3458pdPf" opacity="1" fill-opacity="0" stroke="#000000" stroke-width="1" stroke-opacity="0"></use></g></g></g></g></svg>