<?xml version="1.0" encoding="UTF-8" standalone="no"?>
<!DOCTYPE svg PUBLIC "-//W3C//DTD SVG 1.1//EN" "http://www.w3.org/Graphics/SVG/1.1/DTD/svg11.dtd">
<svg version="1.1" xmlns="http://www.w3.org/2000/svg" xmlns:xlink="http://www.w3.org/1999/xlink" preserveAspectRatio="xMidYMid meet" viewBox="0 0 1027.8 350" width="1027.8" height="350"><defs><path d="M978.52 349.86L-96.39 349.86L-96.39 -21.08L978.52 -21.08L978.52 349.86" id="b1kyTQTNXt"></path><path d="M978.52 349.86L-96.39 349.86L-96.39 -21.08L978.52 -21.08L978.52 349.86" id="iy9bsffdX"></path><path d="M180.6 246.84L182.99 273.08L175.99 317.71L165.53 318.06L152.82 277.53L135.24 243.23L180.6 246.84" id="d2P3pg7gQU"></path><path d="M180.6 246.84L182.99 273.08L175.99 317.71L165.53 318.06L152.82 277.53L135.24 243.23L180.6 246.84" id="c1tp74BFDQ"></path><path d="M165.91 320.16L177.62 322.46L182.87 319.58L176.81 317.08L165.5 317.46L165.91 320.16" id="fetCw0Oiq"></path><path d="M165.91 320.16L177.62 322.46L182.87 319.58L176.81 317.08L165.5 317.46L165.91 320.16" id="gS7Is1p6D"></path><path d="M106.55 237.55L104.25 257.38L111.07 316.37L121.54 316.63L137.24 277.93L151.08 235.51L106.55 237.55" id="b3kNjejSsq"></path><path d="M106.55 237.55L104.25 257.38L111.07 316.37L121.54 316.63L137.24 277.93L151.08 235.51L106.55 237.55" id="a2L7eQR1qY"></path><path d="M121.25 318.72L109.64 321.13L104.27 318.31L110.21 315.76L121.54 316.03L121.25 318.72" id="km8CY48qn"></path><path d="M121.25 318.72L109.64 321.13L104.27 318.31L110.21 315.76L121.54 316.03L121.25 318.72" id="a60QWm2rDP"></path><path d="M167.44 179.1C147.83 178.11 136.94 177.56 134.77 177.44C134.77 177.44 116.58 178.36 104.25 198.86C97.37 210.25 95.29 228.22 94.79 241.91C95.55 243.86 100.04 252.41 119 250.97C151.56 248.47 168.91 245.98 183.08 247.23C195.16 248.47 194.15 240.58 192.82 234.55C192.49 233.31 190.89 227.1 188.01 215.92C186.64 213.47 179.78 201.2 167.44 179.1" id="gwZCluRzi"></path><path d="M167.44 179.1C147.83 178.11 136.94 177.56 134.77 177.44C134.77 177.44 116.58 178.36 104.25 198.86C97.37 210.25 95.29 228.22 94.79 241.91C95.55 243.86 100.04 252.41 119 250.97C151.56 248.47 168.91 245.98 183.08 247.23C195.16 248.47 194.15 240.58 192.82 234.55C192.49 233.31 190.89 227.1 188.01 215.92C186.64 213.47 179.78 201.2 167.44 179.1" id="aeUvkPtN"></path><path d="M161.14 159.8C152.89 158.94 144.42 158.17 136.17 158.95C134.37 159.12 132.42 159.41 131.44 160.15C131.06 160.44 130.87 160.77 130.68 161.1C128.6 164.76 125.96 170.21 131.05 173.59C132.03 174.24 133.32 174.75 134.72 175.16C136.6 175.71 138.68 176.09 140.82 176.3C140.38 177.21 139.76 178.1 138.98 178.97C140.86 180.31 149.66 180.47 151.28 179.18C151.38 178.07 151.47 176.94 151.56 175.82C152.63 175.62 153.67 175.36 154.64 175.07C158.4 173.89 160.87 172.11 162.32 170.11C163.89 167.93 166.08 165.88 167.52 163.66C168.04 162.86 168.45 161.94 167.56 161.2C166.61 160.43 164.55 160.17 162.7 159.96C162.18 159.91 161.66 159.86 161.14 159.8" id="l185wXLjg7"></path><path d="M161.14 159.8C152.89 158.94 144.42 158.17 136.17 158.95C134.37 159.12 132.42 159.41 131.44 160.15C131.06 160.44 130.87 160.77 130.68 161.1C128.6 164.76 125.96 170.21 131.05 173.59C132.03 174.24 133.32 174.75 134.72 175.16C136.6 175.71 138.68 176.09 140.82 176.3C140.38 177.21 139.76 178.1 138.98 178.97C140.86 180.31 149.66 180.47 151.28 179.18C151.38 178.07 151.47 176.94 151.56 175.82C152.63 175.62 153.67 175.36 154.64 175.07C158.4 173.89 160.87 172.11 162.32 170.11C163.89 167.93 166.08 165.88 167.52 163.66C168.04 162.86 168.45 161.94 167.56 161.2C166.61 160.43 164.55 160.17 162.7 159.96C162.18 159.91 161.66 159.86 161.14 159.8" id="b1LIMHQGET"></path><path d="M133.71 161.9C137.79 160.66 143.9 160.12 147.73 160.25C159.29 160.65 163.54 164.69 164.16 169.74C167.35 167.82 173.33 165.39 173.7 162.92C173.99 160.9 173.39 158.13 171.01 156.38C168.77 154.75 163.05 153.85 159.64 152.89C156.44 152 153.23 151.11 150.02 150.21C149.35 150.03 148.67 149.84 147.9 149.78C147 149.7 146.08 149.81 145.19 149.93C137.61 150.85 130.04 151.78 122.46 152.71C121 152.89 119.34 153.15 118.81 153.82C118.47 154.22 118.67 154.68 118.86 155.1C119.73 156.96 121.38 158.87 121.79 160.77C122.25 161.87 123.63 167.5 127.73 166.85C128.93 165.92 129.12 164.76 130.05 163.77C130.75 163.03 132.07 162.4 133.71 161.9" id="am9yFWKet"></path><path d="M133.71 161.9C137.79 160.66 143.9 160.12 147.73 160.25C159.29 160.65 163.54 164.69 164.16 169.74C167.35 167.82 173.33 165.39 173.7 162.92C173.99 160.9 173.39 158.13 171.01 156.38C168.77 154.75 163.05 153.85 159.64 152.89C156.44 152 153.23 151.11 150.02 150.21C149.35 150.03 148.67 149.84 147.9 149.78C147 149.7 146.08 149.81 145.19 149.93C137.61 150.85 130.04 151.78 122.46 152.71C121 152.89 119.34 153.15 118.81 153.82C118.47 154.22 118.67 154.68 118.86 155.1C119.73 156.96 121.38 158.87 121.79 160.77C122.25 161.87 123.63 167.5 127.73 166.85C128.93 165.92 129.12 164.76 130.05 163.77C130.75 163.03 132.07 162.4 133.71 161.9" id="b4HCwcR9e"></path><path d="M134.77 177.44L122.69 179.19L78.56 201.12L75.93 208.34L97.03 224.88L102.72 218.82L93.8 206.61L107.98 201.87L126.88 181.68L134.77 177.44" id="ano3F58z1"></path><path d="M134.77 177.44L122.69 179.19L78.56 201.12L75.93 208.34L97.03 224.88L102.72 218.82L93.8 206.61L107.98 201.87L126.88 181.68L134.77 177.44" id="apgeWYep"></path><path d="M516.21 9.09L391.16 9.67L303.63 52.04L304.87 111.38L394.18 152.92L519.22 152.32L606.76 109.95L605.51 50.62L516.21 9.09" id="a4GMOG1qf"></path><path d="M516.21 9.09L391.16 9.67L303.63 52.04L304.87 111.38L394.18 152.92L519.22 152.32L606.76 109.95L605.51 50.62L516.21 9.09" id="b90x9GNSyO"></path><path d="M595.61 52.62L512.19 13.82L395.39 14.38L313.62 53.96L314.79 109.38L398.2 148.18L515.01 147.63L596.77 108.04L595.61 52.62" id="c3YYY8aoRT"></path><path d="M595.61 52.62L512.19 13.82L395.39 14.38L313.62 53.96L314.79 109.38L398.2 148.18L515.01 147.63L596.77 108.04L595.61 52.62" id="b12EXj5ubo"></path><path d="M393.34 74.01L393.35 74.57C385.47 74.61 381.09 74.63 380.21 74.64C380.2 74.38 380.2 74.24 380.2 74.21C380.14 71.45 376.59 69.71 370.78 69.73C364.55 69.76 361.18 71.26 361.22 73.26C361.35 79.87 394.68 75.81 394.94 87.81C395.1 95.28 385.12 98.23 370.87 98.3C358.24 98.36 347.02 94.99 346.89 88.27C346.88 87.9 346.97 87.46 346.96 87.23C348.3 87.22 358.97 87.16 360.31 87.16C360.31 87.26 360.21 87.68 360.22 87.93C360.29 91.02 364.35 93.09 371.36 93.06C379.09 93.03 381.76 91.05 381.72 89.16C381.55 81.4 348.25 86.17 347.99 73.75C347.85 67.56 358.62 64.56 370.77 64.49C383.01 64.44 393.2 67.29 393.34 74.01" id="bDBUFwOT5"></path><path d="M393.34 74.01L393.35 74.57C385.47 74.61 381.09 74.63 380.21 74.64C380.2 74.38 380.2 74.24 380.2 74.21C380.14 71.45 376.59 69.71 370.78 69.73C364.55 69.76 361.18 71.26 361.22 73.26C361.35 79.87 394.68 75.81 394.94 87.81C395.1 95.28 385.12 98.23 370.87 98.3C358.24 98.36 347.02 94.99 346.89 88.27C346.88 87.9 346.97 87.46 346.96 87.23C348.3 87.22 358.97 87.16 360.31 87.16C360.31 87.26 360.21 87.68 360.22 87.93C360.29 91.02 364.35 93.09 371.36 93.06C379.09 93.03 381.76 91.05 381.72 89.16C381.55 81.4 348.25 86.17 347.99 73.75C347.85 67.56 358.62 64.56 370.77 64.49C383.01 64.44 393.2 67.29 393.34 74.01" id="aMIOXChM"></path><path d="M447.04 70.13L429.98 70.22L430.56 97.44L417.71 97.51L417.15 70.28L400.09 70.36L399.97 64.93L446.92 64.71L447.04 70.13" id="c2ovspec4N"></path><path d="M447.04 70.13L429.98 70.22L430.56 97.44L417.71 97.51L417.15 70.28L400.09 70.36L399.97 64.93L446.92 64.71L447.04 70.13" id="aR2dOKC7"></path><path d="M479.72 92.55C489.96 92.5 494.99 88.52 494.85 82C494.84 81.76 494.8 79.86 494.8 79.62C494.66 73.1 489.46 69.17 479.22 69.22C468.99 69.27 463.96 73.25 464.1 79.77C464.11 80.24 464.14 81.91 464.15 82.15C464.29 88.67 469.49 92.59 479.72 92.55ZM508.06 80.75C508.31 92.27 497.59 97.7 479.83 97.78C462.07 97.87 451.12 92.54 450.88 81.02C450.64 69.5 461.36 64.07 479.12 63.99C496.88 63.9 507.82 69.23 508.06 80.75" id="a1fhSb9h4N"></path><path d="M479.72 92.55C489.96 92.5 494.99 88.52 494.85 82C494.84 81.76 494.8 79.86 494.8 79.62C494.66 73.1 489.46 69.17 479.22 69.22C468.99 69.27 463.96 73.25 464.1 79.77C464.11 80.24 464.14 81.91 464.15 82.15C464.29 88.67 469.49 92.59 479.72 92.55ZM508.06 80.75C508.31 92.27 497.59 97.7 479.83 97.78C462.07 97.87 451.12 92.54 450.88 81.02C450.64 69.5 461.36 64.07 479.12 63.99C496.88 63.9 507.82 69.23 508.06 80.75" id="btXcQZjgE"></path><path d="M530.3 78.93C536.56 78.9 540.04 78.89 540.74 78.88C546.96 78.86 550.33 77.02 550.27 74.02C550.21 71.36 546.66 69.67 540.54 69.69C539.15 69.7 535.67 69.72 530.11 69.74C530.15 71.58 530.28 78.01 530.3 78.93ZM530.41 84.31L530.69 96.97L517.84 97.03C517.43 77.44 517.2 66.55 517.15 64.38C531.9 64.3 540.09 64.27 541.73 64.26C555.98 64.19 563.39 68.3 563.51 73.96C563.63 80.11 555.1 84.2 542.15 84.25C541.38 84.26 537.45 84.27 530.41 84.31" id="a5HNwNwV1k"></path><path d="M530.3 78.93C536.56 78.9 540.04 78.89 540.74 78.88C546.96 78.86 550.33 77.02 550.27 74.02C550.21 71.36 546.66 69.67 540.54 69.69C539.15 69.7 535.67 69.72 530.11 69.74C530.15 71.58 530.28 78.01 530.3 78.93ZM530.41 84.31L530.69 96.97L517.84 97.03C517.43 77.44 517.2 66.55 517.15 64.38C531.9 64.3 540.09 64.27 541.73 64.26C555.98 64.19 563.39 68.3 563.51 73.96C563.63 80.11 555.1 84.2 542.15 84.25C541.38 84.26 537.45 84.27 530.41 84.31" id="d2IY1cPCsi"></path><path d="M669.79 315.79L670.62 318.89L658.41 322.79L651.03 320.08L656.72 316.59L668.95 312.69L669.79 315.79" id="b50Bii4Qrw"></path><path d="M669.79 315.79L670.62 318.89L658.41 322.79L651.03 320.08L656.72 316.59L668.95 312.69L669.79 315.79" id="mcYIN3x3B"></path><path d="M670.2 314.75L660.77 275.24L672.11 231L669.57 221.59L618.92 220.68L617.09 236L625.6 275.29L657.58 316.77L670.2 314.75" id="eTa0Ef2PJ"></path><path d="M670.2 314.75L660.77 275.24L672.11 231L669.57 221.59L618.92 220.68L617.09 236L625.6 275.29L657.58 316.77L670.2 314.75" id="f5BMsYv18"></path><path d="M581.77 225.11L581.63 264.98L598.55 316.31L610.72 316.26L617.42 268.79L633.07 221.27L581.77 225.11" id="aeKL11x7p"></path><path d="M581.77 225.11L581.63 264.98L598.55 316.31L610.72 316.26L617.42 268.79L633.07 221.27L581.77 225.11" id="cvQaBUbZ8"></path><path d="M610.7 318.68L597.61 321.87L590.95 318.78L597.47 315.63L610.64 315.57L610.7 318.68" id="c8iryQ3vp"></path><path d="M610.7 318.68L597.61 321.87L590.95 318.78L597.47 315.63L610.64 315.57L610.7 318.68" id="d2IJkZE85Y"></path><path d="M677.35 238.67C677.24 236.94 677.04 235.5 677.01 234.99C676.74 230.35 675.88 225.73 674.65 221.13C673.55 217 672.17 206.77 670.69 202.66C669.45 199.28 665.18 190.84 662.09 187.69C654.4 179.89 656.78 179.17 622.99 176.85C608.19 175.83 604.7 180.21 592.59 185.24C591.39 185.74 591.47 188.7 591.18 189.48C590.7 190.86 590.18 192.24 589.57 193.6C589.1 194.68 588.59 195.75 588 196.82C588 196.82 588 196.82 588 196.82C588 196.82 577.85 218.76 571.12 223.42C564.41 228.08 550.53 234.6 573.75 238.57C577.86 239.2 582 239.8 586.29 240.12C586.29 240.12 605.27 239.12 615.04 239.15C624.04 239.19 633.06 239.62 641.9 240.34C647.82 240.81 653.86 241.5 659.14 242.8C664.19 244.05 667.83 245.89 672.96 247.19C673.44 247.31 673.97 247.44 674.52 247.4C677.47 247.21 677.6 242.3 677.35 238.67" id="dhIQ0ZRz6"></path><path d="M677.35 238.67C677.24 236.94 677.04 235.5 677.01 234.99C676.74 230.35 675.88 225.73 674.65 221.13C673.55 217 672.17 206.77 670.69 202.66C669.45 199.28 665.18 190.84 662.09 187.69C654.4 179.89 656.78 179.17 622.99 176.85C608.19 175.83 604.7 180.21 592.59 185.24C591.39 185.74 591.47 188.7 591.18 189.48C590.7 190.86 590.18 192.24 589.57 193.6C589.1 194.68 588.59 195.75 588 196.82C588 196.82 588 196.82 588 196.82C588 196.82 577.85 218.76 571.12 223.42C564.41 228.08 550.53 234.6 573.75 238.57C577.86 239.2 582 239.8 586.29 240.12C586.29 240.12 605.27 239.12 615.04 239.15C624.04 239.19 633.06 239.62 641.9 240.34C647.82 240.81 653.86 241.5 659.14 242.8C664.19 244.05 667.83 245.89 672.96 247.19C673.44 247.31 673.97 247.44 674.52 247.4C677.47 247.21 677.6 242.3 677.35 238.67" id="e73SiuwU0"></path><path d="M622.96 179.05C624.67 179.45 628.68 179.59 632.88 178.81C633.72 178.66 634.3 178.27 634.29 177.83C634.25 176.62 634.05 175.42 633.67 174.22C636.82 173.7 640.46 172.91 641 171.35C641.18 170.86 640.99 170.35 640.81 169.86C640.08 167.83 639.34 165.8 638.6 163.77C638.35 163.07 638.07 162.35 637.27 161.74C635.86 160.68 633.11 160.23 630.51 160.01C623.88 159.47 616.66 160.14 611.52 162.21C610.16 162.75 608.91 163.41 608.32 164.21C607.39 165.44 608.08 166.81 608.78 168.07C609.43 169.25 610.07 170.41 610.72 171.58C611.47 172.93 612.54 174.45 615.27 174.96C616.73 175.23 618.43 175.15 619.75 175.54C622.06 176.24 621.75 177.87 622.96 179.05" id="a1RY5q66GS"></path><path d="M622.96 179.05C624.67 179.45 628.68 179.59 632.88 178.81C633.72 178.66 634.3 178.27 634.29 177.83C634.25 176.62 634.05 175.42 633.67 174.22C636.82 173.7 640.46 172.91 641 171.35C641.18 170.86 640.99 170.35 640.81 169.86C640.08 167.83 639.34 165.8 638.6 163.77C638.35 163.07 638.07 162.35 637.27 161.74C635.86 160.68 633.11 160.23 630.51 160.01C623.88 159.47 616.66 160.14 611.52 162.21C610.16 162.75 608.91 163.41 608.32 164.21C607.39 165.44 608.08 166.81 608.78 168.07C609.43 169.25 610.07 170.41 610.72 171.58C611.47 172.93 612.54 174.45 615.27 174.96C616.73 175.23 618.43 175.15 619.75 175.54C622.06 176.24 621.75 177.87 622.96 179.05" id="b4ky8SoiDn"></path><path d="M584.7 158.8C584.05 158.29 583.35 157.79 582.57 157.34C580.86 156.34 578.77 155.49 577.4 154.39C576.03 153.29 575.56 151.79 577.19 150.78C578.26 150.12 579.97 149.79 581.64 149.56C587.15 148.78 593.09 148.73 598.65 149.41C603.94 150.04 608.68 151.1 614.02 150.16C619.03 149.27 622.65 149.63 627.88 150.52C633.55 151.47 641.15 151.71 646.27 153.06C648.42 153.63 650.12 154.51 651.46 155.48C656.08 158.87 656.1 163.52 651.53 166.93C650.5 167.68 649.27 168.38 647.98 169.05C645.3 170.42 642.1 172.12 638.43 172.63C638.35 171.07 641.34 166.14 638.81 164.87C634.8 162.84 625.74 163.55 620.76 164.04C615.35 164.6 610.5 166.42 605.13 166.8C601.26 167.09 596.32 166.19 593.02 165.23C588.97 164.07 587.07 160.64 584.7 158.8" id="b4Pllt2GDh"></path><path d="M584.7 158.8C584.05 158.29 583.35 157.79 582.57 157.34C580.86 156.34 578.77 155.49 577.4 154.39C576.03 153.29 575.56 151.79 577.19 150.78C578.26 150.12 579.97 149.79 581.64 149.56C587.15 148.78 593.09 148.73 598.65 149.41C603.94 150.04 608.68 151.1 614.02 150.16C619.03 149.27 622.65 149.63 627.88 150.52C633.55 151.47 641.15 151.71 646.27 153.06C648.42 153.63 650.12 154.51 651.46 155.48C656.08 158.87 656.1 163.52 651.53 166.93C650.5 167.68 649.27 168.38 647.98 169.05C645.3 170.42 642.1 172.12 638.43 172.63C638.35 171.07 641.34 166.14 638.81 164.87C634.8 162.84 625.74 163.55 620.76 164.04C615.35 164.6 610.5 166.42 605.13 166.8C601.26 167.09 596.32 166.19 593.02 165.23C588.97 164.07 587.07 160.64 584.7 158.8" id="d2YQvB9Ja"></path><path d="M651.03 179.85L672.11 188.61L695.62 212.05L665.93 228.82L660.82 219.44L651.03 179.85" id="bJsN8D8e"></path><path d="M651.03 179.85L672.11 188.61L695.62 212.05L665.93 228.82L660.82 219.44L651.03 179.85" id="b5B6AMrbZw"></path><path d="M514.55 186.59L504.09 183.39L506.76 181.2L514.95 182.64L515.22 181.33L523.48 184.58L521.32 187.03L514.55 186.59" id="bEV0puKWb"></path><path d="M514.55 186.59L504.09 183.39L506.76 181.2L514.95 182.64L515.22 181.33L523.48 184.58L521.32 187.03L514.55 186.59" id="b47nHdVha"></path><path d="M612.56 177.58L557.95 188.2L523.48 184.58L520.1 187.71L551.55 198.7L594.89 196.25L612.56 177.58" id="evTPBJma4"></path><path d="M612.56 177.58L557.95 188.2L523.48 184.58L520.1 187.71L551.55 198.7L594.89 196.25L612.56 177.58" id="glTfxY6ch"></path><path d="M441.26 318.41L440.96 321.12L452.1 324.11L458.11 321.53L452.69 318.68L441.55 315.69L441.26 318.41" id="aWOP1rtUn"></path><path d="M441.26 318.41L440.96 321.12L452.1 324.11L458.11 321.53L452.69 318.68L441.55 315.69L441.26 318.41" id="a2eMoMT1Pw"></path><path d="M432.18 236.1L431.29 244.35L450.55 280.59L440.75 317.52L451.98 318.87L483.13 274.51L483.68 261.16L475.95 233.72L432.18 236.1" id="f3MHhmsxPT"></path><path d="M432.18 236.1L431.29 244.35L450.55 280.59L440.75 317.52L451.98 318.87L483.13 274.51L483.68 261.16L475.95 233.72L432.18 236.1" id="b8Qc1Deg1"></path><path d="M517.52 235.33L526.16 269.75L522.53 314.88L512 315.41L496.07 274.75L472.4 234.49L517.52 235.33" id="a5gcjWo4qb"></path><path d="M517.52 235.33L526.16 269.75L522.53 314.88L512 315.41L496.07 274.75L472.4 234.49L517.52 235.33" id="aNlHSKJ37"></path><path d="M512.54 317.52L524.52 319.64L529.61 316.65L523.31 314.23L511.93 314.82L512.54 317.52" id="dlZuVca6t"></path><path d="M512.54 317.52L524.52 319.64L529.61 316.65L523.31 314.23L511.93 314.82L512.54 317.52" id="bhpcTJbEx"></path><path d="M521.77 229.59C510.94 219.12 506.61 207.65 500.93 196.35C499.25 193.01 497.51 189.61 493.61 186.72C489.12 183.42 482.92 181.93 476.05 181.36C467.32 180.64 457.5 181.39 448.75 181.74C443.46 189.59 440.01 185.13 433.8 192.83C432.51 194.42 428.85 208.23 427.49 209.82C427.49 209.82 427.49 209.82 427.49 209.82C427.49 209.82 413.21 231.04 417.78 247.82C417.83 247.98 417.87 248.14 417.91 248.31C418.83 248.39 419.72 248.46 420.55 248.54C432.87 249.72 445.45 250.37 458.03 250.28C469.19 250.22 480.35 249.57 491.19 248.3C506.03 246.56 523.66 247.27 535.78 242.63C532.22 239.2 525.33 233.03 521.77 229.59" id="cg4XqRet7"></path><path d="M521.77 229.59C510.94 219.12 506.61 207.65 500.93 196.35C499.25 193.01 497.51 189.61 493.61 186.72C489.12 183.42 482.92 181.93 476.05 181.36C467.32 180.64 457.5 181.39 448.75 181.74C443.46 189.59 440.01 185.13 433.8 192.83C432.51 194.42 428.85 208.23 427.49 209.82C427.49 209.82 427.49 209.82 427.49 209.82C427.49 209.82 413.21 231.04 417.78 247.82C417.83 247.98 417.87 248.14 417.91 248.31C418.83 248.39 419.72 248.46 420.55 248.54C432.87 249.72 445.45 250.37 458.03 250.28C469.19 250.22 480.35 249.57 491.19 248.3C506.03 246.56 523.66 247.27 535.78 242.63C532.22 239.2 525.33 233.03 521.77 229.59" id="h5M8seTRMt"></path><path d="M394.06 184.07L406.26 152.67L416.61 153.63L417.09 177.31L394.06 184.07" id="dhqHWZ3Lp"></path><path d="M394.06 184.07L406.26 152.67L416.61 153.63L417.09 177.31L394.06 184.07" id="a54km591CY"></path><path d="M394.06 184.07L454.56 202.78L445.96 183.63L408.79 175.59L394.06 184.07" id="e2H1kUJVfm"></path><path d="M394.06 184.07L454.56 202.78L445.96 183.63L408.79 175.59L394.06 184.07" id="a4Go1oYQjV"></path><path d="M472.38 168.04C464.53 162.42 444.31 162.73 444.02 170.47C443.93 172.8 444.45 175.18 446.61 177.27C448.78 179.36 452.83 181.11 457.69 181.45C457.71 181.46 457.74 181.46 457.77 181.46C457.93 182.05 458.08 182.64 458.24 183.24C458.28 183.36 458.33 183.5 458.53 183.59C458.76 183.68 459.11 183.67 459.42 183.65C460.92 183.58 462.42 183.49 463.91 183.41C464.65 183.36 465.43 183.31 466.06 183.12C467.43 182.7 467.56 181.76 467.2 181C467.11 180.82 467 180.64 466.89 180.46C474.61 177.98 477.51 171.71 472.38 168.04" id="b1jdWOXaaE"></path><path d="M472.38 168.04C464.53 162.42 444.31 162.73 444.02 170.47C443.93 172.8 444.45 175.18 446.61 177.27C448.78 179.36 452.83 181.11 457.69 181.45C457.71 181.46 457.74 181.46 457.77 181.46C457.93 182.05 458.08 182.64 458.24 183.24C458.28 183.36 458.33 183.5 458.53 183.59C458.76 183.68 459.11 183.67 459.42 183.65C460.92 183.58 462.42 183.49 463.91 183.41C464.65 183.36 465.43 183.31 466.06 183.12C467.43 182.7 467.56 181.76 467.2 181C467.11 180.82 467 180.64 466.89 180.46C474.61 177.98 477.51 171.71 472.38 168.04" id="h1IqTHITq7"></path><path d="M440.23 161.43C436.68 161.82 435.11 163.89 432.68 165.27C430.66 166.43 427.9 167.15 425.69 168.21C423.48 169.26 421.82 170.91 422.97 172.39C419.72 172.23 416.23 172.08 413.42 172.93C410.63 173.76 409.24 176.01 411.61 177.2C413.74 178.26 417.47 177.91 419.66 178.95C423.12 180.57 420.7 184.55 425.17 185.23C426.24 185.4 427.41 185.27 428.47 185.44C429.8 185.66 430.69 186.29 431.63 186.82C435.94 189.24 443.36 189.95 448.89 188.49C451.85 187.01 453.37 184.81 453.09 182.65C452.75 180.06 449.49 179.74 447.26 177.66C444.83 175.38 444.34 172.6 445.96 170.18C447.02 168.6 449.08 167.03 452.05 166.32C453.25 166.03 453.27 166.6 454.3 165.88C454.74 165.57 454.95 164.67 454.82 164.28C450.39 163.62 444.91 160.92 440.23 161.43" id="arRdiq8Wl"></path><path d="M440.23 161.43C436.68 161.82 435.11 163.89 432.68 165.27C430.66 166.43 427.9 167.15 425.69 168.21C423.48 169.26 421.82 170.91 422.97 172.39C419.72 172.23 416.23 172.08 413.42 172.93C410.63 173.76 409.24 176.01 411.61 177.2C413.74 178.26 417.47 177.91 419.66 178.95C423.12 180.57 420.7 184.55 425.17 185.23C426.24 185.4 427.41 185.27 428.47 185.44C429.8 185.66 430.69 186.29 431.63 186.82C435.94 189.24 443.36 189.95 448.89 188.49C451.85 187.01 453.37 184.81 453.09 182.65C452.75 180.06 449.49 179.74 447.26 177.66C444.83 175.38 444.34 172.6 445.96 170.18C447.02 168.6 449.08 167.03 452.05 166.32C453.25 166.03 453.27 166.6 454.3 165.88C454.74 165.57 454.95 164.67 454.82 164.28C450.39 163.62 444.91 160.92 440.23 161.43" id="a2Vv0kVhoZ"></path><path d="M478.19 157.75C480.11 157.65 481.95 157.27 483.89 157.31C486.8 157.37 487.65 158.61 489.22 159.54C490.97 160.57 493.4 161.94 495.78 162.54C497.5 162.97 499.45 163.05 501.3 163.28C503.16 163.52 505.09 164.03 505.81 164.95C506.5 165.82 505.92 166.83 506.45 167.72C507.3 169.06 508.32 169.63 508.57 171.1C508.7 171.87 508.81 172.67 508.12 173.34C507.2 174.21 505.17 174.58 503.29 174.77C501.4 174.95 499.38 175.07 497.85 175.67C494.57 176.97 496.78 178.67 497.03 180.38C497.41 182.98 492.86 185.4 487.84 185.38C483.59 185.37 479.78 183.74 478.29 181.7C477.55 180.68 477.61 179.59 476.85 178.59C476.11 177.6 473.85 176.48 475.06 175.36C475.35 175.1 475.86 174.89 476.08 174.6C476.26 174.37 476.25 174.1 476.18 173.85C475.91 172.98 474.82 172.17 473.31 171.75C472.24 171.44 470.95 171.31 470.08 170.86C469.08 170.35 468.88 169.57 468.41 168.88C467.27 167.21 464.09 165.97 460.71 165.88C458.49 165.81 456.6 165.88 454.43 165.56C454.11 165.51 449.08 164.64 449.26 165C448.94 164.37 449.24 163.73 449.58 163.11C450.15 162.12 450.86 161.11 452.18 160.32C456.43 157.79 459.59 161.25 463.63 159.96C464.6 159.66 465.02 159.04 465.74 158.59C467.12 157.73 469.51 157.49 471.68 157.55C473.85 157.59 476.02 157.85 478.19 157.75" id="h2j1lafzWC"></path><path d="M478.19 157.75C480.11 157.65 481.95 157.27 483.89 157.31C486.8 157.37 487.65 158.61 489.22 159.54C490.97 160.57 493.4 161.94 495.78 162.54C497.5 162.97 499.45 163.05 501.3 163.28C503.16 163.52 505.09 164.03 505.81 164.95C506.5 165.82 505.92 166.83 506.45 167.72C507.3 169.06 508.32 169.63 508.57 171.1C508.7 171.87 508.81 172.67 508.12 173.34C507.2 174.21 505.17 174.58 503.29 174.77C501.4 174.95 499.38 175.07 497.85 175.67C494.57 176.97 496.78 178.67 497.03 180.38C497.41 182.98 492.86 185.4 487.84 185.38C483.59 185.37 479.78 183.74 478.29 181.7C477.55 180.68 477.61 179.59 476.85 178.59C476.11 177.6 473.85 176.48 475.06 175.36C475.35 175.1 475.86 174.89 476.08 174.6C476.26 174.37 476.25 174.1 476.18 173.85C475.91 172.98 474.82 172.17 473.31 171.75C472.24 171.44 470.95 171.31 470.08 170.86C469.08 170.35 468.88 169.57 468.41 168.88C467.27 167.21 464.09 165.97 460.71 165.88C458.49 165.81 456.6 165.88 454.43 165.56C454.11 165.51 449.08 164.64 449.26 165C448.94 164.37 449.24 163.73 449.58 163.11C450.15 162.12 450.86 161.11 452.18 160.32C456.43 157.79 459.59 161.25 463.63 159.96C464.6 159.66 465.02 159.04 465.74 158.59C467.12 157.73 469.51 157.49 471.68 157.55C473.85 157.59 476.02 157.85 478.19 157.75" id="c9KrAydgR"></path><path d="M493.53 199.03C494.66 201.41 498.83 203.68 502.5 206.17C506.81 209.1 511.12 212.02 515.42 214.96C514.48 216.36 509.82 223.38 501.41 236.04C502.28 236.18 509.28 237.32 510.15 237.46C525.31 224.85 533.73 217.83 535.41 216.43C535.39 208.03 519.59 203.72 515.44 199.01C513.28 196.55 496.69 188.96 493.61 186.72C489.06 183.45 495.24 188.99 489.68 191.65C485.03 193.89 492.62 197.13 493.53 199.03" id="b1I03FIx7r"></path><path d="M493.53 199.03C494.66 201.41 498.83 203.68 502.5 206.17C506.81 209.1 511.12 212.02 515.42 214.96C514.48 216.36 509.82 223.38 501.41 236.04C502.28 236.18 509.28 237.32 510.15 237.46C525.31 224.85 533.73 217.83 535.41 216.43C535.39 208.03 519.59 203.72 515.44 199.01C513.28 196.55 496.69 188.96 493.61 186.72C489.06 183.45 495.24 188.99 489.68 191.65C485.03 193.89 492.62 197.13 493.53 199.03" id="agi4o5bOv"></path><path d="M507.71 238.73L505.91 239.89L501.68 239.41L498.18 240.5L497.35 239.43L503.46 236.42L508.16 237.17L507.71 238.73" id="a7Hc1n1kK"></path><path d="M507.71 238.73L505.91 239.89L501.68 239.41L498.18 240.5L497.35 239.43L503.46 236.42L508.16 237.17L507.71 238.73" id="b1hUht7BnW"></path><path d="M408.59 151.05L413.13 147.47L415.47 149.98L418.11 149.17L419.09 150.59L415.74 153.55L408.69 152.91L408.59 151.05" id="agvQbwXt9"></path><path d="M408.59 151.05L413.13 147.47L415.47 149.98L418.11 149.17L419.09 150.59L415.74 153.55L408.69 152.91L408.59 151.05" id="aAcV8LAhI"></path><path d="M305.6 312.92L317.18 315.94L316.18 318.51L295.59 317.18L296.7 313.46L305.6 312.92" id="bUXWrnNt0"></path><path d="M305.6 312.92L317.18 315.94L316.18 318.51L295.59 317.18L296.7 313.46L305.6 312.92" id="a5d9rwpB3p"></path><path d="M253.22 315.75L245.17 315.69L243.2 318.94L243.41 318.96L243.36 318.97L256.78 322.63L263.12 322.92L263.83 319.48L262.09 318.9L253.22 315.75" id="b4zctdj83F"></path><path d="M253.22 315.75L245.17 315.69L243.2 318.94L243.41 318.96L243.36 318.97L256.78 322.63L263.12 322.92L263.83 319.48L262.09 318.9L253.22 315.75" id="a1XdTjoVDw"></path><path d="M278.07 254.77C279.36 254.7 282.9 276.7 282.9 276.7C281.22 279.36 272.87 292.7 257.81 316.68C256.37 316.54 244.8 315.46 243.36 315.32C248.64 291.38 251.58 278.07 252.17 275.41C252.17 275.41 221.56 258.67 230.38 246.16C243.69 249.22 278.07 254.77 278.07 254.77" id="aafNUSCrK"></path><path d="M278.07 254.77C279.36 254.7 282.9 276.7 282.9 276.7C281.22 279.36 272.87 292.7 257.81 316.68C256.37 316.54 244.8 315.46 243.36 315.32C248.64 291.38 251.58 278.07 252.17 275.41C252.17 275.41 221.56 258.67 230.38 246.16C243.69 249.22 278.07 254.77 278.07 254.77" id="cHBDN0ckJ"></path><path d="M314.2 254.96L317.12 274.56C312.28 297.99 309.59 311 309.06 313.61C300.12 313.38 295.17 313.27 294.17 313.25C294.17 313.25 290.58 276.27 289.11 275.52C287.63 274.76 274.97 255.36 274.97 255.36C277.58 255.34 290.66 255.2 314.2 254.96" id="bOc0ZsOrD"></path><path d="M314.2 254.96L317.12 274.56C312.28 297.99 309.59 311 309.06 313.61C300.12 313.38 295.17 313.27 294.17 313.25C294.17 313.25 290.58 276.27 289.11 275.52C287.63 274.76 274.97 255.36 274.97 255.36C277.58 255.34 290.66 255.2 314.2 254.96" id="b4Y4Ucdo87"></path><path d="M294.63 263.9C247.36 263.5 243.89 252.18 233.48 250.94C223.08 249.71 228.51 243.83 228.51 243.83C228.51 243.83 230.47 241.2 231.32 239.83C237.39 229.95 255.62 217.28 255.62 217.28C264.61 211.46 273.63 206.31 281.42 203.22C304.59 193.97 329.41 193.55 329.41 193.55C365.16 198.85 352.55 206.83 352.95 208.93C341.2 214.04 332.68 221.7 326.4 229.92C323.44 234.28 319.94 241.81 322.38 250.94C323.17 253.88 324.08 256.41 324.98 258.62C325.14 261.52 319.3 264.09 294.63 263.9" id="b6pukck9K"></path><path d="M294.63 263.9C247.36 263.5 243.89 252.18 233.48 250.94C223.08 249.71 228.51 243.83 228.51 243.83C228.51 243.83 230.47 241.2 231.32 239.83C237.39 229.95 255.62 217.28 255.62 217.28C264.61 211.46 273.63 206.31 281.42 203.22C304.59 193.97 329.41 193.55 329.41 193.55C365.16 198.85 352.55 206.83 352.95 208.93C341.2 214.04 332.68 221.7 326.4 229.92C323.44 234.28 319.94 241.81 322.38 250.94C323.17 253.88 324.08 256.41 324.98 258.62C325.14 261.52 319.3 264.09 294.63 263.9" id="btZBoRcvg"></path><path d="M329.56 195.33C329.56 195.33 337.51 193.26 342.43 196.87C348.42 201.23 314.6 220.93 315.4 263.04C306.55 263.89 283.71 265.93 260.16 260.65C265.5 248.14 288.6 210.4 329.56 195.33" id="a9iuL2XquT"></path><path d="M329.56 195.33C329.56 195.33 337.51 193.26 342.43 196.87C348.42 201.23 314.6 220.93 315.4 263.04C306.55 263.89 283.71 265.93 260.16 260.65C265.5 248.14 288.6 210.4 329.56 195.33" id="bze7zcHpC"></path><path d="M362.37 257.32L371.61 261.39L375.45 259.59L370.42 256.14L373.07 255.69L364.26 252.66L359.74 254.28L362.37 257.32" id="aEM66FwEI"></path><path d="M362.37 257.32L371.61 261.39L375.45 259.59L370.42 256.14L373.07 255.69L364.26 252.66L359.74 254.28L362.37 257.32" id="bCnDyd6xv"></path><path d="M352.87 201.23C354.81 203.36 355.89 204.55 356.1 204.78C354.25 220.46 353.23 229.16 353.02 230.91C353.02 230.91 369.31 253.26 368.87 253.26C368.44 253.26 357.86 254.94 357.86 254.94C356.28 253.43 348.35 245.91 334.09 232.37C334.09 231.45 334.09 226.85 334.09 218.57L352.87 201.23" id="d6e0Isc38n"></path><path d="M352.87 201.23C354.81 203.36 355.89 204.55 356.1 204.78C354.25 220.46 353.23 229.16 353.02 230.91C353.02 230.91 369.31 253.26 368.87 253.26C368.44 253.26 357.86 254.94 357.86 254.94C356.28 253.43 348.35 245.91 334.09 232.37C334.09 231.45 334.09 226.85 334.09 218.57L352.87 201.23" id="b7BJnOxbr0"></path><path d="M347.05 182.04C351.05 183.51 354.52 186.67 353.14 189.15C352.47 190.35 350.66 191.14 350.06 192.44C348.84 194.98 339.51 196.86 343.44 199.81C345.46 201.33 349.37 201.98 352.98 202.52C353.42 202.58 353.88 202.64 354.33 202.6C355.07 202.53 355.56 202.18 355.7 201.83C355.83 201.48 355.7 201.12 355.62 200.76C354.8 197.03 360.11 193.3 362.09 189.78C364.05 186.26 363.95 182.24 358.81 179.33C354.43 179.52 352.65 179.11 349.84 180.73C349.66 180.81 348.72 181.25 347.05 182.04" id="ajbH2ntVs"></path><path d="M347.05 182.04C351.05 183.51 354.52 186.67 353.14 189.15C352.47 190.35 350.66 191.14 350.06 192.44C348.84 194.98 339.51 196.86 343.44 199.81C345.46 201.33 349.37 201.98 352.98 202.52C353.42 202.58 353.88 202.64 354.33 202.6C355.07 202.53 355.56 202.18 355.7 201.83C355.83 201.48 355.7 201.12 355.62 200.76C354.8 197.03 360.11 193.3 362.09 189.78C364.05 186.26 363.95 182.24 358.81 179.33C354.43 179.52 352.65 179.11 349.84 180.73C349.66 180.81 348.72 181.25 347.05 182.04" id="bmcUYZCBN"></path><path d="M337.66 196.94C342.87 197.14 347.97 195.79 351.27 193.86C354.58 191.94 356.32 189.51 357.4 187.08C361.01 179.01 340.15 176.39 329.16 181.33C319.58 185.64 322.5 196.38 337.66 196.94" id="a19AU0VQZQ"></path><path d="M337.66 196.94C342.87 197.14 347.97 195.79 351.27 193.86C354.58 191.94 356.32 189.51 357.4 187.08C361.01 179.01 340.15 176.39 329.16 181.33C319.58 185.64 322.5 196.38 337.66 196.94" id="aQYwqAukR"></path><path d="M311.7 195.43C314.47 195.33 317.24 195.19 319.71 194.34C323.73 192.97 326.09 189.87 328.56 187.91C331.16 185.84 334.13 183.62 338.92 182.83C342.06 182.32 344.83 182.65 347.77 183.22C349.79 183.6 349.55 183.97 351.69 183.8C353.32 183.66 355.47 182.72 356.36 182.09C357.89 181.04 357.99 179.64 357.18 178.43C355.94 176.56 353.62 175.29 349.94 174.52C337.04 171.78 324.01 173.5 315 178.81C310.66 181.36 309.11 184.85 304.75 187.28C302.06 188.77 298.71 189.45 296.15 191.1C289.48 195.37 278.53 200.36 274.59 205.38C274.46 205.57 274.32 205.78 274.5 205.96C274.86 206.32 276.01 206.19 276.77 206.01C281.21 204.96 285.65 203.91 290.08 202.87C291.83 202.45 293.6 202.03 295.03 201.4C298.61 199.85 299.85 197.16 304.18 196.14C306.56 195.57 309.13 195.52 311.7 195.43" id="eiJeZOT4z"></path><path d="M311.7 195.43C314.47 195.33 317.24 195.19 319.71 194.34C323.73 192.97 326.09 189.87 328.56 187.91C331.16 185.84 334.13 183.62 338.92 182.83C342.06 182.32 344.83 182.65 347.77 183.22C349.79 183.6 349.55 183.97 351.69 183.8C353.32 183.66 355.47 182.72 356.36 182.09C357.89 181.04 357.99 179.64 357.18 178.43C355.94 176.56 353.62 175.29 349.94 174.52C337.04 171.78 324.01 173.5 315 178.81C310.66 181.36 309.11 184.85 304.75 187.28C302.06 188.77 298.71 189.45 296.15 191.1C289.48 195.37 278.53 200.36 274.59 205.38C274.46 205.57 274.32 205.78 274.5 205.96C274.86 206.32 276.01 206.19 276.77 206.01C281.21 204.96 285.65 203.91 290.08 202.87C291.83 202.45 293.6 202.03 295.03 201.4C298.61 199.85 299.85 197.16 304.18 196.14C306.56 195.57 309.13 195.52 311.7 195.43" id="b2C5FyPLLy"></path><path d="M293.57 206.03L257.9 202.07L248.36 179.57L260.2 180.06L269.34 194.76L315.58 195.38L318.23 197.06L293.57 206.03" id="a94vBaGG74"></path><path d="M293.57 206.03L257.9 202.07L248.36 179.57L260.2 180.06L269.34 194.76L315.58 195.38L318.23 197.06L293.57 206.03" id="c44LGw80em"></path><path d="M258.3 179.98L257.13 174.09L248.33 170.89C248.01 171.92 247.84 172.49 247.8 172.61C249.68 173.5 250.71 173.99 250.92 174.09C250.92 174.09 251.7 175.81 253.89 176.67C253.64 177.65 251.96 179.74 251.96 179.74C252.37 179.75 254.49 179.84 258.3 179.98" id="bdJdAcBNI"></path><path d="M258.3 179.98L257.13 174.09L248.33 170.89C248.01 171.92 247.84 172.49 247.8 172.61C249.68 173.5 250.71 173.99 250.92 174.09C250.92 174.09 251.7 175.81 253.89 176.67C253.64 177.65 251.96 179.74 251.96 179.74C252.37 179.75 254.49 179.84 258.3 179.98" id="fHkpgKaDb"></path><path d="M854.41 199.67C789.31 168.77 753.15 151.61 745.91 148.18C736.8 143.85 722.02 143.85 712.9 148.18C702.06 153.33 615.25 194.51 604.4 199.67C595.28 203.99 595.28 210.99 604.4 215.32C615.25 220.47 702.06 261.65 712.9 266.81C722.02 271.13 736.8 271.13 745.91 266.81C756.76 261.65 843.56 220.47 854.41 215.32C863.53 210.99 863.53 203.99 854.41 199.67" id="aiOZGhsDK"></path><path d="M854.41 199.67C789.31 168.77 753.15 151.61 745.91 148.18C736.8 143.85 722.02 143.85 712.9 148.18C702.06 153.33 615.25 194.51 604.4 199.67C595.28 203.99 595.28 210.99 604.4 215.32C615.25 220.47 702.06 261.65 712.9 266.81C722.02 271.13 736.8 271.13 745.91 266.81C756.76 261.65 843.56 220.47 854.41 215.32C863.53 210.99 863.53 203.99 854.41 199.67" id="d39nar9P64"></path><path d="M780.04 211.81C780.04 200.84 780.04 194.76 780.04 193.54C780.04 180.29 757.32 169.51 729.41 169.51C701.49 169.51 678.77 180.29 678.77 193.54C678.77 196.35 678.77 210.39 678.77 235.68C681.25 235.68 701.07 235.68 703.55 235.68C703.55 210.39 703.55 196.35 703.55 193.54C703.55 186.78 715.15 181.27 729.41 181.27C743.66 181.27 755.26 186.78 755.26 193.54C755.26 194.76 755.26 200.84 755.26 211.81C753.49 211.81 744.63 211.81 728.68 211.81L767.65 235.68L806.63 211.81L780.04 211.81" id="a1zFsjNiSY"></path><path d="M780.04 211.81C780.04 200.84 780.04 194.76 780.04 193.54C780.04 180.29 757.32 169.51 729.41 169.51C701.49 169.51 678.77 180.29 678.77 193.54C678.77 196.35 678.77 210.39 678.77 235.68C681.25 235.68 701.07 235.68 703.55 235.68C703.55 210.39 703.55 196.35 703.55 193.54C703.55 186.78 715.15 181.27 729.41 181.27C743.66 181.27 755.26 186.78 755.26 193.54C755.26 194.76 755.26 200.84 755.26 211.81C753.49 211.81 744.63 211.81 728.68 211.81L767.65 235.68L806.63 211.81L780.04 211.81" id="e457FxsgtF"></path><path d="M449.71 220.67C431.8 212.17 407.99 207.49 382.66 207.49C357.34 207.49 333.53 212.17 315.62 220.67C297.72 229.16 287.85 240.46 287.85 252.48C287.85 264.49 297.72 275.79 315.62 284.29C333.53 292.78 357.34 297.47 382.66 297.47C407.99 297.47 431.8 292.78 449.71 284.29C467.61 275.79 477.48 264.49 477.48 252.48C477.48 240.46 467.61 229.16 449.71 220.67" id="d3keVFiiLn"></path><path d="M449.71 220.67C431.8 212.17 407.99 207.49 382.66 207.49C357.34 207.49 333.53 212.17 315.62 220.67C297.72 229.16 287.85 240.46 287.85 252.48C287.85 264.49 297.72 275.79 315.62 284.29C333.53 292.78 357.34 297.47 382.66 297.47C407.99 297.47 431.8 292.78 449.71 284.29C467.61 275.79 477.48 264.49 477.48 252.48C477.48 240.46 467.61 229.16 449.71 220.67" id="jlzcS4CdJ"></path><path d="M470.77 252.48C470.77 229.39 431.33 210.67 382.66 210.67C334 210.67 294.55 229.39 294.55 252.48C294.55 275.57 334 294.29 382.66 294.29C431.33 294.29 470.77 275.57 470.77 252.48" id="e3ydt4dw8E"></path><path d="M470.77 252.48C470.77 229.39 431.33 210.67 382.66 210.67C334 210.67 294.55 229.39 294.55 252.48C294.55 275.57 334 294.29 382.66 294.29C431.33 294.29 470.77 275.57 470.77 252.48" id="a3Gsa8nIMP"></path><path d="M449.86 245.92L315.47 245.92L315.47 259.04L449.86 259.04L449.86 245.92" id="bt1961p7h"></path><path d="M449.86 245.92L315.47 245.92L315.47 259.04L449.86 259.04L449.86 245.92" id="e1bFAG7oRq"></path><path d="M212.67 137.94L215.75 130.94L209.81 128.39L205.32 130.91L204.06 133.76L200.25 134.1L202.13 139L212.67 137.94" id="j14zMz9kdh"></path><path d="M212.67 137.94L215.75 130.94L209.81 128.39L205.32 130.91L204.06 133.76L200.25 134.1L202.13 139L212.67 137.94" id="hHFBx3KBt"></path><path d="M166.96 179.17L193.91 170.06L202.13 139L212.67 137.94L212.22 170.23L204.81 177.56L173.08 191.27L166.96 179.17" id="aJUfrgk96"></path><path d="M166.96 179.17L193.91 170.06L202.13 139L212.67 137.94L212.22 170.23L204.81 177.56L173.08 191.27L166.96 179.17" id="a4x1WmFHZ"></path><path d="M144.33 215.68C144.33 197.19 112.73 182.2 73.77 182.2C34.79 182.2 3.19 197.19 3.19 215.68C3.19 234.17 34.79 249.16 73.77 249.16C112.73 249.16 144.33 234.17 144.33 215.68" id="a7uMhlyi0K"></path><path d="M144.33 215.68C144.33 197.19 112.73 182.2 73.77 182.2C34.79 182.2 3.19 197.19 3.19 215.68C3.19 234.17 34.79 249.16 73.77 249.16C112.73 249.16 144.33 234.17 144.33 215.68" id="bgZyIlpnQ"></path><path d="M110.62 209.52L76.78 197.08C76.78 201.98 76.78 204.71 76.78 205.25C71.15 205.25 68.02 205.25 67.4 205.25C50.59 205.25 36.91 211.75 36.91 219.72C36.91 220.69 36.91 225.55 36.91 234.27C38.71 234.27 53.1 234.27 54.9 234.27C54.9 225.55 54.9 220.69 54.9 219.72C54.9 216.45 60.5 213.79 67.4 213.79C68.02 213.79 71.15 213.79 76.78 213.79C76.78 214.34 76.78 217.06 76.78 221.96L110.62 209.52" id="cc26Gskp6"></path><path d="M110.62 209.52L76.78 197.08C76.78 201.98 76.78 204.71 76.78 205.25C71.15 205.25 68.02 205.25 67.4 205.25C50.59 205.25 36.91 211.75 36.91 219.72C36.91 220.69 36.91 225.55 36.91 234.27C38.71 234.27 53.1 234.27 54.9 234.27C54.9 225.55 54.9 220.69 54.9 219.72C54.9 216.45 60.5 213.79 67.4 213.79C68.02 213.79 71.15 213.79 76.78 213.79C76.78 214.34 76.78 217.06 76.78 221.96L110.62 209.52" id="b2eXKPUrPr"></path><path d="M277.77 139.58C215.22 86.19 180.49 56.54 173.53 50.6C168.8 46.56 156.64 46.47 151.63 50.43C140.6 59.16 52.37 129.02 41.34 137.75C36.33 141.71 42.24 146.77 51.98 146.84C73.43 147 245.05 148.34 266.51 148.5C276.24 148.57 282.5 143.62 277.77 139.58" id="ekIhfvs0s"></path><path d="M277.77 139.58C215.22 86.19 180.49 56.54 173.53 50.6C168.8 46.56 156.64 46.47 151.63 50.43C140.6 59.16 52.37 129.02 41.34 137.75C36.33 141.71 42.24 146.77 51.98 146.84C73.43 147 245.05 148.34 266.51 148.5C276.24 148.57 282.5 143.62 277.77 139.58" id="h7r7Pt5IyL"></path><path d="M173.98 123.62L173.54 136.66L145.72 136.45L146.16 123.41L173.98 123.62ZM152.5 117.94L145.64 78.69L177.57 79.01L168.2 118.07L152.5 117.94" id="b6UrzxPri"></path><path d="M173.98 123.62L173.54 136.66L145.72 136.45L146.16 123.41L173.98 123.62ZM152.5 117.94L145.64 78.69L177.57 79.01L168.2 118.07L152.5 117.94" id="bm495WASz"></path></defs><g><g><g><use xlink:href="#b1kyTQTNXt" opacity="1" fill="#f2f2f2" fill-opacity="1"></use><g><use xlink:href="#b1kyTQTNXt" opacity="1" fill-opacity="0" stroke="#000000" stroke-width="1" stroke-opacity="0"></use></g></g><g><use xlink:href="#iy9bsffdX" opacity="1" fill="#ffffff" fill-opacity="1"></use><g><use xlink:href="#iy9bsffdX" opacity="1" fill-opacity="0" stroke="#000000" stroke-width="1" stroke-opacity="0"></use></g></g><g><use xlink:href="#d2P3pg7gQU" opacity="1" fill="#9e9379" fill-opacity="1"></use><g><use xlink:href="#d2P3pg7gQU" opacity="1" fill-opacity="0" stroke="#000000" stroke-width="1" stroke-opacity="0"></use></g></g><g><use xlink:href="#c1tp74BFDQ" opacity="1" fill="#000000" fill-opacity="0"></use><g><use xlink:href="#c1tp74BFDQ" opacity="1" fill-opacity="0" stroke="#000000" stroke-width="1" stroke-opacity="0"></use></g></g><g><use xlink:href="#fetCw0Oiq" opacity="1" fill="#556362" fill-opacity="1"></use><g><use xlink:href="#fetCw0Oiq" opacity="1" fill-opacity="0" stroke="#000000" stroke-width="1" stroke-opacity="0"></use></g></g><g><use xlink:href="#gS7Is1p6D" opacity="1" fill="#000000" fill-opacity="0"></use><g><use xlink:href="#gS7Is1p6D" opacity="1" fill-opacity="0" stroke="#000000" stroke-width="1" stroke-opacity="0"></use></g></g><g><use xlink:href="#b3kNjejSsq" opacity="1" fill="#9e9379" fill-opacity="1"></use><g><use xlink:href="#b3kNjejSsq" opacity="1" fill-opacity="0" stroke="#000000" stroke-width="1" stroke-opacity="0"></use></g></g><g><use xlink:href="#a2L7eQR1qY" opacity="1" fill="#000000" fill-opacity="0"></use><g><use xlink:href="#a2L7eQR1qY" opacity="1" fill-opacity="0" stroke="#000000" stroke-width="1" stroke-opacity="0"></use></g></g><g><use xlink:href="#km8CY48qn" opacity="1" fill="#556362" fill-opacity="1"></use><g><use xlink:href="#km8CY48qn" opacity="1" fill-opacity="0" stroke="#000000" stroke-width="1" stroke-opacity="0"></use></g></g><g><use xlink:href="#a60QWm2rDP" opacity="1" fill="#000000" fill-opacity="0"></use><g><use xlink:href="#a60QWm2rDP" opacity="1" fill-opacity="0" stroke="#000000" stroke-width="1" stroke-opacity="0"></use></g></g><g><use xlink:href="#gwZCluRzi" opacity="1" fill="#a9b4b9" fill-opacity="1"></use><g><use xlink:href="#gwZCluRzi" opacity="1" fill-opacity="0" stroke="#000000" stroke-width="1" stroke-opacity="0"></use></g></g><g><use xlink:href="#aeUvkPtN" opacity="1" fill="#000000" fill-opacity="0"></use><g><use xlink:href="#aeUvkPtN" opacity="1" fill-opacity="0" stroke="#000000" stroke-width="1" stroke-opacity="0"></use></g></g><g><use xlink:href="#l185wXLjg7" opacity="1" fill="#80725c" fill-opacity="1"></use><g><use xlink:href="#l185wXLjg7" opacity="1" fill-opacity="0" stroke="#000000" stroke-width="1" stroke-opacity="0"></use></g></g><g><use xlink:href="#b1LIMHQGET" opacity="1" fill="#000000" fill-opacity="0"></use><g><use xlink:href="#b1LIMHQGET" opacity="1" fill-opacity="0" stroke="#000000" stroke-width="1" stroke-opacity="0"></use></g></g><g><use xlink:href="#am9yFWKet" opacity="1" fill="#4f4b47" fill-opacity="1"></use><g><use xlink:href="#am9yFWKet" opacity="1" fill-opacity="0" stroke="#000000" stroke-width="1" stroke-opacity="0"></use></g></g><g><use xlink:href="#b4HCwcR9e" opacity="1" fill="#000000" fill-opacity="0"></use><g><use xlink:href="#b4HCwcR9e" opacity="1" fill-opacity="0" stroke="#000000" stroke-width="1" stroke-opacity="0"></use></g></g><g><use xlink:href="#ano3F58z1" opacity="1" fill="#a9b4b9" fill-opacity="1"></use><g><use xlink:href="#ano3F58z1" opacity="1" fill-opacity="0" stroke="#000000" stroke-width="1" stroke-opacity="0"></use></g></g><g><use xlink:href="#apgeWYep" opacity="1" fill="#000000" fill-opacity="0"></use><g><use xlink:href="#apgeWYep" opacity="1" fill-opacity="0" stroke="#000000" stroke-width="1" stroke-opacity="0"></use></g></g><g><use xlink:href="#a4GMOG1qf" opacity="1" fill="#dedfde" fill-opacity="1"></use><g><use xlink:href="#a4GMOG1qf" opacity="1" fill-opacity="0" stroke="#000000" stroke-width="1" stroke-opacity="0"></use></g></g><g><use xlink:href="#b90x9GNSyO" opacity="1" fill="#000000" fill-opacity="0"></use><g><use xlink:href="#b90x9GNSyO" opacity="1" fill-opacity="0" stroke="#000000" stroke-width="1" stroke-opacity="0"></use></g></g><g><use xlink:href="#c3YYY8aoRT" opacity="1" fill="#c32d2e" fill-opacity="1"></use><g><use xlink:href="#c3YYY8aoRT" opacity="1" fill-opacity="0" stroke="#000000" stroke-width="1" stroke-opacity="0"></use></g></g><g><use xlink:href="#b12EXj5ubo" opacity="1" fill="#000000" fill-opacity="0"></use><g><use xlink:href="#b12EXj5ubo" opacity="1" fill-opacity="0" stroke="#000000" stroke-width="1" stroke-opacity="0"></use></g></g><g><use xlink:href="#bDBUFwOT5" opacity="1" fill="#ffffff" fill-opacity="1"></use><g><use xlink:href="#bDBUFwOT5" opacity="1" fill-opacity="0" stroke="#000000" stroke-width="1" stroke-opacity="0"></use></g></g><g><use xlink:href="#aMIOXChM" opacity="1" fill="#000000" fill-opacity="0"></use><g><use xlink:href="#aMIOXChM" opacity="1" fill-opacity="0" stroke="#000000" stroke-width="1" stroke-opacity="0"></use></g></g><g><use xlink:href="#c2ovspec4N" opacity="1" fill="#ffffff" fill-opacity="1"></use><g><use xlink:href="#c2ovspec4N" opacity="1" fill-opacity="0" stroke="#000000" stroke-width="1" stroke-opacity="0"></use></g></g><g><use xlink:href="#aR2dOKC7" opacity="1" fill="#000000" fill-opacity="0"></use><g><use xlink:href="#aR2dOKC7" opacity="1" fill-opacity="0" stroke="#000000" stroke-width="1" stroke-opacity="0"></use></g></g><g><use xlink:href="#a1fhSb9h4N" opacity="1" fill="#ffffff" fill-opacity="1"></use><g><use xlink:href="#a1fhSb9h4N" opacity="1" fill-opacity="0" stroke="#000000" stroke-width="1" stroke-opacity="0"></use></g></g><g><use xlink:href="#btXcQZjgE" opacity="1" fill="#000000" fill-opacity="0"></use><g><use xlink:href="#btXcQZjgE" opacity="1" fill-opacity="0" stroke="#000000" stroke-width="1" stroke-opacity="0"></use></g></g><g><use xlink:href="#a5HNwNwV1k" opacity="1" fill="#ffffff" fill-opacity="1"></use><g><use xlink:href="#a5HNwNwV1k" opacity="1" fill-opacity="0" stroke="#000000" stroke-width="1" stroke-opacity="0"></use></g></g><g><use xlink:href="#d2IY1cPCsi" opacity="1" fill="#000000" fill-opacity="0"></use><g><use xlink:href="#d2IY1cPCsi" opacity="1" fill-opacity="0" stroke="#000000" stroke-width="1" stroke-opacity="0"></use></g></g><g><use xlink:href="#b50Bii4Qrw" opacity="1" fill="#40495f" fill-opacity="1"></use><g><use xlink:href="#b50Bii4Qrw" opacity="1" fill-opacity="0" stroke="#000000" stroke-width="1" stroke-opacity="0"></use></g></g><g><use xlink:href="#mcYIN3x3B" opacity="1" fill="#000000" fill-opacity="0"></use><g><use xlink:href="#mcYIN3x3B" opacity="1" fill-opacity="0" stroke="#000000" stroke-width="1" stroke-opacity="0"></use></g></g><g><use xlink:href="#eTa0Ef2PJ" opacity="1" fill="#687081" fill-opacity="1"></use><g><use xlink:href="#eTa0Ef2PJ" opacity="1" fill-opacity="0" stroke="#000000" stroke-width="1" stroke-opacity="0"></use></g></g><g><use xlink:href="#f5BMsYv18" opacity="1" fill="#000000" fill-opacity="0"></use><g><use xlink:href="#f5BMsYv18" opacity="1" fill-opacity="0" stroke="#000000" stroke-width="1" stroke-opacity="0"></use></g></g><g><use xlink:href="#aeKL11x7p" opacity="1" fill="#687081" fill-opacity="1"></use><g><use xlink:href="#aeKL11x7p" opacity="1" fill-opacity="0" stroke="#000000" stroke-width="1" stroke-opacity="0"></use></g></g><g><use xlink:href="#cvQaBUbZ8" opacity="1" fill="#000000" fill-opacity="0"></use><g><use xlink:href="#cvQaBUbZ8" opacity="1" fill-opacity="0" stroke="#000000" stroke-width="1" stroke-opacity="0"></use></g></g><g><use xlink:href="#c8iryQ3vp" opacity="1" fill="#40495f" fill-opacity="1"></use><g><use xlink:href="#c8iryQ3vp" opacity="1" fill-opacity="0" stroke="#000000" stroke-width="1" stroke-opacity="0"></use></g></g><g><use xlink:href="#d2IJkZE85Y" opacity="1" fill="#000000" fill-opacity="0"></use><g><use xlink:href="#d2IJkZE85Y" opacity="1" fill-opacity="0" stroke="#000000" stroke-width="1" stroke-opacity="0"></use></g></g><g><use xlink:href="#dhIQ0ZRz6" opacity="1" fill="#6b827c" fill-opacity="1"></use><g><use xlink:href="#dhIQ0ZRz6" opacity="1" fill-opacity="0" stroke="#000000" stroke-width="1" stroke-opacity="0"></use></g></g><g><use xlink:href="#e73SiuwU0" opacity="1" fill="#000000" fill-opacity="0"></use><g><use xlink:href="#e73SiuwU0" opacity="1" fill-opacity="0" stroke="#000000" stroke-width="1" stroke-opacity="0"></use></g></g><g><use xlink:href="#a1RY5q66GS" opacity="1" fill="#d8c9ae" fill-opacity="1"></use><g><use xlink:href="#a1RY5q66GS" opacity="1" fill-opacity="0" stroke="#000000" stroke-width="1" stroke-opacity="0"></use></g></g><g><use xlink:href="#b4ky8SoiDn" opacity="1" fill="#000000" fill-opacity="0"></use><g><use xlink:href="#b4ky8SoiDn" opacity="1" fill-opacity="0" stroke="#000000" stroke-width="1" stroke-opacity="0"></use></g></g><g><use xlink:href="#b4Pllt2GDh" opacity="1" fill="#3b3631" fill-opacity="1"></use><g><use xlink:href="#b4Pllt2GDh" opacity="1" fill-opacity="0" stroke="#000000" stroke-width="1" stroke-opacity="0"></use></g></g><g><use xlink:href="#d2YQvB9Ja" opacity="1" fill="#000000" fill-opacity="0"></use><g><use xlink:href="#d2YQvB9Ja" opacity="1" fill-opacity="0" stroke="#000000" stroke-width="1" stroke-opacity="0"></use></g></g><g><use xlink:href="#bJsN8D8e" opacity="1" fill="#6b827c" fill-opacity="1"></use><g><use xlink:href="#bJsN8D8e" opacity="1" fill-opacity="0" stroke="#000000" stroke-width="1" stroke-opacity="0"></use></g></g><g><use xlink:href="#b5B6AMrbZw" opacity="1" fill="#000000" fill-opacity="0"></use><g><use xlink:href="#b5B6AMrbZw" opacity="1" fill-opacity="0" stroke="#000000" stroke-width="1" stroke-opacity="0"></use></g></g><g><use xlink:href="#bEV0puKWb" opacity="1" fill="#d9caaf" fill-opacity="1"></use><g><use xlink:href="#bEV0puKWb" opacity="1" fill-opacity="0" stroke="#000000" stroke-width="1" stroke-opacity="0"></use></g></g><g><use xlink:href="#b47nHdVha" opacity="1" fill="#000000" fill-opacity="0"></use><g><use xlink:href="#b47nHdVha" opacity="1" fill-opacity="0" stroke="#000000" stroke-width="1" stroke-opacity="0"></use></g></g><g><use xlink:href="#evTPBJma4" opacity="1" fill="#6b827c" fill-opacity="1"></use><g><use xlink:href="#evTPBJma4" opacity="1" fill-opacity="0" stroke="#000000" stroke-width="1" stroke-opacity="0"></use></g></g><g><use xlink:href="#glTfxY6ch" opacity="1" fill="#000000" fill-opacity="0"></use><g><use xlink:href="#glTfxY6ch" opacity="1" fill-opacity="0" stroke="#000000" stroke-width="1" stroke-opacity="0"></use></g></g><g><use xlink:href="#aWOP1rtUn" opacity="1" fill="#59595b" fill-opacity="1"></use><g><use xlink:href="#aWOP1rtUn" opacity="1" fill-opacity="0" stroke="#000000" stroke-width="1" stroke-opacity="0"></use></g></g><g><use xlink:href="#a2eMoMT1Pw" opacity="1" fill="#000000" fill-opacity="0"></use><g><use xlink:href="#a2eMoMT1Pw" opacity="1" fill-opacity="0" stroke="#000000" stroke-width="1" stroke-opacity="0"></use></g></g><g><use xlink:href="#f3MHhmsxPT" opacity="1" fill="#2e4661" fill-opacity="1"></use><g><use xlink:href="#f3MHhmsxPT" opacity="1" fill-opacity="0" stroke="#000000" stroke-width="1" stroke-opacity="0"></use></g></g><g><use xlink:href="#b8Qc1Deg1" opacity="1" fill="#000000" fill-opacity="0"></use><g><use xlink:href="#b8Qc1Deg1" opacity="1" fill-opacity="0" stroke="#000000" stroke-width="1" stroke-opacity="0"></use></g></g><g><use xlink:href="#a5gcjWo4qb" opacity="1" fill="#2e4661" fill-opacity="1"></use><g><use xlink:href="#a5gcjWo4qb" opacity="1" fill-opacity="0" stroke="#000000" stroke-width="1" stroke-opacity="0"></use></g></g><g><use xlink:href="#aNlHSKJ37" opacity="1" fill="#000000" fill-opacity="0"></use><g><use xlink:href="#aNlHSKJ37" opacity="1" fill-opacity="0" stroke="#000000" stroke-width="1" stroke-opacity="0"></use></g></g><g><use xlink:href="#dlZuVca6t" opacity="1" fill="#59595b" fill-opacity="1"></use><g><use xlink:href="#dlZuVca6t" opacity="1" fill-opacity="0" stroke="#000000" stroke-width="1" stroke-opacity="0"></use></g></g><g><use xlink:href="#bhpcTJbEx" opacity="1" fill="#000000" fill-opacity="0"></use><g><use xlink:href="#bhpcTJbEx" opacity="1" fill-opacity="0" stroke="#000000" stroke-width="1" stroke-opacity="0"></use></g></g><g><use xlink:href="#cg4XqRet7" opacity="1" fill="#dad9ca" fill-opacity="1"></use><g><use xlink:href="#cg4XqRet7" opacity="1" fill-opacity="0" stroke="#000000" stroke-width="1" stroke-opacity="0"></use></g></g><g><use xlink:href="#h5M8seTRMt" opacity="1" fill="#000000" fill-opacity="0"></use><g><use xlink:href="#h5M8seTRMt" opacity="1" fill-opacity="0" stroke="#000000" stroke-width="1" stroke-opacity="0"></use></g></g><g><use xlink:href="#dhqHWZ3Lp" opacity="1" fill="#dad9ca" fill-opacity="1"></use><g><use xlink:href="#dhqHWZ3Lp" opacity="1" fill-opacity="0" stroke="#000000" stroke-width="1" stroke-opacity="0"></use></g></g><g><use xlink:href="#a54km591CY" opacity="1" fill="#000000" fill-opacity="0"></use><g><use xlink:href="#a54km591CY" opacity="1" fill-opacity="0" stroke="#000000" stroke-width="1" stroke-opacity="0"></use></g></g><g><use xlink:href="#e2H1kUJVfm" opacity="1" fill="#dad9ca" fill-opacity="1"></use><g><use xlink:href="#e2H1kUJVfm" opacity="1" fill-opacity="0" stroke="#000000" stroke-width="1" stroke-opacity="0"></use></g></g><g><use xlink:href="#a4Go1oYQjV" opacity="1" fill="#000000" fill-opacity="0"></use><g><use xlink:href="#a4Go1oYQjV" opacity="1" fill-opacity="0" stroke="#000000" stroke-width="1" stroke-opacity="0"></use></g></g><g><use xlink:href="#b1jdWOXaaE" opacity="1" fill="#b99a6f" fill-opacity="1"></use><g><use xlink:href="#b1jdWOXaaE" opacity="1" fill-opacity="0" stroke="#000000" stroke-width="1" stroke-opacity="0"></use></g></g><g><use xlink:href="#h1IqTHITq7" opacity="1" fill="#000000" fill-opacity="0"></use><g><use xlink:href="#h1IqTHITq7" opacity="1" fill-opacity="0" stroke="#000000" stroke-width="1" stroke-opacity="0"></use></g></g><g><use xlink:href="#arRdiq8Wl" opacity="1" fill="#483d3f" fill-opacity="1"></use><g><use xlink:href="#arRdiq8Wl" opacity="1" fill-opacity="0" stroke="#000000" stroke-width="1" stroke-opacity="0"></use></g></g><g><use xlink:href="#a2Vv0kVhoZ" opacity="1" fill="#000000" fill-opacity="0"></use><g><use xlink:href="#a2Vv0kVhoZ" opacity="1" fill-opacity="0" stroke="#000000" stroke-width="1" stroke-opacity="0"></use></g></g><g><use xlink:href="#h2j1lafzWC" opacity="1" fill="#483d3f" fill-opacity="1"></use><g><use xlink:href="#h2j1lafzWC" opacity="1" fill-opacity="0" stroke="#000000" stroke-width="1" stroke-opacity="0"></use></g></g><g><use xlink:href="#c9KrAydgR" opacity="1" fill="#000000" fill-opacity="0"></use><g><use xlink:href="#c9KrAydgR" opacity="1" fill-opacity="0" stroke="#000000" stroke-width="1" stroke-opacity="0"></use></g></g><g><use xlink:href="#b1I03FIx7r" opacity="1" fill="#dad9ca" fill-opacity="1"></use><g><use xlink:href="#b1I03FIx7r" opacity="1" fill-opacity="0" stroke="#000000" stroke-width="1" stroke-opacity="0"></use></g></g><g><use xlink:href="#agi4o5bOv" opacity="1" fill="#000000" fill-opacity="0"></use><g><use xlink:href="#agi4o5bOv" opacity="1" fill-opacity="0" stroke="#000000" stroke-width="1" stroke-opacity="0"></use></g></g><g><use xlink:href="#a7Hc1n1kK" opacity="1" fill="#b99a6f" fill-opacity="1"></use><g><use xlink:href="#a7Hc1n1kK" opacity="1" fill-opacity="0" stroke="#000000" stroke-width="1" stroke-opacity="0"></use></g></g><g><use xlink:href="#b1hUht7BnW" opacity="1" fill="#000000" fill-opacity="0"></use><g><use xlink:href="#b1hUht7BnW" opacity="1" fill-opacity="0" stroke="#000000" stroke-width="1" stroke-opacity="0"></use></g></g><g><use xlink:href="#agvQbwXt9" opacity="1" fill="#b99a6f" fill-opacity="1"></use><g><use xlink:href="#agvQbwXt9" opacity="1" fill-opacity="0" stroke="#000000" stroke-width="1" stroke-opacity="0"></use></g></g><g><use xlink:href="#aAcV8LAhI" opacity="1" fill="#000000" fill-opacity="0"></use><g><use xlink:href="#aAcV8LAhI" opacity="1" fill-opacity="0" stroke="#000000" stroke-width="1" stroke-opacity="0"></use></g></g><g><use xlink:href="#bUXWrnNt0" opacity="1" fill="#2e4661" fill-opacity="1"></use><g><use xlink:href="#bUXWrnNt0" opacity="1" fill-opacity="0" stroke="#000000" stroke-width="1" stroke-opacity="0"></use></g></g><g><use xlink:href="#a5d9rwpB3p" opacity="1" fill="#000000" fill-opacity="0"></use><g><use xlink:href="#a5d9rwpB3p" opacity="1" fill-opacity="0" stroke="#000000" stroke-width="1" stroke-opacity="0"></use></g></g><g><use xlink:href="#b4zctdj83F" opacity="1" fill="#2e4661" fill-opacity="1"></use><g><use xlink:href="#b4zctdj83F" opacity="1" fill-opacity="0" stroke="#000000" stroke-width="1" stroke-opacity="0"></use></g></g><g><use xlink:href="#a1XdTjoVDw" opacity="1" fill="#000000" fill-opacity="0"></use><g><use xlink:href="#a1XdTjoVDw" opacity="1" fill-opacity="0" stroke="#000000" stroke-width="1" stroke-opacity="0"></use></g></g><g><use xlink:href="#aafNUSCrK" opacity="1" fill="#59595b" fill-opacity="1"></use><g><use xlink:href="#aafNUSCrK" opacity="1" fill-opacity="0" stroke="#000000" stroke-width="1" stroke-opacity="0"></use></g></g><g><use xlink:href="#cHBDN0ckJ" opacity="1" fill="#000000" fill-opacity="0"></use><g><use xlink:href="#cHBDN0ckJ" opacity="1" fill-opacity="0" stroke="#000000" stroke-width="1" stroke-opacity="0"></use></g></g><g><use xlink:href="#bOc0ZsOrD" opacity="1" fill="#59595b" fill-opacity="1"></use><g><use xlink:href="#bOc0ZsOrD" opacity="1" fill-opacity="0" stroke="#000000" stroke-width="1" stroke-opacity="0"></use></g></g><g><use xlink:href="#b4Y4Ucdo87" opacity="1" fill="#000000" fill-opacity="0"></use><g><use xlink:href="#b4Y4Ucdo87" opacity="1" fill-opacity="0" stroke="#000000" stroke-width="1" stroke-opacity="0"></use></g></g><g><use xlink:href="#b6pukck9K" opacity="1" fill="#40495f" fill-opacity="1"></use><g><use xlink:href="#b6pukck9K" opacity="1" fill-opacity="0" stroke="#000000" stroke-width="1" stroke-opacity="0"></use></g></g><g><use xlink:href="#btZBoRcvg" opacity="1" fill="#000000" fill-opacity="0"></use><g><use xlink:href="#btZBoRcvg" opacity="1" fill-opacity="0" stroke="#000000" stroke-width="1" stroke-opacity="0"></use></g></g><g><use xlink:href="#a9iuL2XquT" opacity="1" fill="#ffffff" fill-opacity="1"></use><g><use xlink:href="#a9iuL2XquT" opacity="1" fill-opacity="0" stroke="#000000" stroke-width="1" stroke-opacity="0"></use></g></g><g><use xlink:href="#bze7zcHpC" opacity="1" fill="#000000" fill-opacity="0"></use><g><use xlink:href="#bze7zcHpC" opacity="1" fill-opacity="0" stroke="#000000" stroke-width="1" stroke-opacity="0"></use></g></g><g><use xlink:href="#aEM66FwEI" opacity="1" fill="#ebceb1" fill-opacity="1"></use><g><use xlink:href="#aEM66FwEI" opacity="1" fill-opacity="0" stroke="#000000" stroke-width="1" stroke-opacity="0"></use></g></g><g><use xlink:href="#bCnDyd6xv" opacity="1" fill="#000000" fill-opacity="0"></use><g><use xlink:href="#bCnDyd6xv" opacity="1" fill-opacity="0" stroke="#000000" stroke-width="1" stroke-opacity="0"></use></g></g><g><use xlink:href="#d6e0Isc38n" opacity="1" fill="#40495f" fill-opacity="1"></use><g><use xlink:href="#d6e0Isc38n" opacity="1" fill-opacity="0" stroke="#000000" stroke-width="1" stroke-opacity="0"></use></g></g><g><use xlink:href="#b7BJnOxbr0" opacity="1" fill="#000000" fill-opacity="0"></use><g><use xlink:href="#b7BJnOxbr0" opacity="1" fill-opacity="0" stroke="#000000" stroke-width="1" stroke-opacity="0"></use></g></g><g><use xlink:href="#ajbH2ntVs" opacity="1" fill="#a19465" fill-opacity="1"></use><g><use xlink:href="#ajbH2ntVs" opacity="1" fill-opacity="0" stroke="#000000" stroke-width="1" stroke-opacity="0"></use></g></g><g><use xlink:href="#bmcUYZCBN" opacity="1" fill="#000000" fill-opacity="0"></use><g><use xlink:href="#bmcUYZCBN" opacity="1" fill-opacity="0" stroke="#000000" stroke-width="1" stroke-opacity="0"></use></g></g><g><use xlink:href="#a19AU0VQZQ" opacity="1" fill="#eacdb0" fill-opacity="1"></use><g><use xlink:href="#a19AU0VQZQ" opacity="1" fill-opacity="0" stroke="#000000" stroke-width="1" stroke-opacity="0"></use></g></g><g><use xlink:href="#aQYwqAukR" opacity="1" fill="#000000" fill-opacity="0"></use><g><use xlink:href="#aQYwqAukR" opacity="1" fill-opacity="0" stroke="#000000" stroke-width="1" stroke-opacity="0"></use></g></g><g><use xlink:href="#eiJeZOT4z" opacity="1" fill="#a19465" fill-opacity="1"></use><g><use xlink:href="#eiJeZOT4z" opacity="1" fill-opacity="0" stroke="#000000" stroke-width="1" stroke-opacity="0"></use></g></g><g><use xlink:href="#b2C5FyPLLy" opacity="1" fill="#000000" fill-opacity="0"></use><g><use xlink:href="#b2C5FyPLLy" opacity="1" fill-opacity="0" stroke="#000000" stroke-width="1" stroke-opacity="0"></use></g></g><g><use xlink:href="#a94vBaGG74" opacity="1" fill="#40495f" fill-opacity="1"></use><g><use xlink:href="#a94vBaGG74" opacity="1" fill-opacity="0" stroke="#000000" stroke-width="1" stroke-opacity="0"></use></g></g><g><use xlink:href="#c44LGw80em" opacity="1" fill="#000000" fill-opacity="0"></use><g><use xlink:href="#c44LGw80em" opacity="1" fill-opacity="0" stroke="#000000" stroke-width="1" stroke-opacity="0"></use></g></g><g><use xlink:href="#bdJdAcBNI" opacity="1" fill="#ebceb1" fill-opacity="1"></use><g><use xlink:href="#bdJdAcBNI" opacity="1" fill-opacity="0" stroke="#000000" stroke-width="1" stroke-opacity="0"></use></g></g><g><use xlink:href="#fHkpgKaDb" opacity="1" fill="#000000" fill-opacity="0"></use><g><use xlink:href="#fHkpgKaDb" opacity="1" fill-opacity="0" stroke="#000000" stroke-width="1" stroke-opacity="0"></use></g></g><g><use xlink:href="#aiOZGhsDK" opacity="1" fill="#f1c831" fill-opacity="1"></use><g><use xlink:href="#aiOZGhsDK" opacity="1" fill-opacity="0" stroke="#000000" stroke-width="1" stroke-opacity="0"></use></g></g><g><use xlink:href="#d39nar9P64" opacity="1" fill="#000000" fill-opacity="0"></use><g><use xlink:href="#d39nar9P64" opacity="1" fill-opacity="0" stroke="#000000" stroke-width="1" stroke-opacity="0"></use></g></g><g><use xlink:href="#a1zFsjNiSY" opacity="1" fill="#272525" fill-opacity="1"></use><g><use xlink:href="#a1zFsjNiSY" opacity="1" fill-opacity="0" stroke="#000000" stroke-width="1" stroke-opacity="0"></use></g></g><g><use xlink:href="#e457FxsgtF" opacity="1" fill="#000000" fill-opacity="0"></use><g><use xlink:href="#e457FxsgtF" opacity="1" fill-opacity="0" stroke="#000000" stroke-width="1" stroke-opacity="0"></use></g></g><g><use xlink:href="#d3keVFiiLn" opacity="1" fill="#dedfde" fill-opacity="1"></use><g><use xlink:href="#d3keVFiiLn" opacity="1" fill-opacity="0" stroke="#000000" stroke-width="1" stroke-opacity="0"></use></g></g><g><use xlink:href="#jlzcS4CdJ" opacity="1" fill="#000000" fill-opacity="0"></use><g><use xlink:href="#jlzcS4CdJ" opacity="1" fill-opacity="0" stroke="#000000" stroke-width="1" stroke-opacity="0"></use></g></g><g><use xlink:href="#e3ydt4dw8E" opacity="1" fill="#c32d2e" fill-opacity="1"></use><g><use xlink:href="#e3ydt4dw8E" opacity="1" fill-opacity="0" stroke="#000000" stroke-width="1" stroke-opacity="0"></use></g></g><g><use xlink:href="#a3Gsa8nIMP" opacity="1" fill="#000000" fill-opacity="0"></use><g><use xlink:href="#a3Gsa8nIMP" opacity="1" fill-opacity="0" stroke="#000000" stroke-width="1" stroke-opacity="0"></use></g></g><g><use xlink:href="#bt1961p7h" opacity="1" fill="#ffffff" fill-opacity="1"></use><g><use xlink:href="#bt1961p7h" opacity="1" fill-opacity="0" stroke="#000000" stroke-width="1" stroke-opacity="0"></use></g></g><g><use xlink:href="#e1bFAG7oRq" opacity="1" fill="#000000" fill-opacity="0"></use><g><use xlink:href="#e1bFAG7oRq" opacity="1" fill-opacity="0" stroke="#000000" stroke-width="1" stroke-opacity="0"></use></g></g><g><use xlink:href="#j14zMz9kdh" opacity="1" fill="#80725c" fill-opacity="1"></use><g><use xlink:href="#j14zMz9kdh" opacity="1" fill-opacity="0" stroke="#000000" stroke-width="1" stroke-opacity="0"></use></g></g><g><use xlink:href="#hHFBx3KBt" opacity="1" fill="#000000" fill-opacity="0"></use><g><use xlink:href="#hHFBx3KBt" opacity="1" fill-opacity="0" stroke="#000000" stroke-width="1" stroke-opacity="0"></use></g></g><g><use xlink:href="#aJUfrgk96" opacity="1" fill="#a9b4b9" fill-opacity="1"></use><g><use xlink:href="#aJUfrgk96" opacity="1" fill-opacity="0" stroke="#000000" stroke-width="1" stroke-opacity="0"></use></g></g><g><use xlink:href="#a4x1WmFHZ" opacity="1" fill="#000000" fill-opacity="0"></use><g><use xlink:href="#a4x1WmFHZ" opacity="1" fill-opacity="0" stroke="#000000" stroke-width="1" stroke-opacity="0"></use></g></g><g><use xlink:href="#a7uMhlyi0K" opacity="1" fill="#26739c" fill-opacity="1"></use><g><use xlink:href="#a7uMhlyi0K" opacity="1" fill-opacity="0" stroke="#000000" stroke-width="1" stroke-opacity="0"></use></g></g><g><use xlink:href="#bgZyIlpnQ" opacity="1" fill="#000000" fill-opacity="0"></use><g><use xlink:href="#bgZyIlpnQ" opacity="1" fill-opacity="0" stroke="#000000" stroke-width="1" stroke-opacity="0"></use></g></g><g><use xlink:href="#cc26Gskp6" opacity="1" fill="#ffffff" fill-opacity="1"></use><g><use xlink:href="#cc26Gskp6" opacity="1" fill-opacity="0" stroke="#000000" stroke-width="1" stroke-opacity="0"></use></g></g><g><use xlink:href="#b2eXKPUrPr" opacity="1" fill="#000000" fill-opacity="0"></use><g><use xlink:href="#b2eXKPUrPr" opacity="1" fill-opacity="0" stroke="#000000" stroke-width="1" stroke-opacity="0"></use></g></g><g><use xlink:href="#ekIhfvs0s" opacity="1" fill="#f1c831" fill-opacity="1"></use><g><use xlink:href="#ekIhfvs0s" opacity="1" fill-opacity="0" stroke="#000000" stroke-width="1" stroke-opacity="0"></use></g></g><g><use xlink:href="#h7r7Pt5IyL" opacity="1" fill="#000000" fill-opacity="0"></use><g><use xlink:href="#h7r7Pt5IyL" opacity="1" fill-opacity="0" stroke="#000000" stroke-width="1" stroke-opacity="0"></use></g></g><g><use xlink:href="#b6UrzxPri" opacity="1" fill="#272525" fill-opacity="1"></use><g><use xlink:href="#b6UrzxPri" opacity="1" fill-opacity="0" stroke="#000000" stroke-width="1" stroke-opacity="0"></use></g></g><g><use xlink:href="#bm495WASz" opacity="1" fill="#000000" fill-opacity="0"></use><g><use xlink:href="#bm495WASz" opacity="1" fill-opacity="0" stroke="#000000" stroke-width="1" stroke-opacity="0"></use></g></g></g></g></svg>